<?xml version="1.0" standalone="no"?>
<!DOCTYPE svg PUBLIC "-//W3C//DTD SVG 1.1//EN" "http://www.w3.org/Graphics/SVG/1.1/DTD/svg11.dtd" >
<svg xmlns="http://www.w3.org/2000/svg">
<metadata></metadata>
<defs>
<font id="filmotype_luckyregular" horiz-adv-x="1036" >
<font-face units-per-em="2048" ascent="1638" descent="-410" />
<missing-glyph horiz-adv-x="512" />
<glyph unicode="&#xfb01;" horiz-adv-x="954" d="M-209 -358q0 67 23.5 146t84.5 198t120 221.5t176 296.5q70 116 178.5 305t158.5 274q59 101 86.5 130.5t65.5 29.5q74 0 74 -67q0 -38 -21 -80t-110 -185q-26 -42 -130.5 -205t-170.5 -268q93 -78 135 -215q37 32 76.5 78.5t63.5 79.5t68.5 98.5t63.5 91.5 q25 35 52.5 76t39.5 58.5t28 35.5t29 23.5t31 5.5q32 0 56 -31t24 -61q0 -2 -0.5 -4.5t-2 -5.5t-3 -5.5t-4.5 -7t-5.5 -7.5t-7 -9t-8 -10t-9.5 -11.5t-11 -13.5q-205 -252 -205 -389q0 -65 41 -65q84 0 199 126q26 29 51.5 59t39 46.5t26.5 31t22 20t19 5.5q20 0 30.5 -16.5 t10.5 -42.5q0 -38 -105 -162q-97 -113 -175 -175t-153 -62q-74 0 -116.5 54.5t-42.5 129.5v22q-41 -48 -99 -106v-12q0 -129 -49.5 -259t-123.5 -222.5t-160 -151t-158 -58.5q-95 0 -149 76.5t-54 188.5zM-59 -358q0 -103 61 -103q69 0 148 75t132.5 188.5t53.5 215.5 q-58 1 -105 51.5t-47 110.5q0 9 4 29q-247 -420 -247 -567zM979 965q0 58 42.5 97.5t96.5 39.5q35 0 57.5 -22.5t22.5 -65.5q0 -58 -44 -102t-97 -44q-35 0 -56.5 27.5t-21.5 69.5z" />
<glyph unicode="&#xfb02;" horiz-adv-x="985" d="M-209 -358q0 45 10 94t39.5 118.5t53.5 121.5t83.5 156t96 166.5t121.5 205.5q73 119 183 311.5t154 267.5q59 101 86.5 130.5t65.5 29.5q74 0 74 -67q0 -38 -21 -80t-110 -185q-26 -42 -130.5 -205t-170.5 -268q111 -89 145 -250q15 8 70 43v11q0 76 25 164t71.5 180.5 t91.5 168t105 165.5q106 157 179 234t134 77q47 0 87 -50t40 -132q0 -76 -54.5 -187t-142 -226.5t-191.5 -228t-208 -202.5q12 -86 72 -86q117 0 276 178q23 25 45.5 52.5t34 41t23 26t20 17t18.5 4.5q18 0 28.5 -17.5t10.5 -47.5q0 -13 -27.5 -56t-77.5 -99.5t-109.5 -110 t-133 -90.5t-139.5 -37q-49 0 -90 36t-66 99q-46 -34 -78 -52q-1 -128 -51 -257t-124 -221t-159.5 -150t-156.5 -58q-95 0 -149 76.5t-54 188.5zM-59 -358q0 -103 61 -103q69 0 148 75t132.5 188.5t53.5 215.5q-60 1 -105 52t-45 114v23q-245 -419 -245 -565zM692 356 q174 168 313.5 385.5t139.5 315.5q0 14 -6 14q-23 0 -115.5 -120.5t-194 -296t-137.5 -298.5z" />
<glyph unicode="&#xfb03;" horiz-adv-x="1421" d="M-209 -358q0 45 10 94t39.5 118.5t53.5 121.5t83.5 156t96 166.5t121.5 205.5q74 120 179.5 303.5t145.5 251.5q59 101 86.5 130.5t65.5 29.5q73 0 73 -68q0 -38 -21 -79t-110 -185q-34 -55 -132.5 -208.5t-153.5 -240.5q105 -87 145 -254q26 45 189 320 q70 116 178.5 305t158.5 274q59 101 86.5 130.5t65.5 29.5q74 0 74 -67q0 -38 -21 -80t-110 -185q-26 -42 -130.5 -205t-170.5 -268q93 -78 135 -215q37 32 76.5 78.5t63.5 79.5t68.5 98.5t63.5 91.5q25 35 52.5 76t39.5 58.5t28 35.5t29 23.5t31 5.5q32 0 56 -31t24 -61 q0 -2 -0.5 -4.5t-2 -5.5t-3 -5.5t-4.5 -7t-5.5 -7.5t-7 -9t-8 -10t-9.5 -11.5t-11 -13.5q-205 -252 -205 -389q0 -65 41 -65q84 0 199 126q26 29 51.5 59t39 46.5t26.5 31t22 20t19 5.5q19 0 29.5 -16.5t10.5 -42.5q0 -39 -104 -162q-97 -113 -175 -175t-153 -62 q-74 0 -116.5 54.5t-42.5 129.5v22q-41 -48 -99 -106v-12q0 -129 -49.5 -259t-123.5 -222.5t-160 -151t-158 -58.5t-121 44.5t-70 117.5q-69 -75 -141.5 -118.5t-134.5 -43.5q-95 0 -149 76.5t-54 188.5zM-59 -358q0 -103 61 -103q69 0 148 75t132.5 188.5t53.5 215.5 q-60 1 -105 52t-45 114v23q-245 -419 -245 -565zM408 -358q0 -103 61 -103q69 0 148 75t132.5 188.5t53.5 215.5q-60 1 -105 52t-45 114v23q-245 -419 -245 -565zM1446 965q0 58 42.5 97.5t96.5 39.5q35 0 57.5 -22.5t22.5 -65.5q0 -58 -44 -102t-97 -44q-35 0 -56.5 27.5 t-21.5 69.5z" />
<glyph unicode="&#xfb04;" horiz-adv-x="1452" d="M-209 -358q0 45 10 94t39.5 118.5t53.5 121.5t83.5 156t96 166.5t121.5 205.5q74 120 179.5 303.5t145.5 251.5q59 101 86.5 130.5t65.5 29.5q73 0 73 -68q0 -38 -21 -79t-110 -185q-34 -55 -132.5 -208.5t-153.5 -240.5q104 -87 145 -256q47 83 189 322 q73 119 183 311.5t154 267.5q59 101 86.5 130.5t65.5 29.5q74 0 74 -67q0 -38 -21 -80t-110 -185q-26 -42 -130.5 -205t-170.5 -268q111 -89 145 -250q15 8 70 43v11q0 76 25 164t71 180.5t91 168.5t105 165q106 156 179.5 233.5t134.5 77.5q47 0 87 -50t40 -132 q0 -76 -54.5 -187t-142 -226.5t-191.5 -228t-208 -202.5q12 -86 72 -86q117 0 276 178q23 25 45.5 52.5t34 41t23 26t20 17t18.5 4.5q18 0 28.5 -17.5t10.5 -47.5q0 -13 -27.5 -56t-77.5 -99.5t-109.5 -110t-133 -90.5t-139.5 -37q-49 0 -90 36t-66 99q-46 -34 -78 -52 q-1 -128 -51 -257t-124 -221t-159.5 -150t-156.5 -58q-72 0 -121 44.5t-70 117.5q-69 -75 -141.5 -118.5t-134.5 -43.5q-95 0 -149 76.5t-54 188.5zM-59 -358q0 -103 61 -103q69 0 148 75t132.5 188.5t53.5 215.5q-60 1 -105 52t-45 114v23q-245 -419 -245 -565zM408 -358 q0 -103 61 -103q69 0 148 75t132.5 188.5t53.5 215.5q-60 1 -105 52t-45 114v23q-245 -419 -245 -565zM1159 356q174 168 313.5 385.5t139.5 315.5q0 14 -6 14q-23 0 -115.5 -120.5t-194 -296t-137.5 -298.5z" />
<glyph horiz-adv-x="2048" />
<glyph horiz-adv-x="2048" />
<glyph unicode="&#xd;" horiz-adv-x="2048" />
<glyph unicode=" "  horiz-adv-x="512" />
<glyph unicode="&#x09;" horiz-adv-x="512" />
<glyph unicode="&#xa0;" horiz-adv-x="512" />
<glyph unicode="!" horiz-adv-x="583" d="M143 82q0 59 35.5 107.5t95.5 48.5q42 0 73.5 -26t31.5 -73q0 -33 -13.5 -69.5t-45.5 -66.5t-76 -30q-48 0 -74.5 31t-26.5 78zM307 338q0 23 49 135q29 66 83.5 183.5t155 308.5t159.5 262q20 24 32 31.5t31 7.5q55 0 78 -25t23 -57q0 -7 -1.5 -14.5t-3 -14t-6 -16 t-7.5 -15.5t-10 -18.5t-11 -19t-14 -22.5l-15 -24q-54 -85 -96 -152t-85.5 -138t-70 -115.5t-86 -143.5t-98.5 -163q-1 -1 -5.5 -9.5t-7 -12.5t-7.5 -10.5t-10 -9.5t-11 -3q-19 0 -42.5 18t-23.5 37z" />
<glyph unicode="&#x22;" horiz-adv-x="716" d="M500 1028q0 62 108 240q60 95 83.5 121t56.5 26q104 0 104 -135q0 -21 -15.5 -45t-56 -72t-67.5 -84q-100 -139 -140 -139q-23 0 -48 31.5t-25 56.5zM823 1010q0 21 13 53.5t39.5 83t35.5 70.5q47 100 83 137t91 37q109 0 109 -82q0 -14 -7.5 -31.5t-25 -41t-32.5 -42.5 t-44 -54t-47 -57q-10 -12 -46.5 -62t-60.5 -75.5t-40 -25.5q-22 0 -45 32t-23 58z" />
<glyph unicode="#" horiz-adv-x="1017" d="M211 854q0 16 10.5 21.5t44.5 5.5q47 0 187 4q26 63 57 153q-47 -2 -104 -2q-49 0 -81 44.5t-32 70.5q0 16 10.5 22.5t44.5 6.5q53 0 213 4q45 116 51 127q34 61 95 61q22 0 66 -8.5t44 -15.5q0 -6 -4.5 -13t-12.5 -17.5t-12 -17.5q-32 -63 -53 -112h10q115 0 166 -2 q28 83 50 125q34 61 94 61q22 0 66 -8.5t44 -15.5q0 -6 -4 -13t-12 -17.5t-12 -17.5q-4 -9 -26 -53t-34 -73q133 -19 133 -76q0 -40 -5.5 -52t-24.5 -12q-5 0 -27 1t-59.5 2.5t-73.5 2.5l-64 -157q172 -16 172 -82q0 -40 -5.5 -52t-24.5 -12q-7 0 -32.5 1t-74.5 3t-90 4 l-67 -182q-7 -41 -25 -41q-26 0 -77.5 21t-51.5 35q0 10 8.5 32t21.5 49t17 37l21 54h-60q-20 0 -65 -1t-68 -1q-48 -122 -70 -185q-7 -41 -24 -41q-26 0 -77.5 21t-51.5 35q0 10 8.5 32t21.5 49t17 37l18 45q-33 -2 -73 -2q-49 0 -81 44.5t-32 70.5zM610 891h54 q96 0 139 -2q27 67 57 155q-44 3 -90 3q-44 0 -96 -3z" />
<glyph unicode="$" horiz-adv-x="757" d="M160 621q0 21 9 49t24 28q7 0 21 -17.5t35 -42t49 -49t74.5 -42t100.5 -17.5q17 0 29 1.5t27.5 7t23.5 19t8 34.5q0 20 -20 48.5t-48.5 61.5t-57 71.5t-48.5 93t-20 112.5q0 54 28 106.5t69.5 88t87.5 57.5t83 22q24 0 57 -20q77 128 92 148q31 37 62 38q32 0 54 -24.5 t22 -51.5q0 -9 -6.5 -23t-20 -35t-27 -40.5t-35 -50t-36.5 -53.5q71 -84 71 -162q0 -102 -96 -102q-34 0 -51.5 31.5t-21 68.5t-18.5 68.5t-46 31.5q-49 0 -90 -43t-41 -94q0 -36 33.5 -88t73 -97.5t73 -107.5t33.5 -115q0 -55 -55.5 -104t-118.5 -49q-57 0 -115 18 q-92 -151 -111 -174q-21 -26 -36 -26q-28 0 -50 27t-22 55q0 7 4 15t13.5 23.5t17.5 30.5q15 27 63 98q-65 37 -106 84t-41 91z" />
<glyph unicode="%" horiz-adv-x="888" d="M141 154q0 40 260 354t390 448q-21 -8 -62 -8q-79 0 -133 39q-13 -71 -44 -159t-78 -160t-89 -72q-22 0 -58 23.5t-65 56.5q-35 35 -35 112q0 79 42 198.5t92 204.5t75 85q21 0 67 -43t83 -105q29 -19 90.5 -39t128.5 -20q41 0 74.5 9.5t50.5 18.5t20 9t7.5 -8.5t9.5 -26 t8 -37.5q16 -19 16 -43q0 -10 -4 -17.5t-9.5 -12.5t-18.5 -15.5t-23 -19.5q-166 -160 -364 -379t-310 -379q-46 -64 -58.5 -79t-19.5 -15q-12 0 -27.5 31.5t-15.5 48.5zM340 737q0 -22 12 -22q20 0 52.5 71.5t56.5 163t24 144.5q-48 -56 -96.5 -179t-48.5 -178zM485 51 q0 90 42.5 220.5t101.5 226.5t100 96q14 0 39.5 -18.5t42.5 -49.5q46 -40 61 -75.5t15 -77.5q0 -69 -42 -181t-98 -198t-92 -86q-48 0 -109 49.5t-61 93.5zM612 61q0 -11 4 -18.5t7 -7.5q33 0 86 160t53 239q0 17 -2 23q-47 -51 -97.5 -192.5t-50.5 -203.5z" />
<glyph unicode="&#x26;" d="M86 369q0 109 88 184.5t258 112.5q-72 102 -72 163q0 85 86.5 176.5t199 148t194.5 56.5q99 0 167 -70t68 -161q0 -60 -24.5 -119.5t-69.5 -100t-98 -40.5q-25 0 -46.5 26t-21.5 64q0 30 37 93t37 89q0 21 -9.5 30t-33.5 9q-43 0 -116.5 -37.5t-134 -94.5t-60.5 -103 q0 -54 38.5 -88.5t90.5 -49.5q18 -6 43 -12.5t40 -10t31.5 -10t25.5 -14.5t15 -20.5t6 -30.5q0 -24 -25 -49t-57 -25q-17 0 -65.5 11.5t-75.5 11.5q-20 0 -55.5 -4.5t-90.5 -19.5t-101 -39t-79.5 -68t-33.5 -101q0 -49 67.5 -79.5t136.5 -30.5q172 0 232 98q-59 21 -109 51 q-58 30 -79 44t-21 28q0 22 24.5 30.5t77.5 8.5q271 0 349 -64q23 -23 44 -54.5t21 -49.5q0 -17 -17 -23t-57 -6q-182 -245 -405 -245q-100 0 -199 61t-160 151t-61 173z" />
<glyph unicode="'" horiz-adv-x="374" d="M500 1028q0 62 108 240q60 95 83.5 121t56.5 26q104 0 104 -135q0 -21 -15.5 -45t-56 -72t-67.5 -84q-100 -139 -140 -139q-23 0 -48 31.5t-25 56.5z" />
<glyph unicode="(" horiz-adv-x="438" d="M68 6q0 430 155 737q43 83 104 165t119.5 140.5t113.5 105t91 70t47 23.5q38 0 78.5 -31t40.5 -59q0 -5 -0.5 -9t-2 -8.5t-3 -7.5t-6.5 -8t-8.5 -8t-12 -10t-14.5 -12t-19.5 -15t-23.5 -18q-69 -53 -131.5 -117.5t-129 -164t-114.5 -212t-79 -265.5t-31 -320 q0 -30 -7.5 -42t-33.5 -12q-75 0 -104 19.5t-29 58.5z" />
<glyph unicode=")" horiz-adv-x="614" d="M0 -18q0 18 16 36.5t76 73.5q67 60 119 119.5t110 155.5t96 204.5t63.5 264.5t25.5 338q0 32 7.5 43.5t33.5 11.5q137 0 137 -211q0 -129 -29.5 -294t-95.5 -312q-43 -94 -101.5 -181t-114 -147t-109 -105.5t-91 -67.5t-53.5 -22q-41 0 -65.5 30.5t-24.5 62.5z" />
<glyph unicode="*" horiz-adv-x="559" d="M426 1075q0 7 4 12t15.5 10t23 9t35 12.5t43.5 16.5q-12 7 -47 47t-35 55q0 19 18.5 35t36.5 16q7 0 71 -61q6 -6 10 -9.5t10 -10t12 -11.5q26 98 32.5 116.5t16.5 18.5q17 0 42 -10.5t25 -22.5q0 -7 -4.5 -24t-12.5 -49t-15 -62q12 4 40 14.5t51 18.5t33 8 q16 0 24.5 -22t8.5 -47q0 -13 -23 -23t-67.5 -21t-48.5 -12q94 -80 94 -102q0 -18 -16 -36.5t-33 -18.5q-23 0 -98 96q-8 -26 -20 -66q-16 -51 -22.5 -65.5t-19.5 -14.5q-19 0 -42 12t-23 31q0 16 33 119q-18 -4 -48 -12.5t-51 -14.5t-26 -6q-11 0 -19 24t-8 50z" />
<glyph unicode="+" horiz-adv-x="935" d="M162 606q0 16 10.5 22.5t44.5 6.5q50 0 155.5 4t125.5 4q12 34 30 87t27 79t19.5 53t17.5 41q34 62 94 62q22 0 66.5 -9t44.5 -16q0 -6 -4.5 -13t-12.5 -17t-12 -17q-38 -72 -113 -252q131 -3 195.5 -21.5t64.5 -66.5q0 -40 -5.5 -52t-24.5 -12q-6 0 -43.5 3t-103.5 6 t-138 4q-53 -136 -115 -305q-7 -41 -24 -41q-26 0 -77.5 20.5t-51.5 34.5q0 10 8.5 32t21.5 49.5t17 37.5q37 86 65 170q-152 -8 -170 -8q-49 0 -80.5 44t-31.5 70z" />
<glyph unicode="," horiz-adv-x="481" d="M121 -104q0 12 12.5 27t31 33t25.5 30q-61 21 -61 84q0 57 43.5 115.5t95.5 58.5q38 0 80 -39q41 -41 41 -84q0 -16 -10 -45q-25 -72 -87.5 -140.5t-123.5 -68.5q-47 0 -47 29z" />
<glyph unicode="-" horiz-adv-x="804" d="M260 438q0 16 10.5 21.5t44.5 5.5q53 0 146.5 5t122.5 5q45 0 72.5 -1.5t56.5 -6.5t44 -14.5t24.5 -27t9.5 -42.5q0 -39 -6 -50t-25 -11q-7 0 -59.5 5t-94.5 5q-45 0 -129.5 -4t-103.5 -4q-49 0 -81 44t-32 70z" />
<glyph unicode="." horiz-adv-x="460" d="M106 23q0 32 35 103.5t70 109.5q35 40 78 40q37 0 62.5 -21.5t25.5 -72.5q0 -35 -33 -84q-26 -44 -73 -93.5t-72 -49.5q-11 0 -31 5.5t-41 22.5t-21 40z" />
<glyph unicode="/" horiz-adv-x="567" d="M121 82q0 59 226 386.5t437 586.5q87 107 109 130t37 23q8 0 22.5 -15.5t27.5 -45t13 -60.5q0 -9 -4.5 -16t-18 -20t-22.5 -23q-138 -147 -375.5 -456t-334.5 -474q-7 -12 -19 -32q-25 -42 -32.5 -52t-14.5 -10q-11 0 -31 32t-20 46z" />
<glyph unicode="0" horiz-adv-x="1028" d="M74 297q0 172 83 340t228 319q252 263 471 263q102 0 154 -54q137 -103 137 -276q0 -95 -35 -203.5t-94 -208.5t-138.5 -192.5t-165.5 -161t-178.5 -109.5t-173.5 -41q-61 0 -122 31.5t-101 87.5q-65 84 -65 205zM233 315q0 -51 13 -88.5t34 -56t41.5 -27t40.5 -8.5 q94 0 194.5 74t229.5 237q82 105 144.5 250.5t62.5 251.5q0 146 -100 146q-58 0 -122.5 -43t-115.5 -107q-7 -9 -14.5 -19t-12 -15.5l-9 -11t-8 -7.5t-7.5 -2q-17 0 -31 16q-26 -17 -66 -56.5t-88 -101t-89.5 -129.5t-69 -149.5t-27.5 -153.5z" />
<glyph unicode="1" horiz-adv-x="583" d="M23 49q0 67 70 202t237 402q165 261 229 356.5t98 125.5q30 26 78 26q88 0 88 -76q0 -14 -3 -25.5t-12.5 -28t-18.5 -30t-31.5 -44.5t-40.5 -58q-151 -222 -343 -533.5t-229 -367.5q-9 -25 -17.5 -34t-21.5 -9q-28 0 -55 29q-17 19 -22.5 31t-5.5 34z" />
<glyph unicode="2" horiz-adv-x="1110" d="M-2 106q0 56 37.5 118t98 118t144 113t166 103.5t174.5 90.5q53 26 172.5 80t147.5 68q117 59 172 106.5t55 95.5q0 19 -16.5 32t-42.5 18.5t-46 7.5t-40 2q-109 0 -227 -37.5t-222 -106.5q-10 -6 -31.5 -23t-38 -24.5t-36.5 -7.5q-21 0 -35 18.5t-14 45.5q0 44 22 75 q32 45 133 99q210 119 365 119q98 0 159.5 -21.5t125.5 -79.5q96 -86 96 -178q0 -61 -32 -115.5t-97 -102.5t-144 -88.5t-190 -86.5q-116 -49 -193.5 -84.5t-167 -83.5t-152 -97.5t-99.5 -101.5q83 0 209.5 12.5t173.5 12.5q114 0 157 -23q45 -20 74 -63t29 -74 q0 -13 -6.5 -24t-18.5 -11q-5 0 -26 2.5t-63 5t-97 2.5q-260 0 -453 -38q-22 -4 -65 -15.5t-60 -11.5q-25 0 -39 14.5t-18 30.5q-41 36 -41 108z" />
<glyph unicode="3" horiz-adv-x="1024" d="M-6 117q0 39 26 39l64 -18q64 -17 131 -17q105 0 195.5 20t151.5 51t105.5 70t64.5 76.5t20 69.5q0 120 -301 120q-123 0 -123 80q0 32 13.5 53t37.5 21h35q67 0 187.5 30.5t221.5 78.5q133 62 178.5 100.5t45.5 85.5q0 32 -32 55t-100 23q-83 0 -185 -31t-177 -72 q-24 -14 -43 -30.5t-29 -23.5t-22 -7q-31 0 -49.5 23t-18.5 49q0 58 71 122t175 106t194 42q138 0 239 -92.5t101 -202.5q0 -70 -34.5 -129.5t-94.5 -102t-130 -71.5t-152 -49q81 -34 122.5 -93.5t41.5 -127.5q0 -97 -59.5 -179t-153.5 -132.5t-202.5 -78.5t-213.5 -28 q-145 0 -223 42.5t-78 127.5z" />
<glyph unicode="4" horiz-adv-x="1069" d="M66 377q0 69 100 181t241 223.5t318 230.5q303 209 371 209q30 0 63.5 -16t54.5 -38q23 -25 38.5 -58.5t15.5 -59.5q0 -11 -8.5 -23t-32 -40.5t-45.5 -59.5q-39 -55 -140 -192.5t-157 -217.5q78 4 90 4q44 0 84.5 -29t40.5 -55q0 -13 -0.5 -20.5t-3 -18.5t-9.5 -16.5 t-18 -5.5q-102 0 -293 -17q-123 -181 -229 -389q-5 -65 -64 -65q-44 0 -76 35.5t-32 83.5q0 30 34.5 91.5t135.5 211.5q-86 -14 -175.5 -33t-138.5 -30t-63 -11q-33 0 -67.5 42.5t-34.5 82.5zM311 461q142 21 348 37l367 536q-170 -88 -396.5 -271.5t-318.5 -301.5z" />
<glyph unicode="5" horiz-adv-x="1030" d="M29 121q0 35 30 35q20 0 43 -27q47 -14 148 -14q109 0 216.5 41t184.5 103t124.5 135.5t47.5 137.5q0 74 -125 74q-87 0 -153.5 -15t-95.5 -33t-53 -33t-36 -15q-51 0 -89 44.5t-38 80.5q0 11 5.5 23.5t22 34t36 46t57 73t76.5 101.5q215 290 252 308q27 15 199.5 32 t234.5 17q44 0 78.5 -17t51.5 -42t25.5 -47.5t8.5 -39.5q0 -51 -76 -51q-6 0 -33 2t-43 2q-191 0 -354 -39q-23 -23 -49 -50t-54.5 -60t-48 -55.5t-52 -61t-44.5 -51.5q57 8 127 8q89 0 147.5 -20.5t106.5 -67.5t70 -98.5t22 -85.5q0 -64 -26.5 -130.5t-74 -126.5t-116 -113 t-149 -91.5t-178 -61t-197.5 -22.5q-109 0 -156 31q-27 19 -50 65.5t-23 73.5z" />
<glyph unicode="6" horiz-adv-x="958" d="M51 250q0 109 48.5 232t126.5 232t178 210t202 173.5t199.5 116t169.5 43.5q81 0 131 -36q21 -17 30 -25t18 -21.5t9 -27.5q0 -13 -6 -19.5t-20 -9t-30.5 -3t-45.5 -4.5t-57 -11q-120 -31 -269 -126.5t-258 -230.5q113 66 193 66q105 0 184.5 -81t79.5 -200 q0 -100 -57 -206.5t-145 -188t-198.5 -134t-211.5 -52.5q-65 0 -125.5 32.5t-103 104t-42.5 166.5zM211 223q0 -121 119 -121q69 0 150 49t144.5 118.5t106.5 147.5t43 134q0 47 -31 80t-102 33q-95 0 -178.5 -45t-137 -113t-84 -143t-30.5 -140z" />
<glyph unicode="7" horiz-adv-x="905" d="M2 55q0 32 47.5 93t151.5 174q152 167 312 331t254 259t118 124q-54 4 -84 4q-211 0 -406 -41q-17 -3 -39 -11.5t-30 -8.5q-31 0 -31 61q0 44 20.5 77.5t57.5 45.5q60 19 245 34t279 15q78 0 117.5 -11t62.5 -52q49 -40 49 -109q0 -12 -2.5 -21.5t-5.5 -16.5t-14.5 -19.5 t-20 -21.5t-32 -31.5t-41.5 -40.5q-47 -47 -178.5 -173.5t-228 -221.5t-225.5 -235.5t-224 -264.5q-1 -27 -14 -40t-29 -13q-36 0 -72.5 35t-36.5 79z" />
<glyph unicode="8" horiz-adv-x="950" d="M33 217q0 163 305 383q-53 92 -53 193q0 90 57 176t141.5 145t180.5 95t176 36q132 0 200 -46.5t68 -121.5q0 -29 -4 -45q59 23 96 23q17 0 25 -18.5t8 -41.5q0 -21 -4 -34.5t-13 -19t-14.5 -7t-15.5 -2.5q-261 -123 -656 -391l-14 -11q99 -91 132.5 -145.5t33.5 -128.5 q0 -119 -97.5 -215t-232.5 -96q-41 0 -82.5 8t-85 28t-76.5 50t-54 78t-21 108zM154 170q0 -40 31.5 -61t84.5 -21q106 0 186.5 61t80.5 136q0 43 -23.5 83t-85.5 103q-274 -195 -274 -301zM397 709q0 -30 13 -56l139 90q273 168 455 248q10 20 10 56q0 61 -74 61 q-75 0 -169.5 -34t-177.5 -88t-139.5 -129t-56.5 -148z" />
<glyph unicode="9" horiz-adv-x="978" d="M31 51q0 21 16.5 28t69.5 7q69 0 182 49t232.5 138t187.5 186q-80 -68 -184 -68q-113 0 -190 84t-77 184q0 139 99 279t240.5 225.5t266.5 85.5q123 0 198 -88.5t75 -220.5q0 -110 -49 -232.5t-127.5 -230.5t-179 -207.5t-202.5 -170.5t-199 -113.5t-167 -42.5 q-65 0 -128.5 35t-63.5 73zM430 653q0 -54 30.5 -86t88.5 -32q84 0 167 36t144 103q42 48 86.5 138t44.5 163q0 60 -33 90.5t-86 30.5q-77 0 -183 -76t-182.5 -182t-76.5 -185z" />
<glyph unicode=":" horiz-adv-x="546" d="M137 92q0 25 15 68t34 76q36 65 76 65q45 0 86 -34t41 -58q0 -20 -39 -100q-59 -113 -104 -113q-28 0 -68.5 28t-40.5 68zM305 453q0 60 51 137q44 63 86 63q33 0 73 -36t40 -68q0 -27 -39 -86q-67 -98 -119 -98q-29 0 -60.5 21t-31.5 67z" />
<glyph unicode=";" horiz-adv-x="532" d="M82 -113q0 14 29.5 45.5t29.5 49.5q0 8 -10 35t-10 42q0 41 44 111t83 70q27 0 84 -39q41 -28 41 -68q0 -37 -8 -57q-26 -72 -100 -142.5t-134 -70.5q-49 0 -49 24zM285 367q0 28 14.5 69.5t40.5 77.5q46 64 92 64q25 0 67 -34.5t42 -60.5q0 -37 -43 -94 q-30 -43 -65.5 -71.5t-57.5 -28.5q-12 0 -30 5t-39 24t-21 49z" />
<glyph unicode="&#x3c;" horiz-adv-x="854" d="M127 496q0 49 162 156.5t351.5 194.5t264.5 87q22 0 35.5 -19.5t13.5 -37.5q0 -30 -26.5 -52t-98.5 -55q-141 -62 -307 -156t-166 -122q0 -16 71.5 -64.5t164.5 -103.5t108 -66q10 -7 23 -16t19 -13t12.5 -10t9 -12t2.5 -14t-6.5 -19.5t-28 -23t-53.5 -11.5 q-34 0 -242 109q-125 67 -217 140t-92 108z" />
<glyph unicode="=" horiz-adv-x="1017" d="M162 442q0 16 10.5 21.5t44.5 5.5q51 0 163 5t152 5q48 0 82 -0.5t73.5 -2t66 -4t54.5 -7t46 -11t33 -16t21.5 -21.5t6.5 -28q0 -40 -5.5 -51.5t-24.5 -11.5q-6 0 -49.5 3t-119 6t-159.5 3q-72 0 -170.5 -5t-112.5 -5q-49 0 -80.5 44t-31.5 70zM244 760q0 16 10.5 22 t44.5 6q51 0 163 4.5t152 4.5q48 0 82 -0.5t73.5 -2t66 -4t54.5 -7t46 -11t33 -16t21.5 -21.5t6.5 -28q0 -40 -5.5 -52t-24.5 -12q-6 0 -49.5 3t-119 6t-159.5 3q-72 0 -170.5 -5t-112.5 -5q-49 0 -80.5 44.5t-31.5 70.5z" />
<glyph unicode="&#x3e;" horiz-adv-x="878" d="M55 197q0 30 26.5 51t98.5 53q145 66 310 159.5t165 121.5q0 16 -71.5 64t-164.5 103t-108 66l-16.5 11l-15 10t-11.5 8t-10 8.5t-6.5 8t-4.5 9t-1 9.5q0 18 21 36.5t67 18.5q33 0 239 -109q127 -67 219.5 -139.5t92.5 -107.5q0 -49 -162 -156.5t-352.5 -195 t-266.5 -87.5q-21 0 -35 20t-14 38z" />
<glyph unicode="?" horiz-adv-x="915" d="M117 92q0 50 48.5 95.5t102.5 45.5q41 0 73 -23t32 -63q0 -60 -48 -117t-108 -57q-38 0 -69 38t-31 81zM305 385q0 73 87.5 162.5t254.5 163.5q114 51 194 93t126.5 73.5t71.5 61t32.5 51.5t7.5 50q0 42 -30.5 60t-73.5 18q-70 0 -160 -46t-159.5 -114t-84.5 -129 q0 -23 -9.5 -33t-37.5 -10q-32 0 -56 15.5t-35 39.5t-16 45.5t-5 39.5q0 50 52.5 108.5t131.5 112.5q180 131 383 131q117 0 191.5 -78t74.5 -164q0 -45 -10 -85t-31 -75t-44.5 -64t-60.5 -57t-68.5 -49t-78.5 -45t-81 -39.5t-85 -37.5q-72 -31 -113 -49t-86 -39.5 t-67.5 -36t-44.5 -32t-31 -34t-14.5 -35.5t-5.5 -43q0 -53 -33 -53q-29 0 -57.5 36t-28.5 87z" />
<glyph unicode="@" horiz-adv-x="1619" d="M90 219q0 164 62 316t165.5 266t233.5 199.5t270.5 129.5t272.5 44q107 0 197.5 -31t161 -92.5t110 -163.5t39.5 -236q0 -120 -39.5 -239.5t-109.5 -215.5t-176 -156t-228 -60q-67 0 -105.5 53t-38.5 127q0 15 4 35q-26 -33 -54.5 -65t-69.5 -68.5t-87 -59t-88 -22.5 q-52 0 -113 77.5t-61 143.5q0 84 68 197.5t164.5 210t209 164t193.5 67.5q68 0 107 -59.5t39 -151.5q0 -20 -3 -41q35 -20 35 -41q0 -6 -12 -19t-40 -44t-56 -68q-92 -123 -92 -211q0 -24 11 -41t34 -17q73 0 139 43.5t110.5 112.5t70.5 155.5t26 172.5q0 187 -100 281 t-261 94q-103 0 -216 -37.5t-219 -110t-190.5 -169t-136 -225.5t-51.5 -267q0 -166 91 -271.5t266 -105.5q58 0 113 16t87.5 35t58.5 35t33 16q11 0 18 -14t7 -33q0 -27 -44.5 -62.5t-130.5 -64.5t-181 -29q-149 0 -263 68.5t-172.5 181.5t-58.5 250zM594 213q0 -51 47 -51 q41 0 129 81.5t165.5 176.5t117.5 158q-3 37 -12.5 53t-34.5 16q-41 0 -111.5 -47t-137 -112.5t-115 -143t-48.5 -131.5z" />
<glyph unicode="A" horiz-adv-x="970" d="M-78 82q0 31 17 64.5t33.5 53.5t52.5 58q128 137 298 300t276.5 259.5t340.5 306.5q3 3 9 8q89 85 114 85q52 0 78 -37q26 -8 43.5 -16t38.5 -21t32 -32t11 -42q0 -17 -75.5 -193t-177 -426t-149.5 -409q-1 -5 -4.5 -20t-6.5 -25.5t-7.5 -22t-12 -18t-16.5 -6.5 q-33 0 -74 39.5t-41 85.5q0 58 74 254q-128 -4 -282 -28t-248 -52q-113 -110 -178 -185q-9 -11 -21 -26.5t-19.5 -25t-16 -19.5t-15 -14.5t-12.5 -4.5q-17 0 -39.5 40t-22.5 69zM461 453q3 0 375 32q34 88 96 245.5t80 205.5q-40 -28 -210 -176.5t-341 -306.5z" />
<glyph unicode="B" horiz-adv-x="1085" d="M43 195q0 39 106 235t240 399q222 333 252 349q12 6 35 6l29 -2q189 71 329 71q57 0 97.5 -32.5t78.5 -102.5q58 -101 58 -155q0 -86 -113.5 -179.5t-277.5 -138.5q105 -26 156.5 -90.5t51.5 -146.5q0 -84 -66.5 -158t-165 -123t-213.5 -85t-211.5 -52.5t-158.5 -16.5 q-54 0 -79 21.5t-39 64.5q-41 26 -75 65.5t-34 70.5zM233 195q2 -19 48 -19q107 0 206.5 20t172.5 51.5t128 71t83 79.5t28 75q0 45 -38 70.5t-136 25.5q-137 0 -315 -51q-143 -234 -177 -323zM535 719q20 -10 61 -10q85 0 200 52t196 121.5t81 118.5q0 43 -86 43 q-63 0 -154.5 -26.5t-132.5 -44.5z" />
<glyph unicode="C" horiz-adv-x="931" d="M170 358q0 98 47 206t122.5 201t171 179t190.5 146.5t183 96.5t148 36q34 0 57.5 -13t53.5 -51q45 -31 63.5 -58.5t18.5 -64.5q0 -88 -105 -233q-70 -93 -102 -123.5t-51 -30.5q-30 0 -51 24t-21 64q0 60 26 146t56 147q-84 -19 -191.5 -92.5t-203 -173t-161 -224 t-65.5 -233.5q0 -145 197 -145q68 0 148.5 24.5t148 59.5t124.5 70.5t93.5 60t40.5 24.5q8 0 8 -12q0 -15 -14 -43v-35q-4 -23 -35 -63t-87.5 -87.5t-124.5 -89.5t-156 -70t-173 -28q-155 0 -255.5 116t-100.5 269z" />
<glyph unicode="D" horiz-adv-x="1067" d="M72 166q0 62 134.5 310t277 471t167.5 235q4 2 19 2l22 -2q11 2 70.5 20t120 30.5t114.5 12.5q66 0 106 -17.5t77 -68.5q82 -106 82 -254q0 -253 -213 -506q-112 -132 -267.5 -233t-286 -147t-219.5 -46q-35 0 -64 17.5t-60 72.5q-36 22 -58 50t-22 53zM258 195 q9 -27 57 -27q104 0 243 80.5t255.5 193.5t198.5 243.5t82 223.5q0 69 -42 101t-112 32q-57 0 -129 -21t-109 -46q-57 -72 -230.5 -373t-213.5 -407z" />
<glyph unicode="E" horiz-adv-x="1011" d="M14 145q0 62 271 492q272 426 317 461q12 4 29 4l18 -2q97 27 261.5 57.5t250.5 30.5q29 0 58 -29q55 -55 55 -102q0 -30 -13 -39.5t-40 -9.5q-91 0 -293.5 -39.5t-257.5 -61.5q-46 -48 -156 -227q7 1 175.5 20t215.5 19q42 0 64.5 -11t36.5 -38q18 -48 18 -62 q0 -26 -16 -35.5t-62 -19.5q-46 -9 -187 -34t-240.5 -45.5t-145.5 -37.5q-98 -176 -144 -274q127 19 323 38t273 19q58 0 88.5 -9.5t47.5 -33.5q20 -30 20 -47q0 -31 -18 -43t-70 -18q-187 -27 -341 -58.5t-228.5 -54t-127 -38t-69.5 -15.5q-31 0 -50.5 23t-29.5 83 q-33 73 -33 137z" />
<glyph unicode="F" horiz-adv-x="876" d="M29 92q0 63 254 475t350 543q8 12 18 12q7 0 25 -12q98 20 235.5 34.5t231.5 14.5q59 0 76.5 -3.5t33.5 -22.5q56 -60 56 -103q0 -29 -9 -35q-2 -2 -9 -3.5t-21.5 -3t-29.5 -2.5t-44 -3t-55 -4q-87 -5 -207.5 -23t-204.5 -41q-48 -57 -156 -235q216 18 322 18 q66 0 93.5 -34.5t27.5 -83.5q0 -35 -12 -41q-3 -1 -82 -9q-86 -4 -245.5 -24t-234.5 -43l-184 -324q-21 -36 -42.5 -75t-32.5 -58t-21.5 -37t-18 -24t-14.5 -6q-29 0 -64.5 61t-35.5 92z" />
<glyph unicode="G" horiz-adv-x="1187" d="M162 412q0 113 51.5 225t135 201.5t189 168t213.5 130.5t208 82t174 30q28 0 48 -2.5t44 -10.5t42.5 -26t30.5 -47q62 -51 62 -102q0 -41 -53.5 -106t-111 -111.5t-75.5 -46.5q-30 0 -47.5 22.5t-17.5 63.5q0 79 63 196q-59 -2 -140.5 -29.5t-169 -75t-173 -115.5 t-153.5 -145t-110 -170t-42 -184q0 -87 59 -140.5t174 -53.5q72 0 155 32.5t153.5 81.5t127 102t88.5 99q-22 2 -34 2q-83 0 -246.5 -20.5t-171.5 -20.5q-35 0 -35 37q0 10 2.5 19t5.5 16.5t4 9.5q26 72 99 84q257 45 428 45q40 0 58 -0.5t38 -5.5t29 -14q36 -33 36 -78 t-58 -129.5t-138 -159.5q-302 -293 -565 -293q-93 0 -168.5 44t-119 112t-66.5 141.5t-23 141.5z" />
<glyph unicode="H" horiz-adv-x="1024" d="M-25 92q0 64 566 920q97 147 125 147q34 0 61 -37q31 -39 31 -59q0 -15 -6 -27l-224 -362q148 13 420 31q85 142 271 421q21 31 29 41t25.5 18.5t45.5 8.5q15 0 25.5 -13.5t15 -34t6.5 -35.5t2 -26q0 -12 -21 -48.5t-69 -115t-110 -184t-159 -287.5t-200 -391 q-7 -30 -26 -58t-40 -28q-39 0 -84 37t-45 76q0 7 3 17.5t9 24.5t12 26.5t16 32t16 30.5t17 31.5t15 27.5q33 64 132 236q-212 -4 -433 -47q-122 -200 -264 -442q-4 -8 -14 -33t-18.5 -37t-18.5 -12q-34 0 -72.5 45t-38.5 106z" />
<glyph unicode="I" horiz-adv-x="403" d="M-25 49q0 49 97 240q82 164 215.5 387t208.5 336q45 68 80 97.5t79 29.5q37 0 65 -17t28 -37q0 -10 -9.5 -26.5t-24.5 -38t-20 -29.5q-125 -188 -296 -469.5t-294 -503.5q-4 -8 -10 -24t-10 -24t-9 -17.5t-10 -14t-10 -4.5q-18 0 -49 42t-31 73z" />
<glyph unicode="J" horiz-adv-x="931" d="M68 362q0 34 23 63.5t52 29.5q33 0 33 -60q50 -94 116.5 -153.5t131.5 -59.5q56 0 111 42.5t112.5 128.5t109.5 176.5t131 226.5t148 239q-77 -14 -147 -31.5t-105.5 -27.5t-48.5 -10q-65 0 -65 98q0 35 15 54t46 30q66 26 277.5 56t332.5 30q73 0 98 -31t25 -78 q0 -22 -14 -30q-7 -4 -25.5 -7t-74.5 -8.5t-113 -13.5q-52 -59 -117.5 -188t-142.5 -286t-139 -253q-217 -326 -453 -326q-85 0 -148 52.5t-112 154.5q-23 45 -40 100t-17 82z" />
<glyph unicode="K" horiz-adv-x="884" d="M-25 104q0 36 23.5 81t153.5 262q19 33 31 52.5t32.5 53.5t38.5 65q115 194 187 308.5t112 164.5t56 61t36 11q28 0 69.5 -18t41.5 -31q0 -6 -20 -36t-82 -130t-138 -235q389 272 410 286q169 117 224 150t79 33q21 0 33.5 -11t16 -23t7.5 -36q1 -4 6.5 -14.5t5.5 -16.5 q0 -9 -11.5 -19t-59.5 -43q-81 -56 -150 -106q-247 -178 -454 -354q56 -157 114 -289t83.5 -186.5t25.5 -75.5q0 -17 -35 -37t-61 -20q-31 0 -56.5 35.5t-124.5 206.5q-121 214 -170 305q-35 -64 -102 -184t-106.5 -193t-63.5 -125q-3 -39 -29 -39q-22 0 -65 37 q-58 48 -58 110z" />
<glyph unicode="L" horiz-adv-x="817" d="M-20 84q0 40 188.5 360.5t384.5 604.5q40 61 68 84.5t57 23.5q24 0 58 -29t34 -55q0 -13 -27 -53q-212 -319 -395 -651q-78 -138 -119 -228q197 49 396 49q84 0 108.5 -11t44.5 -56q19 -34 19 -51q-1 -27 -12.5 -34t-53.5 -13q-10 -1 -16 -2q-171 -27 -471 -101 q-25 -6 -59.5 -16t-55.5 -15.5t-33 -5.5q-19 0 -28 9q-19 12 -47.5 51.5t-28.5 54.5q0 22 14 43q-26 11 -26 41z" />
<glyph unicode="M" horiz-adv-x="1261" d="M-35 76q0 41 71 155t312 453q356 508 410 508q19 0 35 -8q31 14 69 14q24 0 47 -28.5t23 -51.5q0 -11 -5.5 -22t-17.5 -38t-27.5 -72t-39 -144t-47.5 -234q72 73 180.5 186t175 181t139.5 139.5t119 105t70 33.5q23 0 41 -13.5t43 -43.5q39 -20 56 -35.5t17 -36.5 q0 -7 -2.5 -13.5t-12 -22.5t-23 -37.5t-39.5 -65.5t-57.5 -98.5t-81.5 -145t-107 -196.5q-53 -98 -115.5 -224.5t-101.5 -209.5t-45 -93q-30 -43 -80 -43q-23 0 -53 37q-25 38 -25 45q0 31 59.5 159t148 309.5t128.5 275.5q-133 -126 -245 -243.5t-172 -188.5t-105.5 -126.5 t-68.5 -78.5t-38 -23q-39 0 -47 35q-18 11 -18 33q0 18 18 99.5t49.5 225t54.5 259.5q-87 -100 -224.5 -301t-258.5 -398q-25 -40 -46.5 -80.5t-29.5 -53.5t-14 -13q-36 0 -77.5 38.5t-41.5 90.5z" />
<glyph unicode="N" horiz-adv-x="989" d="M-27 68q0 22 16.5 61t53 102t66 111t85.5 137t82 131q73 114 175 274q121 189 147 225t45 36q8 0 24 -4t19 -4q44 22 70 22q24 0 24 -37q0 -70 -10 -361t-10 -335q31 53 99 175t123 217.5t117 197.5t108 159.5t69 57.5q12 0 21.5 -4t15.5 -10t20 -21q33 -36 33 -55 q0 -9 -2.5 -17.5t-5.5 -13.5t-13.5 -22t-17.5 -29q-239 -399 -563 -1067q-13 -21 -41 -21q-40 0 -72 47q-43 24 -53 54q-6 34 -6 215q0 107 3 295t3 209q-101 -167 -379 -660q-20 -35 -38 -69t-27.5 -53.5t-18.5 -37.5t-14 -26.5t-11.5 -15t-13 -8t-16.5 -1.5q-46 0 -78 76 q-4 7 -10 18t-8.5 16t-5.5 12t-4 12.5t-1 11.5z" />
<glyph unicode="O" d="M162 338q0 92 30.5 195t83.5 200.5t129 187t161.5 156t186.5 106.5t199 40q64 0 120 -47t88 -121.5t32 -155.5q0 -148 -70 -316t-174 -301t-232 -221t-237 -88q-105 0 -188 86q-71 69 -100 135.5t-29 143.5zM354 344q0 -68 33 -113t105 -45q86 0 182.5 76.5t171 188 t123.5 242t49 233.5q0 80 -31 116.5t-78 36.5q-25 0 -57 -12q-60 -24 -108.5 -61t-71.5 -66t-42 -50.5t-28 -21.5q-6 0 -12 6q-88 -92 -162 -243t-74 -287z" />
<glyph unicode="P" horiz-adv-x="948" d="M-27 45q0 56 52 154t251 424q192 315 233 375.5t60 60.5q5 0 11.5 -2t12.5 -5t7 -3q81 45 180.5 79.5t177.5 34.5q90 0 170 -92q48 -55 73.5 -109t25.5 -92q0 -77 -76 -167.5t-183.5 -161.5t-229.5 -118.5t-210 -47.5q-115 0 -153 71q-182 -313 -273 -489 q-15 -26 -22.5 -33.5t-18.5 -7.5q-29 0 -58.5 38t-29.5 91zM457 584q17 -25 73 -25q76 0 155.5 25t144 64t116.5 84.5t80.5 89.5t28.5 75q0 78 -123 78q-65 0 -147 -23t-130 -53q-78 -112 -198 -315z" />
<glyph unicode="Q" horiz-adv-x="1038" d="M162 375q0 104 44 224t120 228.5t170 198t203 142.5t210 53q55 0 100.5 -20t76 -52.5t51 -75.5t30 -88t9.5 -92q0 -201 -119 -438t-291 -371q34 -35 76.5 -78t60.5 -61t37 -40t25 -34.5t6 -24.5q0 -23 -15 -47t-41 -24q-14 0 -52.5 20t-112.5 70.5t-164 122.5 q-66 -15 -101 -15q-53 0 -96.5 20t-99.5 75q-42 41 -67 76t-42.5 94t-17.5 137zM354 338q0 -80 27 -132t90 -52h16q28 62 41 75t33 13q15 0 62 -35q97 68 188 199.5t144 269t53 233.5q0 69 -26.5 116.5t-84.5 47.5q-80 0 -177.5 -74t-177.5 -182.5t-134 -240t-54 -238.5z " />
<glyph unicode="R" horiz-adv-x="1075" d="M-14 61q0 67 149 337t303.5 513t179.5 260q10 5 23 5q7 0 21 -2.5t18 -2.5q135 57 220.5 81t164.5 24q46 0 79.5 -15.5t53.5 -37.5t47 -64q5 -7 19 -24.5t19 -26t13.5 -24t11.5 -32t3 -36.5q0 -65 -39 -132t-102.5 -124.5t-149.5 -112t-175 -97t-183 -77.5 q133 -115 268 -276q125 -142 125 -185q0 -16 -7.5 -25.5t-25.5 -21.5q-32 -18 -45 -18q-12 0 -31.5 18t-83 77t-143.5 124q-34 27 -81.5 65t-67.5 54.5t-49 39t-44 33.5t-32.5 22.5t-32.5 20.5q-51 -8 -74 -10l-72 -133q-57 -106 -90 -180.5t-42 -99.5t-17 -35 q-7 -11 -23 -11q-30 0 -69 46.5t-39 82.5zM440 573h17q74 0 190 49t220 117t179.5 145t75.5 128q0 23 -29 37t-87 14q-68 0 -162.5 -32.5t-169.5 -78.5q-48 -50 -234 -379z" />
<glyph unicode="S" horiz-adv-x="1067" d="M168 430q0 30 13 59t28 29q12 0 19 -9.5t31 -47t60 -80.5q197 -236 381 -236q66 0 89.5 27.5t23.5 71.5q0 36 -33.5 95t-81.5 128t-96 144t-81.5 163.5t-33.5 167.5q0 83 42 150.5t110.5 109t151.5 64t170 22.5q164 0 254 -93t90 -280q0 -46 -9 -86t-36 -71t-68 -31 q-40 0 -68.5 34t-39.5 78t-11 89q0 59 6 86q0 39 -42.5 66.5t-116.5 27.5q-41 0 -81.5 -13t-76 -37.5t-57 -66.5t-21.5 -94q0 -55 33.5 -127t81 -144t95 -146t81 -153t33.5 -145q0 -91 -87 -158t-231 -67q-124 0 -245.5 68t-199 178.5t-77.5 226.5z" />
<glyph unicode="T" horiz-adv-x="628" d="M221 43q0 39 55 147q64 122 197 350t254 423q-96 -22 -191.5 -46t-135 -33.5t-52.5 -9.5q-41 0 -41 70q-6 10 -6 33q0 59 109 90q136 47 428.5 95t392.5 48q112 0 112 -88q0 -15 -3 -24.5t-13.5 -14.5t-15 -6.5t-24.5 -2.5t-25 -1l-312 -61q-71 -128 -188.5 -328.5 t-203.5 -354t-155 -298.5q-2 -9 -6 -24l-6 -22.5t-6.5 -18.5t-8.5 -16t-11 -9t-15 -4q-13 0 -33 6t-42 17.5t-38 33.5t-16 49z" />
<glyph unicode="U" horiz-adv-x="960" d="M109 240q0 60 28 137q51 144 203 366q69 93 229 291q3 4 14 20t18.5 22t24 16t41.5 14t60 4q80 0 80 -37q0 -7 -2.5 -14t-11.5 -19t-16.5 -21t-27 -31t-34.5 -40q-161 -195 -283.5 -398.5t-122.5 -301.5q0 -72 70 -72q135 0 360 281q57 73 112 156t86.5 137t92.5 161 t90 158q19 30 43 40.5t62 10.5q39 0 52.5 -7.5t35.5 -35.5q14 -20 14 -49q0 -6 -2.5 -11t-5 -8t-11 -11t-14.5 -15q-117 -185 -216 -353.5t-146 -252.5t-164 -299q-10 -19 -20.5 -43t-16 -35.5t-13.5 -23.5t-16.5 -16.5t-21.5 -4.5q-64 0 -64 131q0 17 1 42t1 32 q-78 -86 -145.5 -136.5t-138.5 -50.5q-48 0 -91.5 27.5t-70.5 77.5q-39 70 -51 99t-12 63z" />
<glyph unicode="V" horiz-adv-x="638" d="M74 96q0 36 17 133t66 310t124 495q6 21 11 33.5t15.5 27t29.5 21t46 6.5q33 0 53.5 -22.5t20.5 -52.5q0 -19 -15 -41q-21 -68 -73.5 -277.5t-100.5 -449.5q359 489 613 794q109 129 130 147q13 10 19 11q6 0 18.5 -1t18.5 -1q8 0 22 2t21 2q11 0 29 -17.5t18 -31.5 q0 -7 -1.5 -12.5t-7 -14.5t-13 -18.5t-23 -29.5t-33 -41.5t-48 -59.5t-62.5 -80q-312 -404 -637 -887q-11 -18 -22.5 -37.5t-17.5 -29.5t-13.5 -21.5t-11.5 -16t-9 -9t-10 -6t-12 -1.5q-39 0 -80 49q-29 18 -47 34.5t-25 33.5t-8.5 28t-1.5 31z" />
<glyph unicode="W" horiz-adv-x="1183" d="M74 55q0 63 55 219t96 252q169 417 242 584q18 41 86 41q27 0 57.5 -13t30.5 -34q0 -14 -54 -141q-42 -97 -73 -170q-89 -209 -152 -418q33 35 81 91t126 149t119 141q51 59 94.5 112.5t62 76t29.5 32.5q14 14 44 14q20 0 38 -18q4 -5 9.5 -10.5l8.5 -8.5t5 -6.5t2 -7.5 q0 -3 -34 -111.5t-74.5 -259.5t-53.5 -247q21 26 125.5 158t201 250.5t177.5 213.5q141 169 195 218.5t88 49.5q4 0 7 -1t5.5 -2t4.5 -4t4 -5.5t4 -7t4 -8.5t5 -11t5 -12q18 -31 18 -39q0 -9 -9 -22t-41 -53q-145 -182 -333 -433q-107 -144 -200 -276t-137 -197.5 t-80.5 -117.5t-54 -68t-34.5 -16q-33 0 -57 32q-78 44 -78 119q0 56 23.5 210.5t44.5 252.5q-117 -138 -215.5 -267.5t-170.5 -230.5t-100 -137q-3 -10 -20 -10q-21 0 -37.5 16t-24.5 39q-7 5 -19.5 12.5t-17 11t-12 10.5t-10 14t-4.5 18t-2 26z" />
<glyph unicode="X" horiz-adv-x="946" d="M-12 72q0 31 86.5 115.5t187.5 168.5l320 265q-13 157 -13 329q0 40 1.5 63t7.5 49t20.5 38t38.5 12q28 0 40.5 -1t24 -8.5t11.5 -23.5q3 -150 22 -336q199 161 424 328q37 26 59.5 40.5t57.5 29t63 14.5q24 0 46 -23.5t22 -58.5q0 -10 -4 -14q-120 -70 -645 -508 q41 -308 67 -449q1 -12 4.5 -35.5t6 -42t2.5 -30.5q0 -10 -7 -24.5t-18 -14.5q-40 0 -90 29t-57 57q-41 127 -68 375q-251 -211 -420 -373q-12 -11 -49.5 -48.5t-57 -55t-24.5 -17.5q-8 0 -12 4q-19 12 -33 61.5t-14 84.5z" />
<glyph unicode="Y" horiz-adv-x="614" d="M35 -57q0 63 61.5 150.5t253.5 305.5q-12 228 -12 367q0 86 7 203.5t20 140.5q18 31 57 31q15 0 53 -25q27 -18 34 -26.5t7 -20.5q0 -8 -2 -30.5t-4 -72t-2 -120.5q0 -38 4 -268q270 296 419.5 451t178.5 155q21 0 41 -27.5t20 -44.5q0 -8 -9 -23t-30.5 -40.5t-41 -48 t-55.5 -63.5t-60 -69q-518 -599 -703 -837q-31 -39 -57.5 -75t-37 -52t-20.5 -28.5t-15.5 -15.5t-14.5 -3q-92 66 -92 86z" />
<glyph unicode="Z" horiz-adv-x="1077" d="M68 20q0 35 22 48q-14 12 -14 32q0 30 33 63.5t122 100.5q177 137 442 339.5t435 334.5q-127 -6 -248.5 -25.5t-196.5 -36t-98 -16.5q-39 0 -39 41q0 26 17 58.5t35 46.5q47 39 354.5 98t372.5 59q48 0 75.5 -25t32.5 -63q29 -36 29 -63q0 -19 -10.5 -30.5t-59.5 -43.5 q-260 -188 -576 -428.5t-446 -364.5q237 54 467 54q168 0 197 -15q12 -6 22.5 -41.5t10.5 -62.5q0 -18 -7 -25q-19 -20 -429.5 -71.5t-477.5 -51.5q-39 0 -53 50q-12 36 -12 38z" />
<glyph unicode="[" horiz-adv-x="600" d="M-14 -96q0 32 286 511.5t453 725.5q17 26 29 41t33.5 31t46.5 22q47 10 208 10q48 0 72.5 -22.5t24.5 -59.5q0 -44 -61 -57.5t-204 -13.5q-135 -209 -356.5 -583t-316.5 -564q95 18 174 18q73 0 94.5 -9t36.5 -50q18 -25 18 -45q0 -7 -1 -12t-1.5 -9t-4.5 -6.5t-6.5 -4 t-10 -3t-12 -2.5t-17 -3t-20.5 -3q-88 -14 -172 -34.5t-129.5 -33t-59.5 -12.5q-18 0 -24 8q-19 15 -43.5 43.5t-24.5 40.5q0 23 16 39q-28 8 -28 37z" />
<glyph unicode="\" horiz-adv-x="675" d="M350 1116q0 22 43.5 67.5t69.5 45.5q23 0 59 -203.5t62 -459t26 -398.5q0 -84 -24.5 -136t-65.5 -52q-14 0 -14 24q0 4 2 28.5t2 45.5q0 169 -49.5 498t-95.5 491q-15 47 -15 49z" />
<glyph unicode="]" horiz-adv-x="575" d="M-350 -125q0 24 26 31q14 3 55 4.5t116.5 2.5t95.5 1q17 31 184 331t286 519t181 344h-53q-85 0 -120.5 18t-45.5 68q-10 23 -10 39q0 10 1 16.5t4.5 10.5t6 6.5t11 3.5t14 1t19.5 0.5t23 0.5q68 1 167 12.5t112 11.5q15 0 46.5 -35.5t31.5 -64.5v-10q12 -12 12 -29 q0 -30 -278.5 -529t-442.5 -767q-24 -37 -59 -65.5t-70 -28.5q-40 0 -112.5 -1.5t-114.5 -1.5q-64 0 -84 95q-2 6 -2 16z" />
<glyph unicode="^" horiz-adv-x="833" d="M326 803q0 73 86.5 168.5t285.5 265.5q11 39 78 39q45 0 86 -16t41 -37q0 -4 -9 -48t-9 -85q0 -53 10 -109.5t24 -101t28 -81t24 -58.5t10 -23q0 -6 -12 -6q-67 0 -119.5 34t-82.5 89t-45 116.5t-15 124.5q-173 -153 -299 -309q-3 -3 -11 -19t-17 -27t-18 -11 q-16 0 -25 23.5t-10 47.5z" />
<glyph unicode="_" horiz-adv-x="929" d="M0 23q0 15 10.5 20.5t44.5 5.5q42 0 223.5 1t268.5 1q213 0 298 -16t85 -70q0 -32 -6 -41.5t-25 -9.5q-5 0 -46 3t-117 6t-167 3q-105 0 -277 -1t-179 -1q-50 0 -81.5 37.5t-31.5 61.5z" />
<glyph unicode="`" horiz-adv-x="446" d="M80 1137q0 35 31.5 49t72.5 14q53 0 80 -41q26 -38 64.5 -115t38.5 -98q0 -23 -21 -39.5t-40 -22t-30 -5.5q-17 0 -31.5 14.5t-40 54.5t-40.5 60q-14 18 -33 42t-28 35.5t-16 25.5t-7 26z" />
<glyph unicode="a" horiz-adv-x="870" d="M41 201q0 84 68 197.5t164.5 210t209 164t193.5 67.5q68 0 106.5 -59t38.5 -152q0 -27 -2 -41q35 -20 35 -41q0 -6 -12 -19t-40.5 -44t-56.5 -68q-92 -123 -92 -211q0 -24 11 -41t34 -17q89 0 254 197q64 77 80 88q10 6 17 6q43 0 43 -63q0 -41 -138 -195 q-168 -200 -299 -200q-63 0 -104 54t-41 126q0 15 4 35q-26 -34 -54.5 -65t-69 -68t-86.5 -59.5t-89 -22.5q-52 0 -113 77.5t-61 143.5zM199 213q0 -51 47 -51q60 0 201 153t210 263q-2 36 -12 52.5t-35 16.5q-56 0 -154.5 -76t-177.5 -181t-79 -177z" />
<glyph unicode="b" horiz-adv-x="858" d="M88 201q0 49 11 101t36.5 110.5t48 104.5t66.5 115.5t70.5 108.5t78.5 115q300 436 332 453q30 18 76 18q31 0 50.5 -25t19.5 -55q0 -12 -23 -43q-2 -3 -158.5 -200t-242.5 -326q125 106 241 106q61 0 106.5 -64.5t45.5 -141.5q0 -98 -82 -242h18q48 0 93.5 15t72 33 t48 33t26.5 15q9 0 26 -21t17 -32q0 -15 -25.5 -40.5t-67 -51.5t-103.5 -45t-124 -19q-39 0 -57 4q-84 -109 -186 -178t-195 -69q-78 0 -148.5 67t-70.5 154zM246 231q0 -40 20 -63t58 -23q92 0 217 146q-92 73 -92 194q0 57 24 119q-68 -42 -127 -117q-37 -49 -68.5 -124 t-31.5 -132zM571 471q0 -56 37 -88q78 119 78 199q0 41 -35 55q-41 -23 -60.5 -70t-19.5 -96z" />
<glyph unicode="c" horiz-adv-x="671" d="M72 293q0 81 40.5 171t102 164.5t131 136.5t132 97t100.5 35q49 0 102.5 -22t62.5 -64q29 -19 29 -66q0 -14 -2.5 -27.5t-10.5 -30t-13.5 -27t-21.5 -32t-23.5 -32t-31.5 -40t-34 -42.5q-13 -17 -18.5 -23t-20 -16t-27.5 -10q-35 0 -52 18.5t-17 42.5q0 99 123 217 q-109 -45 -202.5 -131.5t-144.5 -181.5t-51 -174q0 -63 38.5 -100t115.5 -37q58 0 117 22.5t106 58.5t75 62t48 49q13 15 27 31.5t22.5 26.5t18 21t15 17t11.5 12t10 9t8 5.5t7.5 3.5t7.5 1q20 0 30.5 -17.5t10.5 -43.5q0 -35 -115 -172q-190 -225 -405 -225 q-80 0 -140.5 29t-94 76t-50 100t-16.5 108z" />
<glyph unicode="d" horiz-adv-x="899" d="M41 158q0 85 60.5 193.5t146 197.5t182 150t164.5 61q101 0 156 -119q20 31 112 183.5t142 228.5q10 15 22.5 35t19.5 31t16 25.5t15 22.5t13.5 17t13 13.5t12 9t13.5 6t14 1.5q45 0 79.5 -32t34.5 -76q0 -4 -1.5 -8t-7 -12t-11 -15t-19.5 -24t-26 -33 q-54 -70 -129.5 -175.5t-167 -240.5t-153.5 -249.5t-62 -160.5q0 -38 47 -38q43 0 97.5 39.5t138.5 134.5q13 14 30 35t27 32.5t21.5 24t21 17.5t18.5 5q15 0 27 -16t12 -45q0 -37 -110 -166q-192 -231 -320 -231q-67 0 -112.5 49t-45.5 141v23q-5 -5 -30 -32.5t-42.5 -46 t-50 -46.5t-60 -45t-63 -30t-69.5 -13q-71 0 -123.5 55.5t-52.5 122.5zM199 184q0 -17 10.5 -27t26.5 -10q60 0 157.5 79.5t170.5 178.5t73 152q0 43 -43 43q-57 0 -152.5 -77t-169 -177.5t-73.5 -161.5z" />
<glyph unicode="e" horiz-adv-x="657" d="M59 227q0 102 51.5 213t128.5 195.5t169 140t170 55.5q55 0 88.5 -35.5t33.5 -88.5q0 -107 -132.5 -247t-340.5 -282q32 -59 133 -59q68 0 124.5 18.5t109 60.5t89 80.5t93.5 108.5q42 51 62 51t30.5 -16.5t10.5 -42.5q0 -24 -54 -98q-91 -123 -230 -212t-282 -89 q-112 0 -183 69t-71 178zM211 289q124 91 220.5 197t96.5 161q0 27 -24 27q-23 0 -67.5 -33.5t-91.5 -85t-86 -124.5t-48 -142z" />
<glyph unicode="f" horiz-adv-x="493" d="M-209 -358q0 45 10 94t39.5 118.5t53.5 121.5t83.5 156t96 166.5t121.5 205.5q73 119 183 311.5t154 267.5q59 101 86.5 130.5t65.5 29.5q74 0 74 -67q0 -38 -21 -80t-110 -185q-26 -42 -130.5 -205t-170.5 -268q95 -77 137 -217q30 26 94 101q15 17 33 39.5t27 33.5 t20 22.5t19.5 16t17.5 4.5q18 0 29.5 -16.5t11.5 -44.5q0 -32 -77.5 -127t-152.5 -168v-14q0 -129 -49.5 -259t-123.5 -222.5t-160 -151t-158 -58.5q-95 0 -149 76.5t-54 188.5zM-59 -358q0 -103 61 -103q69 0 148 75t132.5 188.5t53.5 215.5q-60 1 -105 52t-45 114v23 q-245 -419 -245 -565z" />
<glyph unicode="g" horiz-adv-x="819" d="M-260 -575q0 79 38 153.5t100.5 133t147 110t172.5 88t183 63.5q113 173 131 199q-140 -121 -193 -156.5t-102 -35.5q-67 0 -121.5 57t-54.5 133q0 84 48 174t121.5 162t157.5 130.5t160.5 91t124.5 32.5q61 0 102 -39.5t44 -126.5q59 -92 59 -135q0 -15 -74 -115 q-102 -135 -170 -238q-38 -55 -61 -94q83 13 139 13q47 0 47 -33q0 -25 -33 -45t-131 -43q-30 -6 -110 -29q-24 -38 -68 -107q-211 -333 -303 -439.5t-203 -106.5q-70 0 -110.5 53.5t-40.5 149.5zM-150 -575q0 -19 11 -31t30 -12q29 0 71 33t94.5 97t101 131t110.5 160 q-197 -85 -307.5 -188t-110.5 -190zM195 201q0 -45 59 -45q54 0 142 61t161.5 144t93.5 143q4 17 4 33q0 27 -11.5 41t-29.5 14q-58 0 -159 -70t-180.5 -165t-79.5 -156z" />
<glyph unicode="h" horiz-adv-x="841" d="M-29 61q0 3 3.5 10.5t12 23t17.5 31.5t25 43t29.5 50t35.5 60.5t39 66.5h-5h-5.5t-5 1t-5 3t-2.5 5.5t-1 9.5q0 12 42.5 76t128 196.5t160.5 265.5q184 327 207 342q11 9 38 15t46 6q30 0 45 -36.5t15 -60.5q0 -17 -15 -43t-59 -90q-241 -341 -453 -719 q101 103 284.5 261.5t223.5 158.5q37 0 59.5 -35.5t22.5 -58.5q0 -6 -36 -58.5t-78.5 -117t-78.5 -147t-36 -142.5q0 -31 37 -31q54 0 131 61.5t149 158.5q53 71 78 71q43 0 43 -63q0 -31 -70 -117q-222 -278 -362 -278q-81 0 -119.5 46t-38.5 124q0 68 28 148.5t79 154.5 q-60 -44 -172.5 -158t-214.5 -227q-41 -45 -56.5 -61.5t-35 -29t-38.5 -12.5q-33 0 -62.5 33.5t-29.5 62.5z" />
<glyph unicode="i" horiz-adv-x="460" d="M90 164q0 85 41 182q-11 0 -15 0.5t-7 2.5t-3 7q0 18 27.5 61t106.5 154q25 35 52.5 76t39.5 58.5t28 35.5t29 23.5t31 5.5q32 0 56 -31t24 -61q0 -2 -0.5 -4.5t-2 -5.5t-3 -5.5t-4.5 -7t-5.5 -7.5t-7 -9t-8 -10t-9.5 -11.5t-11 -13.5q-205 -252 -205 -389q0 -65 41 -65 q83 0 198 126q26 29 51.5 59t39 46.5t26.5 31t22 20t19 5.5q20 0 30.5 -16.5t10.5 -42.5q0 -39 -104 -162q-97 -113 -175 -175t-153 -62q-74 0 -117 54.5t-43 129.5zM485 965q0 58 42.5 97.5t97.5 39.5q35 0 57.5 -22.5t22.5 -65.5q0 -58 -44.5 -102t-97.5 -44 q-35 0 -56.5 27.5t-21.5 69.5z" />
<glyph unicode="j" horiz-adv-x="409" d="M-698 -575q0 78 37 151t98 131t143.5 109.5t168 88t177.5 64.5q55 96 125.5 227.5t81.5 149.5q-27 0 -27 12q0 8 7.5 22.5t23 37.5t31 45t40 56t42.5 59q94 137 129 168.5t90 31.5q26 0 44.5 -24.5t18.5 -46.5q0 -20 -40 -74t-124.5 -176.5t-162.5 -263.5 q-20 -37 -55 -100t-46 -83q103 15 150 15t47 -33q0 -25 -33 -45t-131 -43q-23 -5 -108 -29q-199 -350 -327.5 -501.5t-248.5 -151.5q-70 0 -110.5 53.5t-40.5 149.5zM-588 -575q0 -19 11 -31t30 -12q117 0 377 421q-197 -83 -307.5 -187t-110.5 -191zM487 965 q0 58 42.5 97.5t97.5 39.5q35 0 57.5 -22.5t22.5 -65.5q0 -58 -44.5 -102t-97.5 -44q-35 0 -56.5 27.5t-21.5 69.5z" />
<glyph unicode="k" horiz-adv-x="940" d="M-10 84q0 8 2.5 18t7.5 23t10.5 24.5t15 28.5t17 29.5t20 33t20.5 32.5t22.5 35t21.5 34q-1 0 -6 -0.5t-7 0t-5.5 2t-5 5.5t-1.5 11q0 3 43.5 61.5t107.5 149t101 154.5q114 196 212 350.5t118 167.5q48 31 90 31q47 0 47 -80q0 -32 -10 -47.5t-35 -30.5 q-125 -194 -276 -465q80 51 130.5 80t123.5 55.5t133 26.5q54 0 102.5 -56.5t48.5 -109.5q0 -55 -72.5 -129t-176.5 -128t-185 -54q-42 0 -74 14q2 -101 46.5 -165t128.5 -64q76 0 160 63.5t194 204.5q39 49 59 49q43 0 43 -65q0 -14 -28.5 -58.5t-81.5 -105.5 q-54 -60 -88.5 -94.5t-79 -69t-88.5 -50t-93 -15.5q-160 0 -246.5 117t-86.5 311q-57 -68 -127.5 -194.5t-98.5 -197.5q0 -35 -22 -46t-62 -11q-26 0 -47.5 39t-21.5 86zM541 510q0 -29 51 -29q61 0 135 33.5t123 77t49 72.5q0 32 -35 32q-36 0 -115 -38.5t-143.5 -84 t-64.5 -63.5z" />
<glyph unicode="l" horiz-adv-x="530" d="M88 242q0 76 25 164t71.5 180.5t91.5 168t105 165.5q106 157 179 234t134 77q47 0 87 -50t40 -132q0 -95 -92.5 -253t-228.5 -315t-275 -272q10 -90 72 -90q117 0 276 178q23 25 46 52.5t34 41t23 26t20.5 17t18.5 4.5q18 0 28.5 -17.5t10.5 -47.5q0 -13 -27.5 -56 t-77.5 -99.5t-110 -110t-133.5 -90.5t-139.5 -37q-71 0 -124.5 77t-53.5 185zM240 358q161 149 306.5 381t145.5 318q0 14 -6 14q-23 0 -114.5 -120.5t-193 -295t-138.5 -297.5z" />
<glyph unicode="m" horiz-adv-x="1136" d="M-14 27q0 9 2.5 19t9 25.5t13.5 30t21.5 41.5t27 49.5t36 65t43.5 78.5q-35 0 -35 16q0 9 2.5 16.5t12 23t21 32.5t36 54.5t49.5 78.5q26 40 51.5 83t37 62t25 37t23.5 23.5t25 5.5q33 0 53.5 -24.5t20.5 -57.5q0 -24 -21 -63t-66.5 -117t-82.5 -156q11 14 53 67.5 t73 90.5t73.5 82.5t79.5 69.5t65 24q29 0 69.5 -29.5t40.5 -58.5q0 -56 -96 -244q35 40 88 106t91 112.5t80.5 93.5t76 71.5t57.5 24.5q39 0 66 -31.5t27 -54.5q0 -4 -2 -9.5t-7 -13t-10.5 -14.5t-14.5 -19.5t-16 -23.5q-33 -47 -68 -104.5t-71.5 -147.5t-36.5 -152 q0 -26 12.5 -36.5t28.5 -10.5q47 0 118.5 50.5t127.5 121.5q77 98 95 112q14 11 28 11q18 0 28.5 -18.5t10.5 -36.5t-22 -56t-58 -81q-54 -65 -93.5 -107t-86.5 -83t-91 -61t-87 -20q-78 0 -117 51.5t-39 129.5q0 62 25 141t51 123q-30 -16 -116.5 -123t-154.5 -217 q-15 -23 -26.5 -46t-15.5 -31.5t-13 -13.5t-25 -5q-38 0 -78 28t-40 45q0 19 10 43.5t55 124.5q24 54 70 149t67 140q-47 -7 -181.5 -174t-235.5 -328q-2 -3 -8.5 -14.5t-9.5 -16t-10 -12.5t-12.5 -12t-14 -7t-17.5 -3q-30 0 -64 28t-34 52z" />
<glyph unicode="n" horiz-adv-x="841" d="M-8 74q0 50 141 268q-6 0 -9.5 0.5t-8 6t-4.5 16.5q0 13 12 33t52.5 80t80.5 126q22 34 40 64t27.5 46.5t17 29.5t11.5 18.5t8 7.5q8 8 31 8q35 0 61.5 -29.5t26.5 -60.5q0 -17 -23 -55.5t-60 -100.5t-60 -118q102 114 266.5 268t202.5 154q33 0 58.5 -40.5t25.5 -68.5 q0 -5 -3 -12t-10.5 -18t-14.5 -20.5t-21.5 -28t-24.5 -32.5q-201 -269 -201 -419q0 -52 41 -52q51 0 117 48t133 129q10 13 28 34q43 53 58 67.5t29 14.5q43 0 43 -61q0 -36 -107 -162q-199 -242 -331 -242q-79 0 -118.5 53.5t-39.5 123.5q0 99 92 325q-122 -82 -364 -401 q-15 -20 -28 -42t-18.5 -30.5t-15 -15t-24.5 -6.5q-42 0 -79.5 30.5t-37.5 63.5z" />
<glyph unicode="o" horiz-adv-x="763" d="M90 246q0 83 34.5 169.5t93 163.5t122 140.5t135.5 120.5q21 14 35 14q2 0 9 -1t9 -1q75 47 121 47q45 0 94 -49q48 -28 68 -64.5t20 -101.5q0 -105 -55 -246h37q51 0 92.5 11t66 27t41.5 31.5t27.5 26.5t16.5 11q12 0 27.5 -20.5t15.5 -37.5q0 -23 -36 -59t-105.5 -67 t-145.5 -31q-37 0 -84 6q-79 -153 -192.5 -254.5t-237.5 -101.5q-94 0 -151.5 80t-57.5 186zM256 246q0 -36 22.5 -60t61.5 -24q61 0 126.5 63t119.5 160q-107 65 -107 195q0 29 6 59q-90 -87 -159.5 -204.5t-69.5 -188.5zM608 575q0 -48 31 -79q45 109 45 182q0 27 -7.5 41 t-17.5 14q-51 0 -51 -158z" />
<glyph unicode="p" horiz-adv-x="878" d="M-246 -381q0 29 18 76.5t55 116t75.5 134.5t98 169t103.5 182l25 45q-6 0 -10 0.5t-8.5 6t-4.5 16.5q0 12 21 42t67.5 95t86.5 129q10 15 23.5 37.5t22 36.5t18 29t16.5 24t12 14q49 43 114 43q14 0 27.5 -15.5t13.5 -25.5t-5 -20.5t-14.5 -24t-30 -51.5t-44.5 -90 q83 81 148.5 124.5t134.5 43.5q83 0 137.5 -61t54.5 -148q0 -86 -52 -188t-129.5 -184.5t-173.5 -138.5t-177 -56q-148 0 -166 145q-147 -236 -270 -496q-11 -24 -22 -55t-16.5 -45.5t-17.5 -25.5t-32 -11q-31 0 -65 46.5t-34 80.5zM299 262q15 -90 113 -90q54 0 120.5 45 t119 106.5t88.5 124.5t36 99q0 34 -17.5 55t-51.5 21q-160 0 -408 -361z" />
<glyph unicode="q" horiz-adv-x="888" d="M29 156q0 82 58 183t144 184t191 139.5t192 56.5q100 0 162 -111q5 5 16.5 18t16 17t14.5 11t20.5 9.5t24.5 2.5q33 0 65 -30.5t32 -60.5q0 -6 -10 -18.5t-37 -43t-52 -62.5q-118 -149 -287.5 -408.5t-275.5 -466.5q-12 -25 -20.5 -47.5t-12 -35t-6.5 -22t-7 -13 t-11 -3.5q-39 0 -75 44.5t-36 76.5q0 66 87.5 207t199.5 287q-10 -6 -42 -25.5t-53.5 -31t-56 -22.5t-67.5 -11q-68 0 -121 51t-53 125zM215 201q0 -47 53 -47q63 0 160 64t169.5 150t72.5 142q0 34 -12.5 48.5t-49.5 14.5q-63 0 -158.5 -72.5t-165 -162t-69.5 -137.5z" />
<glyph unicode="r" horiz-adv-x="688" d="M0 119v131q61 59 154 192t120 183q2 40 52 125q8 12 14.5 24t10 19t7 13t7 8.5t8.5 2.5q8 0 23 -12.5t32 -16.5q7 -2 39.5 -9t52 -12.5t48 -14.5t48 -19t29.5 -22q10 -9 12 -28t2 -87q-67 -74 -132.5 -194.5t-65.5 -198.5q0 -53 47 -53q105 0 258 188q8 10 18.5 23 t16 20.5t13 16.5t11.5 13.5t9.5 10t9 8t8 4.5t8 3t8.5 1q41 0 41 -61q0 -40 -118 -176q-95 -109 -170 -165t-146 -56q-44 0 -76.5 18.5t-50 49t-25.5 63t-8 67.5q0 166 170 393q-19 35 -88 35q-171 -259 -273 -373q-72 -82 -124 -114z" />
<glyph unicode="s" horiz-adv-x="595" d="M55 250q0 125 84 209q8 8 21 8q8 0 20 -4q26 25 87.5 103t128.5 167t79 105q10 12 19 23.5t13.5 18t9.5 12.5t7 9t5 5t5 2.5t5 0.5q44 0 71 -14t27 -41q2 -3 6.5 -11.5t6.5 -13t5.5 -12t5.5 -13.5t3.5 -13.5t1.5 -14.5q0 -20 -16 -65.5t-21 -83.5q-48 -320 -133 -483.5 t-224 -163.5q-86 0 -151.5 86t-65.5 184zM209 231q0 -43 14 -60t41 -17q35 0 65.5 31t50.5 77t38.5 107t28.5 112.5t20.5 103.5t15.5 70q-54 -72 -150 -195t-110 -141q-14 -41 -14 -88z" />
<glyph unicode="t" horiz-adv-x="485" d="M37 737q0 82 369 99q118 130 154.5 163t70.5 33q22 0 42.5 -14t20.5 -27q0 -8 -9.5 -21t-37 -50.5t-55.5 -81.5h74q42 0 81 -33t39 -74q0 -23 -18 -42t-49 -19q-11 0 -52 1t-73 1q-60 0 -127 -6q-69 -70 -153.5 -224.5t-84.5 -232.5q0 -62 47 -62q35 0 83 27.5t72.5 48.5 t78.5 70q32 28 67 67t54.5 58.5t32.5 19.5q43 0 43 -61q0 -43 -132 -189q-192 -208 -315 -208q-94 0 -142 64.5t-48 160.5q0 108 51 190l162 256q-8 -1 -42.5 -4t-65 -5.5t-42.5 -2.5q-22 0 -59 33.5t-37 64.5z" />
<glyph unicode="u" horiz-adv-x="813" d="M41 213q0 63 39.5 155t101.5 183q80 117 135 168t97 51q40 0 61 -22t21 -39q0 -10 -7.5 -19.5t-23.5 -23.5t-25 -25q-80 -91 -159.5 -226.5t-79.5 -199.5q0 -17 8 -32t24 -15q97 0 265 250q58 87 106.5 164t68.5 109t32 44q35 35 94 35q35 0 52 -32.5t17 -55.5 q0 -7 -11 -19.5t-36.5 -43t-50.5 -66.5q-170 -241 -170 -360q0 -39 37 -39q49 0 115 50t122 115q14 16 31.5 38t28 34t22 24t20.5 17.5t17 5.5q20 0 30.5 -18t10.5 -41q0 -39 -121 -180q-186 -217 -311 -217q-61 0 -104 42t-54 113q-13 -19 -30.5 -39.5t-46 -50t-62.5 -48.5 t-65 -19q-79 0 -139 75t-60 158z" />
<glyph unicode="v" horiz-adv-x="731" d="M53 211q0 85 63 222.5t146.5 243t136.5 105.5q30 0 51 -24t21 -53v-19q-97 -95 -186.5 -253t-89.5 -243q0 -59 55 -59q44 0 120 70.5t150.5 173t135.5 228.5t75 226q33 -8 56.5 -42t23.5 -80q0 -80 -36.5 -180.5t-98 -194.5t-133.5 -174.5t-151 -129t-144 -48.5 q-77 0 -136 71.5t-59 159.5z" />
<glyph unicode="w" horiz-adv-x="1087" d="M53 162q0 141 162 407q67 109 106 147t74 38t64.5 -30t29.5 -58q0 -14 -6.5 -23t-18 -17.5t-36.5 -36.5t-53 -69q-156 -240 -156 -336q0 -22 17 -22q42 0 181.5 166t246.5 331q28 43 48 59.5t54 16.5q59 0 59 -65q0 -38 -18 -68q-13 -20 -48.5 -72.5t-49.5 -76.5t-35 -67 t-29 -82.5t-8 -84.5q0 -38 13.5 -60t35.5 -22q56 0 149 110t164.5 254t71.5 230q0 23 -2 33q15 18 29 18q29 0 49 -34t20 -89q0 -65 -42.5 -178.5t-108 -227t-157.5 -197t-179 -83.5q-85 0 -125.5 64.5t-40.5 155.5q0 35 6 69q-14 -21 -31 -44.5t-54.5 -69.5t-71.5 -80.5 t-74.5 -61t-71.5 -26.5q-43 0 -103.5 57.5t-60.5 124.5z" />
<glyph unicode="x" horiz-adv-x="845" d="M94 328q0 12 6 26t20 34.5t28 38t41 52t47 60.5q29 38 64.5 87.5t52.5 73t40.5 51.5t39 39.5t35.5 20t42 8.5q31 0 60.5 -10.5t29.5 -32.5q0 -10 -13.5 -48.5t-32 -104.5t-28.5 -134q90 73 123 97q126 95 212.5 146.5t113.5 51.5q18 0 32.5 -16t14.5 -37 q0 -11 -9.5 -18.5t-54.5 -34.5q-71 -44 -192 -146.5t-248 -222.5q6 -96 36 -132t81 -36q119 0 254 160q13 15 32.5 39t32 38.5t26.5 29.5t23.5 22.5t16.5 7.5q45 0 45 -57q0 -22 -17.5 -50.5t-66.5 -88.5q-44 -55 -77 -91t-81 -80.5t-95.5 -67.5t-92.5 -23q-94 0 -158.5 53 t-97.5 141q-164 -168 -189 -221q-36 7 -63 30.5t-27 57.5q0 33 15.5 58.5t52.5 62.5q87 87 182 172v16q0 121 37 215q-72 -82 -176 -233q-25 -35 -66 -35q-51 0 -51 31z" />
<glyph unicode="y" horiz-adv-x="909" d="M41 152q0 104 73.5 232.5t178.5 231.5q35 35 49 48.5t42 32t48 18.5q43 0 86 -22.5t43 -57.5q0 -8 -11 -16t-33 -22t-38 -28q-93 -78 -178.5 -194t-85.5 -172q0 -33 29 -33q83 0 235 132t279 319q7 11 20 30t18 26.5t14.5 21t14 18t12 13.5t12 11.5t11.5 7t13.5 6 t14.5 2.5t17 1q34 0 79.5 -31.5t45.5 -64.5q0 -10 -17 -26.5t-63 -65.5t-96 -119q-120 -166 -232.5 -351t-198 -375t-85.5 -292q-30 -21 -64 -21q-50 0 -79 30.5t-29 88.5q0 48 37 135t77 157t102.5 174.5t78.5 131.5l-36 -27t-38 -28t-34.5 -24t-36 -23.5t-32 -18 t-34.5 -16t-31.5 -8.5t-32.5 -4q-63 0 -104 51t-41 121z" />
<glyph unicode="z" horiz-adv-x="944" d="M0 137q0 28 14 49q30 47 276 176t519 250q-97 0 -191 -15t-156 -29.5t-83 -14.5q-31 0 -31 43q0 38 22 66t66.5 45t90.5 28t117.5 15.5t122.5 6t128 1.5q96 0 133 -8.5t37 -40.5q0 -11 -4 -19q14 -14 14 -45q0 -7 -0.5 -12.5t-3 -10.5t-4 -9t-7.5 -8.5t-8.5 -7t-11.5 -8 t-13 -7.5t-16 -9t-18 -10q-52 -28 -219.5 -112.5t-319.5 -166t-235 -137.5q126 24 258 37t195 13q49 0 83.5 -6.5t65 -24.5t45.5 -52.5t15 -86.5q0 -56 -43 -56q-13 0 -30 9t-36.5 20t-68.5 20t-117 9q-108 0 -194 -7.5t-127.5 -17t-74.5 -17t-47 -7.5q-27 0 -43.5 16 t-19.5 41q-37 10 -58.5 37.5t-21.5 62.5z" />
<glyph unicode="{" horiz-adv-x="610" d="M2 -123q0 11 10 31q14 25 106.5 139.5t170.5 222.5t78 142q0 100 -170 100q-26 0 -46 29.5t-20 56.5q0 23 18 39.5t48 17.5q123 3 227.5 55.5t165.5 145.5q132 212 197.5 300.5t97.5 88.5q305 0 305 -8q0 -31 -26 -84t-58 -53h-178q-10 -20 -48.5 -85.5t-45.5 -78.5 q-91 -152 -148 -224.5t-119.5 -106.5t-150.5 -34q72 -39 100.5 -74.5t28.5 -82.5q0 -52 -42 -125.5t-95.5 -136t-117.5 -141.5t-93 -128q21 0 71 -1t74 -1q113 0 113 -6q0 -32 -24.5 -84.5t-59.5 -52.5h-221q-36 0 -92 52t-56 87z" />
<glyph unicode="|" horiz-adv-x="542" d="M-172 -426q0 38 96 240q129 260 379 710t320 559q47 68 81 96.5t78 28.5q37 0 59.5 -16t22.5 -35q0 -7 -3.5 -15.5t-11 -20t-13 -19.5t-16 -21.5t-13.5 -17.5q-142 -215 -413.5 -688t-448.5 -832q-8 -15 -18.5 -38.5t-17 -34.5t-13.5 -11q-18 0 -43 41.5t-25 73.5z" />
<glyph unicode="}" horiz-adv-x="626" d="M-309 -227q0 31 25 85t57 54h172q7 23 46.5 93.5t41.5 74.5q51 92 87.5 149.5t73.5 103.5t73.5 68.5t77.5 33.5t95 11q-77 42 -107 79t-30 89q0 53 40 126.5t91 136t110.5 141.5t86.5 129q-260 0 -260 6q0 19 9 50.5t28.5 60t42.5 28.5h223q35 0 93 -50t64 -87 q0 -16 -8 -35q-14 -25 -101.5 -140.5t-162 -224.5t-74.5 -147q0 -44 48.5 -72t146.5 -28q21 0 44.5 -30.5t23.5 -55.5q0 -24 -17 -41.5t-47 -18.5q-158 -3 -252.5 -52.5t-155.5 -151.5q-136 -228 -192.5 -311t-87.5 -83q-300 0 -305 9z" />
<glyph unicode="~" horiz-adv-x="880" d="M236 754q0 64 73.5 140.5t149.5 76.5q88 0 252 -51.5t247 -51.5q45 0 77 10t45.5 22t25 22t20.5 10q11 0 11 -10q0 -58 -40 -111t-90 -81t-87 -28q-88 0 -255 51.5t-253 51.5q-54 0 -87 -12.5t-73 -49.5q-2 -2 -6 -2q-10 0 -10 13z" />
<glyph unicode="&#xa1;" horiz-adv-x="571" d="M-137 -395q0 25 13 51t46 77q7 10 10 15q191 304 435 713l5 10t7 12.5t8 10.5t10.5 9t12.5 3q17 0 40 -18.5t23 -38.5q0 -31 -49 -136q-284 -615 -395 -751q-21 -25 -33.5 -32t-30.5 -7q-55 0 -78.5 25t-23.5 57zM401 649q0 53 37 109.5t99 56.5q48 0 74 -30.5t26 -77.5 q0 -59 -34.5 -107.5t-94.5 -48.5q-42 0 -74.5 26t-32.5 72z" />
<glyph unicode="&#xa2;" horiz-adv-x="792" d="M168 238q0 7 4 15t13.5 23.5t17.5 30.5q15 27 73 115q-49 62 -65 109t-16 100q0 80 39.5 164.5t99 151.5t126.5 121.5t125.5 84t92.5 29.5h14q13 21 29 48.5t25 43t20.5 35t18.5 29.5t16 22t15.5 18t15 11.5t16 7.5t16.5 2q32 0 54 -24.5t22 -51.5q0 -8 -6 -22 t-19.5 -34.5t-26 -38.5t-34 -48.5t-35.5 -51.5q43 -40 43 -100q0 -19 -13.5 -45t-53.5 -90q-36 -58 -63.5 -83.5t-59.5 -25.5q-33 0 -49.5 20t-16.5 52q0 45 29.5 100t60.5 78q-123 -45 -232.5 -179t-109.5 -245q0 -123 140 -123q59 0 109 15t80 30t40 15q29 0 29 -39 q0 -55 -50 -100t-114 -67t-119 -22q-49 0 -92 19q-87 -142 -109 -165q-16 -17 -28 -17q-28 0 -50 27t-22 55z" />
<glyph unicode="&#xa3;" horiz-adv-x="976" d="M84 119q0 35 168 327q-27 -2 -62 -2q-41 0 -68.5 38.5t-27.5 62.5q0 13 9.5 17.5t39.5 4.5q61 0 183 4q184 298 331 514q44 61 71 84t54 23q38 0 72 -41q32 4 47 4q69 0 107 -33q39 -37 39 -172q0 -99 -35 -194q-27 -76 -43.5 -103.5t-36.5 -27.5q-41 0 -74 62.5t-48 141 t-15 146.5q-150 -233 -248 -404q221 -8 221 -73q0 -34 -5 -44t-20 -10q-10 0 -60 2t-113 4t-91 3l-26 -50q-93 -171 -119 -225q202 47 397 47q83 0 107.5 -10.5t44.5 -56.5q18 -29 18 -52q0 -27 -11 -34t-55 -13q-10 -1 -16 -2q-193 -30 -469 -100q-26 -6 -60 -16t-55 -15.5 t-32 -5.5q-23 0 -29 8q-19 12 -48.5 52t-29.5 55q0 23 17 43q-12 4 -20.5 16.5t-8.5 24.5z" />
<glyph unicode="&#xa4;" horiz-adv-x="980" d="M63 266q0 6 1.5 11.5t6.5 13.5t11 15.5t18 22t24 28t33.5 38.5t41.5 49q-13 47 -13 88q0 88 47.5 195.5t139.5 196.5q33 33 78 63q-5 15 -14 40t-14 38t-12 33t-10.5 31.5t-7 25t-5 23t-1.5 16.5q0 23 23.5 42t50.5 19q40 0 57.5 -34.5t47.5 -147.5q3 -13 5 -20 q101 43 181 43q46 0 92 -19q100 102 123 120q30 22 51 22q34 0 53 -24.5t19 -53.5q0 -21 -33 -54.5t-117 -105.5q25 -52 25 -121q0 -124 -67.5 -260.5t-174.5 -230.5q45 -139 45 -156q0 -21 -25.5 -45.5t-50.5 -24.5q-23 0 -39 31t-41 117q-82 -45 -166 -45q-111 0 -182 78 q-36 -45 -50.5 -62.5t-35 -40.5t-31.5 -30t-20 -7q-26 0 -45 27.5t-19 54.5zM340 532q0 -55 30 -86.5t83 -31.5q74 0 158 65t141 165.5t57 193.5q0 108 -94 108q-82 0 -171.5 -70t-146.5 -167.5t-57 -176.5z" />
<glyph unicode="&#xa5;" horiz-adv-x="1110" d="M66 346q0 13 8.5 18t38.5 5q24 0 71.5 1t114 2.5t100.5 2.5l37 94q-152 -4 -174 -4q-43 0 -69.5 38t-26.5 60q0 14 9 18.5t40 4.5q94 0 217 6q-6 102 -6 250q0 84 7 202.5t20 141.5q18 31 57 31q34 0 64 -23t30 -49q0 -8 -2 -30.5t-4 -72t-2 -120.5q0 -166 2 -279 q69 76 164 182.5t154.5 173t120.5 132.5t96.5 97.5t48.5 31.5q21 0 49.5 -27t28.5 -45q0 -8 -9.5 -23t-30.5 -40.5t-41 -48.5t-55.5 -63t-60.5 -69q-58 -69 -167.5 -191.5t-143.5 -162.5q278 -17 278 -74q0 -33 -5 -43t-19 -10q-7 0 -71 1.5t-150 3.5t-134 3l-47 -96 q352 -10 352 -76q0 -34 -5 -43.5t-21 -9.5q-8 0 -79 1.5t-167.5 3.5t-132.5 3l-45 -113q-43 -106 -84 -157.5t-68 -51.5q-23 0 -56.5 32t-33.5 54q0 20 86 234q-126 -6 -190 -6q-41 0 -67.5 38.5t-26.5 61.5z" />
<glyph unicode="&#xa6;" horiz-adv-x="542" d="M-172 -426q0 38 96 240q119 237 209 405q14 26 47.5 41.5t67.5 15.5q35 0 53 -16t2 -43q-28 -52 -162 -299.5t-196 -374.5q-8 -15 -18.5 -38.5t-17 -34.5t-13.5 -11q-18 0 -43 41.5t-25 73.5zM317 553q55 95 131.5 230t117 204.5t57.5 95.5q47 68 81 96.5t78 28.5 q37 0 59.5 -16t22.5 -35q0 -7 -3.5 -15.5t-11 -20t-13 -19.5t-16 -21.5t-13.5 -17.5q-32 -45 -77 -119.5t-114.5 -192t-121.5 -202.5q-14 -21 -48.5 -33t-70.5 -12q-35 0 -53 13t-5 36z" />
<glyph unicode="&#xa7;" horiz-adv-x="878" d="M57 338q0 21 8 34t21 13l10 -8q9 -8 25 -20t37 -27.5t47 -30.5t52.5 -27t56.5 -20t57 -8q84 0 84 57q0 26 -27 58.5t-65 67t-76 73t-65 90t-27 106.5q0 72 59.5 140.5t146.5 103.5q-6 24 -6 55q0 94 100.5 179.5t215.5 85.5q100 0 160.5 -80t60.5 -174q0 -123 -86 -123 q-47 0 -79.5 38t-46 90t-15.5 115q-61 -10 -100.5 -55.5t-39.5 -93.5q0 -45 27 -88.5t65.5 -79.5t77 -72.5t65.5 -82t27 -93.5q0 -74 -63 -125t-148 -51q-24 0 -38 2q49 -63 49 -125q0 -56 -35 -98t-82.5 -61t-97.5 -19t-109 16.5t-115 46.5t-93.5 80.5t-37.5 110.5z M365 678q0 -57 26 -86q34 -35 83.5 -57.5t92.5 -22.5q39 0 63.5 21.5t24.5 66.5q0 27 -26.5 58.5t-77 77.5t-76.5 77q-54 -16 -82 -54t-28 -81z" />
<glyph unicode="&#xa8;" horiz-adv-x="833" d="M285 969q0 48 48 102.5t111 54.5q24 0 46 -26.5t22 -57.5q0 -52 -45.5 -107.5t-85.5 -55.5q-39 0 -67.5 25.5t-28.5 64.5zM608 969q0 48 49.5 102.5t110.5 54.5q24 0 46 -26.5t22 -57.5q0 -52 -45.5 -107.5t-85.5 -55.5q-39 0 -68 25.5t-29 64.5z" />
<glyph unicode="&#xa9;" horiz-adv-x="1337" d="M197 436q0 108 35.5 218t106.5 209.5t167 177t227 123.5t277 46q110 0 195.5 -31.5t138.5 -87t80.5 -127t27.5 -155.5q0 -112 -36 -230.5t-106.5 -228t-164.5 -196t-219 -138t-260 -51.5q-115 0 -206.5 38t-147.5 103.5t-85.5 149.5t-29.5 180zM326 446q0 -74 20.5 -137 t62.5 -112t111.5 -77t161.5 -28q111 0 214 42t180.5 112.5t136 159t88.5 184t30 184.5q0 69 -19 125.5t-59 102t-109 71t-163 25.5q-118 0 -224 -39.5t-183.5 -105.5t-134 -150t-85 -176t-28.5 -181zM498 477q0 69 33 145.5t85 140.5t110.5 116.5t113 82t90.5 29.5t81 -20 t50 -53q24 -15 24 -50q0 -37 -19.5 -69.5t-76.5 -103.5q-4 -5 -6.5 -8t-6.5 -8t-7 -9q-2 -2 -9.5 -12t-12.5 -15t-14.5 -10.5t-19.5 -5.5q-22 0 -39.5 14t-17.5 43q0 41 32.5 90.5t72.5 89.5q-141 -61 -238.5 -185.5t-97.5 -227.5q0 -53 31.5 -84t95.5 -31q45 0 92.5 18.5 t74 36.5t64.5 47q11 11 25 11q12 0 20 -15.5t8 -36.5q0 -31 -30 -69q-40 -38 -118 -74.5t-153 -36.5t-130.5 40t-81 98t-25.5 122z" />
<glyph unicode="&#xaa;" horiz-adv-x="614" d="M80 410q0 26 21 52t46 27l125 7q200 4 226 6q26 0 26 -25q0 -22 -22.5 -50.5t-50.5 -31.5q-224 -14 -342 -14q-29 0 -29 29zM205 659q0 37 21.5 85.5t45 83t62.5 85.5q70 86 163 166t136 80q41 0 69.5 -25t28.5 -77q0 -3 19.5 -21.5t19.5 -27.5q0 -6 -4 -12.5 t-11.5 -15.5t-11.5 -15q-130 -174 -168 -249q-25 -51 -26 -81l104 49q13 0 21 -9.5t8 -23.5q0 -29 -27 -45q-74 -49 -120 -49q-36 0 -55 24t-19 62q0 2 1 7.5t1 8.5q-97 -88 -162 -88q-50 0 -73 26t-23 62zM322 670q0 -8 6 -8q28 0 110.5 74.5t120.5 148.5q-4 4 -4 8 q0 8 36 62t42 81q-18 -1 -69 -44.5t-105 -101.5t-95.5 -121.5t-41.5 -98.5z" />
<glyph unicode="&#xab;" horiz-adv-x="1372" d="M254 344q0 41 160.5 136.5t345 173t250.5 77.5q12 0 23 -11.5t11 -23.5q0 -32 -27 -56t-102 -56q-120 -51 -264.5 -138.5t-144.5 -111.5q0 -23 56 -76t112 -98q11 -9 35 -24t37.5 -26.5t13.5 -21.5q0 -9 -55 -41q-16 -8 -31 -8q-31 0 -191 94q-95 56 -162 117.5t-67 93.5 zM786 303q0 41 160.5 136.5t345 173t250.5 77.5q12 0 23.5 -11.5t11.5 -23.5q0 -32 -27 -56t-102 -56q-120 -51 -265 -138.5t-145 -111.5q0 -23 56 -76t112 -98q11 -9 35 -24t37.5 -26.5t13.5 -21.5q0 -9 -55 -41q-16 -8 -31 -8q-30 0 -190 94q-95 56 -162.5 117.5 t-67.5 93.5z" />
<glyph unicode="&#xac;" horiz-adv-x="927" d="M162 606q0 16 10.5 22.5t44.5 6.5q51 0 163 4t152 4q180 0 268.5 -12.5t108.5 -55.5q21 -19 21 -55q0 -14 -2.5 -27.5t-10.5 -30t-13.5 -27t-21.5 -32t-23.5 -32t-31.5 -40t-34 -42.5q-39 -49 -66 -49q-35 0 -52.5 18.5t-17.5 42.5q0 90 101 195q-80 6 -201 6 q-72 0 -170.5 -5t-112.5 -5q-49 0 -80.5 44t-31.5 70z" />
<glyph unicode="&#xad;" horiz-adv-x="804" d="M260 438q0 16 10.5 21.5t44.5 5.5q53 0 146.5 5t122.5 5q45 0 72.5 -1.5t56.5 -6.5t44 -14.5t24.5 -27t9.5 -42.5q0 -39 -6 -50t-25 -11q-7 0 -59.5 5t-94.5 5q-45 0 -129.5 -4t-103.5 -4q-49 0 -81 44t-32 70z" />
<glyph unicode="&#xae;" horiz-adv-x="671" d="M274 768q0 78 32.5 156t89.5 142t145.5 104t191.5 40q135 0 194.5 -62.5t59.5 -166.5q0 -80 -33 -164t-89.5 -154.5t-142 -115.5t-181.5 -45q-128 0 -197.5 77t-69.5 189zM362 780q0 -83 48 -136.5t143 -53.5q60 0 115.5 22.5t97.5 60t73.5 85t47.5 98.5t16 98 q0 80 -44.5 128t-141.5 48q-104 0 -187.5 -55t-125.5 -134.5t-42 -160.5zM418 719q0 32 77 179t89 155q4 2 14 2q7 0 16.5 -1t10.5 -1q79 32 125 32q9 0 16 -2.5t14 -10t9.5 -11t9.5 -15.5t8 -14q3 -5 11.5 -17t13 -21.5t4.5 -18.5q0 -51 -49.5 -94.5t-122.5 -73.5l43 -51 q41 -41 41 -62q0 -3 -24.5 -14.5t-31.5 -11.5q-3 0 -21 17.5t-50.5 51t-42.5 43.5q-38 -10 -56 -10q-10 -20 -18 -36.5t-11.5 -25t-6 -15t-4 -9t-3.5 -4.5t-8 -2q-10 0 -31.5 15t-21.5 26zM571 868q54 0 126.5 36.5t72.5 68.5q0 16 -39 16q-20 0 -51 -10.5t-53 -26.5 q-12 -9 -56 -84z" />
<glyph unicode="&#xaf;" horiz-adv-x="624" d="M119 983q0 13 10 18t39 5q48 0 141.5 4t118.5 4q40 0 64.5 -1t50 -5.5t39 -13t22 -23t8.5 -35.5q0 -36 -5 -49t-21 -13q-6 0 -64 4.5t-94 4.5q-41 0 -116 -3t-93 -3q-44 0 -72 41t-28 65z" />
<glyph unicode="&#xb0;" horiz-adv-x="440" d="M262 1040q0 61 37 124t108.5 108t155.5 45q4 0 7 -1.5t6 -4.5l5.5 -5.5t5 -7.5t3.5 -7.5t3.5 -8t2.5 -6.5q44 -4 66 -31t22 -69q0 -91 -80 -177t-194 -86q-74 0 -111 35.5t-37 91.5zM381 1067q0 -43 61 -43q49 0 96.5 38.5t47.5 86.5q0 28 -12 40.5t-39 12.5 q-64 0 -109 -47.5t-45 -87.5z" />
<glyph unicode="&#xb1;" horiz-adv-x="1034" d="M98 199q0 16 11 22t45 6q51 0 163 4.5t152 4.5q65 0 108 -1t91 -4t78 -9t56 -16t38 -25t12 -36q0 -39 -6 -51t-25 -12q-6 0 -49 3t-118.5 6t-159.5 3q-72 0 -170.5 -5t-112.5 -5q-49 0 -81 44.5t-32 70.5zM260 760q0 16 10.5 22t44.5 6q49 0 151.5 4t129.5 5q12 34 30 87 t27 79t19.5 53t17.5 41q34 61 94 61q22 0 66.5 -8.5t44.5 -15.5q0 -6 -4.5 -13t-12.5 -17t-12 -17q-33 -62 -112 -252q131 -3 195.5 -21.5t64.5 -66.5q0 -39 -6 -51.5t-25 -12.5q-7 0 -44 2.5t-103 5.5t-138 4q-39 -98 -114 -305q-7 -41 -25 -41q-26 0 -77.5 21t-51.5 35 q0 10 8.5 32t21.5 49t17 37q42 98 66 170q-152 -8 -170 -8q-49 0 -81 44.5t-32 70.5z" />
<glyph unicode="&#xb2;" horiz-adv-x="587" d="M162 633q0 69 94 141.5t227 134.5q140 64 202.5 103t62.5 69q0 21 -56 21q-109 0 -231 -78q-39 -29 -58 -29q-30 0 -30 47q0 42 54 82t117.5 61t104.5 21q86 0 146.5 -52t60.5 -105q0 -47 -40 -88t-105 -74t-133.5 -63t-139 -67t-108.5 -73q85 6 164 6q59 0 86 -14 q26 -13 43.5 -36.5t17.5 -39.5q0 -33 -31 -33q-12 0 -40 2t-52 2q-88 0 -154 -6t-98.5 -12t-38.5 -6q-31 0 -48 29t-17 57z" />
<glyph unicode="&#xb3;" horiz-adv-x="532" d="M150 645q0 35 30 35q6 0 40.5 -8t51.5 -8q114 0 180 41t66 81q0 52 -129 52q-43 0 -59.5 8.5t-16.5 36.5q0 23 11 39t30 16q5 -2 17 -2q33 0 89.5 10.5t102.5 30.5q99 47 99 86q0 29 -48 29q-51 0 -106 -18t-86 -56q-12 -12 -31 -12q-22 0 -35.5 15t-13.5 34q0 49 79 99 t152 50q74 0 128.5 -50.5t54.5 -111.5q0 -122 -174 -176q53 -41 53 -100q0 -68 -52.5 -120t-124 -75.5t-145.5 -23.5q-163 0 -163 98z" />
<glyph unicode="&#xb4;" horiz-adv-x="446" d="M80 952q35 31 96 96.5t104 110.5t54 45q35 0 56.5 -41t21.5 -71q0 -23 -60.5 -77.5t-122.5 -98.5t-71 -44q-27 0 -52.5 27t-25.5 53z" />
<glyph unicode="&#xb5;" horiz-adv-x="837" d="M-166 -229q0 60 113 280q5 10 31.5 61t34.5 66.5t32 61t35.5 66.5t33 60.5t37 65.5t35 58t37.5 61q137 219 232 219q40 0 61 -22t21 -39q0 -10 -7.5 -19.5t-23.5 -23.5t-25 -25q-80 -91 -159.5 -226.5t-79.5 -199.5q0 -17 8 -32t24 -15q97 0 265 250q59 87 106.5 164 t67.5 109t32 44q17 17 45 26t50 9q23 0 36 -33.5t13 -54.5q0 -20 -78 -125q-62 -82 -108 -172t-68 -155t-40 -119.5t-35.5 -82.5t-41.5 -28q-15 0 -29 19t-14 55q0 21 10 63q-13 -19 -30.5 -39.5t-46 -50t-62.5 -48.5t-65 -19q-57 0 -93.5 39t-37.5 126l-199 -356 q-8 -51 -25.5 -72.5t-36.5 -21.5q-21 0 -38 21t-17 55z" />
<glyph unicode="&#xb6;" horiz-adv-x="1054" d="M109 770q0 123 139 283q81 94 170 94q81 0 264.5 -39t253.5 -76q33 47 64 68.5t71 21.5q36 0 64 -17.5t28 -35.5q0 -7 -3.5 -15.5t-11 -21t-12.5 -19.5t-15.5 -21.5t-12.5 -16.5q-248 -374 -664 -1198q-4 -9 -10 -24t-10 -23.5t-8.5 -18t-9 -14t-9.5 -4.5q-18 0 -50 41.5 t-32 72.5q0 49 97 240l120 240q-190 72 -306.5 196t-116.5 287zM279 756q0 -90 94.5 -180t234.5 -138q31 60 92.5 177t85.5 165q-184 47 -342 47q-98 0 -131.5 -13.5t-33.5 -57.5zM502 -299q0 30 42.5 133t73.5 160q87 174 161 314t132.5 241t93 158.5t82 131t60.5 95.5 q47 75 73 104t56 29q13 0 25 -18t12 -37q0 -9 -9 -24.5t-26 -39t-21 -28.5q-236 -356 -636 -1178q-16 -74 -62 -74q-20 0 -38.5 8t-18.5 25z" />
<glyph unicode="&#xb7;" horiz-adv-x="415" d="M244 549q0 33 34.5 105t69.5 110q34 39 78 39q37 0 62.5 -21.5t25.5 -72.5q0 -33 -33 -84q-27 -43 -73.5 -92.5t-71.5 -49.5q-11 0 -30.5 5t-40.5 21.5t-21 39.5z" />
<glyph unicode="&#xb8;" horiz-adv-x="526" d="M80 -289q0 18 9 30.5t15 12.5l21 -6q21 -6 43 -6q70 0 126 33t56 71q0 41 -35 41q-32 0 -64 -12.5t-53.5 -24.5t-25.5 -12q-16 0 -36.5 23t-20.5 35t27 52t69 81q14 14 78 14q18 0 18 -25q0 -1 -8.5 -12t-21 -30.5t-19.5 -38.5q44 14 84 14q57 0 80.5 -31.5t23.5 -69.5 q0 -55 -45 -100.5t-111 -69.5t-134 -24q-76 0 -76 55z" />
<glyph unicode="&#xb9;" horiz-adv-x="354" d="M176 621q0 35 35.5 104t122.5 207q131 210 166 250q21 16 51 16q32 0 43.5 -12t11.5 -41q0 -5 -0.5 -9.5t-3.5 -10.5t-5 -10.5t-8 -13.5t-10.5 -15.5t-14.5 -21.5t-17 -26q-45 -65 -88.5 -132.5t-111.5 -179t-87 -142.5q-13 -29 -33 -29q-24 0 -37.5 19t-13.5 47z" />
<glyph unicode="&#xba;" horiz-adv-x="567" d="M80 410q0 26 21 52t46 27q264 9 297 9q29 0 29 -25q0 -21 -23.5 -49.5t-50.5 -32.5q-245 -10 -290 -10q-29 0 -29 29zM205 662q0 69 67.5 183.5t159.5 209.5q95 104 176 104q12 0 24 -6.5t21 -14.5t29 -28q2 -2 9.5 -9t10.5 -10.5t8 -11.5t7 -17.5t2 -21.5 q0 -39 -34.5 -118.5t-85.5 -162t-120 -144.5t-129 -62q-29 0 -61 4q-41 6 -62.5 34t-21.5 71zM328 666q0 -25 18 -25q35 0 76.5 41.5t50.5 60.5q125 180 125 269q0 22 -12 22q-30 0 -85.5 -58.5t-105 -140t-61.5 -139.5l-3.5 -14t-2.5 -16z" />
<glyph unicode="&#xbb;" horiz-adv-x="1316" d="M70 33q0 32 27 56t102 56q120 51 264.5 138.5t144.5 111.5q0 23 -56 76t-112 98q-11 9 -35 24t-37.5 26.5t-13.5 21.5q0 9 56 41q16 8 30 8q31 0 191 -94q95 -56 162 -117.5t67 -93.5q0 -41 -160.5 -136.5t-345 -173t-250.5 -77.5q-12 0 -23 11.5t-11 23.5zM547 -2 q0 33 27.5 57t101.5 56q120 52 264.5 138.5t144.5 110.5q0 23 -57 77.5t-110 97.5q-11 9 -35.5 24t-38 26t-13.5 21q0 9 56 41q16 8 31 8q30 0 190 -94q95 -56 162 -117.5t67 -93.5q0 -41 -160 -136.5t-344.5 -173t-250.5 -77.5q-12 0 -23.5 11.5t-11.5 23.5z" />
<glyph unicode="&#xbc;" horiz-adv-x="1093" d="M121 154q0 32 189.5 268.5t390 460t227.5 223.5q12 0 27.5 -48t15.5 -67q0 -10 -4.5 -17.5t-10 -12.5t-19.5 -15.5t-24 -19.5q-162 -156 -360.5 -376.5t-312.5 -381.5q-63 -87 -69 -92q-4 -2 -7 -2q-14 0 -28.5 31t-14.5 49zM180 621q0 35 35.5 104t122.5 207 q126 202 168 250q21 16 51 16q31 0 42 -12t11 -41q0 -5 -0.5 -9.5t-3.5 -10.5t-5 -10.5t-8 -13.5t-10.5 -15.5t-14.5 -21.5t-17 -26q-85 -122 -287 -454q-7 -17 -14 -23t-19 -6q-23 0 -37 19.5t-14 46.5zM461 229q0 90 330 310q144 98 180 98q40 0 65 -29q25 -28 25 -67 q0 -16 -17 -33q-127 -171 -145 -197h10q28 0 52 -15t24 -32q0 -45 -33 -45q-36 0 -118 -4q-12 -19 -101 -178q-10 -43 -45 -43q-26 0 -43.5 17.5t-17.5 45.5q0 54 55 133q-148 -26 -158 -26q-21 0 -42 21t-21 44zM608 279l140 22q123 164 155 201q-70 -38 -162 -108.5 t-133 -114.5z" />
<glyph unicode="&#xbd;" horiz-adv-x="1116" d="M121 154q0 32 189.5 268.5t390 460t227.5 223.5q12 0 27.5 -48t15.5 -67q0 -10 -4.5 -17.5t-10 -12.5t-19.5 -15.5t-24 -19.5q-162 -156 -360.5 -376.5t-312.5 -381.5q-63 -87 -69 -92q-4 -2 -7 -2q-14 0 -28.5 31t-14.5 49zM180 621q0 35 35.5 104t122.5 207 q126 202 168 250q21 16 51 16q31 0 42 -12t11 -41q0 -5 -0.5 -9.5t-3.5 -10.5t-5 -10.5t-8 -13.5t-10.5 -15.5t-14.5 -21.5t-17 -26q-85 -122 -287 -454q-7 -17 -14 -23t-19 -6q-23 0 -37 19.5t-14 46.5zM449 68q0 68 95 141.5t226 132.5q138 63 202 103t64 69q0 21 -57 21 q-110 0 -231 -78q-4 -2 -12.5 -8.5t-14.5 -10t-14 -7t-15 -3.5q-33 0 -33 47q0 42 54.5 82t119 61t105.5 21q86 0 146.5 -51.5t60.5 -104.5q0 -47 -40 -88.5t-105 -75t-133.5 -63t-139.5 -66.5t-109 -73q86 6 162 6q59 0 86 -14q27 -13 44.5 -35.5t17.5 -40.5q0 -33 -29 -33 q-11 0 -40 2t-54 2q-87 0 -153 -5.5t-98.5 -11t-37.5 -5.5q-32 0 -49.5 28.5t-17.5 57.5z" />
<glyph unicode="&#xbe;" horiz-adv-x="1349" d="M195 645q0 35 30 35q6 0 40.5 -8t51.5 -8q114 0 180 41t66 81q0 52 -129 52q-43 0 -59.5 8.5t-16.5 36.5q0 23 11 39t30 16q5 -2 17 -2q33 0 89.5 10.5t102.5 30.5q99 47 99 86q0 29 -48 29q-51 0 -106 -18t-86 -56q-12 -12 -31 -12q-22 0 -35.5 15t-13.5 34q0 49 79 99 t152 50q74 0 128.5 -50.5t54.5 -111.5q0 -122 -174 -176q53 -41 53 -100q0 -68 -52.5 -120t-124 -75.5t-145.5 -23.5q-163 0 -163 98zM377 154q0 32 189.5 268.5t390 460t227.5 223.5q12 0 27.5 -48t15.5 -67q0 -10 -4.5 -17.5t-10 -12.5t-18.5 -15.5t-23 -19.5 q-162 -155 -361 -375.5t-312 -382.5q-65 -87 -71 -92q-4 -2 -7 -2q-14 0 -28.5 31t-14.5 49zM717 229q0 90 330 310q144 98 180 98q38 0 67 -29q23 -29 23 -67q0 -16 -17 -33q-127 -171 -145 -197h10q28 0 52 -15t24 -32q0 -45 -33 -45q-36 0 -118 -4q-12 -19 -101 -178 q-10 -43 -45 -43q-26 0 -43.5 17.5t-17.5 45.5q0 54 55 133q-148 -26 -158 -26q-21 0 -42 21t-21 44zM866 279l138 22q123 164 155 201q-71 -38 -162.5 -109t-130.5 -114z" />
<glyph unicode="&#xbf;" horiz-adv-x="755" d="M-274 -252q0 51 14 96.5t36 81.5t59.5 71t72.5 60.5t86.5 53.5t91.5 46.5t98 43.5q65 28 100.5 43.5t79 35.5t64.5 31.5t46 28t35 28.5t20 28.5t13 33t3 37.5q0 55 35 55q29 0 57.5 -37t28.5 -86q0 -74 -87.5 -163t-256.5 -164q-114 -51 -194 -93.5t-126 -73.5t-71 -61 t-32.5 -52t-7.5 -50q0 -42 30.5 -60t72.5 -18q70 0 160.5 46t159.5 114t83 129q0 23 10 33t37 10q43 0 71 -27.5t36 -56t8 -53.5q0 -51 -53 -110.5t-131 -113.5q-187 -131 -385 -131q-116 0 -190 78.5t-74 165.5zM598 635q0 60 47.5 117t106.5 57q39 0 69.5 -37.5 t30.5 -79.5q0 -51 -48 -97t-102 -46q-40 0 -72 23t-32 63z" />
<glyph unicode="&#xc0;" horiz-adv-x="970" d="M-78 82q0 31 17 64.5t33.5 53.5t52.5 58q128 137 298 300t276.5 259.5t340.5 306.5q3 3 9 8q89 85 114 85q52 0 78 -37q26 -8 43.5 -16t38.5 -21t32 -32t11 -42q0 -17 -75.5 -193t-177 -426t-149.5 -409q-1 -5 -4.5 -20t-6.5 -25.5t-7.5 -22t-12 -18t-16.5 -6.5 q-33 0 -74 39.5t-41 85.5q0 58 74 254q-128 -4 -282 -28t-248 -52q-113 -110 -178 -185q-9 -11 -21 -26.5t-19.5 -25t-16 -19.5t-15 -14.5t-12.5 -4.5q-17 0 -39.5 40t-22.5 69zM461 453q3 0 375 32q34 88 96 245.5t80 205.5q-40 -28 -210 -176.5t-341 -306.5zM1024 1491 q0 53 90 53q47 0 70 -35q22 -32 54 -97.5t32 -84.5q0 -29 -28.5 -43t-47.5 -14q-12 0 -23.5 10t-20 22t-24.5 37t-28 41q-11 14 -29 35.5t-25 31t-13.5 22t-6.5 22.5z" />
<glyph unicode="&#xc1;" horiz-adv-x="970" d="M-78 82q0 31 17 64.5t33.5 53.5t52.5 58q128 137 298 300t276.5 259.5t340.5 306.5q3 3 9 8q89 85 114 85q52 0 78 -37q26 -8 43.5 -16t38.5 -21t32 -32t11 -42q0 -17 -75.5 -193t-177 -426t-149.5 -409q-1 -5 -4.5 -20t-6.5 -25.5t-7.5 -22t-12 -18t-16.5 -6.5 q-33 0 -74 39.5t-41 85.5q0 58 74 254q-128 -4 -282 -28t-248 -52q-113 -110 -178 -185q-9 -11 -21 -26.5t-19.5 -25t-16 -19.5t-15 -14.5t-12.5 -4.5q-17 0 -39.5 40t-22.5 69zM461 453q3 0 375 32q34 88 96 245.5t80 205.5q-40 -28 -210 -176.5t-341 -306.5zM1137 1331 q30 26 82.5 82t89.5 94.5t47 38.5q30 0 47.5 -35t17.5 -61q0 -20 -51.5 -67t-104.5 -84t-61 -37q-24 0 -45.5 23t-21.5 46z" />
<glyph unicode="&#xc2;" horiz-adv-x="970" d="M-78 82q0 31 17 64.5t33.5 53.5t52.5 58q128 137 298 300t276.5 259.5t340.5 306.5q3 3 9 8q89 85 114 85q52 0 78 -37q26 -8 43.5 -16t38.5 -21t32 -32t11 -42q0 -17 -75.5 -193t-177 -426t-149.5 -409q-1 -5 -4.5 -20t-6.5 -25.5t-7.5 -22t-12 -18t-16.5 -6.5 q-33 0 -74 39.5t-41 85.5q0 58 74 254q-128 -4 -282 -28t-248 -52q-113 -110 -178 -185q-9 -11 -21 -26.5t-19.5 -25t-16 -19.5t-15 -14.5t-12.5 -4.5q-17 0 -39.5 40t-22.5 69zM461 453q3 0 375 32q34 88 96 245.5t80 205.5q-40 -28 -210 -176.5t-341 -306.5zM901 1315 q0 19 10 37t34 38.5t46.5 37t64.5 46t72 52.5q56 46 80 49q12 0 15 -6q12 6 22 6q12 0 58.5 -90t46.5 -115q0 -33 -26.5 -56t-48 -29.5t-30.5 -6.5q-4 0 -6.5 4.5t-3.5 10t-2.5 13.5t-3.5 13q-25 69 -53 123q-25 -16 -84 -58.5t-103.5 -74t-48.5 -31.5q-8 0 -16 2.5 t-15.5 11.5t-7.5 23z" />
<glyph unicode="&#xc3;" horiz-adv-x="970" d="M-78 82q0 31 17 64.5t33.5 53.5t52.5 58q128 137 298 300t276.5 259.5t340.5 306.5q3 3 9 8q89 85 114 85q52 0 78 -37q26 -8 43.5 -16t38.5 -21t32 -32t11 -42q0 -17 -75.5 -193t-177 -426t-149.5 -409q-1 -5 -4.5 -20t-6.5 -25.5t-7.5 -22t-12 -18t-16.5 -6.5 q-33 0 -74 39.5t-41 85.5q0 58 74 254q-128 -4 -282 -28t-248 -52q-113 -110 -178 -185q-9 -11 -21 -26.5t-19.5 -25t-16 -19.5t-15 -14.5t-12.5 -4.5q-17 0 -39.5 40t-22.5 69zM461 453q3 0 375 32q34 88 96 245.5t80 205.5q-40 -28 -210 -176.5t-341 -306.5zM879 1358 q0 32 45.5 67t93.5 35q41 0 96 -35.5t76 -35.5q26 0 59 27.5t45 27.5q20 0 32.5 -15.5t12.5 -44.5q0 -30 -52 -69t-97 -39q-28 0 -86 36t-90 36q-25 0 -58.5 -29t-44.5 -29q-15 0 -23.5 19t-8.5 49z" />
<glyph unicode="&#xc4;" horiz-adv-x="970" d="M-78 82q0 31 17 64.5t33.5 53.5t52.5 58q128 137 298 300t276.5 259.5t340.5 306.5q3 3 9 8q89 85 114 85q52 0 78 -37q26 -8 43.5 -16t38.5 -21t32 -32t11 -42q0 -17 -75.5 -193t-177 -426t-149.5 -409q-1 -5 -4.5 -20t-6.5 -25.5t-7.5 -22t-12 -18t-16.5 -6.5 q-33 0 -74 39.5t-41 85.5q0 58 74 254q-128 -4 -282 -28t-248 -52q-113 -110 -178 -185q-9 -11 -21 -26.5t-19.5 -25t-16 -19.5t-15 -14.5t-12.5 -4.5q-17 0 -39.5 40t-22.5 69zM461 453q3 0 375 32q34 88 96 245.5t80 205.5q-40 -28 -210 -176.5t-341 -306.5zM889 1356 q0 41 42 88t95 47q21 0 40 -22.5t19 -49.5q0 -44 -39 -91.5t-73 -47.5q-35 0 -59.5 21.5t-24.5 54.5zM1167 1356q0 41 42.5 88t95.5 47q21 0 39 -22.5t18 -49.5q0 -44 -39.5 -91.5t-73.5 -47.5q-33 0 -57.5 21.5t-24.5 54.5z" />
<glyph unicode="&#xc5;" horiz-adv-x="970" d="M-78 82q0 31 17 64.5t33.5 53.5t52.5 58q128 137 298 300t276.5 259.5t340.5 306.5q3 3 9 8q89 85 114 85q52 0 78 -37q26 -8 43.5 -16t38.5 -21t32 -32t11 -42q0 -17 -75.5 -193t-177 -426t-149.5 -409q-1 -5 -4.5 -20t-6.5 -25.5t-7.5 -22t-12 -18t-16.5 -6.5 q-33 0 -74 39.5t-41 85.5q0 58 74 254q-128 -4 -282 -28t-248 -52q-113 -110 -178 -185q-9 -11 -21 -26.5t-19.5 -25t-16 -19.5t-15 -14.5t-12.5 -4.5q-17 0 -39.5 40t-22.5 69zM461 453q3 0 375 32q34 88 96 245.5t80 205.5q-40 -28 -210 -176.5t-341 -306.5zM1128 1323 q0 65 50.5 129t111.5 64q37 0 58.5 -28.5t21.5 -62.5q0 -68 -57 -120q-27 -27 -60 -41.5t-57 -14.5q-29 0 -48.5 19.5t-19.5 54.5zM1194 1333q0 -26 25 -26q29 0 58.5 35.5t29.5 66.5q0 13 -7 22t-18 9q-28 0 -58 -36t-30 -71z" />
<glyph unicode="&#xc6;" horiz-adv-x="1634" d="M-78 35q0 45 25.5 84t77.5 92q129 138 292 295t287 269.5t336 301.5q98 92 123 92q72 0 158 -82q141 39 308 70t255 31q26 0 55 -29q57 -50 57 -102q0 -29 -13.5 -39t-39.5 -10q-90 0 -293 -39.5t-258 -61.5q-48 -51 -157 -227q6 0 175 19.5t218 19.5q43 0 65 -11.5 t33 -37.5q19 -30 19 -62q0 -26 -15 -35.5t-61 -19.5q-44 -9 -188 -34.5t-242 -45.5t-144 -37q-87 -151 -141 -274q123 19 319.5 38t272.5 19q58 0 88 -9.5t47 -33.5q21 -32 21 -47q0 -31 -17.5 -43t-68.5 -18q-187 -27 -341.5 -58.5t-229 -54t-127 -38t-70.5 -15.5 q-31 0 -50 23t-28 83q-35 78 -35 137q0 28 57 131q-268 -23 -448 -75q-134 -134 -176 -185q-9 -11 -21 -27t-19.5 -25.5t-16 -19t-15.5 -14t-14 -4.5q-15 0 -37.5 39.5t-22.5 69.5zM461 403q50 7 319 33l127 201q118 188 219 338q-285 -220 -665 -572z" />
<glyph unicode="&#xc7;" horiz-adv-x="931" d="M170 358q0 98 47 206t122.5 201t171 179t190.5 146.5t183 96.5t148 36q34 0 57.5 -13t53.5 -51q45 -31 63.5 -58.5t18.5 -64.5q0 -88 -105 -233q-70 -93 -102 -123.5t-51 -30.5q-30 0 -51 24t-21 64q0 60 26 146t56 147q-84 -19 -191.5 -92.5t-203 -173t-161 -224 t-65.5 -233.5q0 -145 197 -145q68 0 148.5 24.5t148 59.5t124.5 70.5t93.5 60t40.5 24.5q8 0 8 -12q0 -15 -14 -43v-35q-5 -27 -48 -76.5t-109.5 -102.5t-163 -97t-191.5 -55q-2 -6 -12.5 -26.5t-14.5 -33.5q46 12 74 12q49 0 68.5 -27t19.5 -59q0 -70 -79 -119t-169 -49 q-65 0 -65 48q0 10 4.5 19t9 13t6.5 4q1 0 18 -5t37 -5q60 0 108 28.5t48 61.5q0 35 -31 35q-27 0 -55 -10.5t-46 -21.5t-22 -11q-13 0 -31 19.5t-18 29.5q0 9 17 36t45 56q-147 10 -239.5 123t-92.5 260z" />
<glyph unicode="&#xc8;" horiz-adv-x="1011" d="M14 145q0 62 271 492q272 426 317 461q12 4 29 4l18 -2q97 27 261.5 57.5t250.5 30.5q29 0 58 -29q55 -55 55 -102q0 -30 -13 -39.5t-40 -9.5q-91 0 -293.5 -39.5t-257.5 -61.5q-46 -48 -156 -227q7 1 175.5 20t215.5 19q42 0 64.5 -11t36.5 -38q18 -48 18 -62 q0 -26 -16 -35.5t-62 -19.5q-46 -9 -187 -34t-240.5 -45.5t-145.5 -37.5q-98 -176 -144 -274q127 19 323 38t273 19q58 0 88.5 -9.5t47.5 -33.5q20 -30 20 -47q0 -31 -18 -43t-70 -18q-187 -27 -341 -58.5t-228.5 -54t-127 -38t-69.5 -15.5q-31 0 -50.5 23t-29.5 83 q-33 73 -33 137zM707 1485q0 30 28 42.5t62 12.5q45 0 69 -37q23 -37 54.5 -100.5t31.5 -81.5q0 -28 -28.5 -42.5t-46.5 -14.5q-12 0 -24 10t-20.5 22.5t-24.5 37t-28 40.5q-10 13 -24 29.5t-21 25.5t-14.5 20t-10.5 19.5t-3 16.5z" />
<glyph unicode="&#xc9;" horiz-adv-x="1011" d="M14 145q0 62 271 492q272 426 317 461q12 4 29 4l18 -2q97 27 261.5 57.5t250.5 30.5q29 0 58 -29q55 -55 55 -102q0 -30 -13 -39.5t-40 -9.5q-91 0 -293.5 -39.5t-257.5 -61.5q-46 -48 -156 -227q7 1 175.5 20t215.5 19q42 0 64.5 -11t36.5 -38q18 -48 18 -62 q0 -26 -16 -35.5t-62 -19.5q-46 -9 -187 -34t-240.5 -45.5t-145.5 -37.5q-98 -176 -144 -274q127 19 323 38t273 19q58 0 88.5 -9.5t47.5 -33.5q20 -30 20 -47q0 -31 -18 -43t-70 -18q-187 -27 -341 -58.5t-228.5 -54t-127 -38t-69.5 -15.5q-31 0 -50.5 23t-29.5 83 q-33 73 -33 137zM834 1327q31 27 83 82.5t88.5 94t45.5 38.5q31 0 49 -35t18 -61q0 -28 -101.5 -108.5t-115.5 -80.5q-24 0 -45.5 23.5t-21.5 46.5z" />
<glyph unicode="&#xca;" horiz-adv-x="1011" d="M14 145q0 62 271 492q272 426 317 461q12 4 29 4l18 -2q97 27 261.5 57.5t250.5 30.5q29 0 58 -29q55 -55 55 -102q0 -30 -13 -39.5t-40 -9.5q-91 0 -293.5 -39.5t-257.5 -61.5q-46 -48 -156 -227q7 1 175.5 20t215.5 19q42 0 64.5 -11t36.5 -38q18 -48 18 -62 q0 -26 -16 -35.5t-62 -19.5q-46 -9 -187 -34t-240.5 -45.5t-145.5 -37.5q-98 -176 -144 -274q127 19 323 38t273 19q58 0 88.5 -9.5t47.5 -33.5q20 -30 20 -47q0 -31 -18 -43t-70 -18q-187 -27 -341 -58.5t-228.5 -54t-127 -38t-69.5 -15.5q-31 0 -50.5 23t-29.5 83 q-33 73 -33 137zM719 1303q0 19 10 37t33.5 38.5t45.5 36.5t64 45.5t72 52.5q58 47 80 50q10 0 14 -7q14 7 23 7q12 0 58 -90t46 -115q0 -33 -26 -56t-47.5 -29.5t-30.5 -6.5q-5 0 -8 6t-5 18t-4 17q-25 69 -53 123q-25 -16 -83.5 -58.5t-103 -74t-48.5 -31.5 q-8 0 -15.5 2.5t-14.5 11.5t-7 23z" />
<glyph unicode="&#xcb;" horiz-adv-x="1011" d="M14 145q0 62 271 492q272 426 317 461q12 4 29 4l18 -2q97 27 261.5 57.5t250.5 30.5q29 0 58 -29q55 -55 55 -102q0 -30 -13 -39.5t-40 -9.5q-91 0 -293.5 -39.5t-257.5 -61.5q-46 -48 -156 -227q7 1 175.5 20t215.5 19q42 0 64.5 -11t36.5 -38q18 -48 18 -62 q0 -26 -16 -35.5t-62 -19.5q-46 -9 -187 -34t-240.5 -45.5t-145.5 -37.5q-98 -176 -144 -274q127 19 323 38t273 19q58 0 88.5 -9.5t47.5 -33.5q20 -30 20 -47q0 -31 -18 -43t-70 -18q-187 -27 -341 -58.5t-228.5 -54t-127 -38t-69.5 -15.5q-31 0 -50.5 23t-29.5 83 q-33 73 -33 137zM676 1331q0 42 41.5 88.5t95.5 46.5q21 0 39 -22t18 -49q0 -44 -38.5 -92t-73.5 -48q-33 0 -57.5 21.5t-24.5 54.5zM971 1354q0 41 42 88t95 47q21 0 39 -22.5t18 -49.5q0 -45 -39 -93t-73 -48q-33 0 -57.5 22t-24.5 56z" />
<glyph unicode="&#xcc;" horiz-adv-x="403" d="M-25 49q0 49 97 240q82 164 215.5 387t208.5 336q45 68 80 97.5t79 29.5q37 0 65 -17t28 -37q0 -10 -9.5 -26.5t-24.5 -38t-20 -29.5q-125 -188 -296 -469.5t-294 -503.5q-4 -8 -10 -24t-10 -24t-9 -17.5t-10 -14t-10 -4.5q-18 0 -49 42t-31 73zM532 1440q0 53 89 53 q46 0 69 -35q22 -33 55 -98.5t33 -83.5q0 -28 -30 -42.5t-48 -14.5q-9 0 -17.5 5.5t-17.5 17t-17 23t-21 31t-23 33.5q-9 12 -23.5 29.5t-21 26t-14 19.5t-10.5 19.5t-3 16.5z" />
<glyph unicode="&#xcd;" horiz-adv-x="403" d="M-25 49q0 49 97 240q82 164 215.5 387t208.5 336q45 68 80 97.5t79 29.5q37 0 65 -17t28 -37q0 -10 -9.5 -26.5t-24.5 -38t-20 -29.5q-125 -188 -296 -469.5t-294 -503.5q-4 -8 -10 -24t-10 -24t-9 -17.5t-10 -14t-10 -4.5q-18 0 -49 42t-31 73zM588 1307 q30 27 82.5 83.5t89 95t45.5 38.5q31 0 49 -35.5t18 -61.5q0 -20 -51.5 -67t-104.5 -84t-61 -37q-24 0 -45.5 23.5t-21.5 44.5z" />
<glyph unicode="&#xce;" horiz-adv-x="403" d="M-25 49q0 49 97 240q82 164 215.5 387t208.5 336q45 68 80 97.5t79 29.5q37 0 65 -17t28 -37q0 -10 -9.5 -26.5t-24.5 -38t-20 -29.5q-125 -188 -296 -469.5t-294 -503.5q-4 -8 -10 -24t-10 -24t-9 -17.5t-10 -14t-10 -4.5q-18 0 -49 42t-31 73zM451 1231q0 18 9.5 35.5 t34 39t46 37t65 47l72.5 52.5q62 47 80 49q8 0 14 -6q12 6 21 6q13 0 59.5 -90t46.5 -115q0 -33 -26 -56t-47.5 -29.5t-30.5 -6.5q-5 0 -8 6t-5 18t-4 17q-18 49 -53 121q-26 -16 -84.5 -57.5t-103.5 -73t-48 -31.5q-8 0 -15.5 2.5t-15 11.5t-7.5 23z" />
<glyph unicode="&#xcf;" horiz-adv-x="403" d="M-25 49q0 49 97 240q82 164 215.5 387t208.5 336q45 68 80 97.5t79 29.5q37 0 65 -17t28 -37q0 -10 -9.5 -26.5t-24.5 -38t-20 -29.5q-125 -188 -296 -469.5t-294 -503.5q-4 -8 -10 -24t-10 -24t-9 -17.5t-10 -14t-10 -4.5q-18 0 -49 42t-31 73zM428 1294q0 42 41.5 89 t95.5 47q21 0 39.5 -22.5t18.5 -49.5q0 -44 -39 -91.5t-74 -47.5q-33 0 -57.5 21t-24.5 54zM707 1294q0 41 41.5 88.5t93.5 47.5q21 0 40 -22.5t19 -49.5q0 -44 -39.5 -91.5t-73.5 -47.5t-57.5 21t-23.5 54z" />
<glyph unicode="&#xd0;" horiz-adv-x="1067" d="M72 166q0 41 59 163.5t150 278.5h-23q-41 0 -68.5 39t-27.5 60q0 14 9 19t38 5h143q109 182 195 313t104 138q4 2 19 2l22 -2q11 2 70.5 20t120 30.5t114.5 12.5q66 0 106 -17.5t77 -68.5q82 -106 82 -254q0 -253 -213 -506q-112 -132 -267.5 -233t-286 -147t-219.5 -46 q-35 0 -64 17.5t-60 72.5q-36 22 -58 50t-22 53zM258 195q9 -27 57 -27q104 0 243 80.5t255.5 193.5t198.5 243.5t82 223.5q0 69 -42 101t-112 32q-57 0 -129 -21t-109 -46q-32 -39 -149 -236h10q49 0 76.5 -2t53 -10t36 -24.5t10.5 -43.5q0 -34 -4.5 -42.5t-21.5 -8.5 q-5 0 -50 4t-81 4q-9 0 -44 -1t-59 -1q-184 -322 -221 -419z" />
<glyph unicode="&#xd1;" horiz-adv-x="989" d="M-27 68q0 22 16.5 61t53 102t66 111t85.5 137t82 131q73 114 175 274q121 189 147 225t45 36q8 0 24 -4t19 -4q44 22 70 22q24 0 24 -37q0 -70 -10 -361t-10 -335q31 53 99 175t123 217.5t117 197.5t108 159.5t69 57.5q12 0 21.5 -4t15.5 -10t20 -21q33 -36 33 -55 q0 -9 -2.5 -17.5t-5.5 -13.5t-13.5 -22t-17.5 -29q-239 -399 -563 -1067q-13 -21 -41 -21q-40 0 -72 47q-43 24 -53 54q-6 34 -6 215q0 107 3 295t3 209q-101 -167 -379 -660q-20 -35 -38 -69t-27.5 -53.5t-18.5 -37.5t-14 -26.5t-11.5 -15t-13 -8t-16.5 -1.5q-46 0 -78 76 q-4 7 -10 18t-8.5 16t-5.5 12t-4 12.5t-1 11.5zM748 1346q0 32 45.5 67t93.5 35q41 0 96 -36t76 -36q26 0 58.5 28t43.5 28q21 0 34 -15t13 -45t-52 -69t-97 -39q-29 0 -86.5 35.5t-89.5 35.5q-25 0 -59 -28.5t-44 -28.5q-15 0 -23.5 19t-8.5 49z" />
<glyph unicode="&#xd2;" d="M162 338q0 92 30.5 195t83.5 200.5t129 187t161.5 156t186.5 106.5t199 40q64 0 120 -47t88 -121.5t32 -155.5q0 -148 -70 -316t-174 -301t-232 -221t-237 -88q-105 0 -188 86q-71 69 -100 135.5t-29 143.5zM354 344q0 -68 33 -113t105 -45q86 0 182.5 76.5t171 188 t123.5 242t49 233.5q0 80 -31 116.5t-78 36.5q-25 0 -57 -12q-60 -24 -108.5 -61t-71.5 -66t-42 -50.5t-28 -21.5q-6 0 -12 6q-88 -92 -162 -243t-74 -287zM696 1526q0 53 90 53q48 0 68 -35q22 -33 55 -98.5t33 -83.5q0 -19 -17.5 -33t-34 -19t-24.5 -5q-12 0 -23.5 10 t-20.5 22t-25 36.5t-29 41.5q-11 15 -27.5 35.5t-24.5 30.5t-14 22.5t-6 22.5z" />
<glyph unicode="&#xd3;" d="M162 338q0 92 30.5 195t83.5 200.5t129 187t161.5 156t186.5 106.5t199 40q64 0 120 -47t88 -121.5t32 -155.5q0 -148 -70 -316t-174 -301t-232 -221t-237 -88q-105 0 -188 86q-71 69 -100 135.5t-29 143.5zM354 344q0 -68 33 -113t105 -45q86 0 182.5 76.5t171 188 t123.5 242t49 233.5q0 80 -31 116.5t-78 36.5q-25 0 -57 -12q-60 -24 -108.5 -61t-71.5 -66t-42 -50.5t-28 -21.5q-6 0 -12 6q-88 -92 -162 -243t-74 -287zM774 1370q30 27 82.5 83.5t89 95t45.5 38.5q30 0 49 -35.5t19 -60.5q0 -20 -52 -67t-105 -84t-60 -37q-24 0 -46 23 t-22 44z" />
<glyph unicode="&#xd4;" d="M162 338q0 92 30.5 195t83.5 200.5t129 187t161.5 156t186.5 106.5t199 40q64 0 120 -47t88 -121.5t32 -155.5q0 -148 -70 -316t-174 -301t-232 -221t-237 -88q-105 0 -188 86q-71 69 -100 135.5t-29 143.5zM354 344q0 -68 33 -113t105 -45q86 0 182.5 76.5t171 188 t123.5 242t49 233.5q0 80 -31 116.5t-78 36.5q-25 0 -57 -12q-60 -24 -108.5 -61t-71.5 -66t-42 -50.5t-28 -21.5q-6 0 -12 6q-88 -92 -162 -243t-74 -287zM700 1327q0 19 10 37t33.5 38.5t46 37t64.5 46t72 52.5q60 47 82 49q8 0 14 -6q9 6 20 6q13 0 59 -90t46 -115 q0 -33 -26.5 -56t-47.5 -29.5t-29 -6.5q-4 0 -6.5 4.5t-4 10t-3 13.5t-4.5 13q-14 43 -51 123q-25 -17 -84.5 -59t-104 -73.5t-47.5 -31.5q-8 0 -16 2.5t-15.5 11.5t-7.5 23z" />
<glyph unicode="&#xd5;" d="M162 338q0 92 30.5 195t83.5 200.5t129 187t161.5 156t186.5 106.5t199 40q64 0 120 -47t88 -121.5t32 -155.5q0 -148 -70 -316t-174 -301t-232 -221t-237 -88q-105 0 -188 86q-71 69 -100 135.5t-29 143.5zM354 344q0 -68 33 -113t105 -45q86 0 182.5 76.5t171 188 t123.5 242t49 233.5q0 80 -31 116.5t-78 36.5q-25 0 -57 -12q-60 -24 -108.5 -61t-71.5 -66t-42 -50.5t-28 -21.5q-6 0 -12 6q-88 -92 -162 -243t-74 -287zM686 1386q0 32 45.5 67.5t93.5 35.5q41 0 96 -36t76 -36q26 0 59 28t44 28q21 0 34 -15t13 -45t-52.5 -69t-97.5 -39 q-29 0 -86.5 35.5t-89.5 35.5q-25 0 -58.5 -28.5t-43.5 -28.5q-15 0 -24 18.5t-9 48.5z" />
<glyph unicode="&#xd6;" d="M162 338q0 92 30.5 195t83.5 200.5t129 187t161.5 156t186.5 106.5t199 40q64 0 120 -47t88 -121.5t32 -155.5q0 -148 -70 -316t-174 -301t-232 -221t-237 -88q-105 0 -188 86q-71 69 -100 135.5t-29 143.5zM354 344q0 -68 33 -113t105 -45q86 0 182.5 76.5t171 188 t123.5 242t49 233.5q0 80 -31 116.5t-78 36.5q-25 0 -57 -12q-60 -24 -108.5 -61t-71.5 -66t-42 -50.5t-28 -21.5q-6 0 -12 6q-88 -92 -162 -243t-74 -287zM686 1374q0 42 41.5 88.5t95.5 46.5q21 0 39.5 -22t18.5 -49q0 -44 -39 -93t-74 -49q-33 0 -57.5 22.5t-24.5 55.5z M963 1374q0 41 42 88t95 47q21 0 40 -22t19 -49q0 -44 -39 -93t-73 -49t-59 22.5t-25 55.5z" />
<glyph unicode="&#xd7;" horiz-adv-x="1007" d="M162 379q0 10 8 20.5t23 21t29.5 19t36 21t34.5 20.5q132 83 162 103q-106 114 -152 155q-29 23 -29 43q0 30 40.5 59t82.5 29q25 0 61 -33.5t111 -118.5q21 -25 33 -38q43 29 102 69t83 56t55 34.5t47 24.5t29 6q46 0 69 -26.5t23 -59.5q0 -38 -43 -63 q-64 -36 -258 -160q43 -49 96 -102q4 -4 19 -18t26 -24.5t21 -23.5t10 -20q0 -22 -53.5 -64.5t-75.5 -42.5q-36 0 -47 43q-62 61 -144 156q-304 -195 -323 -195q-20 0 -48 40t-28 69z" />
<glyph unicode="&#xd8;" d="M162 338q0 92 30.5 195t83.5 200.5t129 187t161.5 156t186.5 106.5t199 40q45 0 97 -27q69 84 88.5 104.5t33.5 20.5q8 0 19.5 -15t21 -43.5t9.5 -58.5q0 -6 -1.5 -11t-7 -11.5t-9 -9.5t-14 -13t-15.5 -14l-39 -43q57 -88 57 -203q0 -148 -70 -316t-174 -301t-232 -221 t-237 -88q-57 0 -125 35q-25 -32 -37 -59q-10 -17 -25 -42q-21 -35 -27 -43.5t-13 -8.5q-11 0 -31 31.5t-20 45.5q0 26 69 148q-108 113 -108 258zM354 344q0 -52 21 -96q123 191 285 423.5t290 399.5q-28 8 -41 8q-25 0 -57 -12q-60 -24 -108.5 -61t-71.5 -66t-42 -50.5 t-28 -21.5q-6 0 -12 6q-88 -92 -162 -243t-74 -287zM467 186h25q86 0 182.5 76.5t171 188t123.5 242t49 233.5q0 6 -1 18t-1 17q-227 -286 -549 -775z" />
<glyph unicode="&#xd9;" horiz-adv-x="960" d="M109 240q0 60 28 137q51 144 203 366q69 93 229 291q3 4 14 20t18.5 22t24 16t41.5 14t60 4q80 0 80 -37q0 -7 -2.5 -14t-11.5 -19t-16.5 -21t-27 -31t-34.5 -40q-161 -195 -283.5 -398.5t-122.5 -301.5q0 -72 70 -72q135 0 360 281q57 73 112 156t86.5 137t92.5 161 t90 158q19 30 43 40.5t62 10.5q39 0 52.5 -7.5t35.5 -35.5q14 -20 14 -49q0 -6 -2.5 -11t-5 -8t-11 -11t-14.5 -15q-117 -185 -216 -353.5t-146 -252.5t-164 -299q-10 -19 -20.5 -43t-16 -35.5t-13.5 -23.5t-16.5 -16.5t-21.5 -4.5q-64 0 -64 131q0 17 1 42t1 32 q-78 -86 -145.5 -136.5t-138.5 -50.5q-48 0 -91.5 27.5t-70.5 77.5q-39 70 -51 99t-12 63zM788 1413q0 53 91 53q24 0 39.5 -6.5t27.5 -27.5q22 -33 55 -98.5t33 -84.5q0 -28 -29 -42.5t-47 -14.5q-12 0 -23.5 10t-20 23t-24.5 37.5t-28 40.5q-12 15 -29 35.5t-24.5 30 t-14 22t-6.5 22.5z" />
<glyph unicode="&#xda;" horiz-adv-x="960" d="M109 240q0 60 28 137q51 144 203 366q69 93 229 291q3 4 14 20t18.5 22t24 16t41.5 14t60 4q80 0 80 -37q0 -7 -2.5 -14t-11.5 -19t-16.5 -21t-27 -31t-34.5 -40q-161 -195 -283.5 -398.5t-122.5 -301.5q0 -72 70 -72q135 0 360 281q57 73 112 156t86.5 137t92.5 161 t90 158q19 30 43 40.5t62 10.5q39 0 52.5 -7.5t35.5 -35.5q14 -20 14 -49q0 -6 -2.5 -11t-5 -8t-11 -11t-14.5 -15q-117 -185 -216 -353.5t-146 -252.5t-164 -299q-10 -19 -20.5 -43t-16 -35.5t-13.5 -23.5t-16.5 -16.5t-21.5 -4.5q-64 0 -64 131q0 17 1 42t1 32 q-78 -86 -145.5 -136.5t-138.5 -50.5q-48 0 -91.5 27.5t-70.5 77.5q-39 70 -51 99t-12 63zM879 1255q31 27 83 82.5t88.5 94t45.5 38.5q31 0 49 -35t18 -61q0 -28 -101.5 -108t-115.5 -80q-24 0 -45.5 23t-21.5 46z" />
<glyph unicode="&#xdb;" horiz-adv-x="960" d="M109 240q0 60 28 137q51 144 203 366q69 93 229 291q3 4 14 20t18.5 22t24 16t41.5 14t60 4q80 0 80 -37q0 -7 -2.5 -14t-11.5 -19t-16.5 -21t-27 -31t-34.5 -40q-161 -195 -283.5 -398.5t-122.5 -301.5q0 -72 70 -72q135 0 360 281q57 73 112 156t86.5 137t92.5 161 t90 158q19 30 43 40.5t62 10.5q39 0 52.5 -7.5t35.5 -35.5q14 -20 14 -49q0 -6 -2.5 -11t-5 -8t-11 -11t-14.5 -15q-117 -185 -216 -353.5t-146 -252.5t-164 -299q-10 -19 -20.5 -43t-16 -35.5t-13.5 -23.5t-16.5 -16.5t-21.5 -4.5q-64 0 -64 131q0 17 1 42t1 32 q-78 -86 -145.5 -136.5t-138.5 -50.5q-48 0 -91.5 27.5t-70.5 77.5q-39 70 -51 99t-12 63zM788 1233q0 19 10 37t33.5 38.5t46 37t64.5 46t72 52.5q56 46 80 49q10 0 14 -4q16 4 22 4q12 0 58.5 -90t46.5 -113q0 -33 -26.5 -56.5t-48.5 -30.5t-30 -7q-4 0 -6.5 4.5t-3.5 10 t-2.5 14.5t-3.5 14q-23 62 -53 121q-25 -16 -84 -58.5t-103.5 -74t-48.5 -31.5q-12 0 -24.5 9t-12.5 28z" />
<glyph unicode="&#xdc;" horiz-adv-x="960" d="M109 240q0 60 28 137q51 144 203 366q69 93 229 291q3 4 14 20t18.5 22t24 16t41.5 14t60 4q80 0 80 -37q0 -7 -2.5 -14t-11.5 -19t-16.5 -21t-27 -31t-34.5 -40q-161 -195 -283.5 -398.5t-122.5 -301.5q0 -72 70 -72q135 0 360 281q57 73 112 156t86.5 137t92.5 161 t90 158q19 30 43 40.5t62 10.5q39 0 52.5 -7.5t35.5 -35.5q14 -20 14 -49q0 -6 -2.5 -11t-5 -8t-11 -11t-14.5 -15q-117 -185 -216 -353.5t-146 -252.5t-164 -299q-10 -19 -20.5 -43t-16 -35.5t-13.5 -23.5t-16.5 -16.5t-21.5 -4.5q-64 0 -64 131q0 17 1 42t1 32 q-78 -86 -145.5 -136.5t-138.5 -50.5q-48 0 -91.5 27.5t-70.5 77.5q-39 70 -51 99t-12 63zM776 1274q0 41 42 88t95 47q21 0 39.5 -22.5t18.5 -49.5q0 -44 -38.5 -92.5t-72.5 -48.5t-59 22.5t-25 55.5zM1055 1274q0 41 42 88t95 47q19 0 38 -22.5t19 -49.5q0 -44 -39 -92.5 t-73 -48.5q-33 0 -57.5 22.5t-24.5 55.5z" />
<glyph unicode="&#xdd;" horiz-adv-x="614" d="M35 -57q0 63 61.5 150.5t253.5 305.5q-12 228 -12 367q0 86 7 203.5t20 140.5q18 31 57 31q15 0 53 -25q27 -18 34 -26.5t7 -20.5q0 -8 -2 -30.5t-4 -72t-2 -120.5q0 -38 4 -268q270 296 419.5 451t178.5 155q21 0 41 -27.5t20 -44.5q0 -8 -9 -23t-30.5 -40.5t-41 -48 t-55.5 -63.5t-60 -69q-518 -599 -703 -837q-31 -39 -57.5 -75t-37 -52t-20.5 -28.5t-15.5 -15.5t-14.5 -3q-92 66 -92 86zM690 1270q30 27 82.5 83.5t89 95t45.5 38.5q30 0 49 -35.5t19 -60.5q0 -29 -101.5 -109t-117.5 -80q-23 0 -44.5 23.5t-21.5 44.5z" />
<glyph unicode="&#xde;" horiz-adv-x="915" d="M-25 49q0 49 97 240q82 164 215.5 387t208.5 336q45 68 80 97.5t79 29.5q37 0 65 -17t28 -37q0 -10 -9.5 -26.5t-24.5 -38t-20 -29.5l-86 -129q110 31 166 31q90 0 170 -92q48 -55 73 -108.5t25 -92.5q0 -102 -124.5 -221t-289.5 -197t-284 -78q-112 0 -154 68l-86 -154 q-4 -8 -10 -24t-10 -24t-9 -17.5t-10 -14t-10 -4.5q-18 0 -49 42t-31 73zM272 313q19 -24 74 -24q94 0 192.5 38t169.5 92t116.5 111.5t45.5 96.5q0 80 -122 80q-64 0 -146 -24t-131 -54q-53 -72 -199 -316z" />
<glyph unicode="&#xdf;" horiz-adv-x="759" d="M-256 -342q0 40 133 305.5t199 382.5q293 523 384 665q92 144 140 177q30 21 95 47.5t122 26.5q48 0 86 -38t56 -89t18 -101q0 -41 -7 -81t-27.5 -87t-52.5 -84.5t-87 -68t-127 -41.5q46 -1 81.5 -42t35.5 -87q0 -61 -28.5 -155.5t-76 -189.5t-120.5 -163t-150 -68 q-60 0 -112 54t-68 102q-7 28 -7 41q0 18 8.5 24.5t28.5 6.5q11 0 32 -21.5t48 -21.5q53 0 100 34t79 85t55 109t34 106.5t11 78.5q0 26 -15.5 46t-38.5 20q-13 0 -48 -1t-48 -1q-14 0 -25.5 13t-11.5 30q-349 -596 -540 -1096q-1 -3 -6.5 -24.5t-12 -35.5t-14.5 -14 q-37 0 -80 42.5t-43 113.5zM483 743q73 1 132.5 25.5t95.5 59.5t60.5 78t34 78.5t9.5 62.5q0 31 -17.5 49t-37.5 18q-30 0 -91.5 -86.5t-185.5 -284.5z" />
<glyph unicode="&#xe0;" horiz-adv-x="870" d="M41 201q0 84 68 197.5t164.5 210t209 164t193.5 67.5q68 0 106.5 -59t38.5 -152q0 -27 -2 -41q35 -20 35 -41q0 -6 -12 -19t-40.5 -44t-56.5 -68q-92 -123 -92 -211q0 -24 11 -41t34 -17q89 0 254 197q64 77 80 88q10 6 17 6q43 0 43 -63q0 -41 -138 -195 q-168 -200 -299 -200q-63 0 -104 54t-41 126q0 15 4 35q-26 -34 -54.5 -65t-69 -68t-86.5 -59.5t-89 -22.5q-52 0 -113 77.5t-61 143.5zM199 213q0 -51 47 -51q60 0 201 153t210 263q-2 36 -12 52.5t-35 16.5q-56 0 -154.5 -76t-177.5 -181t-79 -177zM389 1178q0 35 32 49 t73 14q52 0 79 -41q26 -38 64.5 -115t38.5 -98q0 -23 -20.5 -39.5t-39.5 -22t-30 -5.5q-17 0 -31.5 14.5t-41 55t-40.5 59.5q-14 18 -33 42t-28 35.5t-16 25.5t-7 26z" />
<glyph unicode="&#xe1;" horiz-adv-x="870" d="M41 201q0 84 68 197.5t164.5 210t209 164t193.5 67.5q68 0 106.5 -59t38.5 -152q0 -27 -2 -41q35 -20 35 -41q0 -6 -12 -19t-40.5 -44t-56.5 -68q-92 -123 -92 -211q0 -24 11 -41t34 -17q89 0 254 197q64 77 80 88q10 6 17 6q43 0 43 -63q0 -41 -138 -195 q-168 -200 -299 -200q-63 0 -104 54t-41 126q0 15 4 35q-26 -34 -54.5 -65t-69 -68t-86.5 -59.5t-89 -22.5q-52 0 -113 77.5t-61 143.5zM199 213q0 -51 47 -51q60 0 201 153t210 263q-2 36 -12 52.5t-35 16.5q-56 0 -154.5 -76t-177.5 -181t-79 -177zM473 993q35 31 96 96.5 t104 110.5t54 45q35 0 56.5 -41t21.5 -71q0 -23 -60.5 -77.5t-122.5 -98.5t-71 -44q-27 0 -52.5 27t-25.5 53z" />
<glyph unicode="&#xe2;" horiz-adv-x="870" d="M41 201q0 84 68 197.5t164.5 210t209 164t193.5 67.5q68 0 106.5 -59t38.5 -152q0 -27 -2 -41q35 -20 35 -41q0 -6 -12 -19t-40.5 -44t-56.5 -68q-92 -123 -92 -211q0 -24 11 -41t34 -17q89 0 254 197q64 77 80 88q10 6 17 6q43 0 43 -63q0 -41 -138 -195 q-168 -200 -299 -200q-63 0 -104 54t-41 126q0 15 4 35q-26 -34 -54.5 -65t-69 -68t-86.5 -59.5t-89 -22.5q-52 0 -113 77.5t-61 143.5zM199 213q0 -51 47 -51q60 0 201 153t210 263q-2 36 -12 52.5t-35 16.5q-56 0 -154.5 -76t-177.5 -181t-79 -177zM377 942 q0 22 11.5 42.5t39 44.5t53.5 43.5t75.5 54.5t84.5 61q69 54 94 57q11 0 17 -6q12 6 24 6q15 0 69 -104.5t54 -132.5q0 -24 -12 -44t-28.5 -31.5t-35 -19.5t-30.5 -11t-15 -3q-6 0 -9 7.5t-5.5 21t-5.5 20.5q-23 66 -62 142q-30 -19 -98.5 -68t-120 -86t-55.5 -37 q-15 0 -30 10t-15 33z" />
<glyph unicode="&#xe3;" horiz-adv-x="870" d="M41 201q0 84 68 197.5t164.5 210t209 164t193.5 67.5q68 0 106.5 -59t38.5 -152q0 -27 -2 -41q35 -20 35 -41q0 -6 -12 -19t-40.5 -44t-56.5 -68q-92 -123 -92 -211q0 -24 11 -41t34 -17q89 0 254 197q64 77 80 88q10 6 17 6q43 0 43 -63q0 -41 -138 -195 q-168 -200 -299 -200q-63 0 -104 54t-41 126q0 15 4 35q-26 -34 -54.5 -65t-69 -68t-86.5 -59.5t-89 -22.5q-52 0 -113 77.5t-61 143.5zM199 213q0 -51 47 -51q60 0 201 153t210 263q-2 36 -12 52.5t-35 16.5q-56 0 -154.5 -76t-177.5 -181t-79 -177zM340 1026q0 37 53.5 78 t108.5 41q38 0 75.5 -21t69.5 -42t55 -21q30 0 68.5 32.5t52.5 32.5q24 0 39 -17.5t15 -51.5q0 -35 -61.5 -81t-113.5 -46q-33 0 -99.5 42t-104.5 42q-29 0 -68.5 -34t-52.5 -34q-17 0 -27 22.5t-10 57.5z" />
<glyph unicode="&#xe4;" horiz-adv-x="870" d="M41 201q0 84 68 197.5t164.5 210t209 164t193.5 67.5q68 0 106.5 -59t38.5 -152q0 -27 -2 -41q35 -20 35 -41q0 -6 -12 -19t-40.5 -44t-56.5 -68q-92 -123 -92 -211q0 -24 11 -41t34 -17q89 0 254 197q64 77 80 88q10 6 17 6q43 0 43 -63q0 -41 -138 -195 q-168 -200 -299 -200q-63 0 -104 54t-41 126q0 15 4 35q-26 -34 -54.5 -65t-69 -68t-86.5 -59.5t-89 -22.5q-52 0 -113 77.5t-61 143.5zM199 213q0 -51 47 -51q60 0 201 153t210 263q-2 36 -12 52.5t-35 16.5q-56 0 -154.5 -76t-177.5 -181t-79 -177zM369 1004 q0 48 48 102.5t111 54.5q24 0 46 -26.5t22 -57.5q0 -52 -45.5 -108t-85.5 -56q-39 0 -67.5 26t-28.5 65zM692 1004q0 48 49.5 102.5t110.5 54.5q24 0 46 -26.5t22 -57.5q0 -52 -46 -108t-86 -56q-39 0 -67.5 26t-28.5 65z" />
<glyph unicode="&#xe5;" horiz-adv-x="870" d="M41 201q0 84 68 197.5t164.5 210t209 164t193.5 67.5q68 0 106.5 -59t38.5 -152q0 -27 -2 -41q35 -20 35 -41q0 -6 -12 -19t-40.5 -44t-56.5 -68q-92 -123 -92 -211q0 -24 11 -41t34 -17q89 0 254 197q64 77 80 88q10 6 17 6q43 0 43 -63q0 -41 -138 -195 q-168 -200 -299 -200q-63 0 -104 54t-41 126q0 15 4 35q-26 -34 -54.5 -65t-69 -68t-86.5 -59.5t-89 -22.5q-52 0 -113 77.5t-61 143.5zM199 213q0 -51 47 -51q60 0 201 153t210 263q-2 36 -12 52.5t-35 16.5q-56 0 -154.5 -76t-177.5 -181t-79 -177zM487 975q0 74 59 148.5 t130 74.5q43 0 68.5 -32t25.5 -72q0 -33 -17 -72t-51 -70q-31 -31 -69 -47t-66 -16q-35 0 -57.5 22.5t-22.5 63.5zM563 987q0 -31 29 -31q34 0 68 41t34 78q0 35 -28 35q-33 0 -68 -41t-35 -82z" />
<glyph unicode="&#xe6;" horiz-adv-x="1126" d="M41 201q0 84 68 197.5t164.5 210t209 164t193.5 67.5q48 0 87 -28t54 -75q125 94 227 94q55 0 90 -35.5t35 -88.5q0 -107 -131.5 -246t-341.5 -283q35 -57 133 -57q39 0 76 7.5t65.5 18t60.5 31t51.5 35.5t48 44t41.5 43.5t40.5 47t36.5 43.5q2 3 6 7q31 35 44 39l10 1 q16 0 27.5 -16.5t11.5 -44.5q0 -31 -88 -139q-88 -105 -214 -181.5t-266 -76.5q-107 0 -176.5 63.5t-75.5 165.5q-29 -35 -48.5 -57t-56.5 -58.5t-66.5 -58t-68 -38.5t-73.5 -17q-52 0 -113 77.5t-61 143.5zM199 213q0 -25 12 -46.5t35 -21.5q33 0 83 37t103 97t98.5 118.5 t85.5 116.5q36 53 41 64q0 98 -47 98q-55 0 -154 -83t-178 -195.5t-79 -184.5zM680 291q125 91 221 196t96 160q0 27 -26 27q-23 0 -67 -33.5t-90.5 -85t-85 -124t-48.5 -140.5z" />
<glyph unicode="&#xe7;" horiz-adv-x="671" d="M72 293q0 81 40.5 171t102 164.5t131 136.5t132 97t100.5 35q49 0 102.5 -22t62.5 -64q29 -19 29 -66q0 -14 -2.5 -27.5t-10.5 -30t-13.5 -27t-21.5 -32t-23.5 -32t-31.5 -40t-34 -42.5q-13 -17 -18.5 -23t-20 -16t-27.5 -10q-35 0 -52 18.5t-17 42.5q0 99 123 217 q-109 -45 -202.5 -131.5t-144.5 -181.5t-51 -174q0 -63 38.5 -100t115.5 -37q58 0 117 22.5t106 58.5t75 62t48 49q13 15 27 31.5t22.5 26.5t18 21t15 17t11.5 12t10 9t8 5.5t7.5 3.5t7.5 1q20 0 30.5 -17.5t10.5 -43.5q0 -35 -115 -172q-166 -197 -354 -221 q-23 -33 -35 -64q44 14 84 14q57 0 81 -31.5t24 -68.5q0 -55 -45.5 -100.5t-111.5 -69.5t-134 -24q-76 0 -76 55q0 18 9.5 30.5t15.5 12.5l20 -6q21 -6 43 -6q70 0 126 33t56 71q0 41 -35 41q-32 0 -64 -12.5t-53.5 -24.5t-25.5 -12q-16 0 -36.5 22.5t-20.5 34.5 q0 10 18.5 41t48.5 64q-64 10 -112.5 41.5t-75.5 76t-40 93t-13 98.5z" />
<glyph unicode="&#xe8;" horiz-adv-x="657" d="M59 227q0 102 51.5 213t128.5 195.5t169 140t170 55.5q55 0 88.5 -35.5t33.5 -88.5q0 -107 -132.5 -247t-340.5 -282q32 -59 133 -59q68 0 124.5 18.5t109 60.5t89 80.5t93.5 108.5q42 51 62 51t30.5 -16.5t10.5 -42.5q0 -24 -54 -98q-91 -123 -230 -212t-282 -89 q-112 0 -183 69t-71 178zM211 289q124 91 220.5 197t96.5 161q0 27 -24 27q-23 0 -67.5 -33.5t-91.5 -85t-86 -124.5t-48 -142zM268 1167q0 35 32 49.5t73 14.5q53 0 80 -41q25 -38 63.5 -115t38.5 -98q0 -33 -34.5 -50.5t-55.5 -17.5q-17 0 -31.5 14.5t-41 55t-40.5 59.5 q-14 18 -33 42t-28 35.5t-16 25.5t-7 26z" />
<glyph unicode="&#xe9;" horiz-adv-x="657" d="M59 227q0 102 51.5 213t128.5 195.5t169 140t170 55.5q55 0 88.5 -35.5t33.5 -88.5q0 -107 -132.5 -247t-340.5 -282q32 -59 133 -59q68 0 124.5 18.5t109 60.5t89 80.5t93.5 108.5q42 51 62 51t30.5 -16.5t10.5 -42.5q0 -24 -54 -98q-91 -123 -230 -212t-282 -89 q-112 0 -183 69t-71 178zM211 289q124 91 220.5 197t96.5 161q0 27 -24 27q-23 0 -67.5 -33.5t-91.5 -85t-86 -124.5t-48 -142zM367 981q35 31 96 96.5t104 110.5t54 45q35 0 56 -41.5t21 -71.5q0 -23 -60.5 -77.5t-122.5 -98t-71 -43.5q-27 0 -52 27t-25 53z" />
<glyph unicode="&#xea;" horiz-adv-x="657" d="M59 227q0 102 51.5 213t128.5 195.5t169 140t170 55.5q55 0 88.5 -35.5t33.5 -88.5q0 -107 -132.5 -247t-340.5 -282q32 -59 133 -59q68 0 124.5 18.5t109 60.5t89 80.5t93.5 108.5q42 51 62 51t30.5 -16.5t10.5 -42.5q0 -24 -54 -98q-91 -123 -230 -212t-282 -89 q-112 0 -183 69t-71 178zM211 289q124 91 220.5 197t96.5 161q0 27 -24 27q-23 0 -67.5 -33.5t-91.5 -85t-86 -124.5t-48 -142zM281 926q0 22 11.5 42.5t39 44.5t53.5 43t75.5 53.5t84.5 61.5q70 56 94 58q10 0 16 -6q12 6 25 6q15 0 69 -105t54 -133q0 -24 -12 -44 t-28.5 -31.5t-35 -19t-30.5 -10.5t-15 -3q-6 0 -9 7.5t-5.5 21t-5.5 20.5q-22 63 -62 141q-30 -19 -98.5 -68t-120 -85.5t-55.5 -36.5q-15 0 -30 10t-15 33z" />
<glyph unicode="&#xeb;" horiz-adv-x="657" d="M59 227q0 102 51.5 213t128.5 195.5t169 140t170 55.5q55 0 88.5 -35.5t33.5 -88.5q0 -107 -132.5 -247t-340.5 -282q32 -59 133 -59q68 0 124.5 18.5t109 60.5t89 80.5t93.5 108.5q42 51 62 51t30.5 -16.5t10.5 -42.5q0 -24 -54 -98q-91 -123 -230 -212t-282 -89 q-112 0 -183 69t-71 178zM211 289q124 91 220.5 197t96.5 161q0 27 -24 27q-23 0 -67.5 -33.5t-91.5 -85t-86 -124.5t-48 -142zM264 973q0 48 48.5 102.5t111.5 54.5q24 0 46 -26t22 -57q0 -52 -46 -108t-86 -56q-39 0 -67.5 25.5t-28.5 64.5zM588 973q0 48 49.5 102.5 t110.5 54.5q24 0 45.5 -25.5t21.5 -57.5q0 -52 -45.5 -108t-85.5 -56q-39 0 -67.5 25.5t-28.5 64.5z" />
<glyph unicode="&#xec;" horiz-adv-x="460" d="M90 164q0 85 41 182q-11 0 -15 0.5t-7 2.5t-3 7q0 18 27.5 61t106.5 154q25 35 52.5 76t39.5 58.5t28 35.5t29 23.5t31 5.5q32 0 56 -31t24 -61q0 -2 -0.5 -4.5t-2 -5.5t-3 -5.5t-4.5 -7t-5.5 -7.5t-7 -9t-8 -10t-9.5 -11.5t-11 -13.5q-205 -252 -205 -389q0 -65 41 -65 q83 0 198 126q26 29 51.5 59t39 46.5t26.5 31t22 20t19 5.5q20 0 30.5 -16.5t10.5 -42.5q0 -39 -104 -162q-97 -113 -175 -175t-153 -62q-74 0 -117 54.5t-43 129.5zM233 1120q0 35 32 49.5t73 14.5q53 0 80 -41q25 -38 63.5 -115t38.5 -98q0 -33 -34.5 -50.5t-55.5 -17.5 q-17 0 -31.5 14.5t-41 55t-40.5 59.5q-14 18 -33 42t-28 35.5t-16 25.5t-7 26z" />
<glyph unicode="&#xed;" horiz-adv-x="460" d="M90 164q0 85 41 182q-11 0 -15 0.5t-7 2.5t-3 7q0 18 27.5 61t106.5 154q25 35 52.5 76t39.5 58.5t28 35.5t29 23.5t31 5.5q32 0 56 -31t24 -61q0 -2 -0.5 -4.5t-2 -5.5t-3 -5.5t-4.5 -7t-5.5 -7.5t-7 -9t-8 -10t-9.5 -11.5t-11 -13.5q-205 -252 -205 -389q0 -65 41 -65 q83 0 198 126q26 29 51.5 59t39 46.5t26.5 31t22 20t19 5.5q20 0 30.5 -16.5t10.5 -42.5q0 -39 -104 -162q-97 -113 -175 -175t-153 -62q-74 0 -117 54.5t-43 129.5zM344 930q35 31 96 96.5t104 110.5t54 45q35 0 56.5 -41.5t21.5 -71.5q0 -23 -60.5 -77.5t-122.5 -98 t-71 -43.5q-27 0 -52.5 27t-25.5 53z" />
<glyph unicode="&#xee;" horiz-adv-x="460" d="M90 164q0 85 41 182q-11 0 -15 0.5t-7 2.5t-3 7q0 18 27.5 61t106.5 154q25 35 52.5 76t39.5 58.5t28 35.5t29 23.5t31 5.5q32 0 56 -31t24 -61q0 -2 -0.5 -4.5t-2 -5.5t-3 -5.5t-4.5 -7t-5.5 -7.5t-7 -9t-8 -10t-9.5 -11.5t-11 -13.5q-205 -252 -205 -389q0 -65 41 -65 q83 0 198 126q26 29 51.5 59t39 46.5t26.5 31t22 20t19 5.5q20 0 30.5 -16.5t10.5 -42.5q0 -39 -104 -162q-97 -113 -175 -175t-153 -62q-74 0 -117 54.5t-43 129.5zM164 879q0 22 11.5 42.5t39 44.5t53.5 43t75.5 53.5t84.5 61.5q70 56 94 58q11 0 17 -6q12 6 24 6 q15 0 69 -105t54 -133q0 -24 -12 -44t-28.5 -31.5t-35 -19t-30.5 -10.5t-15 -3q-6 0 -9 7.5t-5.5 21t-5.5 20.5q-22 63 -62 141q-30 -19 -98.5 -68t-120 -85.5t-55.5 -36.5q-15 0 -30 10t-15 33z" />
<glyph unicode="&#xef;" horiz-adv-x="460" d="M90 164q0 85 41 182q-11 0 -15 0.5t-7 2.5t-3 7q0 18 27.5 61t106.5 154q25 35 52.5 76t39.5 58.5t28 35.5t29 23.5t31 5.5q32 0 56 -31t24 -61q0 -2 -0.5 -4.5t-2 -5.5t-3 -5.5t-4.5 -7t-5.5 -7.5t-7 -9t-8 -10t-9.5 -11.5t-11 -13.5q-205 -252 -205 -389q0 -65 41 -65 q83 0 198 126q26 29 51.5 59t39 46.5t26.5 31t22 20t19 5.5q20 0 30.5 -16.5t10.5 -42.5q0 -39 -104 -162q-97 -113 -175 -175t-153 -62q-74 0 -117 54.5t-43 129.5zM221 936q0 48 48.5 103t111.5 55q24 0 46 -26.5t22 -57.5q0 -52 -46 -108t-86 -56q-39 0 -67.5 25.5 t-28.5 64.5zM504 936q0 48 49.5 103t110.5 55q24 0 45.5 -26t21.5 -58q0 -52 -45.5 -108t-85.5 -56q-39 0 -67.5 25.5t-28.5 64.5z" />
<glyph unicode="&#xf0;" horiz-adv-x="806" d="M90 246q0 90 49 196.5t124 194t174.5 146.5t191.5 59q39 0 69 -27q0 123 -32 221q-115 -35 -129 -35q-22 0 -56.5 29t-34.5 45q0 22 172 76q-24 44 -53.5 82.5t-46 57t-16.5 22.5q0 47 90 47q99 0 182 -166q85 20 115 20q32 0 53 -21.5t21 -62.5q0 -12 -19 -18l-125 -29 q39 -122 39 -223q0 -162 -36.5 -306.5t-95 -246.5t-132.5 -177.5t-150 -112.5t-145 -37q-94 0 -151.5 80t-57.5 186zM256 246q0 -36 22.5 -60t61.5 -24q73 0 154.5 84t133.5 196t54 197q0 23 -17.5 39t-37.5 16q-49 0 -114 -44.5t-121.5 -110t-96 -146.5t-39.5 -147z" />
<glyph unicode="&#xf1;" horiz-adv-x="841" d="M-8 74q0 50 141 268q-6 0 -9.5 0.5t-8 6t-4.5 16.5q0 13 12 33t52.5 80t80.5 126q22 34 40 64t27.5 46.5t17 29.5t11.5 18.5t8 7.5q8 8 31 8q35 0 61.5 -29.5t26.5 -60.5q0 -17 -23 -55.5t-60 -100.5t-60 -118q102 114 266.5 268t202.5 154q33 0 58.5 -40.5t25.5 -68.5 q0 -5 -3 -12t-10.5 -18t-14.5 -20.5t-21.5 -28t-24.5 -32.5q-201 -269 -201 -419q0 -52 41 -52q51 0 117 48t133 129q10 13 28 34q43 53 58 67.5t29 14.5q43 0 43 -61q0 -36 -107 -162q-199 -242 -331 -242q-79 0 -118.5 53.5t-39.5 123.5q0 99 92 325q-122 -82 -364 -401 q-15 -20 -28 -42t-18.5 -30.5t-15 -15t-24.5 -6.5q-42 0 -79.5 30.5t-37.5 63.5zM379 995q0 37 53.5 78t108.5 41q38 0 75.5 -21t69.5 -42t55 -21q30 0 68.5 33t52.5 33q24 0 38.5 -18t14.5 -52q0 -35 -61 -81t-113 -46q-33 0 -99.5 42t-104.5 42q-29 0 -68.5 -34t-52.5 -34 q-17 0 -27 22.5t-10 57.5z" />
<glyph unicode="&#xf2;" horiz-adv-x="763" d="M90 246q0 83 34.5 169.5t93 163.5t122 140.5t135.5 120.5q21 14 35 14q2 0 9 -1t9 -1q75 47 121 47q45 0 94 -49q48 -28 68 -64.5t20 -101.5q0 -105 -55 -246h37q51 0 92.5 11t66 27t41.5 31.5t27.5 26.5t16.5 11q12 0 27.5 -20.5t15.5 -37.5q0 -23 -36 -59t-105.5 -67 t-145.5 -31q-37 0 -84 6q-79 -153 -192.5 -254.5t-237.5 -101.5q-94 0 -151.5 80t-57.5 186zM256 246q0 -36 22.5 -60t61.5 -24q61 0 126.5 63t119.5 160q-107 65 -107 195q0 29 6 59q-90 -87 -159.5 -204.5t-69.5 -188.5zM379 1229q0 35 31.5 49t72.5 14q53 0 80 -41 q26 -38 64.5 -115t38.5 -98q0 -23 -21 -39.5t-40 -22t-30 -5.5q-17 0 -31.5 14.5t-40 54.5t-40.5 60q-14 18 -33 42t-28 35.5t-16 25.5t-7 26zM608 575q0 -48 31 -79q45 109 45 182q0 27 -7.5 41t-17.5 14q-51 0 -51 -158z" />
<glyph unicode="&#xf3;" horiz-adv-x="763" d="M90 246q0 83 34.5 169.5t93 163.5t122 140.5t135.5 120.5q21 14 35 14q2 0 9 -1t9 -1q75 47 121 47q45 0 94 -49q48 -28 68 -64.5t20 -101.5q0 -105 -55 -246h37q51 0 92.5 11t66 27t41.5 31.5t27.5 26.5t16.5 11q12 0 27.5 -20.5t15.5 -37.5q0 -23 -36 -59t-105.5 -67 t-145.5 -31q-37 0 -84 6q-79 -153 -192.5 -254.5t-237.5 -101.5q-94 0 -151.5 80t-57.5 186zM256 246q0 -36 22.5 -60t61.5 -24q61 0 126.5 63t119.5 160q-107 65 -107 195q0 29 6 59q-90 -87 -159.5 -204.5t-69.5 -188.5zM518 1065q35 31 96 96.5t104 110.5t54 45 q35 0 56.5 -41.5t21.5 -71.5q0 -23 -60.5 -77.5t-122.5 -98t-71 -43.5q-27 0 -52.5 27t-25.5 53zM608 575q0 -48 31 -79q45 109 45 182q0 27 -7.5 41t-17.5 14q-51 0 -51 -158z" />
<glyph unicode="&#xf4;" horiz-adv-x="763" d="M90 246q0 83 34.5 169.5t93 163.5t122 140.5t135.5 120.5q21 14 35 14q2 0 9 -1t9 -1q75 47 121 47q45 0 94 -49q48 -28 68 -64.5t20 -101.5q0 -105 -55 -246h37q51 0 92.5 11t66 27t41.5 31.5t27.5 26.5t16.5 11q12 0 27.5 -20.5t15.5 -37.5q0 -23 -36 -59t-105.5 -67 t-145.5 -31q-37 0 -84 6q-79 -153 -192.5 -254.5t-237.5 -101.5q-94 0 -151.5 80t-57.5 186zM256 246q0 -36 22.5 -60t61.5 -24q61 0 126.5 63t119.5 160q-107 65 -107 195q0 29 6 59q-90 -87 -159.5 -204.5t-69.5 -188.5zM391 993q0 22 11.5 42.5t39 44.5t53.5 43.5 t75.5 54.5t84.5 61q68 54 95 57q10 0 16 -6q12 6 25 6q15 0 68.5 -104.5t53.5 -132.5q0 -24 -12 -44t-28.5 -31.5t-35 -19.5t-30 -11t-14.5 -3q-6 0 -9.5 7.5t-6 21t-5.5 20.5q-25 72 -61 142q-30 -19 -98.5 -68t-120.5 -86t-56 -37q-15 0 -30 10t-15 33zM608 575 q0 -48 31 -79q45 109 45 182q0 27 -7.5 41t-17.5 14q-51 0 -51 -158z" />
<glyph unicode="&#xf5;" horiz-adv-x="763" d="M90 246q0 83 34.5 169.5t93 163.5t122 140.5t135.5 120.5q21 14 35 14q2 0 9 -1t9 -1q75 47 121 47q45 0 94 -49q48 -28 68 -64.5t20 -101.5q0 -105 -55 -246h37q51 0 92.5 11t66 27t41.5 31.5t27.5 26.5t16.5 11q12 0 27.5 -20.5t15.5 -37.5q0 -23 -36 -59t-105.5 -67 t-145.5 -31q-37 0 -84 6q-79 -153 -192.5 -254.5t-237.5 -101.5q-94 0 -151.5 80t-57.5 186zM256 246q0 -36 22.5 -60t61.5 -24q61 0 126.5 63t119.5 160q-107 65 -107 195q0 29 6 59q-90 -87 -159.5 -204.5t-69.5 -188.5zM395 1067q0 37 53.5 78t108.5 41q38 0 76 -21 t70 -42t55 -21q30 0 68.5 32.5t52.5 32.5q24 0 38.5 -17.5t14.5 -51.5q0 -35 -61 -81t-113 -46q-33 0 -100 42t-105 42q-29 0 -68.5 -34t-52.5 -34q-17 0 -27 22.5t-10 57.5zM608 575q0 -48 31 -79q45 109 45 182q0 27 -7.5 41t-17.5 14q-51 0 -51 -158z" />
<glyph unicode="&#xf6;" horiz-adv-x="763" d="M90 246q0 83 34.5 169.5t93 163.5t122 140.5t135.5 120.5q21 14 35 14q2 0 9 -1t9 -1q75 47 121 47q45 0 94 -49q48 -28 68 -64.5t20 -101.5q0 -105 -55 -246h37q51 0 92.5 11t66 27t41.5 31.5t27.5 26.5t16.5 11q12 0 27.5 -20.5t15.5 -37.5q0 -23 -36 -59t-105.5 -67 t-145.5 -31q-37 0 -84 6q-79 -153 -192.5 -254.5t-237.5 -101.5q-94 0 -151.5 80t-57.5 186zM256 246q0 -36 22.5 -60t61.5 -24q61 0 126.5 63t119.5 160q-107 65 -107 195q0 29 6 59q-90 -87 -159.5 -204.5t-69.5 -188.5zM373 1038q0 48 48 103t111 55q24 0 46 -26.5 t22 -57.5q0 -52 -45.5 -108t-85.5 -56q-39 0 -67.5 25.5t-28.5 64.5zM608 575q0 -48 31 -79q45 109 45 182q0 27 -7.5 41t-17.5 14q-51 0 -51 -158zM696 1038q0 48 49.5 103t110.5 55q24 0 46 -26.5t22 -57.5q0 -52 -45.5 -108t-85.5 -56q-39 0 -68 25.5t-29 64.5z" />
<glyph unicode="&#xf7;" horiz-adv-x="913" d="M162 606q0 16 10.5 22.5t44.5 6.5q51 0 163 4t152 4q48 0 82 -0.5t73.5 -2t66 -4t54.5 -7t46 -11t33 -16t21.5 -21.5t6.5 -28q0 -40 -5.5 -52t-24.5 -12q-6 0 -49.5 3.5t-119 6.5t-159.5 3q-72 0 -170.5 -5t-112.5 -5q-49 0 -80.5 44t-31.5 70zM342 233q0 25 15 68t34 76 q36 65 76 65q45 0 86 -34t41 -58q0 -20 -39 -100q-59 -113 -104 -113q-28 0 -68.5 28t-40.5 68zM530 791q0 58 52 137q44 63 86 63q33 0 72.5 -36t39.5 -68q0 -27 -39 -86q-68 -99 -118 -99q-29 0 -61 21.5t-32 67.5z" />
<glyph unicode="&#xf8;" horiz-adv-x="825" d="M61 266q0 87 47.5 194.5t139.5 196.5q87 84 192.5 128t186.5 44q31 0 55 -6q84 105 104.5 128.5t30.5 23.5q5 0 10.5 -7.5t10 -26t4.5 -42.5q0 -33 -8 -53.5t-41 -57.5q-9 -9 -15 -18q62 -65 62 -176q0 -97 -44.5 -206.5t-115 -199t-167 -149t-191.5 -59.5q-51 0 -103 20 l-8 -16q-13 -22 -24 -41.5t-16 -29.5t-8.5 -17.5t-5 -10t-3.5 -2.5q-9 0 -20 33.5t-11 56.5q0 24 27 74q-43 42 -66 100.5t-23 118.5zM213 287q0 -54 27 -84q127 203 348 497q-82 0 -171.5 -69.5t-146.5 -167t-57 -176.5zM328 168q74 1 157.5 66t140 165t56.5 193 q0 34 -8 53q-173 -216 -346 -477z" />
<glyph unicode="&#xf9;" horiz-adv-x="813" d="M41 213q0 63 39.5 155t101.5 183q80 117 135 168t97 51q40 0 61 -22t21 -39q0 -10 -7.5 -19.5t-23.5 -23.5t-25 -25q-80 -91 -159.5 -226.5t-79.5 -199.5q0 -17 8 -32t24 -15q97 0 265 250q58 87 106.5 164t68.5 109t32 44q35 35 94 35q35 0 52 -32.5t17 -55.5 q0 -7 -11 -19.5t-36.5 -43t-50.5 -66.5q-170 -241 -170 -360q0 -39 37 -39q49 0 115 50t122 115q14 16 31.5 38t28 34t22 24t20.5 17.5t17 5.5q20 0 30.5 -18t10.5 -41q0 -39 -121 -180q-186 -217 -311 -217q-61 0 -104 42t-54 113q-13 -19 -30.5 -39.5t-46 -50t-62.5 -48.5 t-65 -19q-79 0 -139 75t-60 158zM375 1128q0 35 32 49.5t72 14.5q53 0 80 -41q26 -38 64.5 -115t38.5 -98q0 -33 -35 -50.5t-56 -17.5q-17 0 -31.5 14.5t-40 54.5t-40.5 60q-14 18 -33 42t-28 35.5t-16 25.5t-7 26z" />
<glyph unicode="&#xfa;" horiz-adv-x="813" d="M41 213q0 63 39.5 155t101.5 183q80 117 135 168t97 51q40 0 61 -22t21 -39q0 -10 -7.5 -19.5t-23.5 -23.5t-25 -25q-80 -91 -159.5 -226.5t-79.5 -199.5q0 -17 8 -32t24 -15q97 0 265 250q58 87 106.5 164t68.5 109t32 44q35 35 94 35q35 0 52 -32.5t17 -55.5 q0 -7 -11 -19.5t-36.5 -43t-50.5 -66.5q-170 -241 -170 -360q0 -39 37 -39q49 0 115 50t122 115q14 16 31.5 38t28 34t22 24t20.5 17.5t17 5.5q20 0 30.5 -18t10.5 -41q0 -39 -121 -180q-186 -217 -311 -217q-61 0 -104 42t-54 113q-13 -19 -30.5 -39.5t-46 -50t-62.5 -48.5 t-65 -19q-79 0 -139 75t-60 158zM492 928q35 31 95.5 96.5t103.5 110.5t54 45q35 0 56.5 -41.5t21.5 -71.5q0 -23 -60.5 -77.5t-122.5 -98t-71 -43.5q-27 0 -52 27t-25 53z" />
<glyph unicode="&#xfb;" horiz-adv-x="813" d="M41 213q0 63 39.5 155t101.5 183q80 117 135 168t97 51q40 0 61 -22t21 -39q0 -10 -7.5 -19.5t-23.5 -23.5t-25 -25q-80 -91 -159.5 -226.5t-79.5 -199.5q0 -17 8 -32t24 -15q97 0 265 250q58 87 106.5 164t68.5 109t32 44q35 35 94 35q35 0 52 -32.5t17 -55.5 q0 -7 -11 -19.5t-36.5 -43t-50.5 -66.5q-170 -241 -170 -360q0 -39 37 -39q49 0 115 50t122 115q14 16 31.5 38t28 34t22 24t20.5 17.5t17 5.5q20 0 30.5 -18t10.5 -41q0 -39 -121 -180q-186 -217 -311 -217q-61 0 -104 42t-54 113q-13 -19 -30.5 -39.5t-46 -50t-62.5 -48.5 t-65 -19q-79 0 -139 75t-60 158zM362 907q0 22 11.5 42.5t39.5 44.5t54 43.5t75.5 54.5t84.5 61q69 54 94 57q10 0 16 -6q12 6 25 6q15 0 69 -104.5t54 -132.5q0 -24 -12 -44t-28.5 -31.5t-35 -19.5t-30.5 -11t-15 -3q-6 0 -9.5 7.5t-6 21t-5.5 20.5q-25 72 -61 142 q-30 -19 -98.5 -68t-120 -86t-55.5 -37q-15 0 -30.5 10t-15.5 33z" />
<glyph unicode="&#xfc;" horiz-adv-x="813" d="M41 213q0 63 39.5 155t101.5 183q80 117 135 168t97 51q40 0 61 -22t21 -39q0 -10 -7.5 -19.5t-23.5 -23.5t-25 -25q-80 -91 -159.5 -226.5t-79.5 -199.5q0 -17 8 -32t24 -15q97 0 265 250q58 87 106.5 164t68.5 109t32 44q35 35 94 35q35 0 52 -32.5t17 -55.5 q0 -7 -11 -19.5t-36.5 -43t-50.5 -66.5q-170 -241 -170 -360q0 -39 37 -39q49 0 115 50t122 115q14 16 31.5 38t28 34t22 24t20.5 17.5t17 5.5q20 0 30.5 -18t10.5 -41q0 -39 -121 -180q-186 -217 -311 -217q-61 0 -104 42t-54 113q-13 -19 -30.5 -39.5t-46 -50t-62.5 -48.5 t-65 -19q-79 0 -139 75t-60 158zM399 969q0 48 48.5 102.5t111.5 54.5q24 0 46 -26.5t22 -57.5q0 -52 -45.5 -107.5t-85.5 -55.5q-39 0 -68 25.5t-29 64.5zM723 969q0 48 49.5 102.5t110.5 54.5q24 0 45.5 -26t21.5 -58q0 -52 -45.5 -107.5t-85.5 -55.5q-39 0 -67.5 25.5 t-28.5 64.5z" />
<glyph unicode="&#xfd;" horiz-adv-x="909" d="M41 152q0 104 73.5 232.5t178.5 231.5q35 35 49 48.5t42 32t48 18.5q43 0 86 -22.5t43 -57.5q0 -8 -11 -16t-33 -22t-38 -28q-93 -78 -178.5 -194t-85.5 -172q0 -33 29 -33q83 0 235 132t279 319q7 11 20 30t18 26.5t14.5 21t14 18t12 13.5t12 11.5t11.5 7t13.5 6 t14.5 2.5t17 1q34 0 79.5 -31.5t45.5 -64.5q0 -10 -17 -26.5t-63 -65.5t-96 -119q-120 -166 -232.5 -351t-198 -375t-85.5 -292q-30 -21 -64 -21q-50 0 -79 30.5t-29 88.5q0 48 37 135t77 157t102.5 174.5t78.5 131.5l-36 -27t-38 -28t-34.5 -24t-36 -23.5t-32 -18 t-34.5 -16t-31.5 -8.5t-32.5 -4q-63 0 -104 51t-41 121zM592 952q35 31 96 96.5t104 110.5t54 45q35 0 56.5 -41t21.5 -71q0 -23 -60.5 -77.5t-122.5 -98.5t-71 -44q-27 0 -52.5 27t-25.5 53z" />
<glyph unicode="&#xfe;" horiz-adv-x="878" d="M-246 -381q0 29 18 76.5t55 116t75.5 134.5t98 169t103.5 182l25 45q-6 0 -10 0.5t-8.5 6t-4.5 16.5q0 12 21 42t67.5 95t86.5 129q13 21 105.5 177t174.5 292t90 143q24 21 97 21q25 0 39 -38t14 -61q0 -11 -75.5 -121t-168 -249.5t-123.5 -206.5q83 81 148.5 124.5 t134.5 43.5q83 0 137.5 -61t54.5 -148q0 -86 -52 -188t-129.5 -184.5t-173.5 -138.5t-177 -56q-148 0 -166 145q-147 -236 -270 -496q-11 -24 -22 -55t-16.5 -45.5t-17.5 -25.5t-32 -11q-31 0 -65 46.5t-34 80.5zM299 262q15 -90 113 -90q54 0 120.5 45t119 106.5 t88.5 124.5t36 99q0 34 -17.5 55t-51.5 21q-160 0 -408 -361z" />
<glyph unicode="&#xff;" horiz-adv-x="909" d="M41 152q0 104 73.5 232.5t178.5 231.5q35 35 49 48.5t42 32t48 18.5q43 0 86 -22.5t43 -57.5q0 -8 -11 -16t-33 -22t-38 -28q-93 -78 -178.5 -194t-85.5 -172q0 -33 29 -33q83 0 235 132t279 319q7 11 20 30t18 26.5t14.5 21t14 18t12 13.5t12 11.5t11.5 7t13.5 6 t14.5 2.5t17 1q34 0 79.5 -31.5t45.5 -64.5q0 -10 -17 -26.5t-63 -65.5t-96 -119q-120 -166 -232.5 -351t-198 -375t-85.5 -292q-30 -21 -64 -21q-50 0 -79 30.5t-29 88.5q0 48 37 135t77 157t102.5 174.5t78.5 131.5l-36 -27t-38 -28t-34.5 -24t-36 -23.5t-32 -18 t-34.5 -16t-31.5 -8.5t-32.5 -4q-63 0 -104 51t-41 121zM444 969q0 48 48.5 102.5t111.5 54.5q24 0 46 -26.5t22 -57.5q0 -52 -45.5 -107.5t-85.5 -55.5q-39 0 -68 25.5t-29 64.5zM768 969q0 48 49.5 102.5t110.5 54.5q24 0 45.5 -26t21.5 -58q0 -52 -45.5 -107.5 t-85.5 -55.5q-39 0 -67.5 25.5t-28.5 64.5z" />
<glyph unicode="&#x152;" horiz-adv-x="1724" d="M162 276q0 92 30.5 195t84 200.5t129 187t161 156t185.5 106.5t198 40q81 0 145 -70.5t87 -172.5q105 157 135 178q8 4 26 4l19 -2q97 27 261.5 57.5t250.5 30.5q30 0 57 -27q1 -1 7.5 -8t10.5 -12t10.5 -13.5t11 -16t9 -17t7 -19t2.5 -18.5q0 -30 -14.5 -39.5 t-41.5 -9.5q-91 0 -293.5 -39.5t-257.5 -61.5q-43 -45 -155 -227q7 1 175.5 20t215.5 19q42 0 64 -11t36 -36q19 -43 19 -62q0 -26 -16.5 -36.5t-61.5 -20.5q-49 -10 -189 -34.5t-239.5 -44.5t-145.5 -36q-68 -122 -143 -276q127 19 323 38t273 19q58 0 88 -9.5t47 -33.5 q21 -32 21 -47q0 -31 -18 -43t-70 -18q-187 -27 -341 -58.5t-228.5 -54t-127 -38t-69.5 -15.5q-30 0 -48 27t-36 104q-148 -119 -279 -119q-102 0 -188 86q-70 69 -98.5 134.5t-28.5 143.5zM352 283q0 -68 33 -113t107 -45q86 0 182.5 76.5t170.5 187.5t122.5 242t48.5 235 q0 79 -31.5 115.5t-77.5 36.5q-25 0 -57 -12q-60 -24 -108 -61t-71 -66t-42 -50.5t-29 -21.5q-3 0 -12 6q-88 -93 -162 -244t-74 -286z" />
<glyph unicode="&#x153;" horiz-adv-x="1175" d="M90 246q0 83 34.5 169.5t93 163.5t122 140.5t135.5 120.5q21 14 35 14q2 0 9 -1t9 -1q75 47 121 47q45 0 94 -49q44 -26 64.5 -57.5t23.5 -83.5q142 122 265 122q55 0 89 -35.5t34 -88.5q0 -54 -41 -124.5t-106 -135.5t-158 -115t-187 -62v-16q0 -62 37 -98.5t115 -36.5 q55 0 104.5 14.5t86 35t79.5 60t71 71t74 87.5q42 51 62 51t30.5 -16.5t10.5 -42.5q0 -24 -54 -98q-91 -123 -230 -212t-282 -89q-87 0 -149.5 42t-89.5 115q-140 -157 -293 -157q-94 0 -151.5 80t-57.5 186zM256 246q0 -36 22.5 -60t61.5 -24q88 0 182 127 q-74 23 -122.5 67t-57.5 103q-86 -135 -86 -213zM463 518q0 -49 29.5 -85t91.5 -50q45 81 72.5 161.5t27.5 133.5q0 19 -3.5 31.5t-10 17.5t-11.5 6.5t-12 1.5q-39 0 -82 -30q-48 -33 -75 -84.5t-27 -102.5zM756 385q116 30 203.5 116.5t87.5 145.5q0 27 -25 27 q-43 0 -132.5 -90.5t-133.5 -198.5z" />
<glyph unicode="&#x178;" horiz-adv-x="614" d="M35 -57q0 63 61.5 150.5t253.5 305.5q-12 228 -12 367q0 86 7 203.5t20 140.5q18 31 57 31q15 0 53 -25q27 -18 34 -26.5t7 -20.5q0 -8 -2 -30.5t-4 -72t-2 -120.5q0 -38 4 -268q270 296 419.5 451t178.5 155q21 0 41 -27.5t20 -44.5q0 -8 -9 -23t-30.5 -40.5t-41 -48 t-55.5 -63.5t-60 -69q-518 -599 -703 -837q-31 -39 -57.5 -75t-37 -52t-20.5 -28.5t-15.5 -15.5t-14.5 -3q-92 66 -92 86zM557 1311q0 42 41.5 88.5t95.5 46.5q20 0 39 -22.5t19 -49.5q0 -44 -39.5 -92.5t-73.5 -48.5q-33 0 -57.5 22.5t-24.5 55.5zM834 1311q0 41 42 88 t95 47q21 0 39 -22.5t18 -49.5q0 -44 -39 -92.5t-74 -48.5q-33 0 -57 22.5t-24 55.5z" />
<glyph unicode="&#x2c6;" horiz-adv-x="643" d="M166 920q0 22 11.5 42.5t39 44.5t53.5 43t75.5 53.5t84.5 61.5q70 56 94 58q11 0 17 -6q12 6 24 6q15 0 69 -105t54 -133q0 -24 -12 -44t-28.5 -31.5t-35 -19t-30.5 -10.5t-15 -3q-6 0 -9 7.5t-5.5 21t-5.5 20.5q-22 63 -62 141q-30 -19 -98.5 -68t-120 -85.5 t-55.5 -36.5q-15 0 -30 10t-15 33z" />
<glyph unicode="&#x2dc;" horiz-adv-x="856" d="M307 956q0 37 53.5 78t108.5 41q38 0 76 -21t70 -42t55 -21q30 0 68.5 33t52.5 33q24 0 38.5 -18t14.5 -52q0 -35 -61 -81t-113 -46q-33 0 -100 42t-105 42q-29 0 -68.5 -33.5t-52.5 -33.5q-17 0 -27 22.5t-10 56.5z" />
<glyph unicode="&#x2000;" horiz-adv-x="793" />
<glyph unicode="&#x2001;" horiz-adv-x="1587" />
<glyph unicode="&#x2002;" horiz-adv-x="793" />
<glyph unicode="&#x2003;" horiz-adv-x="1587" />
<glyph unicode="&#x2004;" horiz-adv-x="529" />
<glyph unicode="&#x2005;" horiz-adv-x="396" />
<glyph unicode="&#x2006;" horiz-adv-x="264" />
<glyph unicode="&#x2007;" horiz-adv-x="264" />
<glyph unicode="&#x2008;" horiz-adv-x="198" />
<glyph unicode="&#x2009;" horiz-adv-x="317" />
<glyph unicode="&#x200a;" horiz-adv-x="88" />
<glyph unicode="&#x2010;" horiz-adv-x="804" d="M260 438q0 16 10.5 21.5t44.5 5.5q53 0 146.5 5t122.5 5q45 0 72.5 -1.5t56.5 -6.5t44 -14.5t24.5 -27t9.5 -42.5q0 -39 -6 -50t-25 -11q-7 0 -59.5 5t-94.5 5q-45 0 -129.5 -4t-103.5 -4q-49 0 -81 44t-32 70z" />
<glyph unicode="&#x2011;" horiz-adv-x="804" d="M260 438q0 16 10.5 21.5t44.5 5.5q53 0 146.5 5t122.5 5q45 0 72.5 -1.5t56.5 -6.5t44 -14.5t24.5 -27t9.5 -42.5q0 -39 -6 -50t-25 -11q-7 0 -59.5 5t-94.5 5q-45 0 -129.5 -4t-103.5 -4q-49 0 -81 44t-32 70z" />
<glyph unicode="&#x2012;" horiz-adv-x="804" d="M260 438q0 16 10.5 21.5t44.5 5.5q53 0 146.5 5t122.5 5q45 0 72.5 -1.5t56.5 -6.5t44 -14.5t24.5 -27t9.5 -42.5q0 -39 -6 -50t-25 -11q-7 0 -59.5 5t-94.5 5q-45 0 -129.5 -4t-103.5 -4q-49 0 -81 44t-32 70z" />
<glyph unicode="&#x2013;" horiz-adv-x="1122" d="M260 438q0 16 10.5 21.5t44.5 5.5q53 0 194.5 5t168.5 5q430 0 430 -92q0 -39 -6 -50t-25 -11q-8 0 -139.5 5t-173.5 5q-47 0 -209.5 -4t-181.5 -4q-49 0 -81 44t-32 70z" />
<glyph unicode="&#x2014;" horiz-adv-x="1441" d="M260 438q0 16 10.5 21.5t44.5 5.5q33 0 214.5 5t308.5 5q133 0 219.5 -2.5t181 -11t141.5 -28t47 -50.5q0 -39 -5.5 -50t-24.5 -11q-6 0 -77.5 2.5t-182.5 5t-213 2.5q-107 0 -233.5 -2t-215 -4t-102.5 -2q-49 0 -81 44t-32 70z" />
<glyph unicode="&#x2018;" horiz-adv-x="409" d="M500 1063q0 16 10 45q25 72 87.5 140.5t123.5 68.5q47 0 47 -29q0 -12 -12.5 -27t-31 -33t-26.5 -30q62 -22 62 -84q0 -57 -43.5 -115.5t-95.5 -58.5q-38 0 -80 39q-41 41 -41 84z" />
<glyph unicode="&#x2019;" horiz-adv-x="409" d="M500 983q0 12 12.5 27t31 33t25.5 30q-61 21 -61 84q0 57 43.5 115.5t95.5 58.5q38 0 80 -39q41 -41 41 -84q0 -16 -10 -45q-25 -72 -87.5 -140.5t-123.5 -68.5q-47 0 -47 29z" />
<glyph unicode="&#x201a;" horiz-adv-x="481" d="M121 -104q0 12 12.5 27t31 33t25.5 30q-61 21 -61 84q0 57 43.5 115.5t95.5 58.5q38 0 80 -39q41 -41 41 -84q0 -16 -10 -45q-25 -72 -87.5 -140.5t-123.5 -68.5q-47 0 -47 29z" />
<glyph unicode="&#x201c;" horiz-adv-x="694" d="M500 1063q0 16 10 45q25 72 87.5 140.5t123.5 68.5q47 0 47 -29q0 -12 -12.5 -27t-31 -33t-26.5 -30q62 -22 62 -84q0 -57 -43.5 -115.5t-95.5 -58.5q-38 0 -80 39q-41 41 -41 84zM823 1063q0 13 11 45q25 72 87 140.5t123 68.5q48 0 48 -29q0 -12 -12.5 -27t-31 -33 t-26.5 -30q61 -21 61 -84q0 -57 -43.5 -115.5t-95.5 -58.5q-38 0 -80 39q-41 41 -41 84z" />
<glyph unicode="&#x201d;" horiz-adv-x="694" d="M500 983q0 12 12.5 27t31 33t25.5 30q-61 21 -61 84q0 57 43.5 115.5t95.5 58.5q38 0 80 -39q41 -41 41 -84q0 -16 -10 -45q-25 -72 -87.5 -140.5t-123.5 -68.5q-47 0 -47 29zM823 983q0 12 12.5 27t31 33t26.5 30q-62 22 -62 84q0 57 44 115.5t96 58.5q38 0 80 -39 q41 -41 41 -84q0 -13 -11 -45q-25 -72 -87.5 -140.5t-123.5 -68.5q-47 0 -47 29z" />
<glyph unicode="&#x201e;" horiz-adv-x="804" d="M121 -104q0 12 12.5 27t31 33t25.5 30q-61 21 -61 84q0 57 43.5 115.5t95.5 58.5q38 0 80 -39q41 -41 41 -84q0 -16 -10 -45q-25 -72 -87.5 -140.5t-123.5 -68.5q-47 0 -47 29zM444 -104q0 12 12.5 27t31 33t26.5 30q-61 21 -61 84q0 57 43.5 115.5t95.5 58.5 q38 0 80 -39q41 -41 41 -84q0 -13 -11 -45q-25 -72 -87 -140.5t-123 -68.5q-48 0 -48 29z" />
<glyph unicode="&#x2022;" horiz-adv-x="587" d="M276 659q0 68 67 130.5t140 62.5q56 0 99 -31t43 -86q0 -82 -65 -159.5t-146 -77.5q-53 0 -95.5 50.5t-42.5 110.5z" />
<glyph unicode="&#x2026;" horiz-adv-x="1382" d="M106 23q0 32 35 103.5t70 109.5q35 40 78 40q37 0 62.5 -21.5t25.5 -72.5q0 -35 -33 -84q-26 -44 -73 -93.5t-72 -49.5q-11 0 -31 5.5t-41 22.5t-21 40zM567 23q0 32 35 103.5t70 109.5q35 40 78 40q37 0 62.5 -21.5t25.5 -72.5q0 -35 -33 -84q-26 -43 -73.5 -93 t-72.5 -50q-21 0 -56.5 17.5t-35.5 50.5zM1028 23q0 32 35 103.5t70 109.5q35 40 77 40q37 0 62.5 -21.5t25.5 -72.5q0 -37 -32 -84q-26 -43 -73.5 -93t-72.5 -50q-11 0 -30.5 5.5t-40.5 22.5t-21 40z" />
<glyph unicode="&#x202f;" horiz-adv-x="317" />
<glyph unicode="&#x2039;" horiz-adv-x="839" d="M254 303q0 41 160.5 136.5t345 173t250.5 77.5q12 0 23 -11.5t11 -23.5q0 -32 -27 -56t-102 -56q-120 -51 -264.5 -138.5t-144.5 -111.5q0 -23 56 -76t112 -98q11 -9 35 -24t37.5 -26.5t13.5 -21.5q0 -9 -55 -41q-16 -8 -31 -8q-31 0 -191 94q-95 56 -162 117.5t-67 93.5 z" />
<glyph unicode="&#x203a;" horiz-adv-x="839" d="M70 33q0 32 27 56t102 56q120 51 264.5 138.5t144.5 111.5q0 23 -56 76t-112 98q-11 9 -35 24t-37.5 26.5t-13.5 21.5q0 9 56 41q16 8 30 8q31 0 191 -94q95 -56 162 -117.5t67 -93.5q0 -41 -160.5 -136.5t-345 -173t-250.5 -77.5q-12 0 -23 11.5t-11 23.5z" />
<glyph unicode="&#x205f;" horiz-adv-x="396" />
<glyph unicode="&#x20ac;" horiz-adv-x="1189" d="M55 461q0 14 9.5 19t39.5 5h119q8 34 35 97h-41q-41 0 -68.5 38t-27.5 60q0 13 9.5 17.5t39.5 4.5q12 0 160 5q94 135 236 256.5t277 190.5t222 69q34 0 57.5 -13t53.5 -51q46 -31 65 -58.5t19 -64.5q0 -85 -107 -233q-68 -92 -101 -123t-53 -31q-30 0 -49.5 24t-19.5 64 q0 62 26 149.5t56 143.5q-98 -24 -221.5 -112t-223.5 -209q285 -5 285 -76q0 -33 -5.5 -43t-21.5 -10q-5 0 -124.5 4t-155.5 4q-39 0 -64 -2q-33 -52 -49 -92q350 -6 350 -80q0 -33 -4.5 -42.5t-21.5 -9.5q-5 0 -127.5 4.5t-159.5 4.5q-45 0 -74 -2q-6 -30 -6 -62 q0 -145 197 -145q68 0 148.5 24.5t148 59.5t124.5 70.5t93.5 60t40.5 24.5q8 0 8 -12q0 -15 -14 -43v-35q-4 -23 -35 -63t-87.5 -87.5t-124.5 -89.5t-156 -70t-173 -28q-155 0 -255.5 116t-100.5 269v4h-49q-43 0 -71 39t-28 60z" />
<glyph unicode="&#x2122;" horiz-adv-x="1052" d="M362 709q0 14 59 123t126 217q-113 -25 -123 -25q-29 0 -29 55q0 40 146.5 72.5t234.5 32.5q58 0 58 -49q0 -15 -5.5 -22t-12 -8t-21.5 -1l-121 -25q-30 -55 -106 -184.5t-107 -194.5q0 -20 -9 -33.5t-26 -13.5q-8 0 -21 3.5t-28 17.5t-15 35zM655 713q0 47 150 258 q59 81 111.5 143t66.5 62q12 0 25 1t14 1q17 0 29 -15.5t12 -27.5q0 -5 -5 -17.5t-16.5 -50.5t-23.5 -96q125 129 178.5 179t73.5 50q14 0 43.5 -25t29.5 -38l-28 -51q-28 -51 -86.5 -162.5t-118.5 -233.5q-15 -20 -43 -20q-14 0 -28.5 14t-14.5 29q0 12 17 49.5t46 96 t43 91.5q-41 -40 -76.5 -79.5t-54.5 -62.5t-35 -41.5t-26.5 -26t-19.5 -7.5q-12 0 -24.5 8.5t-12.5 30.5q0 14 5.5 38.5t16 67.5t17.5 78q-56 -70 -119 -176q-49 -81 -65 -103t-25 -22t-32.5 20.5t-23.5 37.5z" />
<glyph unicode="&#x25fc;" horiz-adv-x="819" d="M0 0v819h819v-819h-819z" />
</font>
</defs>
</svg>
