<?xml version="1.0" standalone="no"?>
<!DOCTYPE svg PUBLIC "-//W3C//DTD SVG 1.1//EN" "http://www.w3.org/Graphics/SVG/1.1/DTD/svg11.dtd" >
<svg xmlns="http://www.w3.org/2000/svg">
<metadata></metadata>
<defs>
<font id="filmotype_lasalleregular" horiz-adv-x="1996" >
<font-face units-per-em="2048" ascent="1434" descent="-614" />
<missing-glyph horiz-adv-x="614" />
<glyph unicode="&#xfb01;" horiz-adv-x="1261" d="M-444 -504q0 117 100 266q87 128 211.5 283t238.5 281q160 178 404.5 395.5t732.5 617.5q7 6 16 12t14 9l5 2q27 0 67.5 -65t40.5 -115q0 -19 -10.5 -40.5t-32.5 -46t-44 -46.5t-56 -49.5t-58 -46t-60 -45.5t-52 -40q-307 -239 -561 -487q62 -20 100.5 -62t38.5 -102 q0 -7 -1 -20.5t-1 -20.5q58 40 182 143q5 4 14 13t13 12q100 131 249.5 279t195.5 182q16 12 32 12q15 0 88.5 -67t73.5 -91q0 -16 -14 -30q-326 -315 -427.5 -422t-101.5 -133q0 -13 13 -13q76 0 327 183q14 10 48.5 38.5t58 45t33.5 16.5q13 0 27 -24t14 -35 q0 -5 -2 -10.5t-4.5 -9t-6 -8t-4.5 -5.5q-32 -44 -136 -124.5t-220 -147t-168 -66.5q-81 0 -133.5 57t-57.5 133q-77 -56 -125 -81q-56 -186 -203 -399.5t-358 -426.5q-29 -29 -71.5 -48t-83.5 -19q-19 0 -37.5 5.5t-37.5 17.5t-31 21.5t-34.5 28.5t-31.5 27 q-14 12 -42.5 33.5t-42.5 32.5t-34.5 33.5t-30 43t-17 52.5t-7.5 71zM-180 -582q0 -82 51 -82q11 0 23 9q96 80 239 261.5t242 350.5q-102 14 -156 113q-183 -215 -291 -398t-108 -254zM324 166q0 -34 28.5 -58t83.5 -24h4q43 94 43 147q0 56 -37 56q-48 0 -85 -39t-37 -82z M1538 985q0 35 14 65.5t34.5 50t44.5 33.5t44 20.5t33 6.5q32 0 73.5 -40.5t41.5 -96.5q0 -42 -57 -111t-111 -69q-33 0 -75 45t-42 96z" />
<glyph unicode="&#xfb02;" horiz-adv-x="1564" d="M-444 -504q0 117 100 266q87 128 211.5 283t238.5 281q160 178 404.5 395.5t732.5 617.5q7 6 16 12t14 9l5 2q27 0 67.5 -65t40.5 -115q0 -19 -10.5 -40.5t-32.5 -46t-44 -46.5t-56 -49.5t-58 -46t-60 -45.5t-52 -40q-307 -239 -561 -487q62 -20 100.5 -62t38.5 -102 q0 -7 -1 -22t-1 -23q46 29 116.5 87.5t119.5 107.5q67 141 215.5 314.5t314 320.5t322.5 255q55 38 87 59t87 53t98.5 47.5t77.5 15.5q91 0 174.5 -69.5t83.5 -141.5q0 -36 -17.5 -66.5t-50.5 -69.5q-106 -122 -335 -300t-428 -304.5t-244 -126.5q-25 0 -41.5 10t-34.5 37 q-158 -202 -158 -321q0 -60 72 -60q75 0 196.5 62t223.5 135t201 156q27 24 45 24q11 0 24.5 -17.5t13.5 -45.5q0 -18 -46 -68t-124.5 -112t-169.5 -120.5t-194.5 -98t-185.5 -39.5q-108 0 -183 84t-75 200q-107 -97 -216 -157q-56 -186 -203 -399.5t-358 -426.5 q-29 -29 -71.5 -48t-83.5 -19q-19 0 -37.5 5.5t-37.5 17.5t-31 21.5t-34.5 28.5t-31.5 27q-14 12 -42.5 33.5t-42.5 32.5t-34.5 33.5t-30 43t-17 52.5t-7.5 71zM-180 -582q0 -82 51 -82q11 0 23 9q96 80 239 261.5t242 350.5q-102 14 -156 113q-183 -215 -291 -398 t-108 -254zM324 166q0 -33 26.5 -54.5t81.5 -21.5h12q39 86 39 141q0 56 -37 56q-48 0 -85 -39t-37 -82zM1282 508q4 -12 14 -12q26 0 237.5 158t416 337t204.5 226q0 18 -6.5 25t-21.5 7q-18 0 -157.5 -107t-342.5 -289.5t-344 -344.5z" />
<glyph horiz-adv-x="2048" />
<glyph horiz-adv-x="2048" />
<glyph unicode="&#xd;" horiz-adv-x="2048" />
<glyph unicode=" "  horiz-adv-x="614" />
<glyph unicode="&#x09;" horiz-adv-x="614" />
<glyph unicode="&#xa0;" horiz-adv-x="614" />
<glyph unicode="!" horiz-adv-x="1230" d="M174 45q0 45 37.5 87t83 63.5t78.5 21.5q35 0 68.5 -47t33.5 -96t-32 -85t-75.5 -51.5t-88.5 -15.5q-44 0 -74.5 38.5t-30.5 84.5zM541 457q0 61 149 263.5t373.5 438t406.5 365.5q59 41 76 41q11 0 21 -9t19 -35.5t9 -66.5q0 -70 -29.5 -132t-96 -132.5t-141.5 -139 t-200.5 -190t-238.5 -246.5q-12 -12 -12 -36q0 -8 2 -26.5t2 -27.5q0 -5 -5 -12.5t-17.5 -19t-22 -19.5t-30 -25.5t-30.5 -25.5q-11 -10 -33.5 -30.5t-34 -31t-27 -23.5t-24.5 -18.5t-14 -5.5q-42 0 -72 48.5t-30 95.5z" />
<glyph unicode="&#x22;" horiz-adv-x="772" d="M561 1333q0 4 0.5 7t2.5 8t5 10t9.5 15t13.5 21t19.5 30.5t26.5 40.5t34.5 53.5t42.5 68.5q91 142 135 142q25 0 48.5 -24.5t23.5 -51.5q0 -42 -68 -140l-147 -213q-41 -57 -70 -57q-27 0 -51.5 33.5t-24.5 56.5zM807 1290q0 4 0.5 7t2.5 8t5 10t9.5 15t13.5 21 t19.5 30.5t26.5 40.5t34.5 53.5t42.5 68.5q91 142 135 142q25 0 48 -24.5t23 -51.5q0 -43 -67 -140l-148 -213q-41 -57 -69 -57q-27 0 -51.5 33.5t-24.5 56.5z" />
<glyph unicode="#" horiz-adv-x="1105" d="M303 811q0 78 57.5 108.5t163.5 30.5h47l78 142h-160q-22 0 -32.5 8t-10.5 33q0 78 58 108.5t164 30.5h82l69 123q32 55 70 55q44 0 79.5 -35.5t35.5 -52.5q0 -13 -8 -27.5t-26.5 -36.5t-21.5 -26h170l70 123q32 55 69 55q44 0 79.5 -35.5t35.5 -52.5q0 -10 -6.5 -23 t-13 -22t-18.5 -24t-17 -21h39q48 0 69 -18t21 -56q0 -58 -11 -83t-42 -25q-15 0 -48.5 5t-46.5 5h-79q-77 -144 -80 -150h73q49 0 70 -17.5t21 -55.5q0 -58 -11.5 -83.5t-42.5 -25.5q-15 0 -48 5t-46 5h-111q-4 -7 -116 -207q-13 -26 -33 -26q-40 0 -64 39t-24 73 q0 46 33 117q-111 0 -166 -2l-113 -201q-13 -26 -33 -26q-40 0 -64 39t-24 73q0 42 31 113q-23 -1 -47 -1t-47.5 0.5t-30.5 0.5q-22 0 -32.5 8t-10.5 33zM770 950h168l82 148l-172 -4z" />
<glyph unicode="$" horiz-adv-x="1421" d="M88 -227q0 12 6 25.5t10 17.5l211 223q-115 39 -169 107.5t-54 152.5q0 133 107 245.5t235 112.5q37 0 37 -24q0 -8 -25.5 -28t-55.5 -41.5t-55.5 -56t-25.5 -67.5q0 -153 324 -153q75 0 177 13t212 37.5t185 71t75 103.5q0 37 -45.5 73.5t-113.5 65.5t-148 67.5 t-148 78.5t-113.5 101t-45.5 132q0 68 39.5 130t103.5 109t151 88t176 69.5t185 51.5t171 36t140 20l209 229q18 21 37 21q10 0 16.5 -7t6.5 -18q0 -9 -5.5 -21.5t-17.5 -29.5t-23.5 -31.5t-31 -36t-31 -34.5t-33 -35.5t-28.5 -30.5q278 -4 278 -192q0 -56 -35.5 -99 t-89.5 -65.5t-108 -33.5t-103 -11q-16 0 -24 3t-22 21.5t-34 59.5q-16 4 -63 4q-109 0 -255 -34.5t-258 -92t-112 -111.5q0 -11 33.5 -25t87 -31t118 -39t129 -55t118 -72.5t87 -97t33.5 -124.5q0 -99 -77.5 -199.5t-200.5 -177t-284.5 -124.5t-319.5 -48q-131 0 -225 18 q-8 -8 -35 -36.5t-45 -47t-47 -47t-51.5 -47.5t-47.5 -38t-45 -28.5t-35 -9.5q-12 0 -12 13z" />
<glyph unicode="%" horiz-adv-x="2004" d="M498 844q0 65 40.5 155.5t109 181t149.5 169.5t171.5 128.5t164.5 49.5q11 0 26 -14t15 -37v-4h4q56 0 113 -55t57 -136q0 -45 -70 -178h16q108 0 252 58.5t240 119.5q159 100 172 100q21 0 39 -23.5t18 -45.5q0 -29 -24 -47q-300 -223 -624.5 -537t-612.5 -651 q-23 -27 -41 -51t-27 -37.5l-16 -24t-10.5 -14.5t-8.5 -4q-4 0 -12 8q-27 27 -27 70q0 38 18.5 81t58 95t70 86.5t85.5 93.5q332 357 723 700q-163 -71 -285 -71q-39 0 -55 4q-50 -82 -104.5 -155t-117.5 -139.5t-129.5 -105.5t-125.5 -39q-54 0 -86 19q-85 52 -125.5 112 t-40.5 138zM653 776q0 -43 27 -43q71 0 187 110t218 253q-47 64 -47 161q0 40 2 56q-156 -124 -271.5 -287.5t-115.5 -249.5zM1128 1229q0 -25 11 -51q65 110 65 151q0 10 -8 10q-30 0 -49 -36t-19 -74zM1235 160q0 76 46 172.5t117.5 185t151.5 165t154 122t119 45.5 q79 0 161 -91.5t82 -176.5q0 -83 -47 -181.5t-119.5 -185.5t-154.5 -160t-159.5 -116t-125.5 -43q-63 0 -116.5 42.5t-81.5 106.5q-12 31 -16.5 42t-7.5 29.5t-3 43.5zM1399 96q0 -37 26 -37q50 0 175 113t231 253t106 206q0 41 -45 41q-72 0 -192 -112.5t-210.5 -251.5 t-90.5 -212z" />
<glyph unicode="&#x26;" horiz-adv-x="1837" d="M209 285q0 37 10 67q29 89 104.5 169t169.5 137.5t214.5 107t226.5 80t219 55.5q-74 20 -126 49.5t-76 61.5t-34 58.5t-10 53.5q0 80 119.5 169t290 157t364 113t336.5 45q50 0 91.5 -24t64.5 -57.5t35 -65t12 -52.5q0 -66 -90 -135.5t-209.5 -112.5t-210.5 -43 q-64 0 -93.5 22t-29.5 56q0 75 115 154q-101 -27 -190.5 -58t-175 -69.5t-135.5 -83t-50 -86.5q0 -12 9.5 -23t33 -23t59.5 -22t94.5 -19t133.5 -14q68 -2 120 -34.5t52 -90.5q0 -51 -31 -83.5t-80 -32.5q-244 0 -524.5 -86.5t-454.5 -214.5q-174 -127 -174 -228 q0 -102 148 -102q156 0 368 64.5t307 164.5q-144 0 -254 35t-110 72q0 25 37 33q358 88 794 88q56 0 101 -17t70 -42.5t38 -49.5t13 -43q0 -20 -56 -35.5t-134.5 -23t-144 -11.5t-102.5 -4h-49q10 -17 10 -30q0 -52 -84 -129t-201 -145.5t-250 -117.5t-222 -49 q-50 0 -113 13q-138 27 -250 194q-96 116 -96 238zM1700 1264q0 -27 88 -27q66 0 132 22t105 51.5t39 53.5q0 39 -82 39q-69 0 -227 -41q12 -12 12 -27q0 -2 -16.5 -13t-33.5 -27.5t-17 -30.5z" />
<glyph unicode="'" horiz-adv-x="526" d="M561 1333q0 4 0.5 7t2.5 8t5 10t9.5 15t13.5 21t19.5 30.5t26.5 40.5t34.5 53.5t42.5 68.5q91 142 135 142q25 0 48.5 -24.5t23.5 -51.5q0 -42 -68 -140l-147 -213q-41 -57 -70 -57q-27 0 -51.5 33.5t-24.5 56.5z" />
<glyph unicode="(" horiz-adv-x="923" d="M285 -92q0 114 37.5 252.5t98.5 271.5t140.5 268t160 248t161.5 207q45 52 122.5 132t192.5 186.5t226 196t224 152t185 62.5q29 0 56.5 -44.5t27.5 -88.5q0 -14 -10 -14q-6 0 -20 8t-21 8q-28 0 -98 -45.5t-174.5 -136t-222.5 -208t-254 -280t-255 -333.5 q-123 -177 -215 -343t-135.5 -274.5t-69.5 -192t-35.5 -122.5t-15.5 -39q-30 0 -68 48t-38 81z" />
<glyph unicode=")" horiz-adv-x="1306" d="M-70 -164q0 14 11 14q68 0 197 104t276.5 266.5t303 367.5t280 400.5t204.5 372t80 275.5q0 16 -5 47l-5 31q0 5 5 10t13 5q9 0 42.5 -25t66.5 -66t33 -73q0 -78 -42.5 -201.5t-114.5 -267t-171 -303.5t-209 -313t-231 -292.5t-234 -244.5t-221.5 -167.5t-190.5 -62.5 q-30 0 -59 40.5t-29 82.5z" />
<glyph unicode="*" horiz-adv-x="798" d="M614 1370q0 20 113 76q-87 58 -94 78q-2 2 -2 8q0 12 11.5 22.5t23.5 10.5q9 0 116 -58l11 95q1 17 13.5 26.5t27.5 9.5t27.5 -8.5t12.5 -25.5l-6 -95l119 52q12 4 17 4q19 0 29.5 -13t10.5 -32q0 -28 -135 -88q95 -56 95 -54q8 -13 8 -26q0 -12 -7.5 -21.5t-17.5 -9.5 q-36 0 -137 53q-8 -70 -8 -96q-1 -20 -15 -32.5t-26 -12.5q-15 0 -28 11.5t-13 31.5q0 34 4 96q-26 -10 -54 -20t-41 -14.5t-12 -4.5q-20 0 -31.5 11t-11.5 26z" />
<glyph unicode="+" horiz-adv-x="1087" d="M299 512q0 78 57.5 108.5t163.5 30.5h154l141 246q32 55 70 55q44 0 79 -35.5t35 -52.5q0 -20 -30.5 -59t-32.5 -43l-64 -111h193q48 0 69 -17.5t21 -55.5q0 -59 -11 -84t-42 -25q-15 0 -48 5t-46 5q-20 0 -100 -1t-132 -1q-102 -190 -166 -295q-13 -26 -32 -26 q-40 0 -64.5 39t-24.5 73q0 61 56 158l26 47q-94 -2 -229 -2q-22 0 -32.5 8t-10.5 33z" />
<glyph unicode="," horiz-adv-x="548" d="M31 -88q0 7 5.5 15.5t20.5 23t27.5 26t43 38t50.5 44.5q34 30 70 62.5t54 49t35 31t25 20t13 5.5q16 0 42 -24.5t46 -52.5q8 -10 8 -25q0 -35 -76 -103t-155.5 -121t-126.5 -77q-12 -6 -17 -6t-14 6q-18 13 -34.5 38t-16.5 50z" />
<glyph unicode="-" horiz-adv-x="790" d="M115 287q0 18 19 58t36 48q65 33 227 33h238q48 0 69 -18t21 -56q0 -58 -11 -83t-42 -25q-15 0 -48 5t-46 5q-45 -1 -192 -4.5t-228 -3.5q-22 0 -32.5 8t-10.5 33z" />
<glyph unicode="." horiz-adv-x="565" d="M174 82q0 52 36 88.5t89 36.5t89 -36.5t36 -88.5t-36 -88.5t-89 -36.5t-89 36.5t-36 88.5z" />
<glyph unicode="/" horiz-adv-x="1005" d="M98 -72q0 18 19 47q269 394 669.5 920t524.5 641q16 16 26 16q17 0 49.5 -80t32.5 -114q0 -33 -18 -68t-32.5 -51t-41.5 -43q-117 -117 -413 -514t-568 -838q-2 -3 -10 -17.5t-15 -26.5t-16 -26t-18 -22t-15 -8q-34 0 -104 66t-70 118z" />
<glyph unicode="0" horiz-adv-x="1325" d="M250 383q0 82 26.5 170.5t76.5 177.5t92 152t102 143q183 242 491 475q159 119 265 119q74 0 231 -82q53 29 80 29q10 0 31.5 -22t45.5 -57t42 -88.5t18 -107.5q0 -67 -33 -168q-51 -148 -122 -291.5t-171 -294t-239 -293.5t-303 -259q-98 -70 -203 -70q-43 0 -92 21 q-164 71 -295 245q-43 58 -43 201zM504 260q0 -75 51 -94q19 -8 43 -8q80 0 226.5 133t284 313t240.5 377.5t103 314.5q0 48 -12 107q-301 -144 -513 -366.5t-356 -534.5q-67 -149 -67 -242z" />
<glyph unicode="1" horiz-adv-x="819" d="M66 100q0 90 90 213q134 189 304.5 390t325.5 356q-16 59 -16 121q0 40 122 142t251 185.5t155 83.5q29 0 70 -41q16 -14 21.5 -34t5.5 -74q0 -64 -35 -111q-48 -63 -441.5 -522t-656.5 -791q-28 -35 -44 -46t-32 -11q-29 0 -74.5 52.5t-45.5 86.5z" />
<glyph unicode="2" horiz-adv-x="1280" d="M43 217q0 66 311 234q32 18 136 75t144 79t127 71.5t139.5 81t123.5 75t133 85.5q127 85 257 211.5t130 191.5q0 53 -57 53q-35 0 -91.5 -22t-90 -40t-58.5 -34q-20 -12 -49.5 -30t-72.5 -47t-72 -54.5t-29 -38.5q0 -8 26.5 -32t26.5 -42q0 -20 -35.5 -45.5t-121.5 -70.5 q-132 -68 -185 -68q-42 0 -88.5 87.5t-46.5 152.5q0 10 7 23.5t21.5 30t29 31.5t38 35.5t39 34t41.5 35t37 31.5q60 51 136 102t170.5 102t199 83t194.5 32q44 0 83.5 -21.5t67 -56t45.5 -68t30 -67.5q6 -13 18 -40t15.5 -34.5t10 -24.5t8 -24.5t3.5 -19t2 -23.5 q0 -31 -19 -78t-63 -111t-106 -130.5t-158.5 -140.5t-210.5 -136q-167 -90 -455.5 -211t-406.5 -186q77 -1 209.5 -5.5t163.5 -4.5q80 0 153.5 -9.5t134.5 -28.5t97 -51t36 -73q0 -26 -48.5 -55t-123.5 -29q-191 -1 -354.5 -9.5t-258 -17t-122.5 -8.5q-42 0 -81.5 8.5 t-76 34t-47.5 64.5q-16 60 -16 143z" />
<glyph unicode="3" horiz-adv-x="1423" d="M82 197q0 69 31.5 132.5t78.5 107.5t101.5 77.5t101 49.5t76.5 16q35 0 35 -21q0 -3 -13.5 -12t-33 -23.5t-38.5 -35.5t-32.5 -55t-13.5 -75q0 -53 70.5 -82.5t175.5 -29.5q78 0 156.5 16.5t146 47.5t109.5 81.5t42 112.5q0 68 -83.5 109.5t-260.5 41.5q-28 0 -51 34.5 t-23 70.5t29.5 77.5t69.5 51.5q422 107 652 224t230 202q0 51 -98 51q-93 0 -223.5 -41.5t-192.5 -89.5q-14 -12 -14 -76q0 -18 -41 -37.5t-106 -40t-82 -28.5q-10 -4 -27.5 -12.5t-26 -12t-22 -7t-27.5 -3.5q-39 0 -75.5 49t-36.5 96q0 58 91 134t216.5 139t262.5 107 t224 44q33 0 68.5 -6.5t80 -26.5t79 -51.5t60 -87t30.5 -127.5q14 -45 14 -127q0 -112 -169 -232t-417 -192q73 -57 108.5 -119.5t35.5 -148.5q0 -96 -52 -181.5t-137.5 -147t-195 -106.5t-226.5 -67t-229 -22q-188 0 -308 64t-120 188z" />
<glyph unicode="4" horiz-adv-x="1404" d="M303 727q0 16 8 36t19 30q115 102 307 242.5t398 274.5t395.5 227t279.5 93q42 0 79.5 -79t37.5 -128q0 -74 -55 -137q-83 -99 -219.5 -258.5t-202.5 -239.5q122 -23 182.5 -65.5t60.5 -87.5q0 -25 -20 -61.5t-39 -36.5q-14 0 -40 9.5t-34 10.5q-133 11 -295 14 q-170 -205 -450 -555q-5 -6 -15.5 -24t-20 -25.5t-24.5 -7.5q-58 0 -119 54t-61 112q0 52 53 121t230 263q32 35 49 54q-46 -3 -113 -9.5t-111 -9.5t-87 -3q-23 0 -47 24t-51.5 62t-43.5 53q-6 5 -21 12.5t-22.5 15t-7.5 19.5zM672 786q33 8 138 17t222 10q262 294 514 594 q-234 -109 -467 -275.5t-407 -345.5z" />
<glyph unicode="5" horiz-adv-x="1198" d="M90 215q0 58 21 111t54.5 92t73.5 71t80 52t72 30.5t51 10.5q11 0 24 -6t13 -15q0 -8 -26 -20.5t-57 -28t-57 -54t-26 -91.5q0 -62 42.5 -94.5t107.5 -32.5q103 0 220 55.5t206 132.5t148 160t59 137q0 96 -117 96q-56 0 -122.5 -22.5t-115.5 -53.5q-3 -2 -26.5 -18 t-40 -24.5t-27.5 -8.5q-33 0 -59 31.5t-35.5 62.5t-9.5 48q0 41 63.5 125t281.5 343q30 35 47 55t45.5 54t53.5 64q0 51 24.5 84.5t92.5 40.5q177 18 408 18q130 0 253 -12q26 -3 43.5 -13t25.5 -27.5t11.5 -31.5t6 -36t4.5 -30q8 -21 8 -55q0 -20 -20 -34t-51 -20 t-57.5 -8.5t-51.5 -2.5q-164 0 -416 -7q-204 -185 -307 -319q21 6 43 6q62 0 107 -42.5t85 -110.5q84 -103 84 -226q0 -167 -119 -307q-153 -183 -358.5 -298.5t-382.5 -115.5q-163 0 -270 86.5t-107 198.5z" />
<glyph unicode="6" horiz-adv-x="1171" d="M197 301q0 76 21.5 156.5t55 151t85 149t99.5 140t111 134.5q106 123 272 260t320.5 229.5t224.5 92.5q44 0 84.5 -35t40.5 -96q0 -65 -12 -93t-39 -36q-267 -78 -573 -393q86 32 147 32q94 0 162 -89t68 -199q0 -88 -46 -197t-122.5 -209.5t-167.5 -186t-190 -137 t-181 -51.5q-38 0 -65.5 5.5t-46.5 13.5t-40 29t-34.5 38.5t-40.5 55.5q-8 12 -51.5 64.5t-62.5 90.5t-19 80zM410 219q0 -24 17 -36.5t44 -12.5q119 0 293 174q94 93 158.5 202.5t64.5 166.5q0 31 -29 52t-63 21q-63 0 -127.5 -35.5t-116 -91t-97.5 -122.5t-77 -130.5 t-49 -113.5t-18 -74z" />
<glyph unicode="7" horiz-adv-x="1112" d="M174 111q0 55 43 104q107 124 265.5 276t303 277.5t276 238t210 188.5t78.5 99q0 29 -62 29q-88 0 -217.5 -19t-228.5 -38t-113 -19q-29 0 -65.5 43.5t-36.5 100.5q0 25 16.5 45t38 32t58 23t61.5 16t63 11q345 57 643 57q38 0 67.5 -16.5t44.5 -42t22.5 -49.5t7.5 -44 q0 -31 -15 -69q4 -16 4 -25q0 -30 -23 -70.5t-67 -95t-132.5 -146.5t-195.5 -199t-280 -278q-345 -341 -571 -567q-28 -28 -56 -28q-52 0 -95.5 59t-43.5 107z" />
<glyph unicode="8" horiz-adv-x="1271" d="M182 287q0 116 114 249t273 209q164 78 242 117q-23 94 -23 182q0 116 73 228.5t183.5 192t242 128.5t247.5 49q91 0 166 -70.5t88 -144.5q22 27 24 31q1 1 3.5 12t7 20t10.5 9q4 0 12 -8q62 -59 62 -131q0 -44 -24 -90t-64 -84t-69 -61t-60 -44q-247 -158 -553 -331 q53 -222 53 -312q0 -106 -52.5 -208.5t-134.5 -175.5t-184 -118t-198 -45q-129 0 -216.5 45t-156.5 154q-66 107 -66 197zM403 176q0 -50 35.5 -80t87.5 -30q72 0 139 28.5t118 78.5t81.5 124t30.5 160q0 70 -16 145q-160 -94 -330 -211q-52 -37 -99 -98.5t-47 -116.5z M1085 1069q0 -45 2 -68q443 228 609 351q-24 18 -47 41q-28 25 -48 33t-51 8q-95 0 -203.5 -52t-185 -138.5t-76.5 -174.5z" />
<glyph unicode="9" horiz-adv-x="1173" d="M291 12q0 4 1.5 8.5t3 8t5.5 8t6.5 7t8.5 7.5t8.5 7t9 7t8.5 7q332 275 549 518q-9 -4 -42.5 -20.5t-46.5 -21.5t-39 -11.5t-50 -6.5q-51 0 -102 38.5t-85 92t-55.5 108t-21.5 89.5q0 120 112 276t291 300q89 72 206.5 122t223.5 50q75 0 125.5 -46t99.5 -126 q4 -6 18.5 -29t21 -34t18 -34t17.5 -40t10.5 -41t4.5 -48q0 -168 -163 -397q-136 -193 -323 -391t-488 -461q-71 -63 -146 -63q-19 0 -48.5 7t-61 20t-54 36.5t-22.5 52.5zM702 799q0 -25 15 -40.5t43 -15.5q219 0 428 240q198 229 198 338q0 63 -49 63q-86 0 -239.5 -109.5 t-274.5 -251.5t-121 -224z" />
<glyph unicode=":" horiz-adv-x="821" d="M174 82q0 52 36 88.5t89 36.5t89 -36.5t36 -88.5t-36 -88.5t-89 -36.5t-89 36.5t-36 88.5zM526 535q0 52 36 88t89 36t89 -36t36 -88q0 -53 -36 -89t-89 -36t-89 36t-36 89z" />
<glyph unicode=";" horiz-adv-x="817" d="M31 -88q0 7 5.5 15.5t20.5 23t27.5 26t43 38t50.5 44.5q34 30 70 62.5t54 49t35 31t25 20t13 5.5q16 0 42 -24.5t46 -52.5q8 -10 8 -25q0 -35 -76 -103t-155.5 -121t-126.5 -77q-12 -6 -17 -6t-14 6q-18 13 -34.5 38t-16.5 50zM553 535q0 52 36 88t89 36t89 -36t36 -88 q0 -53 -36.5 -89t-88.5 -36t-88.5 36t-36.5 89z" />
<glyph unicode="&#x3c;" horiz-adv-x="1273" d="M330 641q0 51 162.5 159t372.5 211.5t416 183t286 79.5q20 0 38.5 -18t18.5 -37q0 -54 -45 -96t-166 -91q-200 -82 -455.5 -229.5t-255.5 -186.5q0 -24 76.5 -85.5t181 -133.5t121.5 -86q9 -8 23.5 -19t20 -15.5t14 -12.5t11 -13t5 -13t2.5 -17q0 -8 -17.5 -21.5 t-72.5 -45.5q-33 -13 -51 -13q-48 0 -311 156q-154 90 -264.5 191t-110.5 153z" />
<glyph unicode="=" horiz-adv-x="1189" d="M299 340q0 78 57.5 108.5t163.5 30.5h545q48 0 69 -17.5t21 -55.5q0 -59 -11 -84t-42 -25q-15 0 -48 5t-46 5q-556 -8 -666 -8q-22 0 -32.5 8t-10.5 33zM401 684q0 78 58 108.5t164 30.5h544q48 0 69 -17.5t21 -55.5q0 -59 -11 -84t-42 -25q-15 0 -48 5t-46 5 q-556 -8 -666 -8q-22 0 -32.5 8t-10.5 33z" />
<glyph unicode="&#x3e;" horiz-adv-x="1308" d="M229 197q0 54 45 95t166 91q200 82 455.5 229.5t255.5 186.5q0 24 -76.5 85.5t-181 133.5t-121.5 86q-9 8 -23.5 19t-20 15.5t-14 12.5t-11 13t-5 13t-2.5 17q0 16 90 68q30 12 52 12q48 0 311 -156q154 -90 264.5 -191t110.5 -153q0 -51 -162.5 -159t-372.5 -211.5 t-416 -183t-286 -79.5q-20 0 -39 18.5t-19 37.5z" />
<glyph unicode="?" horiz-adv-x="1345" d="M240 45q0 45 37.5 87t82.5 63.5t78 21.5q35 0 69 -47t34 -96t-32.5 -85t-76 -51.5t-88.5 -15.5q-44 0 -74 38t-30 85zM420 1028q0 10 7 23.5t21.5 30t29 31.5t38 35.5t39 34t41.5 35t37 31.5q60 51 136 102t170.5 102.5t199 83.5t194.5 32q44 0 83.5 -21.5t67 -56 t45.5 -68t30 -67.5q6 -13 18 -40t15.5 -34.5t10 -24.5t8 -24.5t3.5 -19t2 -23.5q0 -39 -33 -103.5t-96 -145.5t-175.5 -174.5t-252.5 -172.5q-36 -20 -108 -48t-108.5 -51.5t-39.5 -54.5q0 -6 -1.5 -10t-3 -7.5t-6.5 -7t-9 -6.5t-13.5 -8t-17.5 -9t-23.5 -12t-28.5 -15 q-53 -34 -73 -43t-43 -9q-59 0 -98.5 28.5t-39.5 74.5q0 45 39.5 94t104 93t147 94.5t168.5 98t168.5 103.5t147 110.5t104 120t39.5 130.5q0 53 -57 53q-35 0 -91.5 -22t-90 -40t-58.5 -34q-20 -12 -49.5 -30t-72.5 -47t-72 -54.5t-29 -38.5q0 -8 26.5 -32t26.5 -42 q0 -20 -36.5 -46t-121.5 -71q-132 -68 -184 -68q-42 0 -88.5 87.5t-46.5 152.5z" />
<glyph unicode="@" horiz-adv-x="2007" d="M59 113q0 127 80 276t210 286.5t299 267t343 225t347.5 153t306.5 57.5q127 0 232 -39t172.5 -104.5t104.5 -150t37 -177.5q0 -80 -32.5 -182.5t-87.5 -206.5t-132.5 -204t-162 -177t-182 -124.5t-187.5 -47.5q-68 0 -122 55t-54 136q-125 -113 -191.5 -159t-117.5 -46 q-86 0 -150 119q-3 5 -13 23t-13 24t-10 21t-9.5 24t-6.5 23t-5.5 28t-1.5 29q0 32 10 57q28 76 125.5 182.5t210 196t220.5 153.5t157 64q25 0 49.5 -9t50.5 -29.5t43 -35.5t46 -45t40 -41q73 -30 130.5 -70t57.5 -55q0 -4 -8 -12q-143 -99 -298.5 -253t-155.5 -200 q0 -26 14.5 -35.5t30.5 -9.5q79 0 190.5 87.5t207 208.5t163 253.5t67.5 216.5q0 138 -79 214.5t-207 76.5q-122 0 -282.5 -57t-321 -151t-317.5 -219t-277.5 -256t-194.5 -269t-74 -250q0 -18 4 -56t4 -53q0 -43 -24 -43q-17 0 -62 31q-58 41 -96 82.5t-53.5 79t-20 62.5 t-4.5 55zM895 117q0 -11 10.5 -22t18.5 -11t20 6q68 33 213 165.5t256.5 248t118.5 129.5q4 8 4 14q0 11 -9 19t-24 8q-34 0 -157 -84q-166 -115 -304 -262q-147 -156 -147 -211z" />
<glyph unicode="A" d="M135 254q0 116 74 221t188 191q73 55 170 99.5t155 62.5t69 18q12 0 19.5 -4.5t10.5 -15t3.5 -17t0.5 -21.5q0 -52 -34 -73q-76 -48 -134 -89t-123.5 -95t-118.5 -115t-91 -127q-54 -94 -54 -183q0 -83 70 -83q48 0 123 36q213 111 448 285q-64 7 -105 19t-58 29t-22 31 t-5 36q0 15 5.5 29t14.5 14q2 0 49.5 -10.5t83.5 -10.5q86 0 222 4q164 133 329.5 283.5t326.5 314t236.5 243t202.5 216.5q4 4 14 14.5t14.5 15t13 9t16.5 4.5q50 0 141.5 -38t163.5 -85.5t72 -72.5q0 -11 -36 -52.5t-100.5 -112t-140 -156t-171 -205.5t-175.5 -238 l-68 -93q72 -24 116 -73t44 -82q0 -15 -29 -15q-117 0 -258 -6q-166 -241 -166 -327q0 -21 21 -21q43 0 167 86t255 203q21 16 33 16q16 0 25 -23.5t9 -37.5q0 -36 -95.5 -130t-223.5 -176.5t-203 -82.5q-43 0 -81 29t-59.5 69t-33.5 75t-12 52q0 112 69 256 q-212 -8 -321 -8q-257 -228 -457.5 -361t-298.5 -133q-32 0 -55 13q-246 146 -246 399zM1382 510q216 25 240 27q157 256 512 727q10 13 10 24q0 10 -10 10q-12 0 -41 -34q-333 -393 -711 -754z" />
<glyph unicode="B" horiz-adv-x="2082" d="M250 143q0 25 18 61t57.5 85t74 89.5t98 104.5t97 97t103 99.5t86.5 82.5q296 288 461 430q-472 -65 -751 -238q-16 -8 -19 -8q-10 0 -10 80q0 26 15 52t32.5 43t48.5 36.5t44.5 26.5t39.5 20q681 320 1368 320q83 0 138.5 -7t96.5 -20.5t72 -43t54 -64t53 -93.5 q79 -133 104 -202.5t25 -139.5q0 -24 -13.5 -47.5t-42.5 -46t-57 -40.5t-75 -39.5t-77 -34t-81 -33.5q-41 -16 -111 -36.5t-122 -34.5l-52 -13q52 -61 74 -152t22 -168q0 -253 -385 -358q-252 -68 -462 -68q-90 0 -170 11.5t-162.5 39.5t-143.5 83.5t-88 134.5 q-45 -59 -93 -135t-72.5 -113t-36.5 -37q-3 0 -11.5 4.5t-29 25.5t-41.5 54q-25 40 -38 63t-25.5 59t-12.5 70zM741 266q0 -86 310 -86q281 0 544 74q32 9 57 17t60.5 21.5t61.5 29t50 34.5t37 43.5t13 51.5q0 110 -285 110q-57 0 -115.5 -3t-103.5 -8t-88.5 -11t-70 -10.5 t-47 -8.5t-21.5 -4q-8 -2 -21 -2q-18 0 -18 18q0 104 8 156q-19 -19 -82 -78.5t-102.5 -99t-88 -92t-73.5 -91t-25 -61.5zM1235 807q134 6 321 37t363 75.5t299 104t123 115.5t-90 75t-258 19q-305 0 -541 -19q44 -21 77.5 -44t33.5 -37q0 -6 -10.5 -19t-34 -36.5t-48.5 -47 t-67.5 -63.5t-77.5 -74z" />
<glyph unicode="C" horiz-adv-x="1472" d="M242 393q0 99 56.5 211t148.5 215.5t213 206.5t245 187t250 155q53 30 149 74t222 95t260 86.5t225 35.5q42 0 74.5 -13t61 -44.5t43.5 -54.5t44 -72q52 -48 84.5 -108.5t32.5 -104.5q0 -49 -68 -121.5t-173 -146t-219.5 -140.5t-219.5 -117q-93 -44 -216.5 -79 t-192.5 -35q-38 0 -85 43.5t-47 93.5q0 42 81 99.5t161.5 94.5t97.5 37q11 0 13.5 -16.5t2.5 -33t5 -15.5q18 3 132.5 64t262 157.5t219.5 171.5q19 19 19 41q0 59 -53 59q-17 0 -52.5 -11t-85 -30.5t-93.5 -38t-100.5 -42.5t-84.5 -35q-279 -118 -557 -309t-458.5 -391 t-180.5 -333q0 -50 27 -81t63.5 -41.5t83.5 -10.5q122 0 350 76q385 127 877 434q12 6 18 6t6 -8q0 -12 -12.5 -37t-20.5 -35q-119 -151 -353.5 -312t-481.5 -277q-136 -66 -291 -66q-35 0 -53 2q-84 7 -186.5 95.5t-173 208.5t-70.5 210z" />
<glyph unicode="D" horiz-adv-x="2082" d="M150 111q0 35 22.5 78.5t47.5 72.5t62.5 69.5t47.5 51.5l24 29v28q0 35 8 71t23 36q5 0 7.5 -8.5t7 -31t8.5 -38.5q170 186 386.5 385.5t323.5 288.5q48 42 88 61q-162 -16 -315 -53.5t-354 -103.5q-66 -21 -111.5 -44.5t-62 -38t-27 -24.5t-17.5 -10q-10 0 -20 38 t-10 66q0 51 120.5 126.5t294.5 143t386 116t376 48.5t308 -36q139 -36 258.5 -146.5t185.5 -250t66 -267.5q0 -257 -232 -471.5t-655 -331.5q-226 -61 -420 -61q-133 0 -258 48.5t-215 135.5l-49 -65q-34 -47 -74 -110t-58 -85.5t-36 -22.5q-27 0 -60 53.5t-55 126 t-22 126.5zM641 252q113 -35 293 -35q201 0 379.5 61t419.5 187q49 25 111.5 73.5t123 108.5t102 129.5t41.5 126.5q0 63 -37 114t-99 83.5t-135 56t-154.5 35.5t-146.5 17t-122 5q42 -18 76.5 -42t34.5 -33q0 -13 -17 -27q-179 -151 -429 -396t-441 -464z" />
<glyph unicode="E" horiz-adv-x="1710" d="M141 377q0 87 66 169.5t166.5 144t227.5 114.5t240.5 85t213.5 50q-43 42 -55.5 102.5t-12.5 190.5q0 252 426 323q258 43 598 43q251 0 336 -51q40 -24 61 -73t21 -107q0 -65 -13.5 -94.5t-52.5 -44.5q-242 -96 -319.5 -124t-112.5 -28q-14 0 -36.5 41.5t-22.5 71.5 q0 37 95.5 94t127.5 57q4 0 4 -8q-2 -10 -2 -20q0 -19 12 -19q14 0 54.5 40t40.5 57q0 32 -47 32q-61 0 -232 -27t-364 -67.5t-341.5 -100t-148.5 -114.5q0 -28 37.5 -50t104.5 -36t143 -23.5t170.5 -14t168.5 -6t154 -1.5q88 0 88 -33q0 -54 -51 -174q-10 -26 -16 -38 t-17.5 -22.5t-27.5 -10.5q-30 0 -89 2t-87 2q-213 0 -404.5 -26t-331.5 -69.5t-253.5 -97.5t-183 -111.5t-106 -110t-36.5 -95.5q0 -48 32.5 -79.5t94.5 -31.5q170 0 608 115t639 190q38 14 119.5 45t127 47.5t52.5 16.5q12 0 12 -21q0 -29 -54.5 -76t-107 -79.5 t-108.5 -63.5q-392 -219 -660 -310t-471 -91q-22 0 -133 12q-78 11 -146 72t-109.5 141t-65 158t-23.5 133z" />
<glyph unicode="F" horiz-adv-x="1796" d="M252 1245q0 90 26.5 153t89 109.5t171 69t268.5 22.5q244 0 489.5 -14t407.5 -14q217 0 384.5 17.5t253.5 34.5t105 17q26 0 49 -24t52 -70q49 -80 49 -110q0 -12 -27.5 -21.5t-77.5 -21t-108 -28t-130.5 -49.5t-133.5 -77q-187 -136 -428 -389q133 10 180 10 q40 0 68 -25.5t59 -74.5q59 -89 59 -105q0 -8 -33 -8q-195 0 -540 -26q-200 -232 -363 -457q-157 -215 -157 -357q0 -14 -4 -18t-19 -4q-39 0 -102.5 54t-110.5 118.5t-47 95.5q0 65 104 197q102 131 283 336q-294 -21 -491 -21q-51 0 -94 18.5t-68.5 44.5t-43.5 55 t-25 48.5t-7 26.5q0 12 22 12q39 0 95 -3t82 -3q145 0 743 51q289 301 535 502q-112 -14 -326 -14h-158q13 -13 13 -27q0 -52 -146 -102t-312.5 -76.5t-264.5 -26.5q-65 0 -107 1.5t-89 7.5t-75.5 17.5t-53 30.5t-35.5 48t-11 69zM358 1262q0 -74 232 -74q156 0 321 19 t264 43.5t99 41.5q0 8 -8 13q-124 3 -272.5 9.5t-243 10.5t-115.5 4q-277 0 -277 -67z" />
<glyph unicode="G" horiz-adv-x="1841" d="M244 340q0 104 53 223.5t139.5 231t200 222.5t232 202t237.5 165q90 55 165 96t182 91.5t213.5 78t199.5 27.5q40 0 73.5 -9.5t55.5 -22t45.5 -37t36.5 -42.5t35 -51t36 -51q30 -30 42 -44t25 -45t13 -68q0 -101 -133 -217q36 -26 97 -96t61 -103q0 -16 -31 -47.5 t-85.5 -78t-80.5 -73.5q-709 -739 -1368 -1540q-56 -68 -96.5 -132t-55 -88t-24.5 -24q-25 0 -69.5 46.5t-80.5 111t-36 107.5q0 49 47 126t118 159t173.5 186t195.5 192t202.5 194t176.5 175q-210 -160 -349 -233.5t-263 -73.5q-71 0 -140 32.5t-123 89.5t-87 141t-33 179z M424 203q0 -51 25 -74t81 -23q126 0 319.5 87t398 225t398 291.5t353.5 304.5q-166 -114 -393 -210.5t-277 -96.5q-42 0 -67 20t-25 53q0 25 5.5 34t25.5 9q19 0 51 8q41 11 128.5 52.5t192.5 102t201 126t160.5 131t64.5 109.5q0 30 -18.5 45.5t-50.5 15.5 q-121 0 -290.5 -66t-341 -171t-343 -239.5t-303 -267t-213.5 -258t-82 -208.5z" />
<glyph unicode="H" horiz-adv-x="1738" d="M141 786q0 146 293 146q256 0 461 -88q54 53 134 129.5t125.5 121t104.5 102t91.5 92t64 70.5t45 58t13.5 35t-13 23t-30 10q-110 0 -313.5 -69t-440.5 -187q-14 -7 -36 -22t-37.5 -25.5t-20.5 -10.5q-17 0 -17 39q0 22 14 47t45.5 52t59.5 49.5t78.5 51.5t79 45.5t85 44 t72 35.5t62.5 30q214 100 340 100q67 0 107 -30t77 -95q43 -75 53.5 -101.5t10.5 -66.5t-31.5 -99.5t-73.5 -115.5t-124 -145.5t-140.5 -149t-165.5 -166.5q27 -27 31 -32q134 2 323 10q145 183 330.5 363.5t355.5 314.5t325 239.5t260.5 160t142.5 54.5q10 0 27.5 -46.5 t17.5 -73.5q0 -5 -9 -14t-14 -11q-498 -329 -1034 -967q89 7 178 15l133.5 12t59.5 4q35 0 66.5 -25.5t31.5 -48.5q0 -49 -586 -98q-324 -408 -459 -664q-18 -34 -37 -34q-9 0 -24 12q-84 71 -121 114t-37 76q0 22 12 49q4 9 19.5 35.5t25.5 47.5t19.5 58.5t9.5 76.5 q0 104 -43 188l-194 -6q-275 -282 -387 -440q-32 -45 -60 -92t-39 -63.5t-20 -16.5q-17 0 -57 40t-75.5 98.5t-35.5 100.5q0 24 17 56t49.5 70t61.5 68t72 72t62 62l43 43q-235 10 -281 53q-133 120 -133 229zM254 721q0 -18 48.5 -31.5t151.5 -21.5t253 -9l86 86 q-129 33 -269 33q-112 0 -191 -17.5t-79 -39.5zM1231 518q27 -70 35 -131q38 61 90 137z" />
<glyph unicode="I" horiz-adv-x="1609" d="M29 252q0 20 59 20q37 0 86.5 -21t100 -51.5t102.5 -61t110 -51.5t107 -21q51 0 107.5 20.5t118 62.5t118 88.5t126.5 118.5t124 130t129 143q-209 -109 -340 -109q-56 0 -102.5 28.5t-73.5 73.5t-41.5 94t-14.5 95q0 63 51.5 125.5t142.5 117t200 103.5t238.5 91.5 t244 74.5t229.5 59q130 30 307.5 65.5t223.5 35.5q23 0 50.5 -72.5t27.5 -126.5q0 -25 -11 -33q-154 -97 -246 -160.5t-180 -142.5q-113 -101 -228.5 -223t-198 -218t-173 -196t-173 -172t-178 -131t-209 -89t-245.5 -30q-78 0 -156.5 36.5t-134 82.5t-142.5 119t-152 117 q-4 4 -4 8zM901 711q0 -25 39 -25q156 0 461 156q4 2 10 2q9 0 41 -66q154 171 275 282.5t229 164.5q-468 -95 -965 -416q-23 -13 -56.5 -44t-33.5 -54z" />
<glyph unicode="J" horiz-adv-x="1525" d="M-475 -350q0 16 51 16q31 0 76.5 -21.5t89 -47t115 -47t149.5 -21.5q54 0 114.5 22.5t117.5 57.5t127.5 96t129 118.5t138.5 146t140 158t149 173.5q6 7 9.5 11t9 10.5t9.5 11.5q-210 -109 -278 -109q-64 0 -121 30.5t-93.5 74t-63 93t-38.5 87t-12 55.5q0 46 20 91.5 t59.5 90.5t70.5 74.5t81 71.5q142 120 339 220.5t410 173.5t415 132.5t419 127.5t357 128q15 6 35 6q38 0 47 -43q16 -66 16 -112q0 -44 -12.5 -62.5t-46.5 -27.5q-87 -24 -177 -75t-178.5 -125t-151 -133.5t-144.5 -144.5q-40 -40 -427.5 -494t-523.5 -603 q-443 -486 -872 -486q-263 0 -496 207q-59 52 -59 68zM565 438q0 -20 14 -32.5t39 -12.5q74 0 214.5 51.5t281.5 161.5q12 10 19 10q6 0 14 -8l22 -22q419 479 744 688q-308 -112 -619 -269.5t-514 -316.5q-83 -64 -149 -133t-66 -117z" />
<glyph unicode="K" horiz-adv-x="2160" d="M6 47q0 13 10.5 23t22.5 10q11 0 52 -19.5t108.5 -39t142.5 -19.5q54 0 108 13t100.5 32t99.5 54.5t93.5 67t96 84t93 90.5t97.5 101q211 220 407 434.5t265 303.5q-107 1 -148 17.5t-41 49.5q0 14 2.5 22.5t9.5 12t12.5 4t16.5 0.5q76 0 184 35t193.5 76.5t156.5 76.5 t83 35q33 0 95.5 -38.5t62.5 -59.5q0 -30 -35 -65q-356 -337 -514 -512q126 19 307 93.5t325.5 151.5t348.5 190t295 159q112 57 206 56q29 0 48.5 -22.5t19.5 -50.5q0 -20 -19.5 -32t-51.5 -20.5t-40 -12.5q-134 -74 -256 -153.5t-205.5 -139t-183 -122t-237.5 -128.5 t-320 -133q48 -33 95 -98t47 -89q0 -40 -31.5 -90t-77 -95.5t-91 -87t-77 -76t-31.5 -50.5q0 -35 15 -35q23 0 66 20.5t138.5 89t223.5 179.5q17 14 33 14q40 0 40 -59q0 -20 -54.5 -77.5t-139.5 -129.5q-206 -174 -367 -174q-35 0 -80 57t-74.5 124.5t-29.5 103.5 q0 67 66 133q148 148 181.5 184t33.5 45q0 10 -29 10q-47 0 -175 -22.5t-224 -44.5l-50 -49q-42 -42 -107 -113t-115 -124t-116.5 -118.5t-129 -112t-134 -87.5t-151 -62.5t-162.5 -21.5q-105 0 -235 51t-234 129q-35 25 -35 51z" />
<glyph unicode="L" horiz-adv-x="2404" d="M127 141q0 39 16 70.5t39.5 52t61.5 35t72 22t80.5 11.5t77 5t71.5 1q235 0 608 -70q118 101 257.5 249t251.5 280t261 299t268 286q48 48 101 92.5t122 92t143 76t138 28.5q133 0 242 -137q43 -33 71 -65t38.5 -60.5t13 -45.5t2.5 -40q0 -55 -30 -115t-64.5 -99.5 t-91 -98.5t-78.5 -86q-17 -20 -47 -71.5t-54.5 -88.5t-36.5 -37q-32 0 -74 109.5t-42 205.5q0 41 46 102t101.5 114t101.5 112.5t46 97.5q0 23 -27 23q-28 0 -55 -18q-116 -77 -229 -178t-217 -215.5t-193 -220.5t-200 -238.5t-194 -223.5q-95 -103 -200 -194 q240 -35 430 -35q343 0 532 76q36 14 63.5 28.5t39 21.5t16.5 7q8 0 8 -6q0 -18 -38.5 -64t-108.5 -106q-43 -37 -71.5 -59t-81 -54t-100.5 -50.5t-117.5 -32t-145.5 -13.5q-130 0 -268.5 12.5t-228.5 26.5t-228 39q-113 -65 -226.5 -110t-208.5 -65t-162.5 -28t-127.5 -8 q-200 0 -286.5 85.5t-86.5 272.5zM297 -6q0 -21 19 -31.5t44.5 -13t73.5 -2.5q200 0 410 106q-172 21 -303 21q-244 0 -244 -80z" />
<glyph unicode="M" horiz-adv-x="2639" d="M125 -68q0 50 27.5 108.5t73 114.5t88 99t89.5 84q142 120 273.5 199t167.5 79q12 0 29.5 -13.5t17.5 -29.5l-2 -8q-58 -33 -160.5 -111.5t-207.5 -170.5t-182 -185t-77 -143q0 -39 31 -39q77 0 412 249.5t744 596.5t759 672q12 11 15 13l10.5 7t13.5 5.5t16 0.5 q36 0 98.5 -24.5t116 -67t53.5 -84.5q0 -27 -28 -63q-574 -636 -797 -880q-23 -26 -25 -28q-45 -53 -45 -61q0 -4 6 -4q12 0 62 43q223 191 455 383.5t532.5 438t468.5 384.5q29 25 49.5 32t55.5 7q43 0 145 -59t102 -93q0 -14 -18 -32q-642 -626 -904.5 -924.5 t-262.5 -386.5q0 -23 12 -23q34 0 183 100.5t243 192.5q8 8 18 8q18 0 32.5 -21t14.5 -40q0 -21 -61 -84t-143 -130.5t-175.5 -120t-148.5 -52.5q-78 0 -140.5 69.5t-62.5 165.5q0 122 93 261.5t309 349.5q8 8 8 14t-8 6q-12 0 -31 -16q-441 -378 -700 -605t-324 -286.5 t-131 -124.5q-8 -8 -15 -8q-31 0 -76.5 54.5t-76.5 117.5t-31 90q0 33 27 74q84 122 192.5 248.5t248 276.5t210.5 233q8 12 8 20t-6 8t-35 -26q-189 -169 -414 -372.5t-313.5 -282t-205 -175.5t-234.5 -184q-52 -38 -117 -69.5t-119 -31.5q-12 0 -51 11q-23 7 -65.5 48 t-79.5 97.5t-37 97.5z" />
<glyph unicode="N" horiz-adv-x="1777" d="M121 -80q0 16 6 34t20.5 39.5t26 37t37.5 42.5t38.5 39.5t45 44t41.5 40.5q215 206 623 573t501 469q31 33 40 47t9 33q0 12 -14 21.5t-33 9.5q-72 0 -276.5 -97t-425 -246t-307.5 -270q-16 -22 -23 -22q-8 0 -14 18q-17 53 -17 78q0 34 25.5 75.5t48 64.5t59.5 57 q85 75 199 158t257 170.5t294.5 144.5t267.5 57q30 0 78 -39t86.5 -99.5t38.5 -111.5q0 -89 -180 -256q-20 -19 -78 -72t-89.5 -83.5t-31.5 -34.5t8 -4q11 0 195 135.5t445.5 316t426.5 266.5q22 11 48 11q66 0 156.5 -79.5t90.5 -131.5q0 -18 -33.5 -44.5t-116.5 -88 t-194 -150.5t-298.5 -267.5t-397.5 -404.5q-108 -116 -180 -214t-74 -128q0 -26 16 -26q34 0 150.5 70.5t234.5 175.5q4 3 18 15t23.5 19.5t21.5 15.5t19 9q9 1 25 -23.5t16 -35.5q0 -21 -64 -85t-149 -131.5t-175.5 -120.5t-135.5 -53q-75 0 -125.5 40t-71 98t-20.5 129 q0 42 15 90t38.5 93.5t62.5 98.5t76.5 97.5t90.5 99t94.5 94.5t100 92t95.5 83.5t90.5 78t77.5 66.5q21 21 21 26q0 4 -4 4q-11 0 -74 -39q-309 -185 -701.5 -504.5t-764.5 -715.5q-18 -19 -50 -62.5t-56.5 -73.5t-35.5 -30q-42 0 -115 107t-73 159z" />
<glyph unicode="O" horiz-adv-x="1966" d="M254 375q0 128 46.5 268t124 264t176 243t204.5 213.5t207 167t187.5 111.5t141.5 39q41 0 84 -34q40 -33 148 -111q192 92 325 92q77 0 136 -39t137 -121q75 -75 116.5 -146t41.5 -161q0 -122 -72 -277t-189 -306.5t-271.5 -298.5t-315 -258t-325 -179.5t-294.5 -68.5 q-84 0 -182.5 66t-179.5 161q-23 22 -68.5 60.5t-69.5 63t-53 63t-42 84.5t-13 104zM522 252q0 -97 51 -143t158 -46q205 0 434 125.5t439 327.5q-144 -41 -297 -41q-62 0 -120.5 65.5t-93 166t-34.5 200.5q0 119 67 234.5t181 216.5q-209 -134 -390 -330.5t-288 -404.5 t-107 -371zM1210 791q0 -42 12 -70.5t36.5 -44.5t48 -23.5t61.5 -13.5q86 -14 154 -14q106 0 213 26q161 182 258.5 357.5t97.5 291.5q0 136 -178 136q-117 0 -209 -43q-61 -28 -144 -94.5t-162 -150.5t-133.5 -182t-54.5 -175z" />
<glyph unicode="P" horiz-adv-x="1855" d="M150 158q0 30 28.5 78t70 98t110.5 123.5t126.5 130t143.5 141.5t137 137l-4 13q-8 19 -8 36q0 23 16 23q13 0 27 -14l12 -13q133 135 242 236t166 149t61 52q-259 -53 -472 -137.5t-339 -186.5q-17 -14 -25 -14q-6 0 -12 12q-1 3 -8 17.5t-10 22t-6 19.5t-3 21 q0 61 159 156t392 183t529.5 152t539.5 64q72 0 103 -2q70 -6 135.5 -75t108 -162.5t68 -185t26.5 -149.5q0 -70 -60 -141q-85 -103 -246 -192.5t-340.5 -144t-352 -85.5t-300.5 -31q-137 0 -247 123q-201 -212 -435 -520q-40 -53 -69 -99.5t-40.5 -72t-19.5 -43.5 t-12.5 -24.5t-13.5 -6.5q-19 0 -38 23t-59 86q-25 38 -39.5 65t-28 65.5t-13.5 72.5zM1108 801q23 -2 70 -2q155 0 354 43.5t367.5 107t284.5 142.5t116 145q0 50 -54.5 87.5t-129.5 54.5t-127.5 24.5t-73.5 7.5q-161 0 -359 -20q48 -25 68 -45q12 -12 12 -21q0 -10 -12 -22 q-129 -129 -516 -502z" />
<glyph unicode="Q" horiz-adv-x="1884" d="M264 453q0 111 61 246t157.5 259.5t216 244t234.5 207.5t216 142t158 54q26 0 52 -6t43 -12t45 -23t38 -24t43.5 -32t40.5 -30q149 86 219 86q118 0 287 -193q57 -43 94.5 -84.5t53.5 -77.5t21 -61.5t5 -54.5q0 -112 -78 -256t-205 -284.5t-284 -273t-318 -233.5 q154 -82 262 -82q33 0 71.5 17.5t49.5 17.5q8 0 8 -8q0 -16 -22 -58q-21 -39 -30 -54.5t-29.5 -49t-36 -49t-38.5 -35t-48 -27.5t-54 -8q-68 0 -148 39.5t-243 161.5q-163 -70 -268 -70q-177 0 -326 166q-49 54 -73 81.5t-64 80t-59.5 91t-35.5 90.5t-16 102zM494 254 q0 -84 65 -132t162 -48q57 0 133 30q-19 15 -145 117q-99 76 -213 80q-2 -16 -2 -47zM506 369q117 49 233 49q31 0 67.5 -13.5t92 -48.5t86 -56t105.5 -75q151 96 311 231t293 277t218 282t85 236q0 67 -36 108.5t-97 41.5q-95 0 -232.5 -66t-261.5 -160t-223 -202.5 t-127 -188.5q-7 -26 -19 -26q-8 0 -8 33q0 129 99.5 269.5t253.5 264.5q-107 -68 -212 -149.5t-209 -180t-188 -199.5t-146 -212.5t-85 -214.5z" />
<glyph unicode="R" horiz-adv-x="1841" d="M139 201q0 46 41 103t168 188q147 152 342 331.5t307.5 277t364.5 314.5q-146 -27 -277 -68.5t-215 -80.5t-146 -74t-94 -56.5t-36 -21.5q-7 0 -13 18.5t-6 41.5q0 47 19 63q88 83 229.5 161.5t330 145.5t434 107.5t505.5 40.5q95 0 158 -12t112.5 -45.5t83 -74.5 t82.5 -118q146 -199 146 -332q0 -91 -54.5 -167t-142 -127t-207 -90.5t-238.5 -62t-248.5 -36.5t-225 -18.5t-179.5 -4.5q-49 0 -130.5 5t-86.5 5q14 -56 32 -113t52 -134.5t72 -135t93.5 -98.5t115.5 -41q88 0 196.5 48t221.5 163q23 23 51 23q39 0 39 -52q0 -19 -17 -36 q-396 -396 -641 -396q-64 0 -123 26.5t-104 68t-88 104.5t-72.5 122t-59 136t-47 131t-36.5 121q-266 -274 -393 -445q-41 -55 -66.5 -109t-33.5 -75.5t-19 -21.5q-21 0 -109 135t-88 166zM1190 891q24 -2 133 -2q219 0 486 56.5t465 153t198 195.5q0 28 -13 51t-33.5 39.5 t-53 30t-64 22t-73.5 15t-75 9.5t-75.5 4.5t-68 2t-58.5 0.5q-111 0 -295 -12l35 -24q18 -15 18 -29q0 -15 -12 -23q-345 -325 -514 -489z" />
<glyph unicode="S" horiz-adv-x="2201" d="M254 297q0 82 20 176t54 94q9 0 15.5 -8t12 -21t23 -40t43.5 -56q101 -115 304.5 -180t410.5 -65q153 0 323.5 34t293 95t122.5 127q0 64 -172 88q-51 7 -212.5 27.5t-288.5 40.5t-326 55q-26 5 -55.5 13.5t-71 28.5t-75 47.5t-60.5 72.5t-35 100q-9 62 -9 104 q0 47 15 90t39.5 78t64 67.5t79.5 57.5t95 49.5t101.5 42t108.5 36t107 30t105 26.5q520 127 959 127q62 0 95 -1t74.5 -5t65 -12.5t51 -23.5t48.5 -37.5t44 -55.5q74 -77 102 -126t28 -97q0 -46 -33 -64q-92 -49 -370.5 -160t-391.5 -180q-31 -22 -45 -22q-15 0 -27 29 q-39 80 -39 118q0 25 10.5 49.5t33 48.5t45 44t61.5 42.5t66 38t73.5 37t70.5 32t70 30.5q19 9 19 18q0 25 -21 25q-49 0 -208.5 -22.5t-363 -59.5t-413.5 -97.5t-323 -125.5q-26 -15 -40.5 -25.5t-29 -29.5t-14.5 -39q0 -14 10.5 -27t34 -23t43.5 -17.5t57.5 -15t56.5 -11 t60.5 -9.5t50.5 -8q82 -14 228 -34t232 -33.5t186.5 -41t164.5 -63.5q76 -45 114 -148.5t38 -195.5q0 -34 -9 -65.5t-21.5 -57t-35.5 -50.5t-42 -42.5t-51 -37t-51.5 -31t-55.5 -27t-51 -22t-48 -19.5q-98 -40 -267 -73.5t-380 -33.5q-661 0 -871 363q-22 33 -22 57z" />
<glyph unicode="T" horiz-adv-x="1314" d="M256 1495q0 46 38 72t83 26q95 0 402 -4t532 -4q267 0 520.5 8.5t428 20.5t308.5 24t209 20.5t82 8.5q8 0 15 -3t22.5 -15.5t33.5 -28.5t59.5 -51t90.5 -74q3 -3 34 -25.5t47.5 -40t16.5 -32.5q0 -17 -44.5 -30t-94.5 -19q-483 -56 -837 -56q-131 0 -201 2q49 -30 49 -49 q0 -6 -10.5 -19t-34 -36t-48.5 -46.5t-67.5 -63.5t-77.5 -74q-574 -560 -845 -912q-44 -57 -75.5 -107t-45 -78.5t-22 -49.5t-13.5 -29t-14 -8q-38 0 -93 63.5t-93 133t-38 94.5q0 44 55.5 126t148 182t173 180.5t167.5 164.5l4.5 4.5t4 3.5t4.5 4q143 139 266.5 253.5 t182.5 166.5t82 70q35 26 49 35l-233 8q-47 -56 -160 -101t-252 -72t-278 -41t-257 -14q-59 0 -88 2q-43 1 -76.5 28t-52.5 72t-32 90t-17.5 97t-6 77t-1.5 46zM387 1303q0 -50 158 -50q585 0 690 68q-553 27 -700 27q-32 0 -52.5 -1t-45.5 -5t-37.5 -14t-12.5 -25z" />
<glyph unicode="U" horiz-adv-x="1828" d="M252 164q0 77 172 254q108 112 252.5 233t246 196.5t288 208.5t262.5 189q83 55 83 94q0 23 -22 23q-58 0 -235.5 -71t-384 -182.5t-318.5 -207.5q-23 -19 -40 -38.5t-23.5 -30.5t-13 -18t-13.5 -7q-15 0 -41.5 28t-26.5 52q0 51 142.5 168t330.5 233t385.5 205.5 t294.5 89.5q17 0 32.5 -4.5t25 -8t26 -17.5t20.5 -17.5t24 -24.5t22 -24q5 -5 20.5 -21t22 -23t18.5 -21t17.5 -23.5t13 -22.5t10 -26t2.5 -27q0 -97 -159 -225q-650 -536 -910 -773q-289 -263 -289 -317q0 -15 8 -25t21 -10q41 0 398.5 242.5t566.5 415.5 q237 196 439.5 384t428.5 427q30 33 49 33q33 0 91.5 -60t111.5 -135q20 -26 20 -45q0 -23 -32 -45q-72 -54 -200 -162.5t-282.5 -251.5t-291 -281t-228.5 -258.5t-92 -175.5q0 -20 14 -20q54 0 159 65.5t173 122.5q5 4 17.5 14.5t20 17t20 16.5t21.5 16.5t19.5 13t18.5 9.5 t14 3q14 0 28.5 -16t14.5 -47q0 -29 -100.5 -117.5t-232.5 -168t-203 -79.5q-50 0 -104 57.5t-54 139.5q0 124 141 332q-44 -37 -131 -115t-154.5 -138.5t-162.5 -134.5t-174 -122.5t-168.5 -82.5t-165.5 -34q-82 0 -156 141q-58 105 -78 152t-20 78z" />
<glyph unicode="V" horiz-adv-x="1433" d="M152 877q0 62 85.5 165t214.5 208t267.5 200t258.5 155t173 60q36 0 79 -19.5t69.5 -39t64.5 -50.5q74 -52 113 -104.5t39 -128.5q0 -29 -13 -70q-73 -186 -270 -426q-178 -213 -565 -655q-19 -24 -19 -39q0 -10 10 -10q7 0 39 33t78.5 85t63.5 70q425 428 826 748 t697 497q174 103 238 103q127 0 258 -94q39 -24 39 -37t-59 -27q-125 -31 -398.5 -191.5t-590 -382.5t-653 -502t-562.5 -523q-17 -18 -54 -63t-61 -70t-35 -25q-40 0 -103.5 57.5t-111 129t-47.5 110.5q0 37 21 61q363 415 562.5 648.5t312 380t142 204.5t29.5 105 q0 45 -43 45q-39 0 -108 -24.5t-174.5 -78t-259 -161.5t-324.5 -254q-111 -98 -145 -176q-12 -29 -19 -29q-10 0 -29 22q-36 39 -36 93z" />
<glyph unicode="W" horiz-adv-x="2398" d="M147 186q0 66 95.5 185t238.5 250t310.5 274t310.5 258.5t238.5 202t95.5 106.5q0 15 -9.5 27t-23.5 12q-19 0 -97.5 -29t-225.5 -99.5t-298 -160.5q-120 -72 -203.5 -139.5t-140.5 -154.5q-5 -5 -8 -5q-14 0 -27.5 41.5t-13.5 98.5q0 43 133 149.5t307 214t353.5 190.5 t261.5 83q43 0 98.5 -30.5t100 -73t75.5 -89t31 -76.5q0 -33 -139.5 -170t-338 -316t-397 -361.5t-338 -336t-139.5 -210.5q0 -35 27 -35q58 0 384 270q328 272 613 549q389 376 612 616q38 41 47.5 49.5t20.5 8.5q30 0 96 -37.5t121.5 -85.5t55.5 -74q0 -9 -39.5 -44.5 t-107.5 -93.5t-154.5 -133.5t-187 -175.5t-197 -209t-192 -245t-165.5 -272q-26 -52 -26 -90q0 -28 17.5 -43t39.5 -15q62 0 274 171t500 454t547 579q102 117 182.5 216.5t117 151t62.5 88.5t37.5 48t24.5 11q32 0 81.5 -35.5t49.5 -75.5q0 -33 -62.5 -137t-107.5 -160 q-186 -242 -375 -463t-346 -384.5t-299.5 -298t-247.5 -218t-176 -128.5q-69 -44 -99 -44h-1q-28 0 -78 20q-51 22 -100 53.5t-95.5 73.5t-75 97t-28.5 112q0 120 135 312q-95 -83 -207 -174t-245 -190.5t-245.5 -163.5t-166.5 -64q-30 0 -53.5 14.5t-35 30.5t-32.5 50.5 t-33 51.5q-75 93 -96 138t-21 83z" />
<glyph unicode="X" horiz-adv-x="1484" d="M211 41q0 49 33 90q109 135 349.5 321.5t557.5 391.5q60 101 180.5 295.5t165.5 273.5q6 9 6 19q0 20 -30 20q-64 0 -305 -117.5t-457 -285.5q-62 -48 -107 -93.5t-65.5 -74.5t-33 -52t-18.5 -33t-12 -10q-19 0 -37 35.5t-18 65.5q0 9 3.5 20.5t7.5 21.5t12.5 23.5t14 22 t17 23.5t16.5 21t17 20.5t14 17.5q119 143 308 286t353.5 228.5t241.5 85.5q24 0 45 -4t35.5 -9t32.5 -16t27 -18t27 -22t26 -21q40 -27 67.5 -50t54.5 -64.5t27 -84.5q0 -54 -65 -184q380 223 682.5 372.5t376.5 149.5q44 0 88 -47q24 -27 24 -66q0 -16 -5 -24.5t-21 -14.5 q-265 -99 -624.5 -306t-743.5 -474q-78 -132 -122.5 -210t-99.5 -178.5t-80.5 -162t-25.5 -90.5q0 -24 18.5 -42.5t44.5 -18.5q44 0 138.5 63t275.5 209q32 27 45 27q11 0 25 -21t14 -43t-66.5 -88t-156.5 -136t-192 -124.5t-164 -54.5q-35 0 -80.5 32t-85.5 84 q-55 54 -72.5 87t-17.5 67q0 80 30 174q-186 -154 -329 -297.5t-195 -234.5q-16 -25 -25 -25q-40 0 -93.5 93t-53.5 157z" />
<glyph unicode="Y" horiz-adv-x="1642" d="M254 442q0 113 205 283q232 196 492.5 398t356 281.5t95.5 111.5q0 16 -21 16q-124 0 -317.5 -81t-376 -203t-287.5 -240q-8 -9 -19.5 -26t-19 -24.5t-14.5 -7.5q-5 0 -16 12.5t-21 35t-10 42.5q0 30 74 110.5t197.5 180.5t263.5 193.5t292.5 157t264.5 63.5 q39 0 102.5 -54.5t112.5 -126.5t49 -116q0 -90 -109 -203q-129 -130 -279.5 -260.5t-343.5 -288.5t-294 -245q-27 -24 -52.5 -56t-25.5 -53q0 -16 22 -16q63 0 383.5 212t557.5 396q88 69 179.5 144.5t196 167t173 152t193.5 173.5t175 158q11 8 27 8q24 0 91.5 -44 t126 -100t58.5 -84q0 -10 -73.5 -71t-219.5 -184t-325 -284t-429 -414t-493 -531q-40 -46 -72 -83t-124.5 -151t-157 -202t-125.5 -190t-74 -161q-6 -24 -14 -24q-31 0 -81.5 47t-90 115.5t-39.5 119.5q0 72 48.5 167t121 185t180 202t201 199.5t209.5 198t182 177.5 q-382 -293 -579.5 -402.5t-293.5 -109.5q-59 0 -94 26q-36 27 -87.5 133.5t-51.5 169.5z" />
<glyph unicode="Z" horiz-adv-x="1611" d="M-532 -582q0 53 34 90q172 181 615 426q492 272 1302 578q11 42 11 66q0 27 -31.5 44t-81.5 17q-91 0 -199.5 -33t-455.5 -164q-31 -12 -64 -29t-51.5 -26.5t-28.5 -9.5t-17 41.5t-7 91.5v170q0 26 19 42.5t68.5 33t109.5 32.5t167.5 51t216.5 79q132 53 302 140.5 t334 186t276 196.5t112 158q0 80 -153 80q-167 0 -366.5 -55t-366.5 -133t-308.5 -156t-229 -133t-91.5 -55q-19 0 -39.5 13.5t-20.5 29.5q0 33 86.5 109t169.5 135q92 66 215 141.5t283.5 161.5t324 142t279.5 56q76 0 148.5 -44t126.5 -122q1 -2 35 -50t45 -66.5t34 -58.5 t32 -71.5t9 -60.5q0 -104 -127 -234t-331.5 -251t-450.5 -219q36 -3 97.5 -54t115.5 -120q430 153 485 154q86 0 86 -33q0 -9 -12 -20t-38 -24t-45 -21.5t-54 -23t-45 -18.5l-310 -131q15 -43 15 -64q0 -55 -29.5 -117t-85.5 -125.5t-119.5 -123.5t-149.5 -125.5t-156 -115 t-157 -107.5q-371 -245 -717.5 -418.5t-512.5 -173.5q-25 0 -48.5 7.5t-39.5 16t-37 28t-31.5 31t-32.5 38t-31 37.5q-83 96 -83 163zM-315 -604q0 -19 15 -33t36 -14q76 0 276.5 90t432 224t468.5 308.5t369 323.5q-305 -132 -535.5 -239t-449 -220.5t-369 -216 t-229.5 -192.5q-14 -14 -14 -31z" />
<glyph unicode="[" horiz-adv-x="927" d="M51 -143q0 19 19 47q281 410 758.5 1046.5t598.5 749.5q16 16 46 16q97 0 258 -3t211 -3q22 0 22 -6q0 -5 -19.5 -48.5t-33.5 -66.5q-15 -22 -24.5 -34.5t-27 -23.5t-36.5 -11h-287q-1 -35 -30.5 -81.5t-61.5 -78.5q-109 -109 -463 -583.5t-625 -907.5q254 -4 326 -4 q23 0 23 -6q0 -5 -19 -48.5t-33 -66.5q-15 -23 -24.5 -35t-27 -23.5t-36.5 -11.5h-334q-47 0 -113.5 66.5t-66.5 116.5z" />
<glyph unicode="\" horiz-adv-x="794" d="M104 1497q0 40 59.5 124.5t98.5 84.5q36 0 150.5 -383.5t227 -858t146.5 -720.5q-4 -47 -85 -84t-136 -37q-8 0 -14 4.5t-10 13t-6.5 17t-4.5 22t-2.5 23t-1.5 23.5t-2 20q-30 269 -86 551.5t-116.5 498.5t-106.5 359.5t-76 216.5q-2 4 -7.5 17.5t-8 20.5t-7 20t-6.5 22 t-4 21.5t-2 23.5z" />
<glyph unicode="]" horiz-adv-x="927" d="M-311 -322q0 5 19.5 48.5t33.5 66.5q15 23 24.5 35t27 23.5t36.5 11.5h287q1 35 30.5 81.5t61.5 78.5q109 109 462.5 583t624.5 907q-318 5 -325 5q-23 0 -23 6q0 5 18.5 48t32.5 66q15 23 24.5 35t27 23.5t36.5 11.5h334q47 0 114 -66t67 -116q0 -18 -19 -47 q-280 -409 -758.5 -1046t-599.5 -750q-17 -17 -45 -17q-97 0 -258 3t-211 3q-22 0 -22 6z" />
<glyph unicode="^" horiz-adv-x="1112" d="M776 891q0 96 92 192q102 102 422 342q19 45 99 45q51 0 94 -18.5t43 -42.5q0 -6 -2 -10q-49 -106 -49 -246q0 -72 12.5 -148.5t25.5 -125t13 -54.5q0 -12 -17 -12q-63 0 -112 27.5t-77.5 74.5t-43 103.5t-14.5 118.5q0 45 10 100q-209 -159 -406 -360q-4 -4 -15.5 -22 t-23.5 -31t-22 -13q-29 0 -29 80z" />
<glyph unicode="_" horiz-adv-x="978" d="M0 -41q0 18 19 58.5t36 48.5q63 32 228 32h606q48 0 69 -17.5t21 -55.5q0 -59 -11 -84t-42 -25q-15 0 -48.5 5t-46.5 5q-556 -8 -788 -8q-22 0 -32.5 8t-10.5 33z" />
<glyph unicode="`" horiz-adv-x="1470" d="M969 1430q0 30 28.5 56.5t59.5 26.5q16 0 24 -9t14.5 -36.5t15 -63.5t32.5 -104t59 -145q4 -8 4 -20q0 -20 -24 -37t-49 -17q-20 0 -31 11q-44 37 -88.5 153t-44.5 185z" />
<glyph unicode="a" horiz-adv-x="1034" d="M61 193q0 29 11 57q37 100 185.5 245t304.5 248t222 103q25 0 49.5 -9t51 -29.5t43 -35.5t46.5 -45.5t40 -40.5q73 -30 130.5 -70t57.5 -55q0 -4 -8 -12q-139 -96 -297 -261t-158 -212q0 -8 6 -13.5t15 -5.5q13 0 73 33t163 110.5t192 170.5q8 8 18 8q18 0 30.5 -23.5 t12.5 -38.5q0 -26 -61 -92.5t-142.5 -135t-171 -121t-139.5 -52.5q-66 0 -110.5 53.5t-44.5 136.5q-123 -111 -191 -157.5t-119 -46.5q-85 0 -149 118q-3 6 -12.5 23t-13 24t-11 21.5t-10 24t-6.5 23.5t-5.5 28t-1.5 29zM244 68q0 -11 10 -22t18 -11q9 0 21 6 q68 33 213 165.5t256.5 248t118.5 129.5q4 8 4 14q0 11 -9 19t-24 8q-35 0 -158 -84q-163 -113 -303 -262q-147 -156 -147 -211z" />
<glyph unicode="b" horiz-adv-x="897" d="M102 197q0 101 84 247q33 55 74 111t76.5 98.5t102.5 112.5t109.5 112.5t139.5 137.5q368 363 563 528q34 31 54 31q18 0 71.5 -62.5t53.5 -99.5q0 -15 -13 -31q-27 -35 -94 -94.5t-145.5 -122.5t-196.5 -167.5t-223 -209.5q99 0 176 -73q46 -42 69 -75.5t23 -68.5 q0 -44 -20 -94q-23 -56 -70.5 -131t-112.5 -153.5t-135.5 -145t-146.5 -109t-138 -42.5q-59 0 -108 34t-121 113q-33 36 -50 68t-19.5 47t-2.5 39zM315 147q0 -41 31 -41q25 0 54.5 16.5t80.5 59.5q98 82 221.5 241.5t126.5 233.5q0 16 -11.5 24.5t-26.5 8.5 q-45 0 -127.5 -68t-158.5 -158t-133 -181.5t-57 -135.5z" />
<glyph unicode="c" horiz-adv-x="784" d="M123 258q0 87 33 148.5t104 132.5q136 136 280 219.5t224 83.5q32 0 65.5 -17t81.5 -67q8 -8 26.5 -25.5t26.5 -25.5t15.5 -20.5t7.5 -22.5q0 -26 -30 -65t-89 -101q-4 -4 -18.5 -19.5t-26 -26.5t-26.5 -24.5t-28.5 -21t-23.5 -7.5q-35 0 -65.5 47.5t-32.5 104.5 q-48 0 -223 -168q-92 -86 -131 -139t-39 -103q0 -45 63 -45q119 0 337.5 106t353.5 222q11 8 20 8q12 0 12 -20q0 -58 -126.5 -178t-293 -219t-264.5 -99q-38 0 -69 8q-52 14 -108 124.5t-56 209.5z" />
<glyph unicode="d" horiz-adv-x="1081" d="M61 172q0 43 27 102q57 128 188.5 259t270 211.5t225.5 80.5q38 0 62 -18q69 -56 118 -156q4 4 74.5 83t128.5 143.5t148 164t158.5 173.5t134.5 142.5t98 98.5q21 21 37 21q11 0 28 -11q39 -26 81 -80.5t42 -78.5q0 -28 -16 -41q-163 -152 -334 -325t-286.5 -296 t-313.5 -338q-78 -83 -116 -133t-38 -78q0 -18 23 -18q38 0 96.5 34.5t189.5 137.5q20 16 58.5 50t63 53.5t32.5 19.5q15 0 29 -25.5t14 -40.5q0 -29 -101 -124t-230 -181t-191 -86q-66 0 -111 49.5t-45 118.5q-7 -6 -50.5 -40t-67 -50.5t-64 -41.5t-75 -36.5t-66.5 -11.5 q-57 0 -110.5 50.5t-82.5 112t-29 105.5zM272 113q0 -12 1.5 -19t9.5 -12.5t24 -5.5q32 0 72 30q103 73 285 237.5t182 209.5q0 22 -13.5 35.5t-39.5 13.5q-22 0 -106 -58.5t-176.5 -136t-165.5 -163t-73 -131.5z" />
<glyph unicode="e" horiz-adv-x="860" d="M102 188q0 70 25 139t73 134t98 117.5t118 113.5q238 213 366 213q63 0 152 -100q50 -46 65 -74.5t15 -54.5q0 -93 -91 -207.5t-207.5 -191t-193.5 -76.5q-34 0 -75.5 18.5t-73.5 52.5q-62 -94 -62 -147q0 -30 18.5 -53t61.5 -23q41 0 107 21q105 38 202.5 85t162.5 86.5 t115.5 74t77.5 54t31 19.5q19 0 19 -20q0 -17 -51 -76t-115 -117q-307 -280 -553 -280q-43 0 -112 55.5t-121 126t-52 110.5zM432 350q17 -26 49 -26q54 0 149 75t166.5 160t71.5 117q0 22 -24 22q-20 0 -43 -14q-103 -70 -200.5 -159t-168.5 -175z" />
<glyph unicode="f" horiz-adv-x="731" d="M-444 -504q0 117 100 266q87 128 211.5 283t238.5 281q160 178 404.5 395.5t732.5 617.5q7 6 16 12t14 9l5 2q27 0 67.5 -65t40.5 -115q0 -19 -10.5 -40.5t-32.5 -46t-44 -46.5t-56 -49.5t-58 -46t-60 -45.5t-52 -40q-307 -239 -561 -487q62 -20 100.5 -62t38.5 -102 q0 -7 -1 -20.5t-1 -20.5q58 40 182 143q6 5 16.5 14.5t16 14t14.5 8.5t19 4q12 0 24.5 -18t12.5 -37q0 -29 -74 -100q-118 -113 -242 -182q-56 -186 -203 -399.5t-358 -426.5q-29 -29 -71.5 -48t-83.5 -19q-19 0 -37.5 5.5t-37.5 17.5t-31 21.5t-34.5 28.5t-31.5 27 q-14 12 -42.5 33.5t-42.5 32.5t-34.5 33.5t-30 43t-17 52.5t-7.5 71zM-180 -582q0 -82 51 -82q11 0 23 9q96 80 239 261.5t242 350.5q-102 14 -156 113q-183 -215 -291 -398t-108 -254zM324 166q0 -34 28.5 -58t83.5 -24h4q43 94 43 147q0 56 -37 56q-48 0 -85 -39t-37 -82z " />
<glyph unicode="g" horiz-adv-x="1040" d="M-74 -678q0 28 27 68q131 200 255 346.5t279 296.5q-33 -20 -72 -48.5t-60 -43t-50 -26t-59 -11.5q-38 0 -83.5 45.5t-75.5 108.5t-30 112q0 26 19 72q36 89 121.5 194.5t190 194.5t222.5 149t209 60q48 0 99 -32t120 -112q6 -1 35 -5t41.5 -7.5t37 -11.5t46.5 -22.5 t45 -35.5q19 -19 19 -30q0 -12 -21 -33q-514 -482 -919 -1104q-54 -83 -103 -173.5t-70.5 -130.5t-31.5 -40q-21 0 -33 8q-43 26 -100.5 103t-57.5 108zM295 113q0 -43 31 -43q25 0 213 151.5t315 274.5q90 86 90 98q0 15 -13.5 34t-33.5 19q-29 0 -156.5 -87t-255.5 -204 q-55 -50 -122.5 -128t-67.5 -115z" />
<glyph unicode="h" horiz-adv-x="1036" d="M-39 92q0 18 19 47q81 119 208.5 265.5t256 277t279 274.5t260 242.5t218.5 196t135 121.5q16 16 27 16q16 0 46 -65.5t30 -86.5q0 -59 -76 -135q-148 -152 -301 -286.5t-241.5 -207.5t-110.5 -102q19 9 61 30.5t58 29.5t48 21.5t51.5 19t46 10t52.5 4.5q54 0 118 -46 t64 -104q0 -18 -8 -29.5t-35 -35.5q-12 -10 -53 -44t-72.5 -61t-76.5 -67.5t-78.5 -74.5t-65 -69.5t-48.5 -66t-17 -51.5q0 -29 26 -29q59 0 287 176q26 20 48.5 38t33.5 27.5t19.5 17t13 10.5t8 4t8.5 1q15 0 28 -19.5t13 -41.5q0 -29 -101.5 -122.5t-231.5 -178 t-195 -84.5q-55 0 -97 41t-60.5 96t-18.5 109q0 31 10.5 64.5t37.5 73t47 67t65 75t64.5 67t72.5 71.5q-124 -53 -270.5 -184.5t-354.5 -385.5q-5 -6 -20 -32.5t-29.5 -47t-24.5 -20.5q-34 0 -104 66t-70 118z" />
<glyph unicode="i" horiz-adv-x="530" d="M12 119q0 50 53 135.5t128.5 172t158 171t141.5 139t78 68.5q16 12 33 12q15 0 88.5 -67t73.5 -91q0 -16 -14 -30q-326 -315 -427.5 -422t-101.5 -133q0 -13 13 -13q76 0 327 183q14 10 48 38.5t57.5 45t33.5 16.5q13 0 27 -24t14 -35q0 -9 -16 -33q-32 -44 -136 -124.5 t-220 -147t-168 -66.5q-84 0 -137.5 62t-53.5 143zM807 985q0 35 14 65.5t34.5 50t44.5 33.5t44 20.5t33 6.5q32 0 73.5 -40.5t41.5 -96.5q0 -42 -57 -111t-111 -69q-33 0 -75 45t-42 96z" />
<glyph unicode="j" horiz-adv-x="546" d="M-1192 -598q0 86 30 136t99 95q111 72 316.5 132.5t439.5 95.5q171 171 366 383t338.5 375t153.5 174q7 10 18 10q8 0 19 -8q143 -119 143 -162q0 -27 -29 -60q-190 -217 -636 -675q33 2 96 2q39 0 64.5 -1t61.5 -4.5t59.5 -11.5t46 -20.5t33.5 -34t11 -49.5 q0 -21 -24 -21q-11 0 -100.5 5.5t-129.5 5.5q-115 0 -258 -13q-264 -270 -313 -313q-44 -39 -55 -49t-62 -51.5t-77.5 -59t-78 -50t-89.5 -47t-87.5 -27.5t-93.5 -13q-106 0 -184 77.5t-78 178.5zM-1053 -602q0 -16 13.5 -26t25.5 -12.5t21 -2.5q143 0 506 332 q-248 -57 -407 -135t-159 -156zM766 940q0 67 61 111.5t103 44.5q39 0 71.5 -48.5t32.5 -109.5q0 -38 -59 -99t-98 -61q-31 0 -71 54.5t-40 107.5z" />
<glyph unicode="k" horiz-adv-x="1021" d="M-39 92q0 19 10.5 44t34 58t44.5 61t58.5 69.5t58.5 64.5t62 66t52 55q258 276 460.5 473.5t307.5 287.5t243 197q15 11 35 11q24 0 72.5 -48.5t48.5 -82.5q0 -17 -8 -25q-461 -402 -744 -692q161 108 299 108q73 0 137 -56t64 -114q0 -43 -35 -83t-94 -69.5 t-122.5 -53.5t-135 -41t-116 -26t-79.5 -15q-6 -35 -6 -64q0 -71 36.5 -115.5t107.5 -44.5q70 0 166.5 62.5t275.5 210.5q31 26 45 26q11 0 25 -20.5t14 -42.5q0 -19 -18 -37q-44 -47 -89.5 -91t-112.5 -97.5t-131.5 -91.5t-141 -64.5t-146.5 -26.5q-118 0 -183 86t-65 260 q0 30 19 76q-101 -129 -215 -315q-2 -3 -9 -16.5t-13.5 -24t-15 -23t-17 -19.5t-15.5 -7q-40 0 -102 73.5t-62 116.5zM678 436q104 25 223 79t119 93q0 19 -21 19q-100 0 -183 -53t-138 -138z" />
<glyph unicode="l" horiz-adv-x="833" d="M102 178q0 86 58.5 202t153.5 234t214.5 239t242 223.5t235.5 180.5q55 38 87 59t87 53t98.5 47.5t77.5 15.5q91 0 174.5 -69.5t83.5 -141.5q0 -36 -17.5 -66.5t-50.5 -69.5q-106 -122 -335 -300t-428 -304.5t-244 -126.5q-25 0 -41.5 10t-34.5 37q-158 -202 -158 -321 q0 -60 72 -60q75 0 196.5 62t223 135t200.5 156q27 24 45 24q11 0 25 -17.5t14 -45.5q0 -18 -46 -68t-125 -112t-170 -120.5t-194.5 -98t-185.5 -39.5q-108 0 -183 83.5t-75 198.5zM551 508q4 -12 14 -12q26 0 237.5 158t416 337t204.5 226q0 18 -6.5 25t-21.5 7 q-18 0 -157.5 -107t-342.5 -289.5t-344 -344.5z" />
<glyph unicode="m" horiz-adv-x="1423" d="M-39 145q0 28 57.5 91.5t136 135t185 181t180.5 205.5q33 41 55 41q34 0 72.5 -49.5t38.5 -73.5q0 -51 -45 -107q20 14 74 54t90.5 65.5t85 48.5t82.5 23q46 0 90.5 -33t44.5 -70q0 -23 -45 -88q-10 -13 -10 -20q0 -6 6 -6l16 8q120 75 248 128.5t160 53.5 q36 0 87.5 -49.5t51.5 -93.5q0 -21 -14 -29q-113 -82 -177.5 -131.5t-157 -129t-165.5 -157.5q-16 -19 -16 -39q0 -28 45 -28q57 0 182.5 88t236.5 192q44 41 52 41q11 0 30 -22.5t19 -42.5q0 -25 -64.5 -93t-155 -140t-199 -127.5t-183.5 -55.5q-29 0 -70 14 q-123 50 -123 164q0 33 11.5 65t35.5 64.5t43 54.5t53 56t46 47q8 8 8 14q0 8 -8 8t-17 -6q-205 -145 -450 -450q-8 -10 -21 -10q-38 0 -78.5 71.5t-40.5 112.5q0 34 49 93t226 245q12 12 12 18t-6 6q-7 0 -18 -8q-127 -75 -265 -192.5t-342 -335.5q-13 -13 -20 -13 q-6 0 -19 13q-29 34 -64.5 96t-35.5 102z" />
<glyph unicode="n" horiz-adv-x="1024" d="M-61 123q0 41 43 84q40 40 124.5 123t119.5 118t93.5 96t104 113t94.5 113q10 12 21 12q22 0 57 -47t35 -76q0 -15 -22 -46t-50 -63.5t-33 -41.5q10 2 76 41.5t174 101.5t197 105q12 4 18 4q39 0 105.5 -60.5t66.5 -99.5q0 -17 -18 -35q-25 -23 -98 -87.5t-123.5 -111 t-109.5 -104t-90.5 -99.5t-31.5 -65q0 -32 31 -32q47 0 195 97t260 208q8 8 18 8q19 0 33 -18t14 -39q0 -20 -52 -77t-142 -132q-233 -197 -369 -197q-78 0 -139.5 61.5t-61.5 143.5q0 37 16 76.5t47.5 80.5t56.5 68.5t63 65.5q8 8 8 14q0 4 -6 4q-12 0 -27 -10 q-104 -70 -256 -205.5t-275 -267.5q-15 -21 -28 -21q-5 0 -25 8q-42 24 -78 82t-36 107z" />
<glyph unicode="o" horiz-adv-x="956" d="M123 289q0 77 53 160t139 154t177 128t184 100q76 35 151 35q41 0 67.5 -17.5t68.5 -66.5q29 -34 47 -72.5t18 -52.5t-37 -14q-13 0 -45 -4q76 -24 76 -156q0 -70 -18 -118q-27 -67 -89 -143.5t-139.5 -142t-169 -108.5t-168.5 -43q-70 0 -104 27q-26 21 -58 54.5 t-68.5 80t-60.5 100t-24 99.5zM303 156q0 -21 18 -39.5t37 -18.5q45 0 134 51.5t143 92.5q63 48 109.5 102t46.5 76q0 9 -9.5 34t-9.5 48q0 21 19 53.5t47 56.5q-119 -42 -244 -125.5t-207.5 -176t-83.5 -154.5z" />
<glyph unicode="p" horiz-adv-x="1028" d="M-512 -481q0 108 223 366q182 208 336.5 375t322.5 342t273 289q10 10 21 10q10 0 40.5 -32t30.5 -54q0 -49 -24 -90q111 72 166 72q77 0 165 -99t88 -176q0 -55 -73 -158.5t-173.5 -202.5t-213.5 -173t-185 -74q-66 0 -129.5 55t-95.5 125q-35 -40 -125 -142.5 t-135.5 -155t-118.5 -140t-113 -142.5t-78 -116t-52 -103q0 -4 -11 -4q-10 0 -30 13q-109 95 -109 215zM340 162q0 -13 5.5 -19t23.5 -6q55 0 129.5 39.5t144 99t130 124.5t97.5 122.5t37 85.5q0 15 -12 31t-35 16q-26 0 -111.5 -61.5t-176 -141.5t-161.5 -165t-71 -125z " />
<glyph unicode="q" horiz-adv-x="1081" d="M14 -608q0 28 13.5 53.5t44.5 67.5q224 306 491 600q-172 -131 -227.5 -165t-97.5 -34q-65 0 -129 91t-64 171q0 74 90 191.5t217.5 226t281 187.5t267.5 79q29 0 52.5 -5t43.5 -16.5t32 -20.5t34 -28t33 -28q19 -11 88 -43.5t101 -55.5t32 -45q0 -10 -15 -25t-40 -35 t-35 -30q-99 -95 -212 -220t-173.5 -196.5t-217.5 -263.5t-202 -247q36 21 72.5 45.5t53 34.5t23.5 10q17 0 17 -37q0 -17 -6.5 -30.5t-13 -21t-32 -30t-42.5 -39.5q-181 -177 -299 -307q-22 -25 -52 -25q-34 0 -81.5 74.5t-47.5 116.5zM250 113q0 -39 31 -39q17 0 131 78 t244.5 177.5t236.5 200t106 138.5q0 26 -20 26q-25 0 -141.5 -70.5t-247 -163t-235 -194t-105.5 -153.5z" />
<glyph unicode="r" horiz-adv-x="815" d="M-20 117q0 33 12.5 65.5t40.5 69t44 55t52 55.5q47 50 134.5 144t163 174t153.5 160q14 14 30 14q32 0 62 -41t30 -72q0 -7 -2 -14t-7 -15.5t-8 -13t-11.5 -15.5t-11.5 -15q-11 -13 -25.5 -30.5t-24 -29l-19 -23t-14 -18.5t-4.5 -10q334 250 426 250q36 0 58 -27t22 -61 q0 -40 -27 -84.5t-61.5 -75.5t-64 -51.5t-37.5 -20.5q-15 0 -31 20.5t-34 41t-38 20.5q-12 0 -28 -8q-91 -47 -247.5 -186t-334.5 -330q-3 -4 -21 -31t-36.5 -44t-36.5 -17q-24 0 -64 54.5t-40 109.5z" />
<glyph unicode="s" horiz-adv-x="765" d="M37 276q0 43 41 94.5t84 51.5q23 0 37 -31q80 57 160.5 131.5t138.5 138.5t106 120t78.5 89t40.5 33q21 0 50.5 -13.5t48 -26.5t51.5 -38.5t38 -29.5q11 -7 11 -19q0 -7 -7 -14q-38 -38 -81 -136.5t-52 -164.5q-31 -231 -75 -320q-35 -70 -134.5 -140.5t-216.5 -70.5 q-67 0 -144 65t-126 146.5t-49 134.5zM219 262q19 -69 52.5 -116.5t72.5 -47.5q40 0 81 59t75 150q20 54 42.5 131t22.5 99q0 10 -4 10q-5 0 -24 -19q-64 -64 -162 -145.5t-156 -120.5z" />
<glyph unicode="t" horiz-adv-x="616" d="M41 158q0 85 107.5 214t394.5 398q-101 1 -145 34.5t-44 108.5q0 17 13 17q3 0 38.5 -10.5t79.5 -10.5q107 0 226 17q249 235 298.5 280t59.5 45q13 0 54 -49.5t73 -95.5q6 -9 6 -19q0 -12 -90 -92q48 -1 73.5 -12.5t51.5 -40.5q45 -51 45 -88q0 -49 -399 -74 q-576 -545 -576 -643q0 -26 35 -26q20 0 51.5 10t83 35.5t129.5 83.5t168 141q29 29 55 29q11 0 23 -19t12 -39q0 -18 -28 -53.5t-116 -110.5t-226 -172q-59 -42 -129.5 -71t-126.5 -29q-65 0 -131 90.5t-66 151.5z" />
<glyph unicode="u" horiz-adv-x="1089" d="M61 184q0 121 191 322q138 145 410 352q10 10 28 10q30 0 90 -69t60 -88q0 -10 -9 -19q-10 -9 -95.5 -80t-137 -117.5t-122.5 -114.5t-107.5 -119.5t-36.5 -84.5q0 -12 6 -22.5t18 -10.5q42 0 158 101q73 63 137 121.5t133.5 126t108.5 106t125 125t119 119.5 q10 10 32 10q39 0 83.5 -27.5t71 -57.5t26.5 -44q0 -12 -13 -25q-94 -96 -200 -199t-162.5 -157.5t-108 -109t-72 -87.5t-20.5 -59q0 -23 14 -23q43 0 191.5 101t239.5 186q20 17 32 17q11 0 27 -21t16 -41q0 -32 -67 -94q-115 -103 -187.5 -156t-205.5 -123 q-37 -16 -72 -16q-60 0 -120.5 66.5t-61.5 138.5l-131 -98q-106 -82 -197 -82q-53 0 -82 25.5t-59 82.5q-50 94 -50 135z" />
<glyph unicode="v" horiz-adv-x="909" d="M70 129q0 198 225 446q97 108 184.5 179t124.5 71q66 0 180 -114q4 -4 4 -9q0 -4 -8 -12q-131 -118 -233.5 -225t-156.5 -179t-80.5 -119t-26.5 -67q0 -28 22 -28q60 0 208 123.5t278 269.5q0 52 70.5 154t158.5 183t133 81q22 0 52 -25.5t30 -48.5q0 -21 -25 -64.5 t-75.5 -108.5t-82.5 -104t-89 -106q10 -12 30 -12q49 0 128.5 50t119.5 99q6 6 8 6q6 0 6 -12q0 -38 -50.5 -102.5t-127 -116t-137.5 -51.5q-40 0 -66 30q-20 -20 -72.5 -75t-88.5 -91.5t-94 -87.5t-104.5 -82t-102.5 -54t-105 -23q-75 0 -143 84q-4 4 -18.5 18t-19.5 19.5 t-16.5 18t-16.5 20.5t-11.5 20t-9 23t-2.5 22z" />
<glyph unicode="w" horiz-adv-x="1488" d="M70 160q0 50 22 103.5t66.5 111t83.5 99.5t102 104q153 153 279 241q18 12 34 12q47 0 96 -26.5t77 -57.5t28 -49q0 -6 -3 -11.5t-5 -8t-8.5 -7t-7.5 -5.5q-76 -62 -155 -130.5t-174 -155.5t-154.5 -157.5t-59.5 -101.5q0 -15 16 -15q27 0 51 19q180 135 344.5 285 t368.5 354q18 18 35 18q46 0 125.5 -52.5t79.5 -84.5q0 -10 -6 -16q-35 -35 -179 -163.5t-239.5 -225t-95.5 -129.5q0 -21 22 -21q50 0 247.5 154t270.5 248q14 74 63.5 149.5t106 125.5t105.5 82t69 32q17 0 46.5 -28t29.5 -50q0 -30 -23 -71.5t-70 -96.5t-76 -86t-83 -86 q21 -21 53 -21q52 0 117.5 29t110.5 59l45 29q10 0 10 -8q0 -21 -39 -62t-93.5 -81.5t-121.5 -70.5t-115 -30q-50 0 -75 35q-434 -432 -596 -432q-65 0 -123 53.5t-58 130.5q0 28 17 74q-23 -27 -92.5 -85.5t-168.5 -118.5t-159 -60q-40 0 -70 32.5t-44 79t-20.5 83.5 t-6.5 61z" />
<glyph unicode="x" horiz-adv-x="1069" d="M41 258q0 10 27.5 42.5t87.5 93.5t122.5 122t165.5 162.5t183 181.5q58 58 84 58q35 0 136 -46t101 -71q0 -13 -15 -40t-48 -80t-56 -93q130 94 259 183t205 139.5t81 50.5q7 0 15.5 -16.5t15 -47t6.5 -63.5q0 -31 -6 -39q-28 -33 -125 -100t-268.5 -181.5t-292.5 -200.5 q-23 -90 -23 -174q0 -49 22.5 -73.5t53.5 -24.5q51 0 111.5 32t112.5 77.5t97.5 91.5t80.5 78t49 32q18 0 30.5 -9t12.5 -26q0 -10 -28 -52.5t-82 -101.5t-120.5 -114t-155.5 -94t-175 -39q-90 0 -149.5 65.5t-70.5 159.5q-188 -145 -301 -264q-4 -4 -15.5 -22t-23.5 -30.5 t-22 -12.5q-29 0 -29 79q0 97 92 193q85 85 314 258q32 178 80 299q-58 -53 -113.5 -105t-91.5 -86t-70.5 -67t-55.5 -52t-40.5 -37t-31 -27t-22 -16.5t-18.5 -10t-15 -3.5t-18 -1q-39 0 -51 4t-12 18z" />
<glyph unicode="y" horiz-adv-x="1171" d="M-23 -647q0 44 16.5 90.5t49 95t60.5 83t71 83.5q131 150 377 393q10 10 10 19q0 6 -4 6q-6 0 -14 -8q-119 -99 -196 -150t-98 -58t-42 -7q-35 0 -63.5 23.5t-63.5 90.5q-15 30 -27 71.5t-12 66.5q0 31 9 63t22 61t39.5 64.5t48.5 61.5t64 66t70 65t82.5 70t86.5 70 t96 76t98 78q11 7 25 7q60 0 124 -60t64 -90q0 -9 -8 -12q-379 -294 -590 -525q-12 -15 -12 -28q0 -12 8 -20.5t21 -8.5q11 0 24 8q73 43 162.5 109t154.5 118.5t239.5 198t287.5 238.5q33 26 62 26q38 0 95.5 -47.5t57.5 -103.5q0 -11 -26 -38.5t-83 -80t-89 -84.5 q-572 -572 -992 -1179q-4 -6 -22 -37.5t-30.5 -48.5t-20.5 -17q-10 0 -31 15.5t-44 40.5t-40 64.5t-17 80.5z" />
<glyph unicode="z" horiz-adv-x="1079" d="M-553 -543q0 64 39.5 117t101.5 86q172 95 364.5 166.5t433.5 144.5t366 119q-5 31 -68 31q-52 0 -258.5 -63.5t-220.5 -63.5q-19 0 -19 14q0 51 27.5 128.5t71.5 88.5t207 72t333 143t170 121q0 24 -16.5 36.5t-42.5 12.5q-95 0 -296.5 -89t-387.5 -197 q-14 -8 -35 -22.5t-36 -25t-17 -10.5q-10 0 -10 8q0 47 10.5 82t33.5 62.5t44.5 44.5t58.5 41q65 43 105 68t116 65.5t137.5 63.5t143.5 41t160 18q25 0 64.5 -32.5t72.5 -82.5q32 -49 44.5 -82t12.5 -76q0 -103 -119 -172l-219 -127q45 -36 58 -49q28 10 49 21 q74 32 157 84t132 86.5t53 34.5q22 0 22 -29q0 -37 -59.5 -91.5t-151.5 -109.5q-54 -31 -149 -76q26 -53 26 -114q0 -48 -54.5 -111t-136 -121t-165 -106t-151.5 -78q-331 -145 -518.5 -205.5t-323.5 -60.5q-160 0 -160 194zM-403 -559q0 -23 22 -23q68 0 248 68 q145 54 426.5 205.5t351.5 216.5q29 29 41 45q-148 -65 -446 -189.5t-381 -160.5q-262 -119 -262 -162z" />
<glyph unicode="{" horiz-adv-x="925" d="M45 -143q0 20 18 47q22 32 118 137t193 210t176 206t79 135q0 40 -22.5 67.5t-87.5 45.5t-175 18q-28 0 -51 34.5t-23 69.5t28 61t71 27q204 5 372 76.5t265 198.5q308 407 417 510q16 16 45 16q97 0 257 -3t210 -3q23 0 23 -6q0 -5 -19.5 -48.5t-33.5 -66.5 q-15 -22 -24.5 -34.5t-27 -23.5t-36.5 -11h-277q-11 -23 -41.5 -67t-70 -97t-44.5 -60q-90 -125 -150 -200.5t-120.5 -138t-113 -92.5t-110.5 -45t-132 -15q86 -51 118.5 -94.5t32.5 -100.5q0 -58 -42 -133t-110.5 -154t-140.5 -154t-148.5 -158t-117.5 -142q254 -4 326 -4 q22 0 22 -6q0 -5 -18.5 -49t-32.5 -66q-15 -23 -24.5 -35t-27 -23.5t-36.5 -11.5h-334q-47 0 -113.5 66.5t-66.5 116.5z" />
<glyph unicode="|" horiz-adv-x="1191" d="M-291 -614q0 29 8 53q57 146 195 360.5t308.5 434.5t362 444.5t358 400t294 291t172.5 127.5q16 4 25 4q36 0 78 -26.5t42 -67.5q0 -18 -16 -29q-92 -65 -266 -249.5t-380 -439.5t-400.5 -525.5t-345 -537.5t-197.5 -445q-6 -22 -10.5 -27.5t-16.5 -5.5q-62 0 -136.5 91 t-74.5 147z" />
<glyph unicode="}" horiz-adv-x="1398" d="M-311 -317q0 5 19.5 48t33.5 66q15 23 24.5 35t27 23.5t36.5 11.5h276q11 23 42 67t69.5 96t44.5 60q75 104 127 171.5t106 127.5t95.5 93t90.5 57.5t98 33.5t110 9q-86 52 -119 94.5t-33 99.5q0 58 42 133t110.5 154.5t140.5 154.5t148.5 158t117.5 142q-254 4 -325 4 q-23 0 -23 6q0 5 18.5 48t32.5 66q15 23 24.5 35t27 23.5t36.5 11.5h334q47 0 114 -66t67 -116q0 -18 -19 -47q-24 -35 -171 -193.5t-270.5 -305t-123.5 -189.5q0 -40 22.5 -67.5t87.5 -45.5t175 -18q28 0 50.5 -34.5t22.5 -70.5q0 -35 -27.5 -61t-70.5 -27 q-204 -5 -372 -76t-265 -198q-305 -404 -418 -510q-17 -17 -45 -17q-97 0 -257 3t-210 3q-22 0 -22 7z" />
<glyph unicode="~" horiz-adv-x="1110" d="M406 1034q0 77 91 161.5t187 84.5q72 0 158.5 -20t154.5 -44.5t153 -44.5t155 -20q56 0 96.5 12.5t56.5 27.5t30.5 27.5t24.5 12.5q13 0 13 -12q0 -45 -19.5 -85.5t-50.5 -69.5t-67.5 -50.5t-71.5 -32t-62 -10.5q-73 0 -161 20t-156.5 43.5t-155 43.5t-157.5 20 q-67 0 -108.5 -15.5t-90.5 -60.5q-4 -4 -8 -4q-12 0 -12 16z" />
<glyph unicode="&#xa1;" horiz-adv-x="1234" d="M-72 -397q0 70 29.5 132t96 132.5t142 138.5t201 189.5t238.5 246.5q12 12 12 37q0 8 -2 26t-2 27q0 4 3 9t9 11.5t12.5 13t17.5 16t19 16.5t22 18.5t22 18.5q9 8 24 22t24.5 22t22.5 19.5t21.5 18.5t17 13.5t14.5 9.5t9 3q42 0 72 -48t30 -95q0 -45 -92 -180.5 t-226.5 -295t-304 -326.5t-307.5 -265q-59 -41 -76 -41q-11 0 -21 9t-19 35.5t-9 66.5zM1049 983q0 49 32 85t75.5 51.5t88.5 15.5q44 0 74.5 -38.5t30.5 -84.5q0 -45 -37.5 -87t-83 -63.5t-78.5 -21.5q-35 0 -68.5 47t-33.5 96z" />
<glyph unicode="&#xa2;" horiz-adv-x="1191" d="M225 -14q0 17 15 32l180 193q-86 90 -86 207q0 100 50 209.5t129.5 204t180 181t201.5 147.5t194 97.5t156 36.5q40 0 90 -12l166 180q17 17 27 17q9 0 15.5 -7t6.5 -16q0 -17 -26.5 -51.5t-72 -83.5t-58.5 -64q94 -58 94 -192q0 -66 -41.5 -132.5t-96.5 -111 t-105.5 -72.5t-72.5 -28q-33 0 -49 25t-16 51q0 44 27.5 81.5t66.5 63.5t78 50t66.5 51.5t27.5 56.5q0 17 -7.5 26t-29.5 9q-46 0 -117 -31.5t-149.5 -84t-158 -124t-143 -147t-103 -158.5t-39.5 -154q0 -73 48 -107t124 -34q49 0 112.5 19.5t188.5 76.5q16 8 28 8 q21 0 21 -20q0 -41 -89.5 -101.5t-221 -106.5t-234.5 -46q-62 0 -129 43q-2 -2 -36 -38.5t-53 -54.5t-50 -46.5t-55 -42t-41 -13.5q-13 0 -13 13z" />
<glyph unicode="&#xa3;" horiz-adv-x="2107" d="M25 207q0 35 13.5 63t34 46t53 31.5t61.5 20t69 10.5t66 4.5t61 0.5q190 0 457 -49q69 79 196 264h-69q-110 0 -188 7.5t-118.5 18t-62.5 29t-26.5 32.5t-4.5 36q0 14 5.5 28.5t15.5 14.5q2 0 49.5 -10.5t83.5 -10.5q216 0 424 21q84 126 134.5 198.5t135 180 t164.5 190.5q59 61 120 113.5t150 100.5t160 48q115 0 211 -125q47 -39 72 -79t28.5 -61t3.5 -50q0 -58 -28 -109.5t-96 -136.5q-13 -17 -38.5 -64t-46.5 -81.5t-32 -34.5q-27 0 -64 100.5t-37 186.5q0 38 24 75.5t52 63t52 61t24 70.5q0 21 -25 21q-30 0 -47 -17 q-81 -57 -156 -126.5t-150 -159t-123.5 -152.5t-129.5 -174q114 8 176 8q61 0 114 -20t83.5 -48.5t48 -56.5t17.5 -47q0 -14 -29 -14q-73 0 -555 -19q-80 -106 -135 -168q-39 -46 -142 -153q289 -56 508 -56q94 0 225.5 29.5t227.5 59.5t104 30q6 0 6 -8q0 -13 -32.5 -54.5 t-91.5 -95.5q-38 -34 -61.5 -53.5t-69 -49.5t-86 -46t-100 -28.5t-124.5 -12.5q-59 0 -115.5 2.5t-117.5 9t-100 10.5t-107 16t-92 16t-100.5 18.5t-90.5 17.5q-161 -124 -285.5 -167.5t-234.5 -43.5q-172 0 -245.5 78t-73.5 250zM172 70q0 -27 27.5 -35t87.5 -8 q180 0 331 102q-125 16 -239 16q-207 0 -207 -75z" />
<glyph unicode="&#xa4;" horiz-adv-x="1705" d="M162 346q0 29 24 39q116 55 168 84q11 130 112 295.5t234 301.5t258 216q14 111 43.5 171t92.5 60q23 0 39 -9t16 -25q0 -10 -4.5 -26t-13 -45.5t-15.5 -59.5q1 0 4.5 1t5.5 1q68 0 146 -59t127 -140q36 23 77.5 52t58.5 39.5t26 10.5q25 0 37 -30.5t12 -65.5t-164 -137 q2 -6 2 -21q0 -99 -51.5 -216.5t-133.5 -223t-179 -200t-193.5 -160t-171.5 -90.5q-15 -77 -43 -118.5t-80 -41.5q-23 0 -39 9.5t-16 25.5q0 9 4.5 24t12.5 44.5t15 58.5q-67 24 -118.5 82.5t-79.5 132.5q-115 -56 -154 -56q-25 0 -42 24.5t-17 51.5zM569 360q0 -49 35 -49 q66 0 230.5 149t304 333t139.5 270q0 55 -59 55q-48 0 -117 -42.5t-140 -110t-142.5 -153t-126.5 -168.5t-89.5 -159.5t-34.5 -124.5z" />
<glyph unicode="&#xa5;" horiz-adv-x="2062" d="M231 588q0 8 17 8q27 0 66 -2t57 -2h440q104 90 201 182q62 59 211 342.5t149 337.5q0 37 -47 37q-32 0 -111.5 -33.5t-177 -89t-202 -142t-170.5 -177.5q-16 -23 -23 -23q-8 0 -14 18q-17 53 -17 78q0 41 12.5 77.5t36.5 68.5t40.5 49.5t43.5 42.5q156 138 338.5 228.5 t331.5 90.5q30 0 78 -38.5t86.5 -99t38.5 -111.5q0 -162 -373 -623q-2 -4 -2 -8q0 -6 4 -6q12 0 249 171.5t530 379.5t411 274q20 10 47 10q35 0 59.5 -34.5t34 -78.5t9.5 -90q0 -30 -9 -45q-16 -29 -312 -195t-682.5 -372t-405.5 -217q130 0 292.5 1t167.5 1 q19 0 36.5 -11.5t27 -23.5t24.5 -35q13 -22 27 -55t14 -39t-22 -6q-49 0 -766 -10q-210 -243 -315 -395q-23 -32 -37.5 -51t-42 -50.5t-54 -48t-49.5 -16.5q-43 0 -105.5 87t-62.5 138q0 19 8 40t17.5 37t29 38.5t31 34t35.5 35t31 30.5q46 46 131 115h-195q-44 0 -80 25.5 t-53 59.5t-26 59t-9 32z" />
<glyph unicode="&#xa6;" horiz-adv-x="1193" d="M-31 -258q0 18 19 47q118 161 296 377.5t228 263.5q16 16 27 16q17 0 49.5 -82t32.5 -116q0 -25 -12.5 -52t-22.5 -40.5t-36 -40.5t-28 -29q-75 -81 -196 -231.5t-152 -202.5q-15 -24 -47 -62.5t-47 -38.5q-30 0 -70.5 67.5t-40.5 123.5zM809 844q0 20 18 47 q118 160 296.5 377t228.5 264q16 16 26 16q17 0 49.5 -82t32.5 -116q0 -25 -12.5 -52.5t-22 -40t-36.5 -41.5l-27 -28q-75 -81 -196 -231.5t-152 -202.5q-15 -24 -47 -62.5t-47 -38.5q-30 0 -70.5 67.5t-40.5 123.5z" />
<glyph unicode="&#xa7;" horiz-adv-x="1835" d="M242 229q0 61 14 126t41 65q7 0 10.5 -7.5t16.5 -31t36 -49.5q70 -80 214 -126t290 -46q107 0 226.5 24t205.5 66t86 88q0 27 -37 43t-81 20q-150 14 -255.5 30t-328.5 58q-23 4 -51.5 15t-64 31.5t-62 56.5t-33.5 80q-4 29 -4 73q0 61 33 111.5t92.5 87t122 61.5 t141.5 46q-12 53 -12 110q0 42 17.5 80t44 66t70 54.5t83 44.5t95.5 36t96 29t95 24q364 90 676 90q122 0 173 -15.5t94 -80.5q51 -54 70.5 -88.5t19.5 -67.5t-23 -43q-63 -34 -259.5 -113.5t-276.5 -129.5q-23 -13 -31 -13q-14 0 -19 21q-26 47 -26 80q0 28 20.5 56.5 t48.5 50.5t73.5 47t79 40t81.5 35q12 7 12 12q0 19 -14 19q-102 0 -438.5 -65.5t-483.5 -147.5q-59 -37 -59 -70q0 -47 221 -76q53 -9 159 -24.5t164 -25t130 -29t118 -44.5q54 -29 79.5 -102t25.5 -141q0 -42 -19 -79t-42.5 -60.5t-65 -48t-64 -34.5t-63.5 -26 q-71 -29 -145 -43q24 -57 24 -119q0 -43 -19 -80.5t-43.5 -62t-65 -48t-66.5 -34.5t-64 -25q-67 -28 -186.5 -52t-268.5 -24q-462 0 -614 256q-14 19 -14 39zM684 698q0 -10 7.5 -19t23.5 -16t31 -12.5t40 -11t40.5 -8t42.5 -7t36 -6.5q273 -45 381 -45q78 0 188 24.5 t198.5 68t88.5 88.5q0 25 -37.5 40t-85.5 21q-122 16 -250 36t-192.5 30t-77.5 10q-31 0 -174 -46t-203 -79q-57 -36 -57 -68z" />
<glyph unicode="&#xa8;" horiz-adv-x="966" d="M745 1260q0 46 29 80.5t60 48.5t51 14q27 0 60.5 -33.5t33.5 -79.5q0 -35 -46.5 -91t-90.5 -56q-28 0 -62.5 37t-34.5 80zM1073 1260q0 46 29 80.5t59.5 48.5t50.5 14q27 0 61 -33.5t34 -79.5q0 -35 -47 -91t-91 -56q-28 0 -62 37t-34 80z" />
<glyph unicode="&#xa9;" horiz-adv-x="1392" d="M483 911q0 131 68 264t175 234t247.5 165t277.5 64q182 0 293 -108t111 -277q0 -138 -69.5 -273t-178 -234t-247 -160.5t-271.5 -61.5q-184 0 -295 108t-111 279zM653 961q0 -120 79.5 -197.5t209.5 -77.5q94 0 192 43.5t175 114t126.5 166t49.5 192.5q0 121 -79 198 t-208 77q-66 0 -140 -23.5t-145.5 -69.5t-130 -107t-94 -144t-35.5 -172zM768 922q0 79 57 166.5t135.5 151.5t160.5 106.5t134 42.5q62 0 95.5 -36t33.5 -85q0 -41 -23.5 -71t-60.5 -30q-19 0 -32 9t-13 24q0 18 10.5 28t22.5 13.5t22.5 14t10.5 28.5q0 10 -3.5 14.5 t-14.5 4.5q-37 0 -101 -36.5t-126 -89.5t-107 -121t-45 -124q0 -74 92 -74q50 0 160 49q6 4 14 4q10 0 10 -10q0 -22 -47.5 -54t-117 -56.5t-124.5 -24.5q-47 0 -95 45t-48 111z" />
<glyph unicode="&#xaa;" horiz-adv-x="925" d="M430 543q0 18 19 58t36 48q65 33 228 33h237q48 0 69 -18t21 -56q0 -58 -11 -83t-42 -25q-15 0 -48 5t-46 5q-45 -1 -192 -4.5t-228 -3.5q-22 0 -32.5 8t-10.5 33zM528 1051q0 22 9 43q27 69 130 168.5t210.5 170t152.5 70.5q36 0 70 -25t92 -85q51 -20 92 -50.5 t41 -42.5q0 -8 -4 -12q-94 -65 -202.5 -175t-108.5 -140q0 -4 4 -4q8 0 47.5 21.5t107.5 73t127 114.5q10 10 21 10q16 0 27.5 -20t11.5 -33q0 -25 -68.5 -94t-156.5 -129t-134 -60q-45 0 -77.5 32.5t-38.5 84.5q-78 -69 -121 -98t-78 -29q-64 0 -117 98q-37 66 -37 111z M674 965q0 -4 3 -8.5t5 -4.5q6 0 10 2q59 30 228.5 193t169.5 178q0 8 -13 8q-21 0 -102 -55q-113 -79 -203 -176q-24 -26 -35.5 -39t-29 -35t-25.5 -37t-8 -26z" />
<glyph unicode="&#xab;" horiz-adv-x="1372" d="M254 344q0 41 160.5 136.5t345 173t250.5 77.5q12 0 23 -11.5t11 -23.5q0 -32 -27 -56t-102 -56q-72 -31 -161.5 -89.5t-149 -110t-59.5 -67.5q0 -23 56 -76t112 -98q6 -5 14.5 -11.5t12.5 -9.5t8.5 -7.5t6.5 -8t3.5 -8t1.5 -10.5q0 -9 -55 -41q-16 -8 -31 -8 q-31 0 -191 94q-95 56 -162 117.5t-67 93.5zM786 303q0 41 160.5 136.5t345 173t250.5 77.5q12 0 23.5 -11.5t11.5 -23.5q0 -32 -27 -56t-102 -56q-73 -31 -162.5 -89.5t-149 -110t-59.5 -67.5q0 -23 56 -76t112 -98q6 -5 14.5 -11.5t12.5 -9.5t8.5 -7.5t6.5 -8t3.5 -8 t1.5 -10.5q0 -9 -55 -41q-16 -8 -31 -8q-30 0 -190 94q-95 56 -162.5 117.5t-67.5 93.5z" />
<glyph unicode="&#xac;" horiz-adv-x="1230" d="M299 512q0 78 57.5 108.5t163.5 30.5h688q48 0 69 -17.5t21 -55.5q0 -53 -10 -80q-11 -29 -92.5 -174t-124.5 -218q-13 -26 -33 -26q-40 0 -64 39.5t-24 73.5q0 60 56 157l71 129q-680 -8 -735 -8q-22 0 -32.5 8t-10.5 33z" />
<glyph unicode="&#xad;" horiz-adv-x="790" d="M115 287q0 18 19 58t36 48q65 33 227 33h238q48 0 69 -18t21 -56q0 -58 -11 -83t-42 -25q-15 0 -48 5t-46 5q-45 -1 -192 -4.5t-228 -3.5q-22 0 -32.5 8t-10.5 33z" />
<glyph unicode="&#xae;" horiz-adv-x="1392" d="M483 809q0 131 68 264t175 234t247.5 165t277.5 64q182 0 293 -108t111 -277q0 -138 -69.5 -273t-178 -234t-247 -160.5t-271.5 -61.5q-184 0 -295 108t-111 279zM653 858q0 -120 79.5 -197t209.5 -77q94 0 192 43.5t175 114t126.5 166t49.5 192.5q0 121 -79 197.5 t-208 76.5q-66 0 -140 -23.5t-145.5 -69.5t-130 -107t-94 -144t-35.5 -172zM692 827q0 19 12.5 36.5t53.5 60.5q85 88 219 204q-55 -17 -115 -55l-22 -10q-9 0 -17 12t-8 25q0 23 10 33q57 52 173.5 92.5t261.5 40.5q58 0 83.5 -16t55.5 -64q45 -56 45 -103q0 -41 -31 -71.5 t-74.5 -47t-100.5 -26.5t-98 -13t-79 -3q-23 0 -35 2q34 -105 76 -105q51 0 102 51q15 15 29 15q31 0 31 -35q0 -13 -9 -25q-33 -47 -91.5 -82.5t-104.5 -35.5q-98 0 -158 182q-66 -72 -84 -98q-2 -4 -22 -43q-2 -4 -5.5 -10.5t-5 -8.5t-6 -4t-10.5 -2q-7 0 -41.5 47.5 t-34.5 56.5zM1057 1042q92 2 190.5 31t98.5 62q0 28 -123 28q-33 0 -47 -2q-3 -18 -17 -22q-98 -92 -102 -97z" />
<glyph unicode="&#xaf;" horiz-adv-x="935" d="M627 1180q0 54 10 68t43 14q15 0 48 -5.5t46 -5.5q51 1 195.5 5t224.5 4q22 0 32.5 -8t10.5 -33q0 -26 -17 -48t-38 -32q-65 -33 -228 -33h-237q-48 0 -69 18t-21 56z" />
<glyph unicode="&#xb0;" horiz-adv-x="716" d="M608 1186q0 57 28.5 118t77 113t121.5 85.5t154 33.5q6 0 11.5 -3t9 -6t7.5 -10l6 -10.5t5 -11.5t4 -10q56 -6 84.5 -41t28.5 -88q0 -71 -43.5 -147t-126 -130.5t-178.5 -54.5q-95 0 -142 45t-47 117zM782 1229q0 -22 14 -32.5t52 -10.5q50 0 98.5 40t48.5 89 q0 55 -53 55q-67 0 -113.5 -49.5t-46.5 -91.5z" />
<glyph unicode="&#xb1;" horiz-adv-x="1089" d="M106 53q0 78 58.5 109t163.5 31h544q48 0 69.5 -18t21.5 -56q0 -58 -11.5 -83.5t-42.5 -25.5q-15 0 -48 5t-46 5q-556 -8 -665 -8q-22 0 -33 8t-11 33zM317 614q0 78 58.5 109t163.5 31h153l142 245q33 56 69 56q44 0 79.5 -35.5t35.5 -52.5q0 -20 -31 -59.5t-33 -43.5 l-63 -110h192q48 0 69.5 -18t21.5 -56q0 -58 -11.5 -83.5t-42.5 -25.5q-15 0 -48 5.5t-46 5.5q-20 0 -99.5 -1t-131.5 -1q-102 -190 -166 -295q-13 -27 -33 -27q-40 0 -64 39.5t-24 73.5q0 62 55 157l27 47q-94 -2 -230 -2q-22 0 -32.5 8t-10.5 33z" />
<glyph unicode="&#xb2;" horiz-adv-x="657" d="M455 930q0 41 149 123q16 9 60.5 33t64.5 34.5t58 32t62 36t55.5 34t58.5 37.5q56 37 109.5 87.5t53.5 75.5q0 4 -4 4q-29 0 -91 -34.5t-93 -61.5q20 -20 20 -35q0 -19 -18.5 -34t-65.5 -39q-60 -29 -88 -29q-25 0 -53 46.5t-28 80.5q0 37 104 115q194 147 326 147 q24 0 43.5 -10.5t35 -32.5t23.5 -36.5t20 -41.5q3 -7 9 -20.5t8 -18.5t4 -13.5t2 -16.5q0 -44 -70 -131.5t-188 -153.5q-58 -33 -177.5 -82.5t-135.5 -56.5q13 0 40.5 -2t43.5 -2q84 0 146 -24.5t62 -68.5q0 -18 -27 -38.5t-71 -20.5q-122 0 -215.5 -7t-112.5 -7 q-21 0 -42.5 5.5t-42 20t-27.5 35.5q-8 27 -8 70z" />
<glyph unicode="&#xb3;" horiz-adv-x="716" d="M492 932q0 55 40 102t84 68.5t70 21.5q37 0 37 -28q0 -7 -12 -19l-9 -7q-9 -6 -13.5 -10.5t-11 -13t-10 -18.5t-3.5 -22q0 -17 27 -26t69 -9q63 0 120.5 30t57.5 70q0 47 -133 47q-21 0 -38 22.5t-17 45.5q0 20 18 45.5t43 32.5q182 48 281.5 94t99.5 78q-20 4 -39 4 q-46 0 -104 -15t-56 -26q2 -2 2 -17q0 -14 -15.5 -26t-29.5 -17t-39 -12q-24 -7 -43 -15t-27 -11t-16 -3q-26 0 -48.5 28.5t-22.5 57.5q0 38 71 85t161.5 78.5t146.5 31.5q21 0 45 -7t50.5 -22.5t45 -47.5t22.5 -75q7 -31 7 -61q0 -54 -68.5 -109.5t-175.5 -91.5 q45 -48 45 -110q0 -67 -64 -129t-149.5 -96.5t-157.5 -34.5q-125 0 -183 38.5t-58 98.5z" />
<glyph unicode="&#xb4;" horiz-adv-x="1470" d="M774 1184q0 29 25 39q127 56 269.5 140.5t184.5 121.5q20 20 41 20q25 0 37 -30.5t12 -65.5q0 -26 -107 -100t-232 -137.5t-170 -63.5q-25 0 -42.5 24.5t-17.5 51.5z" />
<glyph unicode="&#xb6;" horiz-adv-x="2195" d="M72 -231q0 8 12 20q122 102 496 453q-96 81 -154.5 197t-58.5 223q0 149 98.5 278.5t256.5 215t353 134.5t391 49q355 0 574 -149l39 51q28 38 58 86t44.5 66t28.5 18q33 0 69.5 -85.5t36.5 -151.5q0 -36 -23.5 -74.5t-68 -86.5t-47.5 -52l-20 -23v-23q0 -26 -6 -53.5 t-17 -27.5q-4 0 -6 6.5t-5 24t-7 30.5q-91 -104 -506 -489l119 38q51 17 86.5 35t48 29.5t21 19t13.5 7.5q7 0 15 -29.5t8 -52.5q0 -38 -83.5 -92.5t-217.5 -108t-279 -90.5q-443 -397 -450 -404q-60 -57 -168 -57q-69 0 -117 25q-37 18 -37 34q0 8 13 21q153 132 376 334 q-110 7 -194 28q-94 -87 -194.5 -178.5t-155.5 -141t-62 -56.5q-64 -58 -145 -58q-46 0 -98 25q-37 18 -37 35zM502 555q0 -134 203 -197q575 547 772 764q-226 -23 -454 -115t-374.5 -217t-146.5 -235zM952 317q41 -4 111 -4q41 0 119 4q590 544 751 746q-101 49 -227 61 q8 -13 8 -39q0 -32 -222 -253t-540 -515z" />
<glyph unicode="&#xb7;" horiz-adv-x="821" d="M526 535q0 52 36 88t89 36t89 -36t36 -88q0 -53 -36 -89t-89 -36t-89 36t-36 89z" />
<glyph unicode="&#xb8;" horiz-adv-x="866" d="M211 -463q0 41 35 89t73 48q12 0 39.5 -26.5t49.5 -26.5q24 0 52.5 17.5t28.5 48.5q0 12 -32 27.5t-70 29.5t-70 42.5t-32 63.5q0 62 78.5 111t216.5 49q49 0 49 -14t-16 -24.5t-35.5 -15.5t-35.5 -12.5t-16 -17.5q0 -14 17.5 -27.5t42 -26.5t49 -28t42 -39.5t17.5 -54.5 q0 -63 -39 -119.5t-97 -91.5t-120 -55.5t-112 -20.5q-53 0 -84 18.5t-31 55.5z" />
<glyph unicode="&#xb9;" horiz-adv-x="512" d="M551 895q0 44 45 109q118 165 276 327q-4 14 -4 49q0 30 117.5 118.5t140.5 88.5q19 0 45 -22q19 -19 19 -66q0 -33 -19 -63q-22 -32 -60 -75.5t-154 -178.5t-279 -336q-30 -35 -51 -35q-19 0 -47.5 32t-28.5 52z" />
<glyph unicode="&#xba;" horiz-adv-x="940" d="M453 543q0 18 19 58t36 48q65 33 227 33h238q48 0 69 -18t21 -56q0 -58 -11 -83t-42 -25q-15 0 -48.5 5t-46.5 5q-46 -1 -192 -4.5t-227 -3.5q-22 0 -32.5 8t-10.5 33zM623 1081q0 57 38 117.5t99 112t126 92.5t132 72q54 24 110 24q33 0 51.5 -12.5t53.5 -50.5 q21 -25 34 -54t13 -41q0 -20 -35 -20q31 -34 31 -102q0 -56 -12 -86q-46 -105 -174 -210.5t-234 -105.5q-53 0 -80 21q-50 39 -101.5 110t-51.5 133zM770 989q0 -11 10 -21t19 -10q29 0 89 34.5t99 64.5q42 31 74.5 68t32.5 51q0 1 -7.5 17.5t-7.5 39.5q0 24 21 51 q-121 -52 -225 -143.5t-105 -151.5z" />
<glyph unicode="&#xbb;" horiz-adv-x="1316" d="M70 33q0 32 27 56t102 56q72 31 161.5 89.5t149 110t59.5 67.5q0 23 -56 76t-112 98q-6 5 -14.5 11.5t-12.5 9.5t-8.5 7.5t-6.5 8t-3.5 8t-1.5 10.5q0 9 56 41q16 8 30 8q31 0 191 -94q95 -56 162 -117.5t67 -93.5q0 -41 -160.5 -136.5t-345 -173t-250.5 -77.5 q-12 0 -23 11.5t-11 23.5zM547 -2q0 33 27.5 57t101.5 56q73 31 162.5 89.5t149 109.5t59.5 67q0 23 -56 76t-112 98q-7 6 -17.5 13.5t-14 11l-8.5 8.5t-6.5 10t-1.5 12q0 9 56 41q16 8 31 8q30 0 190 -94q95 -56 162 -117.5t67 -93.5q0 -41 -160 -136.5t-344.5 -173 t-250.5 -77.5q-12 0 -23.5 11.5t-11.5 23.5z" />
<glyph unicode="&#xbc;" horiz-adv-x="1540" d="M244 25q0 22 6.5 45.5t21.5 51t28.5 48.5t40 53.5t41.5 50.5t47.5 55t45.5 52q157 179 472.5 474t457.5 402q163 125 184 125t39.5 -24t18.5 -45q0 -28 -25 -47q-300 -223 -624.5 -537t-612.5 -651q-23 -27 -41 -51t-26.5 -37.5t-15.5 -24t-10.5 -14.5t-8.5 -4t-13 8 q-26 26 -26 70zM512 836q0 43 45 108q118 165 277 328q-5 17 -5 49q0 30 117.5 118.5t140.5 88.5q19 0 46 -23q18 -18 18 -65q0 -35 -18 -64q-22 -32 -60.5 -75.5t-154.5 -178.5t-279 -336q-29 -34 -51 -34q-19 0 -47.5 32t-28.5 52zM838 342q0 27 16 43q123 109 339.5 246 t297.5 137q27 0 49.5 -43t22.5 -70q0 -40 -29 -73l-170 -203q48 -14 71 -36t23 -44q0 -16 -15.5 -39.5t-31.5 -23.5q-4 0 -18 4t-17 4q-82 8 -121 8q-7 -8 -40 -47t-50 -59.5t-48 -60t-58 -77.5q-22 -33 -43 -33q-32 0 -67.5 31t-35.5 64q0 27 25.5 63t93.5 109 q-70 -4 -88 -4q-10 0 -18.5 5t-13 9.5t-13 15.5t-12.5 15t-18 17t-22.5 23.5t-8.5 18.5zM1081 397q54 4 99 4q13 15 157 183q-132 -73 -256 -187z" />
<glyph unicode="&#xbd;" horiz-adv-x="1568" d="M244 25q0 22 6.5 45.5t21.5 51t28.5 48.5t40 53.5t41.5 50.5t47.5 55t45.5 52q157 179 472.5 474t457.5 402q163 125 184 125t39.5 -24t18.5 -45q0 -28 -25 -47q-300 -223 -624.5 -537t-612.5 -651q-23 -27 -41 -51t-26.5 -37.5t-15.5 -24t-10.5 -14.5t-8.5 -4t-13 8 q-26 26 -26 70zM512 836q0 43 45 108q118 165 277 328q-5 17 -5 49q0 30 117.5 118.5t140.5 88.5q19 0 46 -23q18 -18 18 -65q0 -35 -18 -64q-22 -32 -60.5 -75.5t-154.5 -178.5t-279 -336q-29 -34 -51 -34q-19 0 -47.5 32t-28.5 52zM786 117q0 41 150 123q271 147 358 206 q56 37 110 88t54 76q0 4 -4 4q-29 0 -91 -34.5t-93 -61.5q20 -20 20 -35q0 -19 -18.5 -34t-65.5 -39q-60 -29 -88 -29q-25 0 -53.5 46.5t-28.5 80.5q0 36 105 115q194 147 325 147q24 0 44 -10.5t35.5 -32t23.5 -37t20 -41.5q3 -7 9 -20.5t8 -18.5t4 -13.5t2 -16.5 q0 -44 -70 -131.5t-188 -153.5q-58 -32 -177 -81.5t-137 -57.5q13 0 40.5 -2t43.5 -2q84 0 146.5 -24.5t62.5 -68.5q0 -18 -27 -38.5t-71 -20.5q-122 0 -215.5 -7t-112.5 -7q-21 0 -42.5 5.5t-42 20t-27.5 35.5q-9 30 -9 70z" />
<glyph unicode="&#xbe;" horiz-adv-x="1849" d="M518 887q0 42 24 80.5t57 61.5t64.5 36.5t49.5 13.5q37 0 37 -28q0 -6 -13 -19l-9 -6q-9 -7 -13.5 -11.5t-11 -13t-10 -18.5t-3.5 -22q0 -17 27 -26t69 -9q63 0 121 30t58 70q0 47 -134 47q-21 0 -38 22.5t-17 45.5q0 20 18.5 45.5t43.5 32.5q182 48 281.5 94t99.5 78 q-20 4 -39 4q-46 0 -104 -15t-56 -26q2 -2 2 -17q0 -14 -15.5 -26t-29.5 -17t-39 -12q-24 -7 -43 -15t-27 -11t-16 -3q-26 0 -49 28.5t-23 57.5q0 38 71 85t161.5 78.5t146.5 31.5q21 0 45 -7t51 -22.5t45.5 -47.5t22.5 -75q6 -27 6 -61q0 -54 -68.5 -109.5t-175.5 -91.5 q45 -48 45 -110q0 -67 -63.5 -129t-149 -96.5t-157.5 -34.5q-125 0 -183.5 38.5t-58.5 98.5zM553 25q0 22 6.5 45.5t21.5 51t28.5 48.5t40 53.5t41.5 50.5t47.5 55t45.5 52q157 179 472.5 474t457.5 402q163 125 184 125t39.5 -24t18.5 -45q0 -28 -25 -47 q-300 -223 -624.5 -537t-612.5 -651q-23 -27 -41 -51t-26.5 -37.5t-15.5 -24t-10.5 -14.5t-8.5 -4q-4 0 -12 8q-27 27 -27 70zM1147 342q0 27 16 43q123 109 339.5 246t297.5 137q27 0 49.5 -43t22.5 -70q0 -40 -29 -73l-170 -203q48 -14 71 -36t23 -44q0 -16 -15.5 -39.5 t-31.5 -23.5q-4 0 -17.5 4t-16.5 4q-82 8 -121 8q-10 -12 -41 -48t-49.5 -58.5t-49 -61t-57.5 -76.5q-22 -33 -43 -33q-32 0 -67 31t-35 64q0 27 25.5 63.5t92.5 108.5q-70 -4 -88 -4q-10 0 -18.5 5t-13 9.5t-13 15.5t-12.5 15t-18 17t-22.5 23.5t-8.5 18.5zM1391 397 q54 4 98 4q30 33 158 183q-132 -73 -256 -187z" />
<glyph unicode="&#xbf;" horiz-adv-x="1345" d="M39 -131q0 39 33 103.5t96 145.5t175.5 174.5t252.5 172.5q37 21 108.5 48.5t108 50.5t39.5 54q0 5 1 8.5t3 7.5t4 6.5t7 6.5t9.5 6.5l13.5 7.5t16.5 8.5t21.5 11t26 13.5q52 33 72.5 42t44.5 9q59 0 98 -28t39 -74q0 -45 -39.5 -94t-104 -93t-147 -94.5t-168 -98 t-168 -103.5t-147 -110.5t-104 -120t-39.5 -130.5q0 -53 57 -53q35 0 91.5 22t90 40t58.5 34q20 12 49.5 30t72.5 47t72 54.5t29 38.5q0 8 -26.5 32t-26.5 42q0 21 36 46.5t121 70.5q130 67 185 67q42 0 88.5 -87t46.5 -152q0 -10 -7 -23.5t-21.5 -30t-29 -31.5t-38 -35.5 t-39 -34t-41.5 -35t-37 -31.5q-60 -51 -136 -102t-170.5 -102.5t-199 -83.5t-194.5 -32q-44 0 -83.5 21.5t-67 56t-45.5 68t-30 67.5q-6 13 -18 40t-15.5 34.5t-10 24.5t-8 24.5t-3.5 19t-2 23.5zM1114 985q0 49 32.5 85t76 51.5t88.5 15.5q44 0 74 -38t30 -85 q0 -45 -37.5 -87t-82.5 -63.5t-78 -21.5q-35 0 -69 47t-34 96z" />
<glyph unicode="&#xc0;" d="M135 254q0 116 74 221t188 191q73 55 170 99.5t155 62.5t69 18q12 0 19.5 -4.5t10.5 -15t3.5 -17t0.5 -21.5q0 -52 -34 -73q-76 -48 -134 -89t-123.5 -95t-118.5 -115t-91 -127q-54 -94 -54 -183q0 -83 70 -83q48 0 123 36q213 111 448 285q-64 7 -105 19t-58 29t-22 31 t-5 36q0 15 5.5 29t14.5 14q2 0 49.5 -10.5t83.5 -10.5q86 0 222 4q164 133 329.5 283.5t326.5 314t236.5 243t202.5 216.5q4 4 14 14.5t14.5 15t13 9t16.5 4.5q50 0 141.5 -38t163.5 -85.5t72 -72.5q0 -11 -36 -52.5t-100.5 -112t-140 -156t-171 -205.5t-175.5 -238 l-68 -93q72 -24 116 -73t44 -82q0 -15 -29 -15q-117 0 -258 -6q-166 -241 -166 -327q0 -21 21 -21q43 0 167 86t255 203q21 16 33 16q16 0 25 -23.5t9 -37.5q0 -36 -95.5 -130t-223.5 -176.5t-203 -82.5q-43 0 -81 29t-59.5 69t-33.5 75t-12 52q0 112 69 256 q-212 -8 -321 -8q-257 -228 -457.5 -361t-298.5 -133q-32 0 -55 13q-246 146 -246 399zM1382 510q216 25 240 27q157 256 512 727q10 13 10 24q0 10 -10 10q-12 0 -41 -34q-333 -393 -711 -754zM2367 1962q0 30 29 57t60 27q16 0 24 -9t14.5 -36.5t15 -63.5t32.5 -104 t59 -145q4 -8 4 -21q0 -20 -24 -36.5t-50 -16.5q-20 0 -30 10q-44 37 -89 153.5t-45 184.5z" />
<glyph unicode="&#xc1;" d="M135 254q0 116 74 221t188 191q73 55 170 99.5t155 62.5t69 18q12 0 19.5 -4.5t10.5 -15t3.5 -17t0.5 -21.5q0 -52 -34 -73q-76 -48 -134 -89t-123.5 -95t-118.5 -115t-91 -127q-54 -94 -54 -183q0 -83 70 -83q48 0 123 36q213 111 448 285q-64 7 -105 19t-58 29t-22 31 t-5 36q0 15 5.5 29t14.5 14q2 0 49.5 -10.5t83.5 -10.5q86 0 222 4q164 133 329.5 283.5t326.5 314t236.5 243t202.5 216.5q4 4 14 14.5t14.5 15t13 9t16.5 4.5q50 0 141.5 -38t163.5 -85.5t72 -72.5q0 -11 -36 -52.5t-100.5 -112t-140 -156t-171 -205.5t-175.5 -238 l-68 -93q72 -24 116 -73t44 -82q0 -15 -29 -15q-117 0 -258 -6q-166 -241 -166 -327q0 -21 21 -21q43 0 167 86t255 203q21 16 33 16q16 0 25 -23.5t9 -37.5q0 -36 -95.5 -130t-223.5 -176.5t-203 -82.5q-43 0 -81 29t-59.5 69t-33.5 75t-12 52q0 112 69 256 q-212 -8 -321 -8q-257 -228 -457.5 -361t-298.5 -133q-32 0 -55 13q-246 146 -246 399zM1382 510q216 25 240 27q157 256 512 727q10 13 10 24q0 10 -10 10q-12 0 -41 -34q-333 -393 -711 -754zM2339 1737q0 29 24 39q127 56 270 140.5t185 121.5q20 20 41 20q25 0 37 -30.5 t12 -65.5q0 -26 -107.5 -100t-232.5 -137.5t-170 -63.5q-25 0 -42 24.5t-17 51.5z" />
<glyph unicode="&#xc2;" d="M135 254q0 116 74 221t188 191q73 55 170 99.5t155 62.5t69 18q12 0 19.5 -4.5t10.5 -15t3.5 -17t0.5 -21.5q0 -52 -34 -73q-76 -48 -134 -89t-123.5 -95t-118.5 -115t-91 -127q-54 -94 -54 -183q0 -83 70 -83q48 0 123 36q213 111 448 285q-64 7 -105 19t-58 29t-22 31 t-5 36q0 15 5.5 29t14.5 14q2 0 49.5 -10.5t83.5 -10.5q86 0 222 4q164 133 329.5 283.5t326.5 314t236.5 243t202.5 216.5q4 4 14 14.5t14.5 15t13 9t16.5 4.5q50 0 141.5 -38t163.5 -85.5t72 -72.5q0 -11 -36 -52.5t-100.5 -112t-140 -156t-171 -205.5t-175.5 -238 l-68 -93q72 -24 116 -73t44 -82q0 -15 -29 -15q-117 0 -258 -6q-166 -241 -166 -327q0 -21 21 -21q43 0 167 86t255 203q21 16 33 16q16 0 25 -23.5t9 -37.5q0 -36 -95.5 -130t-223.5 -176.5t-203 -82.5q-43 0 -81 29t-59.5 69t-33.5 75t-12 52q0 112 69 256 q-212 -8 -321 -8q-257 -228 -457.5 -361t-298.5 -133q-32 0 -55 13q-246 146 -246 399zM1382 510q216 25 240 27q157 256 512 727q10 13 10 24q0 10 -10 10q-12 0 -41 -34q-333 -393 -711 -754zM2073 1706q0 12 46 52.5t112 85t153 79.5t156 35q31 0 54.5 -19.5t61.5 -76.5 q30 -42 60 -100.5t30 -84.5q0 -12 -6 -20t-18.5 -11t-21.5 -3.5t-25 -0.5q-45 0 -76 24.5t-61 69.5t-46 60q-94 -12 -167 -33.5t-171 -66.5q-30 -15 -47 -15q-13 0 -23.5 8t-10.5 17z" />
<glyph unicode="&#xc3;" d="M135 254q0 116 74 221t188 191q73 55 170 99.5t155 62.5t69 18q12 0 19.5 -4.5t10.5 -15t3.5 -17t0.5 -21.5q0 -52 -34 -73q-76 -48 -134 -89t-123.5 -95t-118.5 -115t-91 -127q-54 -94 -54 -183q0 -83 70 -83q48 0 123 36q213 111 448 285q-64 7 -105 19t-58 29t-22 31 t-5 36q0 15 5.5 29t14.5 14q2 0 49.5 -10.5t83.5 -10.5q86 0 222 4q164 133 329.5 283.5t326.5 314t236.5 243t202.5 216.5q4 4 14 14.5t14.5 15t13 9t16.5 4.5q50 0 141.5 -38t163.5 -85.5t72 -72.5q0 -11 -36 -52.5t-100.5 -112t-140 -156t-171 -205.5t-175.5 -238 l-68 -93q72 -24 116 -73t44 -82q0 -15 -29 -15q-117 0 -258 -6q-166 -241 -166 -327q0 -21 21 -21q43 0 167 86t255 203q21 16 33 16q16 0 25 -23.5t9 -37.5q0 -36 -95.5 -130t-223.5 -176.5t-203 -82.5q-43 0 -81 29t-59.5 69t-33.5 75t-12 52q0 112 69 256 q-212 -8 -321 -8q-257 -228 -457.5 -361t-298.5 -133q-32 0 -55 13q-246 146 -246 399zM1382 510q216 25 240 27q157 256 512 727q10 13 10 24q0 10 -10 10q-12 0 -41 -34q-333 -393 -711 -754zM2114 1761q0 56 74 108t159 52q43 0 92 -26t90 -52t68 -26q35 0 66 23.5 t42 23.5q31 0 31 -47q0 -53 -52 -103.5t-114 -50.5q-33 0 -130 37t-128 37q-41 0 -89.5 -14.5t-61.5 -14.5q-21 0 -34 14.5t-13 38.5z" />
<glyph unicode="&#xc4;" d="M135 254q0 116 74 221t188 191q73 55 170 99.5t155 62.5t69 18q12 0 19.5 -4.5t10.5 -15t3.5 -17t0.5 -21.5q0 -52 -34 -73q-76 -48 -134 -89t-123.5 -95t-118.5 -115t-91 -127q-54 -94 -54 -183q0 -83 70 -83q48 0 123 36q213 111 448 285q-64 7 -105 19t-58 29t-22 31 t-5 36q0 15 5.5 29t14.5 14q2 0 49.5 -10.5t83.5 -10.5q86 0 222 4q164 133 329.5 283.5t326.5 314t236.5 243t202.5 216.5q4 4 14 14.5t14.5 15t13 9t16.5 4.5q50 0 141.5 -38t163.5 -85.5t72 -72.5q0 -11 -36 -52.5t-100.5 -112t-140 -156t-171 -205.5t-175.5 -238 l-68 -93q72 -24 116 -73t44 -82q0 -15 -29 -15q-117 0 -258 -6q-166 -241 -166 -327q0 -21 21 -21q43 0 167 86t255 203q21 16 33 16q16 0 25 -23.5t9 -37.5q0 -36 -95.5 -130t-223.5 -176.5t-203 -82.5q-43 0 -81 29t-59.5 69t-33.5 75t-12 52q0 112 69 256 q-212 -8 -321 -8q-257 -228 -457.5 -361t-298.5 -133q-32 0 -55 13q-246 146 -246 399zM1382 510q216 25 240 27q157 256 512 727q10 13 10 24q0 10 -10 10q-12 0 -41 -34q-333 -393 -711 -754zM2220 1804q0 46 29 81t59.5 49t50.5 14q27 0 61 -33.5t34 -79.5q0 -35 -47 -91 t-91 -56q-28 0 -62 36.5t-34 79.5zM2546 1686q0 46 29 80.5t59.5 48.5t50.5 14q27 0 60.5 -33.5t33.5 -79.5q0 -35 -46.5 -91t-90.5 -56q-28 0 -62 37t-34 80z" />
<glyph unicode="&#xc5;" d="M135 254q0 116 74 221t188 191q73 55 170 99.5t155 62.5t69 18q12 0 19.5 -4.5t10.5 -15t3.5 -17t0.5 -21.5q0 -52 -34 -73q-76 -48 -134 -89t-123.5 -95t-118.5 -115t-91 -127q-54 -94 -54 -183q0 -83 70 -83q48 0 123 36q213 111 448 285q-64 7 -105 19t-58 29t-22 31 t-5 36q0 15 5.5 29t14.5 14q2 0 49.5 -10.5t83.5 -10.5q86 0 222 4q164 133 329.5 283.5t326.5 314t236.5 243t202.5 216.5q4 4 14 14.5t14.5 15t13 9t16.5 4.5q50 0 141.5 -38t163.5 -85.5t72 -72.5q0 -11 -36 -52.5t-100.5 -112t-140 -156t-171 -205.5t-175.5 -238 l-68 -93q72 -24 116 -73t44 -82q0 -15 -29 -15q-117 0 -258 -6q-166 -241 -166 -327q0 -21 21 -21q43 0 167 86t255 203q21 16 33 16q16 0 25 -23.5t9 -37.5q0 -36 -95.5 -130t-223.5 -176.5t-203 -82.5q-43 0 -81 29t-59.5 69t-33.5 75t-12 52q0 112 69 256 q-212 -8 -321 -8q-257 -228 -457.5 -361t-298.5 -133q-32 0 -55 13q-246 146 -246 399zM1382 510q216 25 240 27q157 256 512 727q10 13 10 24q0 10 -10 10q-12 0 -41 -34q-333 -393 -711 -754zM2343 1774q0 57 28.5 118t77 113t121.5 85.5t154 33.5q6 0 11.5 -3t9 -6 t7.5 -10l6 -10.5t5 -11.5t4 -10q56 -6 84 -40.5t28 -88.5q0 -71 -43.5 -147t-126 -130.5t-178.5 -54.5q-95 0 -141.5 45t-46.5 117zM2517 1817q0 -22 14 -32.5t52 -10.5q50 0 98.5 40t48.5 89q0 55 -53 55q-67 0 -113.5 -49.5t-46.5 -91.5z" />
<glyph unicode="&#xc6;" horiz-adv-x="3291" d="M135 254q0 116 74 221t188 191q73 55 170 99.5t155 62.5t69 18q12 0 19.5 -4.5t10.5 -15t3.5 -17t0.5 -21.5q0 -52 -34 -73q-76 -48 -134 -89t-123.5 -95t-118.5 -115t-91 -127q-54 -94 -54 -183q0 -83 70 -83q48 0 123 36q206 106 444 283q-63 6 -103.5 18t-57 29 t-21 31t-4.5 35q0 15 5.5 29t14.5 14q2 0 49.5 -10.5t83.5 -10.5q84 0 216 4q202 162 430 378t345 338t283 299q30 32 43 46q4 4 14 14.5t14.5 15t13 9t16.5 4.5q48 0 136.5 -37t161 -83t79.5 -72q100 119 368 163q258 43 598 43q251 0 336 -51q40 -24 61 -73t21 -107 q0 -65 -13.5 -94.5t-52.5 -44.5q-242 -96 -319.5 -124t-112.5 -28q-14 0 -36.5 41.5t-22.5 71.5q0 37 95.5 94t127.5 57q4 0 4 -8q-2 -10 -2 -20q0 -19 12 -19q14 0 54.5 40t40.5 57q0 32 -47 32q-61 0 -232 -27t-364 -67.5t-341.5 -100t-148.5 -114.5q0 -28 37.5 -50 t104.5 -36t143 -23.5t170.5 -14t168.5 -6t154 -1.5q88 0 88 -33q0 -54 -51 -174q-10 -26 -16 -38t-17.5 -22.5t-27.5 -10.5q-30 0 -89 2t-87 2q-213 0 -404.5 -26t-331.5 -69.5t-253.5 -97.5t-183 -111.5t-106 -110t-36.5 -95.5q0 -48 32.5 -79.5t94.5 -31.5q170 0 608 115 t639 190q38 14 119.5 45t127 47.5t52.5 16.5q12 0 12 -21q0 -29 -54.5 -76t-107 -79.5t-108.5 -63.5q-392 -219 -659.5 -310t-470.5 -91q-23 0 -134 12q-74 10 -139 64.5t-106.5 128.5t-67 148t-31.5 134q-422 -15 -534 -16q-258 -228 -456 -359t-296 -131q-32 0 -55 13 q-246 146 -246 399zM1378 506q298 32 361 35q15 78 47.5 160.5t64.5 144t90 149t91 132.5t102 137q10 13 10 24q0 10 -10 10q-12 0 -41 -34q-349 -412 -715 -758zM2109 772q244 114 527 168q-43 42 -55.5 102.5t-12.5 190.5q0 51 19 100q-205 -229 -478 -561z" />
<glyph unicode="&#xc7;" horiz-adv-x="1472" d="M166 -485q0 41 35 89t73 48q12 0 39 -26.5t49 -26.5q24 0 53 17t29 48q0 12 -32 27.5t-70 30t-70 43t-32 63.5q0 54 61.5 100.5t171.5 57.5q-96 87 -163.5 202.5t-67.5 204.5q0 99 56.5 211t148.5 215.5t213 206.5t245 187t250 155q53 30 149 74t222 95t260 86.5 t225 35.5q42 0 74.5 -13t61 -44.5t43.5 -54.5t44 -72q52 -48 84.5 -108.5t32.5 -104.5q0 -49 -68 -121.5t-173 -146t-219.5 -140.5t-219.5 -117q-93 -44 -216.5 -79t-192.5 -35q-38 0 -85 43.5t-47 93.5q0 42 81 99.5t161.5 94.5t97.5 37q11 0 13.5 -16.5t2.5 -33t5 -15.5 q18 3 132.5 64t262 157.5t219.5 171.5q19 19 19 41q0 59 -53 59q-17 0 -52.5 -11t-85 -30.5t-93.5 -38t-100.5 -42.5t-84.5 -35q-279 -118 -557 -309t-458.5 -391t-180.5 -333q0 -50 27 -81t63.5 -41.5t83.5 -10.5q122 0 350 76q385 127 877 434q12 6 18 6t6 -8 q0 -12 -12.5 -37t-20.5 -35q-119 -151 -353.5 -312t-481.5 -277q-136 -66 -291 -66q-35 0 -53 2q-60 6 -135 55q-3 -1 -11.5 -3.5t-12 -3.5t-10 -3t-9.5 -4t-6.5 -4.5t-5 -5.5t-1.5 -6q0 -17 26.5 -34.5t57.5 -32t57.5 -43.5t26.5 -66q0 -63 -39 -119.5t-97 -91.5 t-120 -55.5t-112 -20.5q-53 0 -84 18.5t-31 55.5z" />
<glyph unicode="&#xc8;" horiz-adv-x="1710" d="M141 377q0 87 66 169.5t166.5 144t227.5 114.5t240.5 85t213.5 50q-43 42 -55.5 102.5t-12.5 190.5q0 252 426 323q258 43 598 43q251 0 336 -51q40 -24 61 -73t21 -107q0 -65 -13.5 -94.5t-52.5 -44.5q-242 -96 -319.5 -124t-112.5 -28q-14 0 -36.5 41.5t-22.5 71.5 q0 37 95.5 94t127.5 57q4 0 4 -8q-2 -10 -2 -20q0 -19 12 -19q14 0 54.5 40t40.5 57q0 32 -47 32q-61 0 -232 -27t-364 -67.5t-341.5 -100t-148.5 -114.5q0 -28 37.5 -50t104.5 -36t143 -23.5t170.5 -14t168.5 -6t154 -1.5q88 0 88 -33q0 -54 -51 -174q-10 -26 -16 -38 t-17.5 -22.5t-27.5 -10.5q-30 0 -89 2t-87 2q-213 0 -404.5 -26t-331.5 -69.5t-253.5 -97.5t-183 -111.5t-106 -110t-36.5 -95.5q0 -48 32.5 -79.5t94.5 -31.5q170 0 608 115t639 190q38 14 119.5 45t127 47.5t52.5 16.5q12 0 12 -21q0 -29 -54.5 -76t-107 -79.5 t-108.5 -63.5q-392 -219 -660 -310t-471 -91q-22 0 -133 12q-78 11 -146 72t-109.5 141t-65 158t-23.5 133zM1628 2032q0 30 28.5 57t59.5 27q16 0 24 -9t15 -36.5t15 -64t32.5 -104.5t59.5 -145q4 -8 4 -20q0 -20 -24.5 -37t-49.5 -17q-20 0 -31 11q-44 37 -88.5 153 t-44.5 185z" />
<glyph unicode="&#xc9;" horiz-adv-x="1710" d="M141 377q0 87 66 169.5t166.5 144t227.5 114.5t240.5 85t213.5 50q-43 42 -55.5 102.5t-12.5 190.5q0 252 426 323q258 43 598 43q251 0 336 -51q40 -24 61 -73t21 -107q0 -65 -13.5 -94.5t-52.5 -44.5q-242 -96 -319.5 -124t-112.5 -28q-14 0 -36.5 41.5t-22.5 71.5 q0 37 95.5 94t127.5 57q4 0 4 -8q-2 -10 -2 -20q0 -19 12 -19q14 0 54.5 40t40.5 57q0 32 -47 32q-61 0 -232 -27t-364 -67.5t-341.5 -100t-148.5 -114.5q0 -28 37.5 -50t104.5 -36t143 -23.5t170.5 -14t168.5 -6t154 -1.5q88 0 88 -33q0 -54 -51 -174q-10 -26 -16 -38 t-17.5 -22.5t-27.5 -10.5q-30 0 -89 2t-87 2q-213 0 -404.5 -26t-331.5 -69.5t-253.5 -97.5t-183 -111.5t-106 -110t-36.5 -95.5q0 -48 32.5 -79.5t94.5 -31.5q170 0 608 115t639 190q38 14 119.5 45t127 47.5t52.5 16.5q12 0 12 -21q0 -29 -54.5 -76t-107 -79.5 t-108.5 -63.5q-392 -219 -660 -310t-471 -91q-22 0 -133 12q-78 11 -146 72t-109.5 141t-65 158t-23.5 133zM1659 1778q0 29 24 39q127 56 270 140.5t185 121.5q20 20 41 20q25 0 37 -30.5t12 -65.5q0 -26 -107.5 -100t-232.5 -137.5t-170 -63.5q-25 0 -42 24.5t-17 51.5z " />
<glyph unicode="&#xca;" horiz-adv-x="1710" d="M141 377q0 87 66 169.5t166.5 144t227.5 114.5t240.5 85t213.5 50q-43 42 -55.5 102.5t-12.5 190.5q0 252 426 323q258 43 598 43q251 0 336 -51q40 -24 61 -73t21 -107q0 -65 -13.5 -94.5t-52.5 -44.5q-242 -96 -319.5 -124t-112.5 -28q-14 0 -36.5 41.5t-22.5 71.5 q0 37 95.5 94t127.5 57q4 0 4 -8q-2 -10 -2 -20q0 -19 12 -19q14 0 54.5 40t40.5 57q0 32 -47 32q-61 0 -232 -27t-364 -67.5t-341.5 -100t-148.5 -114.5q0 -28 37.5 -50t104.5 -36t143 -23.5t170.5 -14t168.5 -6t154 -1.5q88 0 88 -33q0 -54 -51 -174q-10 -26 -16 -38 t-17.5 -22.5t-27.5 -10.5q-30 0 -89 2t-87 2q-213 0 -404.5 -26t-331.5 -69.5t-253.5 -97.5t-183 -111.5t-106 -110t-36.5 -95.5q0 -48 32.5 -79.5t94.5 -31.5q170 0 608 115t639 190q38 14 119.5 45t127 47.5t52.5 16.5q12 0 12 -21q0 -29 -54.5 -76t-107 -79.5 t-108.5 -63.5q-392 -219 -660 -310t-471 -91q-22 0 -133 12q-78 11 -146 72t-109.5 141t-65 158t-23.5 133zM1552 1774q0 12 46 52t112 85t153 79.5t156 34.5q31 0 55 -19.5t62 -76.5q30 -43 60 -100.5t30 -83.5q0 -16 -13 -24.5t-25 -9.5t-34 -1q-35 0 -63.5 17.5t-44 39 t-37 52t-37.5 45.5q-93 -12 -166 -34t-172 -67q-28 -14 -47 -14q-13 0 -24 8t-11 17z" />
<glyph unicode="&#xcb;" horiz-adv-x="1710" d="M141 377q0 87 66 169.5t166.5 144t227.5 114.5t240.5 85t213.5 50q-43 42 -55.5 102.5t-12.5 190.5q0 252 426 323q258 43 598 43q251 0 336 -51q40 -24 61 -73t21 -107q0 -65 -13.5 -94.5t-52.5 -44.5q-242 -96 -319.5 -124t-112.5 -28q-14 0 -36.5 41.5t-22.5 71.5 q0 37 95.5 94t127.5 57q4 0 4 -8q-2 -10 -2 -20q0 -19 12 -19q14 0 54.5 40t40.5 57q0 32 -47 32q-61 0 -232 -27t-364 -67.5t-341.5 -100t-148.5 -114.5q0 -28 37.5 -50t104.5 -36t143 -23.5t170.5 -14t168.5 -6t154 -1.5q88 0 88 -33q0 -54 -51 -174q-10 -26 -16 -38 t-17.5 -22.5t-27.5 -10.5q-30 0 -89 2t-87 2q-213 0 -404.5 -26t-331.5 -69.5t-253.5 -97.5t-183 -111.5t-106 -110t-36.5 -95.5q0 -48 32.5 -79.5t94.5 -31.5q170 0 608 115t639 190q38 14 119.5 45t127 47.5t52.5 16.5q12 0 12 -21q0 -29 -54.5 -76t-107 -79.5 t-108.5 -63.5q-392 -219 -660 -310t-471 -91q-22 0 -133 12q-78 11 -146 72t-109.5 141t-65 158t-23.5 133zM1552 1841q0 46 29 81t60 49t51 14q27 0 60.5 -33.5t33.5 -79.5q0 -35 -46.5 -91.5t-90.5 -56.5q-28 0 -62.5 37t-34.5 80zM1880 1841q0 46 29 81t59.5 49t50.5 14 q27 0 61 -33.5t34 -79.5q0 -35 -47 -91.5t-91 -56.5q-28 0 -62 37t-34 80z" />
<glyph unicode="&#xcc;" horiz-adv-x="1609" d="M29 252q0 20 59 20q37 0 86.5 -21t100 -51.5t102.5 -61t110 -51.5t107 -21q51 0 107.5 20.5t118 62.5t118 88.5t126.5 118.5t124 130t129 143q-209 -109 -340 -109q-56 0 -102.5 28.5t-73.5 73.5t-41.5 94t-14.5 95q0 63 51.5 125.5t142.5 117t200 103.5t238.5 91.5 t244 74.5t229.5 59q130 30 307.5 65.5t223.5 35.5q23 0 50.5 -72.5t27.5 -126.5q0 -25 -11 -33q-154 -97 -246 -160.5t-180 -142.5q-113 -101 -228.5 -223t-198 -218t-173 -196t-173 -172t-178 -131t-209 -89t-245.5 -30q-78 0 -156.5 36.5t-134 82.5t-142.5 119t-152 117 q-4 4 -4 8zM901 711q0 -25 39 -25q156 0 461 156q4 2 10 2q9 0 41 -66q154 171 275 282.5t229 164.5q-468 -95 -965 -416q-23 -13 -56.5 -44t-33.5 -54zM1855 1927q0 30 29 57t60 27q16 0 24 -9t14.5 -36.5t15 -63.5t32.5 -104t59 -145q4 -8 4 -21q0 -20 -24 -36.5 t-50 -16.5q-20 0 -30 10q-44 37 -89 153.5t-45 184.5z" />
<glyph unicode="&#xcd;" horiz-adv-x="1609" d="M29 252q0 20 59 20q37 0 86.5 -21t100 -51.5t102.5 -61t110 -51.5t107 -21q51 0 107.5 20.5t118 62.5t118 88.5t126.5 118.5t124 130t129 143q-209 -109 -340 -109q-56 0 -102.5 28.5t-73.5 73.5t-41.5 94t-14.5 95q0 63 51.5 125.5t142.5 117t200 103.5t238.5 91.5 t244 74.5t229.5 59q130 30 307.5 65.5t223.5 35.5q23 0 50.5 -72.5t27.5 -126.5q0 -25 -11 -33q-154 -97 -246 -160.5t-180 -142.5q-113 -101 -228.5 -223t-198 -218t-173 -196t-173 -172t-178 -131t-209 -89t-245.5 -30q-78 0 -156.5 36.5t-134 82.5t-142.5 119t-152 117 q-4 4 -4 8zM901 711q0 -25 39 -25q156 0 461 156q4 2 10 2q9 0 41 -66q154 171 275 282.5t229 164.5q-468 -95 -965 -416q-23 -13 -56.5 -44t-33.5 -54zM1823 1659q0 29 24 39q127 56 270 140.5t185 121.5q20 20 41 20q25 0 37 -30.5t12 -65.5q0 -26 -107.5 -100 t-232.5 -137.5t-170 -63.5q-25 0 -42 24.5t-17 51.5z" />
<glyph unicode="&#xce;" horiz-adv-x="1609" d="M29 252q0 20 59 20q37 0 86.5 -21t100 -51.5t102.5 -61t110 -51.5t107 -21q51 0 107.5 20.5t118 62.5t118 88.5t126.5 118.5t124 130t129 143q-209 -109 -340 -109q-56 0 -102.5 28.5t-73.5 73.5t-41.5 94t-14.5 95q0 63 51.5 125.5t142.5 117t200 103.5t238.5 91.5 t244 74.5t229.5 59q130 30 307.5 65.5t223.5 35.5q23 0 50.5 -72.5t27.5 -126.5q0 -25 -11 -33q-154 -97 -246 -160.5t-180 -142.5q-113 -101 -228.5 -223t-198 -218t-173 -196t-173 -172t-178 -131t-209 -89t-245.5 -30q-78 0 -156.5 36.5t-134 82.5t-142.5 119t-152 117 q-4 4 -4 8zM901 711q0 -25 39 -25q156 0 461 156q4 2 10 2q9 0 41 -66q154 171 275 282.5t229 164.5q-468 -95 -965 -416q-23 -13 -56.5 -44t-33.5 -54zM1925 1645q0 12 46 52t112 85t153 79.5t156 34.5q31 0 55 -19.5t62 -76.5q30 -43 60 -100.5t30 -83.5q0 -16 -13 -24.5 t-25 -9.5t-34 -1q-35 0 -63.5 17.5t-44 39t-37 52t-37.5 45.5q-93 -12 -166 -34t-172 -67q-28 -14 -47 -14q-13 0 -24 8t-11 17z" />
<glyph unicode="&#xcf;" horiz-adv-x="1609" d="M29 252q0 20 59 20q37 0 86.5 -21t100 -51.5t102.5 -61t110 -51.5t107 -21q51 0 107.5 20.5t118 62.5t118 88.5t126.5 118.5t124 130t129 143q-209 -109 -340 -109q-56 0 -102.5 28.5t-73.5 73.5t-41.5 94t-14.5 95q0 63 51.5 125.5t142.5 117t200 103.5t238.5 91.5 t244 74.5t229.5 59q130 30 307.5 65.5t223.5 35.5q23 0 50.5 -72.5t27.5 -126.5q0 -25 -11 -33q-154 -97 -246 -160.5t-180 -142.5q-113 -101 -228.5 -223t-198 -218t-173 -196t-173 -172t-178 -131t-209 -89t-245.5 -30q-78 0 -156.5 36.5t-134 82.5t-142.5 119t-152 117 q-4 4 -4 8zM901 711q0 -25 39 -25q156 0 461 156q4 2 10 2q9 0 41 -66q154 171 275 282.5t229 164.5q-468 -95 -965 -416q-23 -13 -56.5 -44t-33.5 -54zM2030 1700q0 46 29 80.5t59.5 48.5t50.5 14q27 0 60.5 -33t33.5 -79q0 -35 -46.5 -91.5t-90.5 -56.5q-28 0 -62 37 t-34 80zM2357 1700q0 46 29 80.5t60 48.5t51 14q27 0 60.5 -33t33.5 -79q0 -35 -46.5 -91.5t-90.5 -56.5q-28 0 -62.5 37t-34.5 80z" />
<glyph unicode="&#xd0;" horiz-adv-x="2082" d="M150 111q0 35 22.5 78.5t47.5 72.5t62.5 69.5t47.5 51.5l24 29v28q0 35 8 71t23 36q5 0 7.5 -8.5t7 -31t8.5 -38.5q85 96 192 199h-162q-22 0 -32.5 8t-10.5 33q0 17 19.5 57.5t36.5 48.5q42 21 84 27t143 6h108q208 191 332 295q48 42 88 61q-162 -16 -315 -53.5 t-354 -103.5q-66 -21 -111.5 -44.5t-62 -38t-27 -24.5t-17.5 -10q-10 0 -20 38t-10 66q0 51 120.5 126.5t294.5 143t386 116t376 48.5t308 -36q139 -36 258.5 -146.5t185.5 -250t66 -267.5q0 -257 -232 -471.5t-655 -331.5q-226 -61 -420 -61q-133 0 -258 48.5t-215 135.5 l-49 -65q-34 -47 -74 -110t-58 -85.5t-36 -22.5q-27 0 -60 53.5t-55 126t-22 126.5zM641 252q113 -35 293 -35q201 0 379.5 61t419.5 187q49 25 111.5 73.5t123 108.5t102 129.5t41.5 126.5q0 63 -37 114t-99 83.5t-135 56t-154.5 35.5t-146.5 17t-122 5q42 -18 76.5 -42 t34.5 -33q0 -13 -17 -27q-113 -96 -292 -264h270q45 0 67.5 -22.5t22.5 -51.5q0 -36 -12.5 -72t-40.5 -36q-9 0 -97 1.5t-206 3.5t-183 3q-247 -247 -399 -422z" />
<glyph unicode="&#xd1;" horiz-adv-x="1777" d="M121 -80q0 16 6 34t20.5 39.5t26 37t37.5 42.5t38.5 39.5t45 44t41.5 40.5q215 206 623 573t501 469q31 33 40 47t9 33q0 12 -14 21.5t-33 9.5q-72 0 -276.5 -97t-425 -246t-307.5 -270q-16 -22 -23 -22q-8 0 -14 18q-17 53 -17 78q0 34 25.5 75.5t48 64.5t59.5 57 q85 75 199 158t257 170.5t294.5 144.5t267.5 57q30 0 78 -39t86.5 -99.5t38.5 -111.5q0 -89 -180 -256q-20 -19 -78 -72t-89.5 -83.5t-31.5 -34.5t8 -4q11 0 195 135.5t445.5 316t426.5 266.5q22 11 48 11q66 0 156.5 -79.5t90.5 -131.5q0 -18 -33.5 -44.5t-116.5 -88 t-194 -150.5t-298.5 -267.5t-397.5 -404.5q-108 -116 -180 -214t-74 -128q0 -26 16 -26q34 0 150.5 70.5t234.5 175.5q4 3 18 15t23.5 19.5t21.5 15.5t19 9q9 1 25 -23.5t16 -35.5q0 -21 -64 -85t-149 -131.5t-175.5 -120.5t-135.5 -53q-75 0 -125.5 40t-71 98t-20.5 129 q0 42 15 90t38.5 93.5t62.5 98.5t76.5 97.5t90.5 99t94.5 94.5t100 92t95.5 83.5t90.5 78t77.5 66.5q21 21 21 26q0 4 -4 4q-11 0 -74 -39q-309 -185 -701.5 -504.5t-764.5 -715.5q-18 -19 -50 -62.5t-56.5 -73.5t-35.5 -30q-42 0 -115 107t-73 159zM1718 1708 q0 56 74.5 108t159.5 52q34 0 72.5 -16.5t66 -36t58.5 -36t53 -16.5q26 0 47 11.5t35.5 23.5t25.5 12q31 0 31 -47q0 -53 -51.5 -103t-114.5 -50q-33 0 -130 36.5t-128 36.5q-41 0 -90 -14t-62 -14q-21 0 -34 14.5t-13 38.5z" />
<glyph unicode="&#xd2;" horiz-adv-x="1966" d="M254 375q0 128 46.5 268t124 264t176 243t204.5 213.5t207 167t187.5 111.5t141.5 39q41 0 84 -34q40 -33 148 -111q192 92 325 92q77 0 136 -39t137 -121q75 -75 116.5 -146t41.5 -161q0 -122 -72 -277t-189 -306.5t-271.5 -298.5t-315 -258t-325 -179.5t-294.5 -68.5 q-84 0 -182.5 66t-179.5 161q-23 22 -68.5 60.5t-69.5 63t-53 63t-42 84.5t-13 104zM522 252q0 -97 51 -143t158 -46q205 0 434 125.5t439 327.5q-144 -41 -297 -41q-62 0 -120.5 65.5t-93 166t-34.5 200.5q0 119 67 234.5t181 216.5q-209 -134 -390 -330.5t-288 -404.5 t-107 -371zM1210 791q0 -42 12 -70.5t36.5 -44.5t48 -23.5t61.5 -13.5q86 -14 154 -14q106 0 213 26q161 182 258.5 357.5t97.5 291.5q0 136 -178 136q-117 0 -209 -43q-61 -28 -144 -94.5t-162 -150.5t-133.5 -182t-54.5 -175zM1556 2083q0 30 29 57t60 27q16 0 24 -9 t14.5 -36.5t15 -64t32.5 -104.5t59 -145q4 -8 4 -20q0 -20 -24 -36.5t-50 -16.5q-20 0 -30 10q-44 37 -89 153.5t-45 184.5z" />
<glyph unicode="&#xd3;" horiz-adv-x="1966" d="M254 375q0 128 46.5 268t124 264t176 243t204.5 213.5t207 167t187.5 111.5t141.5 39q41 0 84 -34q40 -33 148 -111q192 92 325 92q77 0 136 -39t137 -121q75 -75 116.5 -146t41.5 -161q0 -122 -72 -277t-189 -306.5t-271.5 -298.5t-315 -258t-325 -179.5t-294.5 -68.5 q-84 0 -182.5 66t-179.5 161q-23 22 -68.5 60.5t-69.5 63t-53 63t-42 84.5t-13 104zM522 252q0 -97 51 -143t158 -46q205 0 434 125.5t439 327.5q-144 -41 -297 -41q-62 0 -120.5 65.5t-93 166t-34.5 200.5q0 119 67 234.5t181 216.5q-209 -134 -390 -330.5t-288 -404.5 t-107 -371zM1210 791q0 -42 12 -70.5t36.5 -44.5t48 -23.5t61.5 -13.5q86 -14 154 -14q106 0 213 26q161 182 258.5 357.5t97.5 291.5q0 136 -178 136q-117 0 -209 -43q-61 -28 -144 -94.5t-162 -150.5t-133.5 -182t-54.5 -175zM1599 1817q0 28 25 38q127 56 270 141 t185 122q20 20 41 20q25 0 37 -30.5t12 -65.5q0 -26 -107.5 -100t-232.5 -137.5t-170 -63.5q-25 0 -42.5 24.5t-17.5 51.5z" />
<glyph unicode="&#xd4;" horiz-adv-x="1966" d="M254 375q0 128 46.5 268t124 264t176 243t204.5 213.5t207 167t187.5 111.5t141.5 39q41 0 84 -34q40 -33 148 -111q192 92 325 92q77 0 136 -39t137 -121q75 -75 116.5 -146t41.5 -161q0 -122 -72 -277t-189 -306.5t-271.5 -298.5t-315 -258t-325 -179.5t-294.5 -68.5 q-84 0 -182.5 66t-179.5 161q-23 22 -68.5 60.5t-69.5 63t-53 63t-42 84.5t-13 104zM522 252q0 -97 51 -143t158 -46q205 0 434 125.5t439 327.5q-144 -41 -297 -41q-62 0 -120.5 65.5t-93 166t-34.5 200.5q0 119 67 234.5t181 216.5q-209 -134 -390 -330.5t-288 -404.5 t-107 -371zM1210 791q0 -42 12 -70.5t36.5 -44.5t48 -23.5t61.5 -13.5q86 -14 154 -14q106 0 213 26q161 182 258.5 357.5t97.5 291.5q0 136 -178 136q-117 0 -209 -43q-61 -28 -144 -94.5t-162 -150.5t-133.5 -182t-54.5 -175zM1511 1821q0 12 46 52.5t112 85t153 79.5 t156 35q31 0 55 -20t62 -77q30 -43 60 -100.5t30 -83.5q0 -12 -6 -20t-18.5 -11t-21.5 -3.5t-25 -0.5q-45 0 -76 24.5t-61 69.5t-46 60q-93 -12 -166 -34t-172 -67q-28 -14 -47 -14q-13 0 -24 8t-11 17z" />
<glyph unicode="&#xd5;" horiz-adv-x="1966" d="M254 375q0 128 46.5 268t124 264t176 243t204.5 213.5t207 167t187.5 111.5t141.5 39q41 0 84 -34q40 -33 148 -111q192 92 325 92q77 0 136 -39t137 -121q75 -75 116.5 -146t41.5 -161q0 -122 -72 -277t-189 -306.5t-271.5 -298.5t-315 -258t-325 -179.5t-294.5 -68.5 q-84 0 -182.5 66t-179.5 161q-23 22 -68.5 60.5t-69.5 63t-53 63t-42 84.5t-13 104zM522 252q0 -97 51 -143t158 -46q205 0 434 125.5t439 327.5q-144 -41 -297 -41q-62 0 -120.5 65.5t-93 166t-34.5 200.5q0 119 67 234.5t181 216.5q-209 -134 -390 -330.5t-288 -404.5 t-107 -371zM1210 791q0 -42 12 -70.5t36.5 -44.5t48 -23.5t61.5 -13.5q86 -14 154 -14q106 0 213 26q161 182 258.5 357.5t97.5 291.5q0 136 -178 136q-117 0 -209 -43q-61 -28 -144 -94.5t-162 -150.5t-133.5 -182t-54.5 -175zM1446 1860q0 56 74 107.5t159 51.5 q34 0 72.5 -16.5t66 -35.5t58.5 -35.5t53 -16.5q26 0 47 11.5t36 23.5t26 12q30 0 30 -47q0 -53 -51.5 -103.5t-113.5 -50.5q-33 0 -130 37t-128 37q-41 0 -90 -14.5t-62 -14.5q-21 0 -34 15t-13 39z" />
<glyph unicode="&#xd6;" horiz-adv-x="1966" d="M254 375q0 128 46.5 268t124 264t176 243t204.5 213.5t207 167t187.5 111.5t141.5 39q41 0 84 -34q40 -33 148 -111q192 92 325 92q77 0 136 -39t137 -121q75 -75 116.5 -146t41.5 -161q0 -122 -72 -277t-189 -306.5t-271.5 -298.5t-315 -258t-325 -179.5t-294.5 -68.5 q-84 0 -182.5 66t-179.5 161q-23 22 -68.5 60.5t-69.5 63t-53 63t-42 84.5t-13 104zM522 252q0 -97 51 -143t158 -46q205 0 434 125.5t439 327.5q-144 -41 -297 -41q-62 0 -120.5 65.5t-93 166t-34.5 200.5q0 119 67 234.5t181 216.5q-209 -134 -390 -330.5t-288 -404.5 t-107 -371zM1210 791q0 -42 12 -70.5t36.5 -44.5t48 -23.5t61.5 -13.5q86 -14 154 -14q106 0 213 26q161 182 258.5 357.5t97.5 291.5q0 136 -178 136q-117 0 -209 -43q-61 -28 -144 -94.5t-162 -150.5t-133.5 -182t-54.5 -175zM1483 1874q0 46 29 80.5t59.5 48.5t50.5 14 q27 0 60.5 -33t33.5 -79q0 -35 -46.5 -91.5t-90.5 -56.5q-28 0 -62 37t-34 80zM1810 1874q0 46 29 80.5t60 48.5t51 14q27 0 60.5 -33t33.5 -79q0 -35 -46.5 -91.5t-90.5 -56.5q-28 0 -62.5 37t-34.5 80z" />
<glyph unicode="&#xd7;" horiz-adv-x="1087" d="M365 276q0 71 104 168l125 117l-131 225q-19 36 -19 58q0 37 46 63.5t73 26.5q19 0 32.5 -18t26 -50t19.5 -43q20 -38 84 -143l240 221q38 35 67 35q32 0 56 -27t33 -52.5t9 -37.5q0 -15 -17 -30.5t-43 -32t-32 -21.5l-221 -209l166 -274q12 -20 12 -27q0 -18 -34 -33.5 t-60 -15.5q-46 0 -83.5 35t-78.5 104l-53 88q-190 -179 -227 -210q-16 -19 -31 -19q-33 0 -48 33.5t-15 68.5z" />
<glyph unicode="&#xd8;" horiz-adv-x="1886" d="M264 453q0 111 61 246t157.5 259.5t216 244t234.5 207.5t216 142t158 54q26 0 52 -6t43 -12t45 -23t38 -24t43.5 -32t40.5 -30q149 86 219 86q58 0 125 -45l223 204q17 17 27 17q16 0 38.5 -69t22.5 -105q0 -33 -18 -68t-32.5 -51t-41.5 -43l-45 -43q98 -78 130 -142.5 t32 -125.5q0 -109 -75 -249.5t-195.5 -277t-275 -269t-309 -233t-303.5 -162t-253 -61.5q-119 0 -228 76q-39 -51 -53 -84q-12 -24 -40.5 -62t-43.5 -38q-33 0 -90 59.5t-57 112.5q0 20 18 47q25 40 98 131q-84 97 -131 185t-47 184zM494 254q0 -47 22 -86 q345 389 1247 1218q-133 -36 -296 -143t-288.5 -235.5t-158.5 -223.5q-7 -26 -19 -26q-8 0 -8 33q0 129 99.5 269.5t253.5 264.5q-119 -76 -235 -168t-229 -204.5t-198 -226t-137.5 -237.5t-52.5 -235zM741 74q84 8 212.5 74t266.5 166t278 227t250 252.5t179.5 248.5 t69.5 209q0 19 -2 27q-16 -14 -164.5 -150t-220.5 -203t-222 -207.5t-246.5 -234.5t-210 -208.5t-190.5 -200.5z" />
<glyph unicode="&#xd9;" horiz-adv-x="1626" d="M49 164q0 77 172 254q108 112 252.5 233t246 196.5t288 208.5t262.5 189q84 56 84 94q0 23 -23 23q-58 0 -235.5 -71t-384 -182.5t-318.5 -207.5q-23 -19 -40 -38.5t-23.5 -30.5t-13 -18t-13.5 -7q-15 0 -41 28t-26 52q0 51 142.5 168t330.5 233t385.5 205.5t294.5 89.5 q17 0 32 -4.5t25 -8.5t25.5 -17t20.5 -18t23 -24t23 -24t20.5 -21t22 -23t18.5 -21t17.5 -23.5t13 -22.5t10 -26t2.5 -27q0 -97 -159 -225q-674 -555 -938 -799q-260 -240 -260 -291q0 -35 28 -35q41 0 398.5 242.5t566.5 415.5q237 196 439.5 384t428.5 427q30 33 49 33 q33 0 91.5 -60t111.5 -135q21 -27 21 -45q0 -22 -33 -45q-72 -54 -200 -162.5t-282.5 -251.5t-291 -281t-228.5 -258.5t-92 -175.5q0 -20 15 -20q54 0 158 65.5t173 122.5q5 4 17.5 14.5t20 17t20 16.5t21.5 16.5t19.5 13t18.5 9.5t14 3q14 0 28.5 -16t14.5 -47 q0 -29 -100.5 -117.5t-232.5 -168t-203 -79.5q-50 0 -104 57.5t-54 139.5q0 122 142 332q-44 -37 -131 -115t-154.5 -138.5t-163 -134.5t-174.5 -122.5t-168.5 -82.5t-165.5 -34q-82 0 -156 141q-58 105 -78 152t-20 78zM1647 1937q0 30 28.5 57t59.5 27q16 0 24 -9 t14.5 -36.5t15 -63.5t32.5 -104t59 -145q4 -8 4 -21q0 -20 -24 -36.5t-50 -16.5q-20 0 -30 10q-44 37 -88.5 153t-44.5 185z" />
<glyph unicode="&#xda;" horiz-adv-x="1626" d="M49 164q0 77 172 254q108 112 252.5 233t246 196.5t288 208.5t262.5 189q84 56 84 94q0 23 -23 23q-58 0 -235.5 -71t-384 -182.5t-318.5 -207.5q-23 -19 -40 -38.5t-23.5 -30.5t-13 -18t-13.5 -7q-15 0 -41 28t-26 52q0 51 142.5 168t330.5 233t385.5 205.5t294.5 89.5 q17 0 32 -4.5t25 -8.5t25.5 -17t20.5 -18t23 -24t23 -24t20.5 -21t22 -23t18.5 -21t17.5 -23.5t13 -22.5t10 -26t2.5 -27q0 -97 -159 -225q-674 -555 -938 -799q-260 -240 -260 -291q0 -35 28 -35q41 0 398.5 242.5t566.5 415.5q237 196 439.5 384t428.5 427q30 33 49 33 q33 0 91.5 -60t111.5 -135q21 -27 21 -45q0 -22 -33 -45q-72 -54 -200 -162.5t-282.5 -251.5t-291 -281t-228.5 -258.5t-92 -175.5q0 -20 15 -20q54 0 158 65.5t173 122.5q5 4 17.5 14.5t20 17t20 16.5t21.5 16.5t19.5 13t18.5 9.5t14 3q14 0 28.5 -16t14.5 -47 q0 -29 -100.5 -117.5t-232.5 -168t-203 -79.5q-50 0 -104 57.5t-54 139.5q0 122 142 332q-44 -37 -131 -115t-154.5 -138.5t-163 -134.5t-174.5 -122.5t-168.5 -82.5t-165.5 -34q-82 0 -156 141q-58 105 -78 152t-20 78zM1780 1663q0 29 24 39q127 56 270 140.5t185 121.5 q21 21 41 21q25 0 37 -31t12 -66q0 -26 -107.5 -100t-232.5 -137.5t-170 -63.5q-25 0 -42 24.5t-17 51.5z" />
<glyph unicode="&#xdb;" horiz-adv-x="1626" d="M49 164q0 77 172 254q108 112 252.5 233t246 196.5t288 208.5t262.5 189q84 56 84 94q0 23 -23 23q-58 0 -235.5 -71t-384 -182.5t-318.5 -207.5q-23 -19 -40 -38.5t-23.5 -30.5t-13 -18t-13.5 -7q-15 0 -41 28t-26 52q0 51 142.5 168t330.5 233t385.5 205.5t294.5 89.5 q17 0 32 -4.5t25 -8.5t25.5 -17t20.5 -18t23 -24t23 -24t20.5 -21t22 -23t18.5 -21t17.5 -23.5t13 -22.5t10 -26t2.5 -27q0 -97 -159 -225q-674 -555 -938 -799q-260 -240 -260 -291q0 -35 28 -35q41 0 398.5 242.5t566.5 415.5q237 196 439.5 384t428.5 427q30 33 49 33 q33 0 91.5 -60t111.5 -135q21 -27 21 -45q0 -22 -33 -45q-72 -54 -200 -162.5t-282.5 -251.5t-291 -281t-228.5 -258.5t-92 -175.5q0 -20 15 -20q54 0 158 65.5t173 122.5q5 4 17.5 14.5t20 17t20 16.5t21.5 16.5t19.5 13t18.5 9.5t14 3q14 0 28.5 -16t14.5 -47 q0 -29 -100.5 -117.5t-232.5 -168t-203 -79.5q-50 0 -104 57.5t-54 139.5q0 122 142 332q-44 -37 -131 -115t-154.5 -138.5t-163 -134.5t-174.5 -122.5t-168.5 -82.5t-165.5 -34q-82 0 -156 141q-58 105 -78 152t-20 78zM1542 1692q0 12 46 52.5t112 85t153 79.5t156 35 q31 0 55 -20t62 -77q30 -43 60 -100.5t30 -83.5q0 -16 -13 -24.5t-25 -9.5t-34 -1q-35 0 -63.5 17.5t-44 39t-37 52t-37.5 45.5q-93 -12 -166 -34t-172 -67q-28 -14 -47 -14q-13 0 -24 8t-11 17z" />
<glyph unicode="&#xdc;" horiz-adv-x="1626" d="M49 164q0 77 172 254q108 112 252.5 233t246 196.5t288 208.5t262.5 189q84 56 84 94q0 23 -23 23q-58 0 -235.5 -71t-384 -182.5t-318.5 -207.5q-23 -19 -40 -38.5t-23.5 -30.5t-13 -18t-13.5 -7q-15 0 -41 28t-26 52q0 51 142.5 168t330.5 233t385.5 205.5t294.5 89.5 q17 0 32 -4.5t25 -8.5t25.5 -17t20.5 -18t23 -24t23 -24t20.5 -21t22 -23t18.5 -21t17.5 -23.5t13 -22.5t10 -26t2.5 -27q0 -97 -159 -225q-674 -555 -938 -799q-260 -240 -260 -291q0 -35 28 -35q41 0 398.5 242.5t566.5 415.5q237 196 439.5 384t428.5 427q30 33 49 33 q33 0 91.5 -60t111.5 -135q21 -27 21 -45q0 -22 -33 -45q-72 -54 -200 -162.5t-282.5 -251.5t-291 -281t-228.5 -258.5t-92 -175.5q0 -20 15 -20q54 0 158 65.5t173 122.5q5 4 17.5 14.5t20 17t20 16.5t21.5 16.5t19.5 13t18.5 9.5t14 3q14 0 28.5 -16t14.5 -47 q0 -29 -100.5 -117.5t-232.5 -168t-203 -79.5q-50 0 -104 57.5t-54 139.5q0 122 142 332q-44 -37 -131 -115t-154.5 -138.5t-163 -134.5t-174.5 -122.5t-168.5 -82.5t-165.5 -34q-82 0 -156 141q-58 105 -78 152t-20 78zM1620 1683q0 46 29 81t59.5 49t50.5 14 q27 0 60.5 -33.5t33.5 -79.5q0 -35 -46.5 -91t-90.5 -56q-28 0 -62 36.5t-34 79.5zM1948 1683q0 46 29 81t59.5 49t50.5 14q27 0 60.5 -33.5t33.5 -79.5q0 -35 -46.5 -91t-90.5 -56q-28 0 -62 36.5t-34 79.5z" />
<glyph unicode="&#xdd;" horiz-adv-x="1437" d="M49 442q0 113 205 283q232 196 492.5 398t356 281.5t95.5 111.5q0 16 -20 16q-124 0 -317.5 -81t-376 -203t-287.5 -240q-7 -9 -19.5 -26t-20 -24.5t-14.5 -7.5q-5 0 -16 12.5t-21 35t-10 42.5q0 30 74 110.5t197.5 180.5t263.5 193.5t292.5 157t264.5 63.5 q39 0 102.5 -54.5t112.5 -126.5t49 -116q0 -90 -109 -203q-129 -130 -279.5 -260.5t-343.5 -288.5t-294 -245q-27 -24 -52.5 -56t-25.5 -53q0 -16 23 -16q63 0 382.5 211.5t557.5 396.5q88 69 179.5 144.5t196 167t173 152t193.5 173.5t175 158q11 8 27 8q24 0 91.5 -44 t126 -100t58.5 -84q0 -10 -73.5 -71t-219.5 -184t-325 -284t-429 -414t-493 -531q-40 -46 -72 -83t-124.5 -151t-157 -202t-125.5 -190t-74 -161q-6 -24 -14 -24q-31 0 -81.5 47t-90 115.5t-39.5 119.5q0 72 48.5 167t121 185t180 202t201 199.5t209.5 198t182 177.5 q-382 -293 -579 -402.5t-293 -109.5q-60 0 -95 26q-36 27 -87.5 133.5t-51.5 169.5zM1667 1802q0 29 25 39q127 56 269.5 140.5t184.5 121.5q21 21 41 21q25 0 37 -30.5t12 -65.5q0 -26 -107.5 -100.5t-232.5 -138t-170 -63.5q-25 0 -42 24.5t-17 51.5z" />
<glyph unicode="&#xde;" horiz-adv-x="2088" d="M47 158q0 25 17.5 60t54 81.5t75.5 91.5t99.5 106.5t108 109t119 117.5t114.5 114q-193 -80 -311 -176q-18 -15 -25 -15q-6 0 -12 12q-1 3 -8 17.5t-10 22t-6 19.5t-3 21q0 67 186.5 174t466.5 201q128 123 281 264.5t236 216.5t106 95q62 56 101.5 80t74.5 24t74 -25 t96 -81q12 -12 12 -21q0 -10 -12 -22l-401 -388q220 37 399 37q71 0 102 -2q70 -6 135.5 -75t108 -162t68 -184.5t26.5 -149.5q0 -71 -59 -141q-85 -103 -246 -192.5t-340.5 -144t-352 -85.5t-300.5 -31q-216 0 -367 305q-159 -187 -274 -340q-40 -53 -69 -99.5t-41 -71.5 t-20 -43.5t-12.5 -25t-13.5 -6.5q-19 0 -37 22t-59 87q-25 39 -39.5 65t-28.5 65t-14 73zM721 508q124 -72 313 -72q155 0 354.5 43.5t367.5 107t284.5 142.5t116.5 145q0 41 -38 73.5t-89.5 51t-110.5 30.5t-96 16t-51 4q-270 0 -560 -50l-313 -303q-91 -91 -178 -188z" />
<glyph unicode="&#xdf;" horiz-adv-x="1050" d="M-494 -461q0 49 262 384t377 458q454 488 693 725t362 307q45 26 134.5 58t160.5 32q20 0 44.5 -10.5t49.5 -30.5t41.5 -57.5t16.5 -85.5q0 -32 -14.5 -84.5t-53.5 -125.5t-96 -138t-153 -119.5t-212 -73.5q42 -1 72.5 -35t30.5 -75q0 -40 -42.5 -128.5t-116.5 -194 t-161 -202.5t-188 -162t-185 -65q-38 0 -70.5 32.5t-50.5 78.5t-28 88t-10 69q0 79 34 82q30 6 41 6q12 0 18.5 -8.5t8.5 -18t13 -18t32 -8.5q54 0 118 42.5t118.5 105t101 130t73.5 122.5t27 77q0 16 -8.5 25.5t-19.5 9.5q-14 0 -41 -2t-41 -2q-11 0 -18 12t-7 25 q0 10 4 18q-642 -714 -1085 -1345q-2 -4 -17 -30.5t-28.5 -43t-24.5 -16.5q-34 0 -98 75.5t-64 116.5zM901 868q75 2 141 21t112.5 48.5t84.5 67t61 75t39 73t22.5 60t6.5 38.5q0 21 -7 34t-18 13q-45 0 -442 -430z" />
<glyph unicode="&#xe0;" horiz-adv-x="1034" d="M61 193q0 29 11 57q37 100 185.5 245t304.5 248t222 103q25 0 49.5 -9t51 -29.5t43 -35.5t46.5 -45.5t40 -40.5q73 -30 130.5 -70t57.5 -55q0 -4 -8 -12q-139 -96 -297 -261t-158 -212q0 -8 6 -13.5t15 -5.5q13 0 73 33t163 110.5t192 170.5q8 8 18 8q18 0 30.5 -23.5 t12.5 -38.5q0 -26 -61 -92.5t-142.5 -135t-171 -121t-139.5 -52.5q-66 0 -110.5 53.5t-44.5 136.5q-123 -111 -191 -157.5t-119 -46.5q-85 0 -149 118q-3 6 -12.5 23t-13 24t-11 21.5t-10 24t-6.5 23.5t-5.5 28t-1.5 29zM244 68q0 -11 10 -22t18 -11q9 0 21 6 q68 33 213 165.5t256.5 248t118.5 129.5q4 8 4 14q0 11 -9 19t-24 8q-35 0 -158 -84q-163 -113 -303 -262q-147 -156 -147 -211zM956 1194q0 30 28.5 57t59.5 27q16 0 24 -9t15 -36.5t15 -63.5t32.5 -104t59.5 -145q4 -8 4 -21q0 -20 -24 -36.5t-50 -16.5q-20 0 -30 10 q-44 37 -89 153.5t-45 184.5z" />
<glyph unicode="&#xe1;" horiz-adv-x="1034" d="M61 193q0 29 11 57q37 100 185.5 245t304.5 248t222 103q25 0 49.5 -9t51 -29.5t43 -35.5t46.5 -45.5t40 -40.5q73 -30 130.5 -70t57.5 -55q0 -4 -8 -12q-139 -96 -297 -261t-158 -212q0 -8 6 -13.5t15 -5.5q13 0 73 33t163 110.5t192 170.5q8 8 18 8q18 0 30.5 -23.5 t12.5 -38.5q0 -26 -61 -92.5t-142.5 -135t-171 -121t-139.5 -52.5q-66 0 -110.5 53.5t-44.5 136.5q-123 -111 -191 -157.5t-119 -46.5q-85 0 -149 118q-3 6 -12.5 23t-13 24t-11 21.5t-10 24t-6.5 23.5t-5.5 28t-1.5 29zM244 68q0 -11 10 -22t18 -11q9 0 21 6 q68 33 213 165.5t256.5 248t118.5 129.5q4 8 4 14q0 11 -9 19t-24 8q-35 0 -158 -84q-163 -113 -303 -262q-147 -156 -147 -211zM958 979q0 29 25 39q127 56 270 140.5t185 121.5q20 20 41 20q25 0 37 -30.5t12 -65.5q0 -26 -107.5 -100t-232.5 -137.5t-170 -63.5 q-25 0 -42.5 24.5t-17.5 51.5z" />
<glyph unicode="&#xe2;" horiz-adv-x="1034" d="M61 193q0 29 11 57q37 100 185.5 245t304.5 248t222 103q25 0 49.5 -9t51 -29.5t43 -35.5t46.5 -45.5t40 -40.5q73 -30 130.5 -70t57.5 -55q0 -4 -8 -12q-139 -96 -297 -261t-158 -212q0 -8 6 -13.5t15 -5.5q13 0 73 33t163 110.5t192 170.5q8 8 18 8q18 0 30.5 -23.5 t12.5 -38.5q0 -26 -61 -92.5t-142.5 -135t-171 -121t-139.5 -52.5q-66 0 -110.5 53.5t-44.5 136.5q-123 -111 -191 -157.5t-119 -46.5q-85 0 -149 118q-3 6 -12.5 23t-13 24t-11 21.5t-10 24t-6.5 23.5t-5.5 28t-1.5 29zM244 68q0 -11 10 -22t18 -11q9 0 21 6 q68 33 213 165.5t256.5 248t118.5 129.5q4 8 4 14q0 11 -9 19t-24 8q-35 0 -158 -84q-163 -113 -303 -262q-147 -156 -147 -211zM553 967q0 12 46 52.5t112 85t153 79.5t156 35q31 0 55 -20t62 -77q30 -43 60 -100.5t30 -83.5q0 -16 -13 -24.5t-25 -9.5t-34 -1 q-35 0 -63.5 17.5t-44 39t-37 52t-37.5 45.5q-93 -12 -166 -34t-172 -67q-28 -14 -47 -14q-13 0 -24 8t-11 17z" />
<glyph unicode="&#xe3;" horiz-adv-x="1034" d="M61 193q0 29 11 57q37 100 185.5 245t304.5 248t222 103q25 0 49.5 -9t51 -29.5t43 -35.5t46.5 -45.5t40 -40.5q73 -30 130.5 -70t57.5 -55q0 -4 -8 -12q-139 -96 -297 -261t-158 -212q0 -8 6 -13.5t15 -5.5q13 0 73 33t163 110.5t192 170.5q8 8 18 8q18 0 30.5 -23.5 t12.5 -38.5q0 -26 -61 -92.5t-142.5 -135t-171 -121t-139.5 -52.5q-66 0 -110.5 53.5t-44.5 136.5q-123 -111 -191 -157.5t-119 -46.5q-85 0 -149 118q-3 6 -12.5 23t-13 24t-11 21.5t-10 24t-6.5 23.5t-5.5 28t-1.5 29zM244 68q0 -11 10 -22t18 -11q9 0 21 6 q68 33 213 165.5t256.5 248t118.5 129.5q4 8 4 14q0 11 -9 19t-24 8q-35 0 -158 -84q-163 -113 -303 -262q-147 -156 -147 -211zM727 1016q0 56 74.5 108t159.5 52q34 0 72.5 -16.5t66 -36t58 -36t52.5 -16.5q34 0 66 23.5t43 23.5q31 0 31 -47q0 -53 -51.5 -103t-114.5 -50 q-33 0 -130 36.5t-128 36.5q-41 0 -90 -14t-62 -14q-21 0 -34 14.5t-13 38.5z" />
<glyph unicode="&#xe4;" horiz-adv-x="1034" d="M61 193q0 29 11 57q37 100 185.5 245t304.5 248t222 103q25 0 49.5 -9t51 -29.5t43 -35.5t46.5 -45.5t40 -40.5q73 -30 130.5 -70t57.5 -55q0 -4 -8 -12q-139 -96 -297 -261t-158 -212q0 -8 6 -13.5t15 -5.5q13 0 73 33t163 110.5t192 170.5q8 8 18 8q18 0 30.5 -23.5 t12.5 -38.5q0 -26 -61 -92.5t-142.5 -135t-171 -121t-139.5 -52.5q-66 0 -110.5 53.5t-44.5 136.5q-123 -111 -191 -157.5t-119 -46.5q-85 0 -149 118q-3 6 -12.5 23t-13 24t-11 21.5t-10 24t-6.5 23.5t-5.5 28t-1.5 29zM244 68q0 -11 10 -22t18 -11q9 0 21 6 q68 33 213 165.5t256.5 248t118.5 129.5q4 8 4 14q0 11 -9 19t-24 8q-35 0 -158 -84q-163 -113 -303 -262q-147 -156 -147 -211zM629 1063q0 46 29 80.5t59.5 48.5t50.5 14q27 0 60.5 -33t33.5 -79q0 -35 -46.5 -91.5t-90.5 -56.5q-28 0 -62 37t-34 80zM956 1006 q0 46 29 80.5t60 48.5t51 14q27 0 60.5 -33.5t33.5 -79.5q0 -35 -46.5 -91t-90.5 -56q-28 0 -62.5 37t-34.5 80z" />
<glyph unicode="&#xe5;" horiz-adv-x="1034" d="M61 193q0 29 11 57q37 100 185.5 245t304.5 248t222 103q25 0 49.5 -9t51 -29.5t43 -35.5t46.5 -45.5t40 -40.5q73 -30 130.5 -70t57.5 -55q0 -4 -8 -12q-139 -96 -297 -261t-158 -212q0 -8 6 -13.5t15 -5.5q13 0 73 33t163 110.5t192 170.5q8 8 18 8q18 0 30.5 -23.5 t12.5 -38.5q0 -26 -61 -92.5t-142.5 -135t-171 -121t-139.5 -52.5q-66 0 -110.5 53.5t-44.5 136.5q-123 -111 -191 -157.5t-119 -46.5q-85 0 -149 118q-3 6 -12.5 23t-13 24t-11 21.5t-10 24t-6.5 23.5t-5.5 28t-1.5 29zM244 68q0 -11 10 -22t18 -11q9 0 21 6 q68 33 213 165.5t256.5 248t118.5 129.5q4 8 4 14q0 11 -9 19t-24 8q-35 0 -158 -84q-163 -113 -303 -262q-147 -156 -147 -211zM965 922q0 57 28.5 118t77 113t121.5 85.5t154 33.5q6 0 11.5 -3t9 -6t7.5 -10l6 -10.5t5 -11.5t4 -10q56 -6 84 -40.5t28 -88.5 q0 -71 -43.5 -147t-126 -130.5t-178.5 -54.5q-95 0 -141.5 45t-46.5 117zM1139 965q0 -22 13.5 -32.5t51.5 -10.5q50 0 99 40t49 89q0 55 -54 55q-67 0 -113 -49.5t-46 -91.5z" />
<glyph unicode="&#xe6;" horiz-adv-x="1441" d="M61 193q0 29 11 57q37 100 185.5 245t304.5 248t222 103q29 0 58.5 -12.5t60 -39t49.5 -46t49 -52.5q234 209 363 209q63 0 152 -100q50 -46 64.5 -74.5t14.5 -54.5q0 -70 -55 -156.5t-132.5 -155.5t-162 -116t-141.5 -47q-34 0 -76 18.5t-74 52.5q-61 -92 -61 -147 q0 -30 18.5 -53t61.5 -23q40 0 106 21q105 38 202.5 85t163 86.5t116 74t77.5 54t31 19.5q19 0 19 -20q0 -17 -51 -76t-115 -117q-307 -280 -553 -280q-45 0 -117 59q-70 -39 -117 -39q-66 0 -110.5 53.5t-44.5 136.5q-123 -111 -191 -157.5t-119 -46.5q-85 0 -149 118 q-3 6 -12.5 23t-13 24t-11 21.5t-10 24t-6.5 23.5t-5.5 28t-1.5 29zM244 68q0 -11 10 -22t18 -11q9 0 21 6q68 33 213 165.5t256.5 248t118.5 129.5q4 8 4 14q0 11 -9 19t-24 8q-35 0 -158 -84q-163 -113 -303 -262q-147 -156 -147 -211zM1014 350q17 -26 49 -26 q54 0 149 75t166.5 160t71.5 117q0 22 -25 22q-20 0 -43 -14q-102 -70 -199.5 -158.5t-168.5 -175.5z" />
<glyph unicode="&#xe7;" horiz-adv-x="784" d="M12 -330q0 28 23 60t49 32q7 0 24.5 -18t32.5 -18q17 0 36.5 11.5t19.5 33.5q0 8 -21.5 18t-47.5 19t-47.5 28t-21.5 43q0 35 42.5 66.5t117.5 38.5q-40 54 -68 130t-28 144q0 87 33 148.5t104 132.5q136 136 280 219.5t224 83.5q32 0 65.5 -17t81.5 -67q8 -8 26.5 -25.5 t26.5 -25.5t15.5 -20.5t7.5 -22.5q0 -26 -30 -65t-89 -101q-4 -4 -18.5 -19.5t-26 -26.5t-26.5 -24.5t-28.5 -21t-23.5 -7.5q-35 0 -65.5 47.5t-32.5 104.5q-48 0 -223 -168q-92 -86 -131 -139t-39 -103q0 -45 63 -45q119 0 337.5 106t353.5 222q11 8 20 8q12 0 12 -20 q0 -58 -126.5 -178t-293 -219t-264.5 -99q-38 0 -69 8q-16 5 -37 23q-29 -7 -29 -19q0 -11 17.5 -23t39 -21t39 -28.5t17.5 -43.5q0 -55 -44.5 -101t-100 -68t-101.5 -22q-76 0 -76 49z" />
<glyph unicode="&#xe8;" horiz-adv-x="860" d="M102 188q0 70 25 139t73 134t98 117.5t118 113.5q238 213 366 213q63 0 152 -100q50 -46 65 -74.5t15 -54.5q0 -93 -91 -207.5t-207.5 -191t-193.5 -76.5q-34 0 -75.5 18.5t-73.5 52.5q-62 -94 -62 -147q0 -30 18.5 -53t61.5 -23q41 0 107 21q105 38 202.5 85t162.5 86.5 t115.5 74t77.5 54t31 19.5q19 0 19 -20q0 -17 -51 -76t-115 -117q-307 -280 -553 -280q-43 0 -112 55.5t-121 126t-52 110.5zM432 350q17 -26 49 -26q54 0 149 75t166.5 160t71.5 117q0 22 -24 22q-20 0 -43 -14q-103 -70 -200.5 -159t-168.5 -175zM848 1272q0 30 28.5 57 t59.5 27q16 0 24 -9t14.5 -36.5t15 -64t32.5 -104.5t59 -145q4 -8 4 -20q0 -20 -24 -36.5t-49 -16.5q-21 0 -31 10q-44 37 -88.5 153t-44.5 185z" />
<glyph unicode="&#xe9;" horiz-adv-x="860" d="M102 188q0 70 25 139t73 134t98 117.5t118 113.5q238 213 366 213q63 0 152 -100q50 -46 65 -74.5t15 -54.5q0 -93 -91 -207.5t-207.5 -191t-193.5 -76.5q-34 0 -75.5 18.5t-73.5 52.5q-62 -94 -62 -147q0 -30 18.5 -53t61.5 -23q41 0 107 21q105 38 202.5 85t162.5 86.5 t115.5 74t77.5 54t31 19.5q19 0 19 -20q0 -17 -51 -76t-115 -117q-307 -280 -553 -280q-43 0 -112 55.5t-121 126t-52 110.5zM432 350q17 -26 49 -26q54 0 149 75t166.5 160t71.5 117q0 22 -24 22q-20 0 -43 -14q-103 -70 -200.5 -159t-168.5 -175zM924 1061q0 29 24 39 q127 56 270 140.5t185 121.5q20 20 41 20q25 0 37 -30.5t12 -65.5q0 -26 -107.5 -100t-232.5 -137.5t-170 -63.5q-25 0 -42 24.5t-17 51.5z" />
<glyph unicode="&#xea;" horiz-adv-x="860" d="M102 188q0 70 25 139t73 134t98 117.5t118 113.5q238 213 366 213q63 0 152 -100q50 -46 65 -74.5t15 -54.5q0 -93 -91 -207.5t-207.5 -191t-193.5 -76.5q-34 0 -75.5 18.5t-73.5 52.5q-62 -94 -62 -147q0 -30 18.5 -53t61.5 -23q41 0 107 21q105 38 202.5 85t162.5 86.5 t115.5 74t77.5 54t31 19.5q19 0 19 -20q0 -17 -51 -76t-115 -117q-307 -280 -553 -280q-43 0 -112 55.5t-121 126t-52 110.5zM432 350q17 -26 49 -26q54 0 149 75t166.5 160t71.5 117q0 22 -24 22q-20 0 -43 -14q-103 -70 -200.5 -159t-168.5 -175zM498 1067q0 12 46 52.5 t112 85t153 79.5t156 35q31 0 54.5 -19.5t61.5 -76.5q30 -42 60 -100.5t30 -84.5q0 -12 -6 -20t-19 -10.5t-21 -3t-25 -0.5q-35 0 -63.5 17t-44 38.5t-37 52t-37.5 45.5q-94 -12 -167 -33.5t-171 -66.5q-30 -15 -48 -15q-13 0 -23.5 8t-10.5 17z" />
<glyph unicode="&#xeb;" horiz-adv-x="860" d="M102 188q0 70 25 139t73 134t98 117.5t118 113.5q238 213 366 213q63 0 152 -100q50 -46 65 -74.5t15 -54.5q0 -93 -91 -207.5t-207.5 -191t-193.5 -76.5q-34 0 -75.5 18.5t-73.5 52.5q-62 -94 -62 -147q0 -30 18.5 -53t61.5 -23q41 0 107 21q105 38 202.5 85t162.5 86.5 t115.5 74t77.5 54t31 19.5q19 0 19 -20q0 -17 -51 -76t-115 -117q-307 -280 -553 -280q-43 0 -112 55.5t-121 126t-52 110.5zM432 350q17 -26 49 -26q54 0 149 75t166.5 160t71.5 117q0 22 -24 22q-20 0 -43 -14q-103 -70 -200.5 -159t-168.5 -175zM543 1139q0 46 29 80.5 t59.5 48.5t50.5 14q27 0 60.5 -33.5t33.5 -79.5q0 -35 -46.5 -91t-90.5 -56q-28 0 -62 37t-34 80zM870 1139q0 46 29 80.5t60 48.5t51 14q27 0 60.5 -33.5t33.5 -79.5q0 -35 -46.5 -91t-90.5 -56q-28 0 -62.5 37t-34.5 80z" />
<glyph unicode="&#xec;" horiz-adv-x="530" d="M12 119q0 50 53 135.5t128.5 172t158 171t141.5 139t78 68.5q16 12 33 12q15 0 88.5 -67t73.5 -91q0 -16 -14 -30q-326 -315 -427.5 -422t-101.5 -133q0 -13 13 -13q76 0 327 183q14 10 48 38.5t57.5 45t33.5 16.5q13 0 27 -24t14 -35q0 -9 -16 -33q-32 -44 -136 -124.5 t-220 -147t-168 -66.5q-84 0 -137.5 62t-53.5 143zM610 1214q0 30 28.5 57t59.5 27q16 0 24 -9t15 -36.5t15 -63.5t32.5 -104t59.5 -145q4 -8 4 -20q0 -20 -24.5 -37t-49.5 -17q-20 0 -31 11q-44 37 -88.5 152.5t-44.5 184.5z" />
<glyph unicode="&#xed;" horiz-adv-x="530" d="M12 119q0 50 53 135.5t128.5 172t158 171t141.5 139t78 68.5q16 12 33 12q15 0 88.5 -67t73.5 -91q0 -16 -14 -30q-326 -315 -427.5 -422t-101.5 -133q0 -13 13 -13q76 0 327 183q14 10 48 38.5t57.5 45t33.5 16.5q13 0 27 -24t14 -35q0 -9 -16 -33q-32 -44 -136 -124.5 t-220 -147t-168 -66.5q-84 0 -137.5 62t-53.5 143zM709 963q0 28 24 38q127 56 270 141t185 122q20 20 41 20q25 0 37 -30.5t12 -65.5q0 -26 -107.5 -100t-232.5 -137.5t-170 -63.5q-25 0 -42 24.5t-17 51.5z" />
<glyph unicode="&#xee;" horiz-adv-x="530" d="M12 119q0 50 53 135.5t128.5 172t158 171t141.5 139t78 68.5q16 12 33 12q15 0 88.5 -67t73.5 -91q0 -16 -14 -30q-326 -315 -427.5 -422t-101.5 -133q0 -13 13 -13q76 0 327 183q14 10 48 38.5t57.5 45t33.5 16.5q13 0 27 -24t14 -35q0 -9 -16 -33q-32 -44 -136 -124.5 t-220 -147t-168 -66.5q-84 0 -137.5 62t-53.5 143zM344 963q0 12 46 52t112 85t153 79.5t156 34.5q31 0 55 -19.5t62 -76.5q30 -43 60 -100.5t30 -83.5q0 -16 -13 -24.5t-25 -9.5t-34 -1q-35 0 -63.5 17.5t-44 39t-37 52t-37.5 45.5q-93 -12 -166 -34t-172 -67 q-28 -14 -47 -14q-13 0 -24 8t-11 17z" />
<glyph unicode="&#xef;" horiz-adv-x="530" d="M12 119q0 50 53 135.5t128.5 172t158 171t141.5 139t78 68.5q16 12 33 12q15 0 88.5 -67t73.5 -91q0 -16 -14 -30q-326 -315 -427.5 -422t-101.5 -133q0 -13 13 -13q76 0 327 183q14 10 48 38.5t57.5 45t33.5 16.5q13 0 27 -24t14 -35q0 -9 -16 -33q-32 -44 -136 -124.5 t-220 -147t-168 -66.5q-84 0 -137.5 62t-53.5 143zM408 1051q0 46 29 80.5t59.5 48.5t50.5 14q27 0 60.5 -33.5t33.5 -79.5q0 -35 -46.5 -91t-90.5 -56q-28 0 -62 37t-34 80zM735 1051q0 46 29 80.5t59.5 48.5t50.5 14q27 0 61 -33.5t34 -79.5q0 -35 -47 -91t-91 -56 q-28 0 -62 37t-34 80z" />
<glyph unicode="&#xf0;" horiz-adv-x="1044" d="M123 289q0 73 54 157.5t138 157t179 132.5t185 95t148 35q48 0 111 -59q24 128 29 246l-88 -17q-24 -4 -35 -4q-74 0 -74 109q0 20 14.5 30.5t32 12t46.5 2.5t44 4l64 12q-2 83 -12.5 139t-20.5 83t-10 40q0 30 57 76.5t84 46.5q34 0 60.5 -27t41 -69t22 -84t7.5 -80 q0 -51 -2 -76l121 25q3 0 8.5 1t7.5 1q35 0 35 -49q0 -91 -178 -131q-14 -198 -53 -366t-91 -285.5t-118 -210.5t-132 -149.5t-135 -93.5t-123.5 -51t-101.5 -14q-70 0 -104 27q-26 21 -58 54.5t-68.5 80t-60.5 100t-24 99.5zM303 156q0 -21 18 -39.5t37 -18.5 q45 0 134 51.5t143 92.5q172 130 256 387q-122 -32 -261 -118.5t-233 -187t-94 -167.5z" />
<glyph unicode="&#xf1;" horiz-adv-x="1024" d="M-61 123q0 41 43 84q40 40 124.5 123t119.5 118t93.5 96t104 113t94.5 113q10 12 21 12q22 0 57 -47t35 -76q0 -15 -22 -46t-50 -63.5t-33 -41.5q10 2 76 41.5t174 101.5t197 105q12 4 18 4q39 0 105.5 -60.5t66.5 -99.5q0 -17 -18 -35q-25 -23 -98 -87.5t-123.5 -111 t-109.5 -104t-90.5 -99.5t-31.5 -65q0 -32 31 -32q47 0 195 97t260 208q8 8 18 8q19 0 33 -18t14 -39q0 -20 -52 -77t-142 -132q-233 -197 -369 -197q-78 0 -139.5 61.5t-61.5 143.5q0 37 16 76.5t47.5 80.5t56.5 68.5t63 65.5q8 8 8 14q0 4 -6 4q-12 0 -27 -10 q-104 -70 -256 -205.5t-275 -267.5q-15 -21 -28 -21q-5 0 -25 8q-42 24 -78 82t-36 107zM641 975q0 56 74 108t159 52q44 0 92 -26.5t89.5 -52.5t68.5 -26q34 0 66 23.5t43 23.5q31 0 31 -47q0 -53 -51.5 -103t-114.5 -50q-33 0 -130 36.5t-128 36.5q-41 0 -90 -14t-62 -14 q-21 0 -34 14.5t-13 38.5z" />
<glyph unicode="&#xf2;" horiz-adv-x="956" d="M123 289q0 77 53 160t139 154t177 128t184 100q76 35 151 35q41 0 67.5 -17.5t68.5 -66.5q29 -34 47 -72.5t18 -52.5t-37 -14q-13 0 -45 -4q76 -24 76 -156q0 -70 -18 -118q-27 -67 -89 -143.5t-139.5 -142t-169 -108.5t-168.5 -43q-70 0 -104 27q-26 21 -58 54.5 t-68.5 80t-60.5 100t-24 99.5zM303 156q0 -21 18 -39.5t37 -18.5q45 0 134 51.5t143 92.5q63 48 109.5 102t46.5 76q0 9 -9.5 34t-9.5 48q0 21 19 53.5t47 56.5q-119 -42 -244 -125.5t-207.5 -176t-83.5 -154.5zM877 1257q0 30 28.5 57t59.5 27q16 0 24 -9t14.5 -36.5 t15 -63.5t32.5 -104t59 -145q4 -8 4 -20q0 -20 -24.5 -37t-49.5 -17q-19 0 -30 11q-44 37 -88.5 152.5t-44.5 184.5z" />
<glyph unicode="&#xf3;" horiz-adv-x="956" d="M123 289q0 77 53 160t139 154t177 128t184 100q76 35 151 35q41 0 67.5 -17.5t68.5 -66.5q29 -34 47 -72.5t18 -52.5t-37 -14q-13 0 -45 -4q76 -24 76 -156q0 -70 -18 -118q-27 -67 -89 -143.5t-139.5 -142t-169 -108.5t-168.5 -43q-70 0 -104 27q-26 21 -58 54.5 t-68.5 80t-60.5 100t-24 99.5zM303 156q0 -21 18 -39.5t37 -18.5q45 0 134 51.5t143 92.5q63 48 109.5 102t46.5 76q0 9 -9.5 34t-9.5 48q0 21 19 53.5t47 56.5q-119 -42 -244 -125.5t-207.5 -176t-83.5 -154.5zM891 1038q0 29 24 39q127 56 270 140.5t185 121.5 q21 21 41 21q25 0 37 -30.5t12 -65.5q0 -26 -107.5 -100t-232.5 -137.5t-170 -63.5q-25 0 -42 24t-17 51z" />
<glyph unicode="&#xf4;" horiz-adv-x="956" d="M123 289q0 77 53 160t139 154t177 128t184 100q76 35 151 35q41 0 67.5 -17.5t68.5 -66.5q29 -34 47 -72.5t18 -52.5t-37 -14q-13 0 -45 -4q76 -24 76 -156q0 -70 -18 -118q-27 -67 -89 -143.5t-139.5 -142t-169 -108.5t-168.5 -43q-70 0 -104 27q-26 21 -58 54.5 t-68.5 80t-60.5 100t-24 99.5zM303 156q0 -21 18 -39.5t37 -18.5q45 0 134 51.5t143 92.5q63 48 109.5 102t46.5 76q0 9 -9.5 34t-9.5 48q0 21 19 53.5t47 56.5q-119 -42 -244 -125.5t-207.5 -176t-83.5 -154.5zM518 1014q0 12 46 52.5t112 85t153 79.5t156 35q31 0 55 -20 t62 -77q30 -43 60 -100.5t30 -83.5q0 -16 -13 -24.5t-25 -9.5t-34 -1q-35 0 -63.5 17.5t-44 39t-37 52t-37.5 45.5q-94 -12 -167 -33.5t-171 -66.5q-30 -15 -47 -15q-13 0 -24 8t-11 17z" />
<glyph unicode="&#xf5;" horiz-adv-x="956" d="M123 289q0 77 53 160t139 154t177 128t184 100q76 35 151 35q41 0 67.5 -17.5t68.5 -66.5q29 -34 47 -72.5t18 -52.5t-37 -14q-13 0 -45 -4q76 -24 76 -156q0 -70 -18 -118q-27 -67 -89 -143.5t-139.5 -142t-169 -108.5t-168.5 -43q-70 0 -104 27q-26 21 -58 54.5 t-68.5 80t-60.5 100t-24 99.5zM303 156q0 -21 18 -39.5t37 -18.5q45 0 134 51.5t143 92.5q63 48 109.5 102t46.5 76q0 9 -9.5 34t-9.5 48q0 21 19 53.5t47 56.5q-119 -42 -244 -125.5t-207.5 -176t-83.5 -154.5zM608 1057q0 56 74.5 108t159.5 52q44 0 92 -26.5t90 -52.5 t68 -26t47 12t35.5 23.5t25.5 11.5q31 0 31 -47q0 -53 -52 -103.5t-114 -50.5q-33 0 -130 37t-128 37q-41 0 -90 -14t-62 -14q-21 0 -34 14.5t-13 38.5z" />
<glyph unicode="&#xf6;" horiz-adv-x="956" d="M123 289q0 77 53 160t139 154t177 128t184 100q76 35 151 35q41 0 67.5 -17.5t68.5 -66.5q29 -34 47 -72.5t18 -52.5t-37 -14q-13 0 -45 -4q76 -24 76 -156q0 -70 -18 -118q-27 -67 -89 -143.5t-139.5 -142t-169 -108.5t-168.5 -43q-70 0 -104 27q-26 21 -58 54.5 t-68.5 80t-60.5 100t-24 99.5zM303 156q0 -21 18 -39.5t37 -18.5q45 0 134 51.5t143 92.5q63 48 109.5 102t46.5 76q0 9 -9.5 34t-9.5 48q0 21 19 53.5t47 56.5q-119 -42 -244 -125.5t-207.5 -176t-83.5 -154.5zM602 1092q0 46 29 80.5t59.5 48.5t50.5 14q27 0 61 -33.5 t34 -79.5q0 -35 -47 -91t-91 -56q-28 0 -62 37t-34 80zM930 1092q0 46 29 80.5t59.5 48.5t50.5 14q27 0 60.5 -33.5t33.5 -79.5q0 -35 -46.5 -91t-90.5 -56q-28 0 -62 37t-34 80z" />
<glyph unicode="&#xf7;" horiz-adv-x="1036" d="M115 512q0 78 57.5 108.5t163.5 30.5h545q48 0 69 -17.5t21 -55.5q0 -59 -11 -84t-42 -25q-15 0 -48.5 5t-46.5 5q-556 -8 -665 -8q-22 0 -32.5 8t-10.5 33zM348 203q0 46 29 80.5t59.5 48.5t50.5 14q27 0 61 -33.5t34 -79.5q0 -35 -47 -91t-91 -56q-28 0 -62 37t-34 80z M541 897q0 46 29 80.5t59.5 48.5t50.5 14q27 0 60.5 -33t33.5 -79q0 -35 -46.5 -91.5t-90.5 -56.5q-28 0 -62 37t-34 80z" />
<glyph unicode="&#xf8;" horiz-adv-x="956" d="M123 289q0 77 53 160t139 154t177 128t184 100q76 35 151 35q41 0 67.5 -17.5t68.5 -66.5l28 -39q134 99 137 99q7 0 15 -31t8 -51q0 -42 -53 -84l-101 -80q25 -43 25 -113t-18 -118q-27 -67 -89 -143.5t-139.5 -142t-169 -108.5t-168.5 -43q-70 0 -104 27q-28 24 -53 49 q-27 -27 -39 -45q-38 -47 -49 -47q-14 0 -39 31t-25 57q0 12 10 27q6 8 62 69q-78 107 -78 193zM311 201q173 154 514 415q-175 -52 -326 -179t-188 -236zM383 100q68 10 164 63t170 126.5t74 130.5q0 2 -1.5 6t-1.5 6q-259 -203 -405 -332z" />
<glyph unicode="&#xf9;" horiz-adv-x="1089" d="M61 184q0 121 191 322q138 145 410 352q10 10 28 10q30 0 90 -69t60 -88q0 -10 -9 -19q-10 -9 -95.5 -80t-137 -117.5t-122.5 -114.5t-107.5 -119.5t-36.5 -84.5q0 -12 6 -22.5t18 -10.5q42 0 158 101q73 63 137 121.5t133.5 126t108.5 106t125 125t119 119.5 q10 10 32 10q39 0 83.5 -27.5t71 -57.5t26.5 -44q0 -12 -13 -25q-94 -96 -200 -199t-162.5 -157.5t-108 -109t-72 -87.5t-20.5 -59q0 -23 14 -23q43 0 191.5 101t239.5 186q20 17 32 17q11 0 27 -21t16 -41q0 -32 -67 -94q-115 -103 -187.5 -156t-205.5 -123 q-37 -16 -72 -16q-60 0 -120.5 66.5t-61.5 138.5l-131 -98q-106 -82 -197 -82q-53 0 -82 25.5t-59 82.5q-50 94 -50 135zM911 1284q0 30 28.5 57t59.5 27q16 0 24 -9t15 -36.5t15 -63.5t32.5 -104t59.5 -145q4 -8 4 -21q0 -20 -24 -36.5t-50 -16.5q-21 0 -31 10 q-44 37 -88.5 153t-44.5 185z" />
<glyph unicode="&#xfa;" horiz-adv-x="1089" d="M61 184q0 121 191 322q138 145 410 352q10 10 28 10q30 0 90 -69t60 -88q0 -10 -9 -19q-10 -9 -95.5 -80t-137 -117.5t-122.5 -114.5t-107.5 -119.5t-36.5 -84.5q0 -12 6 -22.5t18 -10.5q42 0 158 101q73 63 137 121.5t133.5 126t108.5 106t125 125t119 119.5 q10 10 32 10q39 0 83.5 -27.5t71 -57.5t26.5 -44q0 -12 -13 -25q-94 -96 -200 -199t-162.5 -157.5t-108 -109t-72 -87.5t-20.5 -59q0 -23 14 -23q43 0 191.5 101t239.5 186q20 17 32 17q11 0 27 -21t16 -41q0 -32 -67 -94q-115 -103 -187.5 -156t-205.5 -123 q-37 -16 -72 -16q-60 0 -120.5 66.5t-61.5 138.5l-131 -98q-106 -82 -197 -82q-53 0 -82 25.5t-59 82.5q-50 94 -50 135zM903 1018q0 29 25 39q127 56 269.5 140.5t184.5 121.5q20 20 41 20q25 0 37.5 -30.5t12.5 -65.5q0 -26 -107.5 -100t-232.5 -137.5t-170 -63.5 q-25 0 -42.5 24.5t-17.5 51.5z" />
<glyph unicode="&#xfb;" horiz-adv-x="1089" d="M61 184q0 121 191 322q138 145 410 352q10 10 28 10q30 0 90 -69t60 -88q0 -10 -9 -19q-10 -9 -95.5 -80t-137 -117.5t-122.5 -114.5t-107.5 -119.5t-36.5 -84.5q0 -12 6 -22.5t18 -10.5q42 0 158 101q73 63 137 121.5t133.5 126t108.5 106t125 125t119 119.5 q10 10 32 10q39 0 83.5 -27.5t71 -57.5t26.5 -44q0 -12 -13 -25q-94 -96 -200 -199t-162.5 -157.5t-108 -109t-72 -87.5t-20.5 -59q0 -23 14 -23q43 0 191.5 101t239.5 186q20 17 32 17q11 0 27 -21t16 -41q0 -32 -67 -94q-115 -103 -187.5 -156t-205.5 -123 q-37 -16 -72 -16q-60 0 -120.5 66.5t-61.5 138.5l-131 -98q-106 -82 -197 -82q-53 0 -82 25.5t-59 82.5q-50 94 -50 135zM688 1038q0 12 46 52.5t112 85t153 79.5t156 35q31 0 55 -19.5t62 -76.5q30 -43 60 -100.5t30 -83.5q0 -16 -13 -24.5t-25 -9.5t-34 -1q-35 0 -63.5 17 t-44 38.5t-37 52t-37.5 45.5q-94 -12 -167 -33.5t-171 -66.5q-28 -14 -47 -14q-13 0 -24 7.5t-11 16.5z" />
<glyph unicode="&#xfc;" horiz-adv-x="1089" d="M61 184q0 121 191 322q138 145 410 352q10 10 28 10q30 0 90 -69t60 -88q0 -10 -9 -19q-10 -9 -95.5 -80t-137 -117.5t-122.5 -114.5t-107.5 -119.5t-36.5 -84.5q0 -12 6 -22.5t18 -10.5q42 0 158 101q73 63 137 121.5t133.5 126t108.5 106t125 125t119 119.5 q10 10 32 10q39 0 83.5 -27.5t71 -57.5t26.5 -44q0 -12 -13 -25q-94 -96 -200 -199t-162.5 -157.5t-108 -109t-72 -87.5t-20.5 -59q0 -23 14 -23q43 0 191.5 101t239.5 186q20 17 32 17q11 0 27 -21t16 -41q0 -32 -67 -94q-115 -103 -187.5 -156t-205.5 -123 q-37 -16 -72 -16q-60 0 -120.5 66.5t-61.5 138.5l-131 -98q-106 -82 -197 -82q-53 0 -82 25.5t-59 82.5q-50 94 -50 135zM780 1067q0 46 29 80.5t60 48.5t51 14q27 0 60.5 -33t33.5 -79q0 -35 -46.5 -91.5t-90.5 -56.5q-28 0 -62.5 37t-34.5 80zM1108 1067q0 46 29 80.5 t59.5 48.5t50.5 14q27 0 60.5 -33t33.5 -79q0 -35 -46.5 -91.5t-90.5 -56.5q-28 0 -62 37t-34 80z" />
<glyph unicode="&#xfd;" horiz-adv-x="1171" d="M-23 -647q0 44 16.5 90.5t49 95t60.5 83t71 83.5q131 150 377 393q10 10 10 19q0 6 -4 6q-6 0 -14 -8q-119 -99 -196 -150t-98 -58t-42 -7q-35 0 -63.5 23.5t-63.5 90.5q-15 30 -27 71.5t-12 66.5q0 31 9 63t22 61t39.5 64.5t48.5 61.5t64 66t70 65t82.5 70t86.5 70 t96 76t98 78q11 7 25 7q60 0 124 -60t64 -90q0 -9 -8 -12q-379 -294 -590 -525q-12 -15 -12 -28q0 -12 8 -20.5t21 -8.5q11 0 24 8q73 43 162.5 109t154.5 118.5t239.5 198t287.5 238.5q33 26 62 26q38 0 95.5 -47.5t57.5 -103.5q0 -11 -26 -38.5t-83 -80t-89 -84.5 q-572 -572 -992 -1179q-4 -6 -22 -37.5t-30.5 -48.5t-20.5 -17q-10 0 -31 15.5t-44 40.5t-40 64.5t-17 80.5zM991 1024q0 29 25 39q127 56 269.5 140.5t184.5 121.5q21 21 41 21q25 0 37.5 -31t12.5 -66q0 -26 -107.5 -100t-232.5 -137.5t-170 -63.5q-25 0 -42.5 24.5 t-17.5 51.5z" />
<glyph unicode="&#xfe;" horiz-adv-x="1028" d="M-512 -481q0 108 223 366q417 478 723 789q237 241 442 432t422 362q15 11 35 11q24 0 72.5 -48.5t48.5 -82.5q0 -17 -8 -25q-218 -189 -590 -557q24 6 47 6q50 0 94.5 -26.5t72.5 -65.5t44 -81.5t16 -76.5q0 -55 -73 -158.5t-173.5 -202.5t-213.5 -173t-185 -74 q-66 0 -129.5 55t-95.5 125q-35 -40 -125 -142.5t-135.5 -155t-118.5 -140t-113 -142.5t-78 -116t-52 -103q0 -4 -11 -4q-10 0 -30 13q-109 95 -109 215zM340 162q0 -13 5.5 -19t23.5 -6q55 0 129.5 39.5t144 99t130 124.5t97.5 122.5t37 85.5q0 15 -12 31t-35 16 q-62 0 -190 -108t-229 -228t-101 -157z" />
<glyph unicode="&#xff;" horiz-adv-x="1171" d="M-23 -647q0 44 16.5 90.5t49 95t60.5 83t71 83.5q131 150 377 393q10 10 10 19q0 6 -4 6q-6 0 -14 -8q-119 -99 -196 -150t-98 -58t-42 -7q-35 0 -63.5 23.5t-63.5 90.5q-15 30 -27 71.5t-12 66.5q0 31 9 63t22 61t39.5 64.5t48.5 61.5t64 66t70 65t82.5 70t86.5 70 t96 76t98 78q11 7 25 7q60 0 124 -60t64 -90q0 -9 -8 -12q-379 -294 -590 -525q-12 -15 -12 -28q0 -12 8 -20.5t21 -8.5q11 0 24 8q73 43 162.5 109t154.5 118.5t239.5 198t287.5 238.5q33 26 62 26q38 0 95.5 -47.5t57.5 -103.5q0 -11 -26 -38.5t-83 -80t-89 -84.5 q-572 -572 -992 -1179q-4 -6 -22 -37.5t-30.5 -48.5t-20.5 -17q-10 0 -31 15.5t-44 40.5t-40 64.5t-17 80.5zM799 1063q0 46 29 80.5t59.5 48.5t50.5 14q27 0 60.5 -33t33.5 -79q0 -35 -46.5 -91.5t-90.5 -56.5q-28 0 -62 37t-34 80zM1126 1063q0 46 29 80.5t60 48.5t51 14 q27 0 60.5 -33t33.5 -79q0 -35 -46.5 -91.5t-90.5 -56.5q-28 0 -62.5 37t-34.5 80z" />
<glyph unicode="&#x152;" horiz-adv-x="3012" d="M254 375q0 128 46.5 268t124 264t176 243t204.5 213.5t207 167t187.5 111.5t141.5 39q41 0 84 -34q40 -33 148 -111q192 92 325 92q77 0 136 -39t137 -121q91 -95 127 -168q53 195 418 256q258 43 598 43q251 0 336 -51q40 -24 60.5 -73t20.5 -107q0 -65 -13 -94.5 t-52 -44.5q-242 -96 -319.5 -124t-112.5 -28q-14 0 -37 41.5t-23 71.5q0 37 96 94t128 57q4 0 4 -8q-2 -10 -2 -20q0 -19 12 -19q14 0 54 40t40 57q0 32 -47 32q-46 0 -168 -16.5t-277 -47t-299 -68t-242.5 -85t-98.5 -92.5q0 -28 37.5 -50t104.5 -36t143 -23.5t170.5 -14 t168.5 -6t154 -1.5q88 0 88 -33q0 -54 -51 -174q-10 -25 -16.5 -37.5t-18 -23t-27.5 -10.5q-30 0 -89 2t-87 2q-213 0 -404.5 -26t-331.5 -69.5t-253.5 -97.5t-183 -111.5t-106 -110t-36.5 -95.5q0 -48 32.5 -79.5t94.5 -31.5q170 0 608.5 115t639.5 190q38 14 119.5 45 t127 47.5t52.5 16.5q12 0 12 -21q0 -29 -54.5 -76t-107 -79.5t-108.5 -63.5q-392 -219 -660 -310t-471 -91q-22 0 -133 12q-141 19 -244 193q-187 -137 -363.5 -215t-318.5 -78q-84 0 -182.5 66t-179.5 161q-23 22 -68.5 60.5t-69.5 63t-53 63t-42 84.5t-13 104zM522 252 q0 -97 51 -143t158 -46q165 0 348.5 84t364.5 228v2q0 51 26 108q-61 -10 -163 -10q-62 0 -120.5 65.5t-93 166t-34.5 200.5q0 119 67 234.5t181 216.5q-209 -134 -390 -330.5t-288 -404.5t-107 -371zM1210 791q0 -42 12 -70.5t36.5 -44.5t48 -23.5t61.5 -13.5 q77 -12 154 -12q46 0 69 2q97 79 250 149q116 150 183 288.5t67 233.5q0 136 -178 136q-117 0 -209 -43q-61 -28 -144 -94.5t-162 -150.5t-133.5 -182t-54.5 -175zM2275 922q9 2 37.5 9t44.5 9q-34 31 -49 78q-5 -18 -33 -96z" />
<glyph unicode="&#x153;" horiz-adv-x="1439" d="M123 289q0 77 53 160t139 154t177 128t184 100q76 35 151 35q41 0 67.5 -17.5t68.5 -66.5q33 -45 49 -75q225 198 350 198q62 0 151 -100q50 -46 65 -74.5t15 -54.5q0 -70 -55 -156.5t-132.5 -155.5t-162 -116t-141.5 -47q-34 0 -76 18.5t-74 52.5q-61 -92 -61 -147 q0 -30 18.5 -53t61.5 -23q40 0 106 21q105 38 202.5 85t163 86.5t116 74t77.5 54t31 19.5q19 0 19 -20q0 -17 -51 -76t-115 -117q-307 -280 -553 -280q-41 0 -103.5 48.5t-115.5 114.5q-169 -131 -310 -131q-70 0 -104 27q-26 21 -58 54.5t-68.5 80t-60.5 100t-24 99.5z M303 156q0 -21 18 -39.5t37 -18.5q45 0 134 51.5t143 92.5q33 23 61 51q22 79 82 166q-6 18 -6 43q0 21 19 53.5t47 56.5q-119 -42 -244 -125.5t-207.5 -176t-83.5 -154.5zM1012 350q17 -26 49 -26q54 0 149 75t166.5 160t71.5 117q0 22 -25 22q-20 0 -43 -14 q-102 -70 -199.5 -158.5t-168.5 -175.5z" />
<glyph unicode="&#x178;" horiz-adv-x="1437" d="M49 442q0 113 205 283q232 196 492.5 398t356 281.5t95.5 111.5q0 16 -20 16q-124 0 -317.5 -81t-376 -203t-287.5 -240q-7 -9 -19.5 -26t-20 -24.5t-14.5 -7.5q-5 0 -16 12.5t-21 35t-10 42.5q0 30 74 110.5t197.5 180.5t263.5 193.5t292.5 157t264.5 63.5 q39 0 102.5 -54.5t112.5 -126.5t49 -116q0 -90 -109 -203q-129 -130 -279.5 -260.5t-343.5 -288.5t-294 -245q-27 -24 -52.5 -56t-25.5 -53q0 -16 23 -16q63 0 382.5 211.5t557.5 396.5q88 69 179.5 144.5t196 167t173 152t193.5 173.5t175 158q11 8 27 8q24 0 91.5 -44 t126 -100t58.5 -84q0 -10 -73.5 -71t-219.5 -184t-325 -284t-429 -414t-493 -531q-40 -46 -72 -83t-124.5 -151t-157 -202t-125.5 -190t-74 -161q-6 -24 -14 -24q-31 0 -81.5 47t-90 115.5t-39.5 119.5q0 72 48.5 167t121 185t180 202t201 199.5t209.5 198t182 177.5 q-382 -293 -579 -402.5t-293 -109.5q-60 0 -95 26q-36 27 -87.5 133.5t-51.5 169.5zM1489 1855q0 46 29 81t59.5 49t50.5 14q27 0 60.5 -33.5t33.5 -79.5q0 -35 -46.5 -91t-90.5 -56q-28 0 -62 36.5t-34 79.5zM1817 1855q0 46 29 81t59.5 49t50.5 14q27 0 60.5 -33.5 t33.5 -79.5q0 -35 -46.5 -91t-90.5 -56q-28 0 -62 36.5t-34 79.5z" />
<glyph unicode="&#x2c6;" horiz-adv-x="706" d="M567 1200q0 12 46 52.5t112 85t153 79.5t156 35q31 0 55 -19.5t62 -76.5q30 -42 60 -100.5t30 -84.5q0 -12 -6 -20t-19.5 -10.5t-21.5 -3t-25 -0.5q-35 0 -63.5 17t-44 38.5t-37 52t-37.5 45.5q-94 -12 -167 -33.5t-171 -66.5q-28 -14 -47 -14q-13 0 -24 7.5t-11 16.5z " />
<glyph unicode="&#x2dc;" horiz-adv-x="751" d="M461 1212q0 56 74 108t159 52q43 0 91.5 -26t90.5 -52t68 -26q34 0 66 23.5t43 23.5q30 0 30 -47q0 -53 -51.5 -103.5t-113.5 -50.5q-33 0 -130.5 37t-128.5 37q-41 0 -89.5 -14.5t-61.5 -14.5q-21 0 -34 14.5t-13 38.5z" />
<glyph unicode="&#x2000;" horiz-adv-x="1083" />
<glyph unicode="&#x2001;" horiz-adv-x="2167" />
<glyph unicode="&#x2002;" horiz-adv-x="1083" />
<glyph unicode="&#x2003;" horiz-adv-x="2167" />
<glyph unicode="&#x2004;" horiz-adv-x="722" />
<glyph unicode="&#x2005;" horiz-adv-x="541" />
<glyph unicode="&#x2006;" horiz-adv-x="361" />
<glyph unicode="&#x2007;" horiz-adv-x="361" />
<glyph unicode="&#x2008;" horiz-adv-x="270" />
<glyph unicode="&#x2009;" horiz-adv-x="433" />
<glyph unicode="&#x200a;" horiz-adv-x="120" />
<glyph unicode="&#x2010;" horiz-adv-x="790" d="M115 287q0 18 19 58t36 48q65 33 227 33h238q48 0 69 -18t21 -56q0 -58 -11 -83t-42 -25q-15 0 -48 5t-46 5q-45 -1 -192 -4.5t-228 -3.5q-22 0 -32.5 8t-10.5 33z" />
<glyph unicode="&#x2011;" horiz-adv-x="790" d="M115 287q0 18 19 58t36 48q65 33 227 33h238q48 0 69 -18t21 -56q0 -58 -11 -83t-42 -25q-15 0 -48 5t-46 5q-45 -1 -192 -4.5t-228 -3.5q-22 0 -32.5 8t-10.5 33z" />
<glyph unicode="&#x2012;" horiz-adv-x="790" d="M115 287q0 18 19 58t36 48q65 33 227 33h238q48 0 69 -18t21 -56q0 -58 -11 -83t-42 -25q-15 0 -48 5t-46 5q-45 -1 -192 -4.5t-228 -3.5q-22 0 -32.5 8t-10.5 33z" />
<glyph unicode="&#x2013;" horiz-adv-x="1159" d="M115 287q0 18 19 58t36 48q65 33 227 33h607q48 0 69 -18t21 -56q0 -58 -11.5 -83t-42.5 -25q-15 0 -48 5t-46 5q-556 -8 -788 -8q-22 0 -32.5 8t-10.5 33z" />
<glyph unicode="&#x2014;" horiz-adv-x="1650" d="M115 287q0 18 19 58t36 48q65 33 227 33h1098q48 0 69 -18t21 -56q0 -58 -11 -83t-42 -25q-15 0 -48 5t-46 5q-100 -1 -634.5 -4.5t-645.5 -3.5q-22 0 -32.5 8t-10.5 33z" />
<glyph unicode="&#x2018;" horiz-adv-x="526" d="M561 1333q0 4 0.5 7t2.5 8t5 10t9.5 15t13.5 21t19.5 30.5t26.5 40.5t34.5 53.5t42.5 68.5q91 142 135 142q25 0 48.5 -24.5t23.5 -51.5q0 -42 -68 -140l-147 -213q-41 -57 -70 -57q-27 0 -51.5 33.5t-24.5 56.5z" />
<glyph unicode="&#x2019;" horiz-adv-x="526" d="M561 1333q0 4 0.5 7t2.5 8t5 10t9.5 15t13.5 21t19.5 30.5t26.5 40.5t34.5 53.5t42.5 68.5q91 142 135 142q25 0 48.5 -24.5t23.5 -51.5q0 -42 -68 -140l-147 -213q-41 -57 -70 -57q-27 0 -51.5 33.5t-24.5 56.5z" />
<glyph unicode="&#x201a;" horiz-adv-x="468" d="M31 -100q0 4 0.5 7t2.5 8t5 10l9 15t13 21t19.5 30.5t26.5 40.5t34.5 54t42.5 68q90 141 135 141q25 0 48.5 -24.5t23.5 -51.5q0 -42 -67 -139l-148 -213q-41 -57 -70 -57q-27 0 -51 33t-24 57z" />
<glyph unicode="&#x201c;" horiz-adv-x="772" d="M561 1333q0 4 0.5 7t2.5 8t5 10t9.5 15t13.5 21t19.5 30.5t26.5 40.5t34.5 53.5t42.5 68.5q91 142 135 142q25 0 48.5 -24.5t23.5 -51.5q0 -42 -68 -140l-147 -213q-41 -57 -70 -57q-27 0 -51.5 33.5t-24.5 56.5zM807 1290q0 4 0.5 7t2.5 8t5 10t9.5 15t13.5 21 t19.5 30.5t26.5 40.5t34.5 53.5t42.5 68.5q91 142 135 142q25 0 48 -24.5t23 -51.5q0 -43 -67 -140l-148 -213q-41 -57 -69 -57q-27 0 -51.5 33.5t-24.5 56.5z" />
<glyph unicode="&#x201d;" horiz-adv-x="772" d="M561 1319q0 41 68 139l147 213q41 58 70 58q27 0 51.5 -33.5t24.5 -57.5q0 -4 -0.5 -7t-2.5 -8t-5 -10t-9.5 -15t-13.5 -21t-19.5 -30.5t-26.5 -40.5t-34.5 -53.5t-42.5 -68.5q-90 -141 -135 -141q-25 0 -48.5 24.5t-23.5 51.5zM807 1276q0 42 67 139l148 213 q41 58 70 58q27 0 51 -33.5t24 -57.5q0 -4 -0.5 -7t-2.5 -8t-5 -10l-9 -15t-13 -21t-19.5 -30.5t-26.5 -40.5t-34.5 -54t-42.5 -68q-90 -141 -135 -141q-25 0 -48.5 24.5t-23.5 51.5z" />
<glyph unicode="&#x201e;" horiz-adv-x="714" d="M31 -100q0 4 0.5 7t2.5 8t5 10l9 15t13 21t19.5 30.5t26.5 40.5t34.5 54t42.5 68q90 141 135 141q25 0 48.5 -24.5t23.5 -51.5q0 -42 -67 -139l-148 -213q-41 -57 -70 -57q-27 0 -51 33t-24 57zM276 -143q0 4 0.5 7t2.5 8t5 10t9.5 15t13.5 21t19.5 30.5t26.5 40.5 t34.5 53.5t42.5 68.5q90 141 135 141q25 0 48.5 -24.5t23.5 -51.5q0 -41 -68 -139l-147 -213q-41 -57 -70 -57q-27 0 -51.5 33.5t-24.5 56.5z" />
<glyph unicode="&#x2022;" horiz-adv-x="864" d="M215 510q0 120 84.5 204.5t204.5 84.5t204.5 -84.5t84.5 -204.5t-84.5 -204.5t-204.5 -84.5t-204.5 84.5t-84.5 204.5z" />
<glyph unicode="&#x2026;" horiz-adv-x="1695" d="M174 82q0 52 36 88.5t89 36.5t89 -36.5t36 -88.5t-36 -88.5t-89 -36.5t-89 36.5t-36 88.5zM739 82q0 52 36.5 88.5t88.5 36.5t88.5 -36.5t36.5 -88.5t-36.5 -88.5t-88.5 -36.5t-88.5 36.5t-36.5 88.5zM1305 82q0 52 36.5 88.5t88.5 36.5t88 -36t36 -89t-36 -89t-88 -36 t-88.5 36.5t-36.5 88.5z" />
<glyph unicode="&#x202f;" horiz-adv-x="433" />
<glyph unicode="&#x2039;" horiz-adv-x="839" d="M254 303q0 41 160.5 136.5t345 173t250.5 77.5q12 0 23 -11.5t11 -23.5q0 -32 -27 -56t-102 -56q-72 -31 -161.5 -89.5t-149 -110t-59.5 -67.5q0 -23 56 -76t112 -98q6 -5 14.5 -11.5t12.5 -9.5t8.5 -7.5t6.5 -8t3.5 -8t1.5 -10.5q0 -9 -55 -41q-16 -8 -31 -8 q-31 0 -191 94q-95 56 -162 117.5t-67 93.5z" />
<glyph unicode="&#x203a;" horiz-adv-x="839" d="M70 33q0 32 27 56t102 56q72 31 161.5 89.5t149 110t59.5 67.5q0 23 -56 76t-112 98q-6 5 -14.5 11.5t-12.5 9.5t-8.5 7.5t-6.5 8t-3.5 8t-1.5 10.5q0 9 56 41q16 8 30 8q31 0 191 -94q95 -56 162 -117.5t67 -93.5q0 -41 -160.5 -136.5t-345 -173t-250.5 -77.5 q-12 0 -23 11.5t-11 23.5z" />
<glyph unicode="&#x205f;" horiz-adv-x="541" />
<glyph unicode="&#x20ac;" horiz-adv-x="1662" d="M328 543q0 92 270 92h29q46 97 108 182h-241q-20 0 -29 1t-17 7.5t-8 20.5q0 88 271 88h118q206 234 482.5 400.5t443.5 166.5q80 0 143 -26t100.5 -69.5t57 -96t19.5 -109.5q0 -100 -57 -173t-150 -73q-46 0 -77.5 21.5t-31.5 58.5t16.5 59.5t40 33.5l47 22t40 34.5 t16.5 61.5q0 23 -9.5 34t-37.5 11q-99 0 -273 -102t-333 -254h293q59 0 83.5 -11t24.5 -38q0 -39 -12.5 -55.5t-50.5 -16.5q-18 0 -58 4t-57 4q-189 0 -332 -2q-78 -91 -135 -184h424q59 0 83.5 -12t24.5 -37q0 -40 -12.5 -57t-50.5 -17q-17 0 -58 4t-57 4q-23 0 -165.5 -1 t-243.5 -1q-27 -83 -27 -143q0 -97 63 -141t162 -44q65 0 148.5 25.5t245.5 99.5q26 11 38 11q25 0 25 -27q0 -41 -72 -99.5t-176.5 -110t-233.5 -88t-231 -36.5q-52 0 -112 27.5t-114 75t-90 122t-36 158.5q0 79 25 168h-201q-20 0 -28.5 1t-16.5 7t-8 19z" />
<glyph unicode="&#x2122;" horiz-adv-x="2015" d="M367 1587q0 26 20.5 42t44.5 16q42 0 185.5 -3.5t244.5 -3.5q121 0 236 4t195 10t141.5 11.5t97 9.5t39.5 4q11 0 35 -20q3 -3 38 -30t60 -50.5t25 -34.5q0 -18 -59.5 -31t-149.5 -18t-148.5 -6.5t-101.5 -1.5h-66q6 -6 6 -12q0 -8 -27 -35.5t-118 -112.5 q-244 -233 -354 -385q-18 -25 -32 -49t-20 -38t-11.5 -24.5t-10 -15t-12.5 -4.5q-28 0 -70.5 61t-42.5 84q0 13 9 31.5t29 44.5t36 46t48 53t47 48l49.5 49.5l39.5 39.5q181 181 244 223l-78 4q-60 -49 -191 -76.5t-243 -27.5q-29 0 -41 2q-31 2 -52 28.5t-29 65.5t-10.5 62 t-2.5 40zM446 1499q0 -12 64 -12q164 0 250 14q-212 8 -256 8q-58 0 -58 -10zM883 870q0 34 18.5 70.5t47.5 67.5t64.5 60.5t71 52t66 40t49.5 26.5t21 9q9 0 20.5 -10.5t11.5 -20.5q0 -11 -72 -68.5t-144 -122t-72 -93.5q0 -9 4 -9q53 0 345 234.5t529 464.5q12 12 31 12 q31 0 81 -29.5t50 -62.5q0 -14 -14 -35q-77 -85 -174 -193.5t-123 -136.5q40 36 89 77t85 69.5t96 75.5t90 71q14 11 86 71.5t120 94t73 33.5q21 0 72 -32t51 -48q0 -11 -11 -22q-296 -291 -415 -424.5t-119 -169.5q18 3 80.5 46.5t103.5 84.5q6 6 16 6t21.5 -13.5 t11.5 -25.5q0 -14 -47.5 -59t-109.5 -86t-95 -41q-42 0 -73 33.5t-31 82.5q0 82 119 217q-98 -72 -181.5 -142t-132 -116.5t-84.5 -83.5t-53.5 -54t-23.5 -17q-24 0 -59.5 53t-35.5 76q0 19 47 76t114.5 132.5t96.5 118.5q-213 -194 -306 -275t-175 -142q-68 -50 -115 -50 q-38 0 -77 43.5t-39 83.5z" />
<glyph unicode="&#x25fc;" horiz-adv-x="962" d="M0 0v963h963v-963h-963z" />
</font>
</defs>
</svg>
