<?xml version="1.0" standalone="no"?>
<!DOCTYPE svg PUBLIC "-//W3C//DTD SVG 1.1//EN" "http://www.w3.org/Graphics/SVG/1.1/DTD/svg11.dtd">
	<svg version="1.0" xmlns="http://www.w3.org/2000/svg" width="100pt" height="96pt" viewBox="0 0 100.000000 96.000000" preserveAspectRatio="xMidYMid meet">
		<g transform="translate(0.000000,96.000000) scale(0.030000,-0.030000)" fill="none" stroke="#000000" stroke-width="100">
			<path d="M2650 2910 c-88 -30 -141 -95 -248 -307 -112 -219 -174 -322 -261
			-432 -36 -47 -72 -93 -78 -102 -12 -16 -4 -17 115 -18 76 0 157 -6 202 -15
			186 -39 372 -123 466 -209 30 -27 56 -48 58 -46 9 9 -18 230 -51 419 -19 113
			-35 235 -36 272 -1 60 2 72 29 110 37 54 123 101 224 124 l75 17 -106 51 c-71
			34 -116 62 -135 85 -57 69 -150 87 -254 51z"/>
			<path d="M2001 1963 c-37 -4 -55 -14 -125 -76 -94 -84 -235 -192 -391 -299
			-124 -85 -377 -244 -443 -277 -42 -22 -44 -24 -37 -58 21 -115 100 -237 244
			-381 l83 -82 -60 0 c-54 0 -65 4 -97 31 -97 86 -234 294 -250 381 l-7 37 -37
			-19 c-65 -34 -63 -31 -41 -95 27 -79 95 -186 170 -268 l62 -67 -60 0 c-59 0
			-61 1 -104 48 -50 56 -119 174 -145 247 -10 28 -18 51 -19 53 -1 2 -81 -35
			-177 -82 -156 -76 -390 -182 -440 -199 -24 -9 -18 -25 16 -51 19 -14 48 -21
			93 -24 l66 -4 -54 -31 c-175 -100 -250 -205 -186 -264 46 -41 88 -55 152 -51
			84 6 148 40 307 164 172 133 237 171 306 180 96 12 351 -22 434 -57 101 -44
			169 -162 169 -295 l0 -61 -62 -23 c-90 -32 -95 -42 -18 -34 36 3 108 1 160 -5
			155 -19 152 -17 70 -57 -40 -19 -71 -36 -69 -39 3 -2 25 1 49 7 88 20 282 -16
			433 -81 26 -11 47 -17 47 -13 0 8 -87 63 -132 83 -34 15 -37 31 -5 25 12 -3
			49 -8 82 -11 33 -3 69 -9 80 -12 14 -3 17 -2 10 5 -17 18 -143 51 -236 63 -51
			7 -97 18 -105 26 -23 23 -17 43 14 44 l27 1 -32 10 c-30 10 -32 15 -44 79
			l-12 68 39 48 c121 151 246 238 449 313 172 65 306 134 412 214 187 141 259
			246 299 440 23 106 8 154 -70 232 -98 97 -261 175 -436 208 -77 15 -262 19
			-379 9z m-391 -1281 c0 -21 -5 -64 -11 -95 -8 -47 -7 -62 5 -85 9 -15 22 -51
			30 -79 l15 -53 -68 0 c-80 0 -87 5 -103 82 -10 50 -9 58 14 109 14 29 29 65
			33 79 17 55 35 80 60 80 22 0 25 -4 25 -38z"/>
		</g>
	</svg>