<?xml version="1.0" encoding="UTF-8" standalone="no"?>
<!-- Created with Inkscape (http://www.inkscape.org/) -->

<svg
   xmlns:dc="http://purl.org/dc/elements/1.1/"
   xmlns:cc="http://creativecommons.org/ns#"
   xmlns:rdf="http://www.w3.org/1999/02/22-rdf-syntax-ns#"
   xmlns:svg="http://www.w3.org/2000/svg"
   xmlns="http://www.w3.org/2000/svg"
   xmlns:inkscape="http://www.inkscape.org/namespaces/inkscape"
   version="1.1"
   width="656.01251"
   height="406.85001"
   id="svg2"
   xml:space="preserve"><metadata
     id="metadata8"><rdf:RDF><cc:Work
         rdf:about=""><dc:format>image/svg+xml</dc:format><dc:type
           rdf:resource="http://purl.org/dc/dcmitype/StillImage" /></cc:Work></rdf:RDF></metadata><defs
     id="defs6"><clipPath
       id="clipPath18"><path
         d="m 0,0 5248,0 0,3254.83 -5248,0 L 0,0 z"
         inkscape:connector-curvature="0"
         id="path20" /></clipPath></defs><g
     transform="matrix(1.25,0,0,-1.25,0,406.85)"
     id="g10"><g
       transform="scale(0.1,0.1)"
       id="g12"><g
         id="g14"><g
           clip-path="url(#clipPath18)"
           id="g16"><path
             d="m 784.055,1172.11 c -60.598,-108.6 -114.598,-192.001 -160.2,-287.391 -4.199,-14.399 -5.394,-27.598 -15.593,-27.598 -8.403,0 -37.797,8.399 -37.797,31.199 0,7.192 2.996,17.399 16.195,43.2 24.602,46.8 84,148.79 131.996,226.19 -70.199,-16.2 -101.996,-25.8 -110.996,-25.8 -8.398,0 -12,7.79 -12,20.4 -1.797,3 -1.797,7.2 -1.797,9.6 0,13.8 13.199,21 31.797,26.4 57.598,19.79 206.391,42 240.59,42 23.398,0 32.996,-10.21 32.996,-25.8 0,-15.61 -10.199,-13.21 -23.996,-14.41 l -91.195,-17.99"
             inkscape:connector-curvature="0"
             id="path22"
             style="fill:#ffffff;fill-opacity:1;fill-rule:nonzero;stroke:none" /><path
             d="m 868.621,1065.31 c -32.996,0 -120.594,-82.79 -120.594,-127.189 0,-8.41 4.2,-15 13.797,-15 26.403,0 99.598,88.189 120.598,121.789 -0.602,13.2 -3.598,20.4 -13.801,20.4 z M 752.828,869.719 c -20.402,0 -50.996,39 -50.996,64.801 0,68.4 119.988,187.18 185.988,187.18 27.602,0 42.602,-26.99 42.602,-61.79 0,-3.6 0,-7.79 -0.602,-11.99 4.2,-2.41 10.2,-7.21 10.2,-12.01 0,-4.2 -12.602,-12.59 -31.801,-38.39 -13.801,-18.61 -26.996,-40.2 -26.996,-61.801 0,-8.399 3.597,-16.797 13.195,-16.797 21.004,0 50.402,28.789 74.398,57.598 16.2,19.199 22.2,27.6 28.2,27.6 8.404,0 12.594,-7.21 12.594,-18.608 0,-8.992 -20.391,-34.793 -40.192,-57 -16.801,-19.793 -51,-58.793 -87.598,-58.793 -25.199,0 -42.597,25.793 -42.597,52.801 0,2.992 0.601,7.191 1.203,10.199 -16.203,-21.008 -52.199,-63 -87.598,-63"
             inkscape:connector-curvature="0"
             id="path24"
             style="fill:#ffffff;fill-opacity:1;fill-rule:nonzero;stroke:none" /><path
             d="m 1078.57,1070.71 -8.39,-12 c -23.4,-33 -58.2,-93.601 -58.2,-121.788 0,-12 4.2,-18 13.8,-18 22.19,0 47.99,24 68.39,42.598 28.8,25.789 46.2,63.59 79.8,112.19 -30.6,-1.19 -63.59,-1.19 -95.4,-3 z m 75.6,-133.788 c 0,-12 4.2,-18 13.8,-18 22.2,0 48,24 68.4,42.598 24,21 36.6,42.6 45,42.6 9.6,0 12.59,-9.6 12.59,-18.011 0,-9.589 -16.79,-31.187 -38.39,-55.199 -21.6,-23.39 -59.4,-61.191 -92.4,-61.191 -27.6,0 -50.4,24 -55.2,55.793 -22.19,-23.391 -56.39,-55.793 -86.99,-55.793 -41.402,0 -55.8,31.801 -55.8,64.801 0,21.601 5.996,43.191 15,56.992 l 47.4,74.998 c -13.8,-1.2 -28.201,-3.6 -43.803,-3.6 -7.199,0 -28.195,15.6 -28.195,28.8 0,14.4 32.996,22.8 62.398,25.2 15.6,1.2 30.59,1.8 46.19,2.4 31.8,41.99 54,58.79 65.41,58.79 8.99,0 18.59,-7.2 18.59,-11.99 0,-3 -14.4,-22.8 -31.2,-45 l 34.2,0 c 19.2,0 38.4,-0.61 57,-0.61 35.4,47.41 58.2,71.41 73.2,71.41 9,0 18,-7.21 18,-12 0,-3 -20.41,-30.6 -41.4,-59.41 l 24,0 c 15.59,0 35.39,-13.8 35.39,-30.59 0,-7.8 -6.59,-18 -19.8,-18 -2.99,0 -32.39,1.2 -74.99,1.8 -35.4,-49.2 -68.4,-107.401 -68.4,-136.788"
             inkscape:connector-curvature="0"
             id="path26"
             style="fill:#ffffff;fill-opacity:1;fill-rule:nonzero;stroke:none" /><path
             d="m 1429.53,1074.31 c 0,11.4 -3.6,16.2 -7.2,16.2 -9.6,0 -15,-17.4 -15,-46.2 0,-9 3,-17.4 9,-23.4 8.4,20.4 13.2,39.6 13.2,53.4 z m -60,-28.8 c 0,4.8 0.6,11.4 1.8,17.4 -34.2,-33 -67.2,-87 -67.2,-115.199 0,-13.801 9,-24.59 24.6,-24.59 25.2,0 52.8,30.598 72,65.391 -18,10.797 -31.2,28.798 -31.2,56.998 z m 97.79,-41.39 c 53.4,0 64.8,31.19 71.41,31.19 4.79,0 12.59,-10.2 12.59,-16.8 0,-12.6 -36,-46.201 -84,-46.201 -7.19,0 -15.59,0.613 -24.59,1.812 -28.2,-54.601 -74.4,-104.402 -126,-104.402 -38.4,0 -61.2,39 -61.2,77.992 0,67.799 61.2,133.199 112.8,173.989 3.6,2.41 6.6,4.2 10.2,4.2 1.2,0 4.2,-0.59 5.4,-0.59 12.6,7.8 23.4,13.8 35.4,13.8 7.8,0 15,-1.8 27.6,-14.4 18.6,-10.8 25.79,-22.8 25.79,-48.6 0,-19.8 -6,-45.6 -16.19,-71.99 l 10.79,0"
             inkscape:connector-curvature="0"
             id="path28"
             style="fill:#ffffff;fill-opacity:1;fill-rule:nonzero;stroke:none" /><path
             d="m 1653.29,1074.31 c 0,11.4 -3.6,16.2 -7.2,16.2 -9.6,0 -15,-17.4 -15,-46.2 0,-9 3,-17.4 9,-23.4 8.4,20.4 13.2,39.6 13.2,53.4 z m -60,-28.8 c 0,4.8 0.6,11.4 1.8,17.4 -34.2,-33 -67.2,-87 -67.2,-115.199 0,-13.801 9,-24.59 24.6,-24.59 25.2,0 52.8,30.598 72,65.391 -18,10.797 -31.2,28.798 -31.2,56.998 z m 97.79,-41.39 c 53.4,0 64.8,31.19 71.41,31.19 4.79,0 12.59,-10.2 12.59,-16.8 0,-12.6 -36,-46.201 -84,-46.201 -7.19,0 -15.59,0.613 -24.59,1.812 -28.2,-54.601 -74.4,-104.402 -126,-104.402 -38.4,0 -61.2,39 -61.2,77.992 0,67.799 61.2,133.199 112.8,173.989 3.6,2.41 6.6,4.2 10.2,4.2 1.2,0 4.2,-0.59 5.4,-0.59 12.6,7.8 23.4,13.8 35.4,13.8 7.8,0 15,-1.8 27.6,-14.4 18.6,-10.8 25.79,-22.8 25.79,-48.6 0,-19.8 -6,-45.6 -16.19,-71.99 l 10.79,0"
             inkscape:connector-curvature="0"
             id="path30"
             style="fill:#ffffff;fill-opacity:1;fill-rule:nonzero;stroke:none" /><path
             d="m 3373.96,1046.71 c 3.59,-5.4 10.78,-7.2 21.58,-7.2 77.4,0 153.59,68.4 153.59,99 0,13.19 -8.98,22.79 -36,22.79 -25.8,0 -62.38,-10.8 -80.99,-22.19 -14.4,-20.4 -36,-54.6 -58.18,-92.4 z M 3270.15,863.121 c -6,-10.199 -7.8,-12 -12,-12 -10.19,0 -25.8,15.59 -25.8,37.801 0,22.789 14.4,47.387 88.79,169.188 76.21,124.8 78.6,127.79 85.8,127.79 3.6,0 7.21,-2.4 9.01,-2.99 26.99,15 71.99,33.59 105,33.59 19.78,0 34.78,-9.59 49.78,-26.99 19.2,-22.2 28.81,-44.41 28.81,-58.8 0,-63 -134.39,-145.198 -204.59,-145.198 -20.99,0 -37.21,6 -45,20.998 -33.01,-56.99 -64.8,-114.588 -79.8,-143.389"
             inkscape:connector-curvature="0"
             id="path32"
             style="fill:#ffffff;fill-opacity:1;fill-rule:nonzero;stroke:none" /><path
             d="m 3650.11,1158.31 c 0,23.39 20.39,40.19 40.78,40.19 12.62,0 23.4,-7.79 23.4,-25.79 0,-22.8 -21,-42.6 -41.39,-42.6 -13.81,0 -22.79,12 -22.79,28.2 z M 3581.1,869.719 c -30.6,0 -46.79,26.402 -46.79,54 0,20.992 4.8,35.992 11.99,53.402 -5.39,0 -7.19,0 -7.19,2.988 0,7.2 10.8,23.401 38.99,63.001 31.21,43.2 34.8,58.19 52.81,58.19 13.18,0 23.4,-16.19 23.4,-26.99 0,-4.2 -4.81,-9 -15,-21.6 -22.82,-28.2 -60,-77.999 -60,-113.991 0,-16.199 6.6,-19.199 11.99,-19.199 13.81,0 33.01,9.601 58.2,37.191 30,32.41 36.6,47.409 46.19,47.409 7.82,0 12.02,-7.811 12.02,-17.409 0,-7.801 -8.4,-20.992 -30.61,-47.402 -31.8,-37.188 -64.2,-69.59 -96,-69.59"
             inkscape:connector-curvature="0"
             id="path34"
             style="fill:#ffffff;fill-opacity:1;fill-rule:nonzero;stroke:none" /><path
             d="m 3797.67,1065.31 c 0,5.4 -2.99,7.8 -7.19,7.8 -17.4,0 -78.61,-55.8 -85.8,-112.79 45.58,33.59 92.99,82.79 92.99,104.99 z m -49.2,-154.798 c 55.19,0 85.19,34.199 121.79,78.609 8.4,10.188 13.21,14.999 18.01,14.999 7.79,0 11.99,-7.811 11.99,-17.409 0,-6.602 -5.99,-15.59 -15.6,-28.789 -31.8,-43.211 -89.98,-88.203 -149.98,-88.203 -43.81,0 -74.4,30 -74.4,72.601 0,82.79 89.98,176.99 151.78,176.99 21.6,0 36.02,-16.2 36.02,-36.6 0,-44.39 -64.81,-104.39 -138.6,-154.788 6,-10.801 18.6,-17.41 38.99,-17.41"
             inkscape:connector-curvature="0"
             id="path36"
             style="fill:#ffffff;fill-opacity:1;fill-rule:nonzero;stroke:none" /><path
             d="m 3835.44,948.91 c 27.01,26.41 73.2,96 80.41,109.8 0.59,10.2 4.2,18 15,36.6 8.4,13.2 8.98,19.8 13.79,19.8 5.41,0 6.6,-6 16.19,-8.41 16.82,-4.19 52.81,-10.79 63.61,-22.79 4.2,-3.6 4.2,-9 4.2,-33.6 -22.2,-24.6 -58.2,-82.201 -58.2,-115.201 0,-9.597 4.2,-15.589 13.79,-15.589 19.2,0 46.21,19.199 75.6,55.191 18.01,22.199 22.21,29.409 30,29.409 8.4,0 12,-8.401 12,-18.011 0,-8.988 -12,-25.199 -34.79,-51.589 -33.01,-37.809 -62.4,-64.801 -92.4,-64.801 -36,0 -46.8,33 -46.8,58.203 0,38.387 24.59,81.598 49.81,115.188 -4.81,8.4 -18.62,10.21 -25.8,10.21 -18.01,-27.01 -76.8,-118.211 -116.41,-142.808 l 0,38.398"
             inkscape:connector-curvature="0"
             id="path38"
             style="fill:#ffffff;fill-opacity:1;fill-rule:nonzero;stroke:none" /><path
             d="m 4103.02,950.719 c 0,-23.399 13.79,-40.207 45,-40.207 48.59,0 90.58,43.797 101.38,56.398 26.41,30.61 30.61,37.21 37.21,37.21 8.4,0 11.99,-9.011 11.99,-18.011 0,-8.988 -16.79,-30.597 -33.59,-50.39 -30,-35.399 -71.41,-66 -118.79,-66 -65.41,0 -88.2,51 -88.2,91.801 0,82.79 111.6,176.99 148.18,176.99 15,0 44.42,-6.6 48.61,-25.2 7.8,-5.4 8.4,-13.8 8.4,-19.2 0,-19.8 -15,-36 -40.19,-67.8 -4.81,-6 -10.8,-14.4 -19.2,-14.4 -15,0 -20.41,10.21 -20.41,18 0,25.2 22.21,50.4 35.99,63.6 -66.6,-27.6 -116.38,-96.6 -116.38,-142.791"
             inkscape:connector-curvature="0"
             id="path40"
             style="fill:#ffffff;fill-opacity:1;fill-rule:nonzero;stroke:none" /><path
             d="m 4375.97,1158.31 c 0,23.39 20.41,40.19 40.8,40.19 12.6,0 23.4,-7.79 23.4,-25.79 0,-22.8 -21,-42.6 -41.41,-42.6 -13.79,0 -22.79,12 -22.79,28.2 z m -69.01,-288.591 c -30.58,0 -46.79,26.402 -46.79,54 0,20.992 4.8,35.992 12.01,53.402 -5.41,0 -7.21,0 -7.21,2.988 0,7.2 10.8,23.401 39,63.001 31.2,43.2 34.81,58.19 52.8,58.19 13.2,0 23.4,-16.19 23.4,-26.99 0,-4.2 -4.81,-9 -15,-21.6 -22.8,-28.2 -60,-77.999 -60,-113.991 0,-16.199 6.6,-19.199 12.01,-19.199 13.79,0 32.99,9.601 58.18,37.191 30,32.41 36.6,47.409 46.21,47.409 7.8,0 11.99,-7.811 11.99,-17.409 0,-7.801 -8.39,-20.992 -30.6,-47.402 -31.8,-37.188 -64.18,-69.59 -96,-69.59"
             inkscape:connector-curvature="0"
             id="path42"
             style="fill:#ffffff;fill-opacity:1;fill-rule:nonzero;stroke:none" /><path
             d="m 4425.75,897.32 c -14.39,-19.199 -13.2,-27.601 -25.19,-27.601 -16.8,0 -34.2,15 -34.2,27.601 0,11.989 22.18,48.59 41.38,78.59 -2.38,0 -6.58,0 -6.58,6.61 0,8.39 12.6,20.99 42.6,70.19 23.4,36.6 26.39,46.2 30.59,48.59 1.79,1.81 6.6,2.41 9,2.41 14.39,0 25.8,-15 25.8,-26.4 0,-12 -25.8,-40.8 -41.99,-80.4 31.19,34.8 120.58,123.59 137.38,123.59 14.4,0 24.61,-23.39 24.61,-31.79 0,-5.4 -8.4,-14.4 -21.6,-32.4 -27.01,-36 -58.81,-85.798 -58.81,-122.99 0,-9.601 3.61,-15 12.01,-15 20.39,0 47.99,20.989 73.19,51.602 22.2,26.988 27.01,34.198 33.61,34.198 6.6,0 12.6,-4.811 12.6,-18.011 0,-8.398 -13.21,-26.398 -31.21,-47.39 -39.59,-48 -70.2,-70.797 -97.19,-70.797 -33.6,0 -46.19,28.199 -46.19,51.598 0,27 16.79,70.191 26.99,95.4 -28.81,-19.201 -76.19,-77.4 -106.8,-117.6"
             inkscape:connector-curvature="0"
             id="path44"
             style="fill:#ffffff;fill-opacity:1;fill-rule:nonzero;stroke:none" /><path
             d="m 4807.29,1032.92 c 0,10.79 -5.39,16.19 -11.99,16.19 -34.8,0 -122.99,-76.801 -122.99,-114.59 0,-7.809 4.79,-13.211 17.39,-13.211 33.01,0 104.39,66 116.4,102.011 0,0 1.19,4.79 1.19,9.6 z M 4571.51,707.121 c 0,-7.191 4.81,-12.59 12,-12.59 24,0 67.2,59.391 110.39,123.59 -79.18,-34.199 -122.39,-78 -122.39,-111 z m 12,-59.391 c -27,0 -44.4,21.602 -44.4,59.391 0,80.41 99.59,135.598 187.79,160.801 13.79,21 26.41,40.797 38.4,58.199 -52.2,-45 -66.6,-56.402 -86.4,-56.402 -25.78,0 -51.59,25.203 -51.59,55.793 0,86.398 132.58,172.798 179.4,172.798 21,0 41.39,-12 42.6,-48.6 13.18,-20.4 17.38,-30.59 17.38,-39.6 0,-2.99 -4.2,-10.188 -21.58,-33.59 -19.81,-26.411 -30.61,-40.211 -49.81,-69.598 -6.6,-9.602 -12.59,-18.602 -18.01,-27.602 15,2.391 28.81,3.602 40.81,3.602 11.4,0 13.8,-4.801 13.8,-9.602 0,-8.398 -6.6,-16.199 -48,-25.8 -11.39,-2.399 -22.19,-5.399 -32.41,-8.399 C 4663.31,700.52 4634.5,647.73 4583.51,647.73"
             inkscape:connector-curvature="0"
             id="path46"
             style="fill:#ffffff;fill-opacity:1;fill-rule:nonzero;stroke:none" /><path
             d="m 307.988,2403.26 c 6.59,-12.2 13.692,-22.68 19.684,-33.76 12.488,-20.45 29.777,-49.79 45.957,-79.71 5.988,-11.07 34.246,-65.98 40.84,-78.16 4.191,-7.77 27.383,-45.35 33.281,-53.63 3.598,-6.65 20.465,-40.49 24.656,-48.25 10.192,-18.84 16.09,-27.11 23.703,-35.88 22.137,-22.4 45.411,-9.82 49.844,-7.42 3.324,1.8 44.328,23.97 19.551,93.63 -43.809,118.11 -46.207,122.54 -58.192,144.71 -13.781,25.49 -29.175,48.67 -45.179,72.97 -26.094,40.31 -86.492,130.82 -145.231,99.06 -37.679,-20.37 -16.707,-59.16 -8.914,-73.56 z m -98.578,261.79 c 47.652,25.76 98.813,47.69 152.996,45.49 17.496,-0.57 109.071,-8.35 190.071,-73.4 74.687,-61.31 141.347,-171.35 165.914,-216.79 12.582,-23.27 35.441,-68.21 52.797,-134.74 12.792,-47.5 18.851,-95.78 18.167,-144.84 -8.07,-170.51 -104.304,-228.27 -171.91,-264.83 -8.867,-4.79 -51.668,-23.64 -61.644,-29.03 -12.188,-6.59 -67.93,-43.89 -81.231,-51.08 -32.136,-17.38 -68.711,-37.15 -96.273,13.82 -4.195,7.77 -7.281,16.13 -11.477,23.88 -3.683,9.46 -10.183,18.84 -13.871,28.3 -4.195,7.77 -22.441,49.46 -27.234,58.32 -11.391,21.06 -24.988,40.92 -35.774,60.87 -19.593,30.94 -53.656,91.29 -63.847,110.14 -5.992,11.07 -33.133,66.58 -39.727,78.77 -8.387,15.52 -53.656,91.29 -63.246,109.02 -8.391,15.52 -45.7187,89.86 -54.7069,106.48 -7.1953,13.3 -45.2696,75.79 -53.0625,90.2 -11.38285,21.05 -34.1563,63.17 14.6093,89.53 12.1914,6.59 68.2032,35.44 81.5041,42.64 14.402,7.78 82.426,48.86 97.945,57.25"
             inkscape:connector-curvature="0"
             id="path48"
             style="fill:#ffffff;fill-opacity:1;fill-rule:nonzero;stroke:none" /><path
             d="m 1119.62,2495.69 c 6.53,-17.73 42.99,-102.32 50.38,-122.43 4.79,-13.01 24.28,-76.99 29.49,-91.18 5.22,-14.19 35.6,-82.22 41.25,-97.6 5.22,-14.18 3.02,-33.79 -25.35,-44.22 -7.1,-2.61 -42.26,-12.85 -50.54,-15.9 -11.83,-4.33 -67.29,-28.75 -79.11,-33.1 l -7.1,-2.61 c -7.09,-2.61 -37.84,-13.91 -53.32,9.93 -2.92,4.3 -25.523,65.79 -29.437,76.44 -3.91,10.63 -19.492,63.97 -23.836,75.81 l -31.738,86.31 c -6.52,17.75 -41.368,101.58 -48.321,120.5 l -54.343,147.82 c -6.524,17.75 -35.579,107.74 -42.965,127.85 l -29.563,80.41 c -3.047,8.28 -21.371,47.17 -24.414,55.46 -7.828,21.28 1.703,35.52 6.313,41.25 5.793,6.15 11.707,8.33 34.172,16.59 10.644,3.91 61.925,21.42 73.753,25.76 14.192,5.22 28.379,10.44 42.137,16.83 2.363,0.87 16.121,7.27 19.668,8.58 28.383,10.43 42.293,-27.4 44.465,-33.32 3.48,-9.46 16.449,-55.7 20.367,-66.35 9.246,-28.81 14.031,-41.81 58.812,-163.63 4.78,-13.01 28.57,-74.06 33.78,-88.25 3.48,-9.46 19.8,-61.18 24.16,-73 l 21.29,-57.95"
             inkscape:connector-curvature="0"
             id="path50"
             style="fill:#ffffff;fill-opacity:1;fill-rule:nonzero;stroke:none" /><path
             d="m 1514.21,2651.66 c 7.49,-33.19 20.1,-43.26 47.13,-37.15 14.75,3.33 47.93,10.82 38.5,52.61 0,0 -10.82,47.93 -28.45,91.72 -6.9,19.12 -16.25,37.67 -23.15,56.77 -6.07,15.43 -10.62,29.89 -16.41,44.08 -6.9,19.11 -17.56,20.59 -20.02,20.02 -8.6,-1.93 -8.8,-23.93 -7.81,-34.04 0.87,-15.3 0.95,-38.53 0.31,-52.89 -0.99,-29.92 3.88,-57.24 5.07,-85.39 0.47,-19.26 0.95,-38.53 4.83,-55.73 z m -203.44,31.57 c -1.31,22.95 -4.79,44.12 -6.1,67.07 -2.02,31.84 -0.35,64.5 -1.42,97.84 -0.99,50.15 -9.63,99.86 -10.61,150.01 0.24,90.47 11.14,99.37 62.76,111.03 13.52,3.05 27.31,4.88 41.11,6.71 24.86,4.31 49.71,8.63 74.29,14.17 30.72,6.94 61.17,15.1 91.62,23.27 46.7,10.55 61.48,2.25 80.35,-41.27 7.02,-13.92 35.79,-78.46 39.79,-90.47 5.79,-14.2 33.38,-90.63 39.72,-107.28 11.57,-28.38 71.46,-162.1 85.09,-193.89 13.64,-31.8 16.26,-37.67 35.04,-98.01 16.57,-50.5 38.05,-99.9 59.53,-149.3 9.36,-18.55 17.76,-38.61 27.11,-57.17 5.24,-11.73 9.24,-23.74 12.01,-36.03 6.11,-27.03 -4.32,-55.22 -26.44,-60.22 -12.29,-2.77 -70.88,-12.12 -84.41,-15.17 -8.59,-1.93 -53.23,-15.89 -63.07,-18.11 -39.32,-8.89 -47.49,21.57 -50.54,35.08 -3.88,17.21 -10.5,35.1 -17.12,52.97 -8.56,26.48 -14.07,39.45 -28.97,42.54 -5.48,1.35 -30.06,-4.2 -79.21,-15.29 -25.81,-5.83 -35.08,-10.51 -39.01,-21.73 -3.93,-11.21 7.09,-77.18 9.19,-92.2 7.09,-37.15 -10.63,-50.2 -31.52,-54.91 -8.6,-1.95 -49.99,-7.42 -59.82,-9.62 -9.83,-2.23 -62.4,-15.39 -74.69,-18.17 -9.83,-2.2 -19.66,-4.43 -30.05,-4.2 -17.08,1.31 -25.89,17.42 -27.83,26.02 -1.38,6.14 -9.03,165.86 -10.01,175.98 -0.6,14.06 -0.24,29.64 -1.11,44.95 -0.2,18.04 -8.95,102.6 -9.43,121.86 -3.4,37.97 -3.12,76.78 -6.25,113.54"
             inkscape:connector-curvature="0"
             id="path52"
             style="fill:#ffffff;fill-opacity:1;fill-rule:nonzero;stroke:none" /><path
             d="m 2261.75,2697.02 c -3.37,-6.52 -3.21,-9.04 -1.93,-29.16 0.48,-7.54 1.47,-42.84 1.95,-50.38 1.77,-27.66 3.5,-35.12 7.75,-42.43 11.26,-18.21 37.99,-21.57 56.85,-20.36 25.14,1.61 70.54,22.17 66.3,88.81 -4.09,64.12 -48.36,85.29 -83.56,83.05 -8.81,-0.57 -37.72,-2.41 -47.36,-29.53 z m -28.29,325.16 c 2.88,-45.26 5.96,-53.9 10.29,-62.47 13.08,-26.93 43.42,-27.53 52.22,-26.97 42.75,2.72 67.47,30.82 64.5,77.33 -0.47,7.55 -1.68,26.41 -14.03,42.03 -20.62,26.46 -45.77,24.86 -68.4,23.42 -44.01,-2.8 -45.78,-34.48 -44.58,-53.34 z m -190.89,-392.16 c -0.56,8.82 -4.78,55.25 -5.5,66.57 -0.96,15.09 -2.08,92.02 -3.2,109.63 -2.81,44 -9.38,87.77 -12.1,130.51 -1.04,16.35 -0.98,94.62 -2.1,112.22 -0.96,15.1 -10.88,91.47 -12,109.07 -4.01,62.87 17.9,75.63 66.94,78.75 7.54,0.48 46.68,0.45 54.22,0.93 21.38,1.37 42.59,5.24 63.97,6.6 10.06,0.65 58,1.18 69.31,1.9 l 46.52,2.96 c 6.29,0.4 40.08,5.07 47.62,5.55 11.31,0.73 55.72,-2.75 64.6,-3.45 54.79,-7.87 65.57,-18.55 96.41,-46.88 16.13,-15.39 29.51,-27.16 41.56,-57.95 1.74,-7.46 22.25,-71.81 23.99,-79.27 0.48,-7.55 1.39,-41.57 1.87,-49.11 l 1.12,-17.6 c 1.69,-26.41 -13.33,-87.97 -63.57,-131.56 -17.9,-16.29 -19.16,-16.37 -18.92,-20.14 0.24,-3.77 6.77,-7.14 11.95,-9.34 6.53,-3.37 11.8,-6.82 17.07,-10.27 53.87,-33.18 83.97,-89.34 93.45,-139.23 1.83,-8.72 8.88,-60.03 9.12,-63.81 0.8,-12.57 0.34,-25.21 -1.45,-36.7 -1.96,-8.97 -2.97,-12.81 -12.37,-43.71 -6.41,-18.09 -7.89,-34.59 -15.65,-51.48 -16.38,-40.19 -59.56,-75.77 -91.2,-94.19 -53.64,-29.93 -90.11,-32.26 -122.8,-34.33 l -217.51,-13.87 c -10.06,-0.64 -55.17,-6.03 -65.22,-6.68 -41.5,-2.63 -51.2,30.82 -52.33,48.43 -0.32,5.03 0.76,27.82 0.97,44.25 -0.96,15.09 -0.67,30.25 -1.62,45.34 -0.89,13.84 -9.23,85.27 -10.27,101.6 l -2.88,45.26"
             inkscape:connector-curvature="0"
             id="path54"
             style="fill:#ffffff;fill-opacity:1;fill-rule:nonzero;stroke:none" /><path
             d="m 3037.94,2937.11 c -1.15,-12.53 -4.27,-74.24 -5.65,-89.29 -2.3,-25.1 -17.55,-150.22 -20.2,-179.06 -4.01,-43.91 -10.57,-115.43 48.4,-120.83 52.69,-4.82 62.08,42.39 65.62,67.37 1.96,7.41 4.14,45.16 4.94,53.95 1.27,13.79 12.84,84.85 14.33,101.16 2.07,22.59 2.88,45.28 4.95,67.86 0.58,6.27 4.93,40.03 5.63,47.56 1.37,15.06 2.54,55.43 2.21,79.49 -0.42,50.64 -26.87,65.72 -49.45,67.79 -61.47,5.62 -67.91,-64.63 -70.78,-96 z m -81.37,285.79 c 37.32,20.61 60.02,33.71 179.21,22.8 85.31,-7.82 116.32,-28.37 167.84,-73.56 8.22,-7.09 31.59,-28.21 39.45,-39.05 43.86,-59.68 53.15,-165.53 41.43,-293.49 -2.64,-28.86 -6.54,-57.6 -9.19,-86.46 -12.17,-119.07 -13.2,-130.36 -32.18,-199.46 -23.1,-86.45 -37.26,-116.78 -72.08,-151.54 -44.61,-45.26 -74.39,-52.64 -113.18,-61.75 -27.03,-5.11 -54.07,-10.23 -100.49,-5.97 -127.97,11.72 -210.28,66.06 -242.97,137.37 -14.8,31.71 -26.63,96.06 -27.98,108.83 -3.64,29.43 -0.16,108.82 0.53,116.34 1.15,12.55 8.38,77.68 9.64,91.47 1.26,13.8 4.62,78.02 6,93.07 19.19,209.52 48.78,283.98 153.97,341.4"
             inkscape:connector-curvature="0"
             id="path56"
             style="fill:#ffffff;fill-opacity:1;fill-rule:nonzero;stroke:none" /><path
             d="m 3713.15,3155.36 c 8.59,-2.04 53.07,-16.48 64.11,-19.1 12.25,-2.91 23.58,-4.3 34.62,-6.92 12.54,-1.68 23.58,-4.29 34.6,-6.91 18.39,-4.37 49.05,-11.64 40.61,-47.19 -1.75,-7.35 -4.42,-13.19 -6.17,-20.55 -9.49,-23.65 -25.32,-79.45 -32.88,-111.33 -2.91,-12.26 -14.71,-72.9 -17.91,-86.39 -2.33,-9.81 -16.7,-59.49 -19.32,-70.52 -2.33,-9.81 -9.71,-57.27 -12.32,-68.3 -1.17,-4.9 -4.13,-11.96 -8.5,-30.35 -5.88,-19.33 -11.98,-45.07 -16.93,-65.91 -2.03,-8.58 -9.48,-50.85 -11.8,-60.66 -0.87,-3.67 -7.91,-27.89 -9.07,-32.8 -7.57,-31.87 -3.17,-67.88 37.35,-82.67 8.29,-3.26 42.62,-11.41 54.88,-14.31 6.13,-1.47 36.13,-5.99 43.49,-7.73 49.03,-11.63 42.64,-38.61 22.57,-123.18 -2.33,-9.82 -15.83,-55.83 -18.45,-66.85 -4.66,-19.62 -16.79,-27.1 -27.47,-28.45 -5.49,-1.29 -10.67,-1.35 -22.94,1.56 -7.35,1.74 -42.32,12.63 -49.68,14.38 -8.29,3.26 -47.81,11.34 -56.38,13.38 -22.37,4 -131.18,31.11 -155.7,36.93 -9.8,2.32 -60.64,11.8 -71.68,14.41 -38,9.02 -41.99,35.87 -37.92,53.03 1.46,6.12 9.95,36.49 11.41,42.62 7.27,30.64 17.28,61.93 24.55,92.58 0.87,3.67 23.37,114.88 28.31,135.72 2.62,11.04 18.8,62.87 22.94,74.84 3.56,9.52 5.59,18.1 7.91,27.9 2.62,11.04 13.55,68.01 16.46,80.27 2.32,9.8 13.73,52.42 16.05,62.23 5.24,22.06 9.54,45.65 14.78,67.71 3.19,13.5 20.77,76.66 24.26,91.37 7.56,31.87 13.9,64.03 21.46,95.9 4.65,19.62 13.08,55.17 54.76,45.29"
             inkscape:connector-curvature="0"
             id="path58"
             style="fill:#ffffff;fill-opacity:1;fill-rule:nonzero;stroke:none" /><path
             d="m 4329.32,2429.44 c -6.38,-17.8 -32.66,-106.07 -39.88,-126.24 -4.67,-13.04 -30.76,-74.63 -35.86,-88.86 -5.09,-14.24 -25.43,-85.92 -30.94,-101.34 -5.11,-14.22 -19.36,-27.86 -47.83,-17.66 -7.11,2.56 -40.66,17.24 -48.96,20.22 -11.86,4.25 -70.07,21.09 -81.92,25.34 l -7.12,2.55 c -7.12,2.55 -37.95,13.61 -34.53,41.82 0.5,5.17 22.6,66.85 26.43,77.52 3.82,10.67 26.08,61.59 30.33,73.44 l 31.02,86.59 c 6.38,17.79 33.42,104.46 40.21,123.44 l 53.12,148.26 c 6.38,17.79 41.81,105.46 49.03,125.62 l 28.9,80.67 c 2.98,8.3 13.87,49.9 16.83,58.2 7.66,21.35 24.11,26.16 31.31,27.6 8.39,1 14.32,-1.11 36.86,-9.2 10.67,-3.82 61.25,-23.28 73.1,-27.53 14.24,-5.1 28.47,-10.2 43.13,-14.11 2.37,-0.85 17.03,-4.77 20.58,-6.04 28.47,-10.19 14.88,-48.15 12.75,-54.08 -3.4,-9.49 -23.11,-53.28 -26.93,-63.97 -11.38,-28.03 -16.06,-41.08 -59.83,-163.25 -4.68,-13.04 -25.58,-75.14 -30.68,-89.38 -3.41,-9.48 -24.06,-59.63 -28.3,-71.5 l -20.82,-58.11"
             inkscape:connector-curvature="0"
             id="path60"
             style="fill:#ffffff;fill-opacity:1;fill-rule:nonzero;stroke:none" /><path
             d="m 4559.91,2448.68 c 7.62,14.49 42.95,89.86 51.74,106.58 8.79,16.74 54.9,96.38 64.28,114.24 12.3,23.42 22.91,46.31 34.1,70.31 5.92,13.98 12.41,29.07 19.44,42.44 11.14,21.19 22.27,42.39 49.04,28.32 11.15,-5.86 64.1,-35.09 76.36,-41.54 8.93,-4.69 53.6,-25.31 62.51,-30 21.19,-11.14 37.92,-19.92 20.93,-52.26 -4.69,-8.93 -29.12,-47.32 -33.81,-56.23 -4.1,-7.82 -23.49,-47.44 -28.18,-56.36 -3.52,-6.7 -20.45,-36.22 -23.97,-42.91 -1.75,-3.35 -10.54,-20.07 -4.97,-23 6.69,-3.52 14.14,2.53 17.01,5.29 8.62,8.28 39.53,31.89 47.56,39.05 6.86,4.94 13.72,9.87 20.58,14.8 10.85,7.11 20.06,16.5 29.79,24.2 14.9,12.1 31.49,24.73 46.39,36.82 7.44,6.05 13.19,11.58 20.64,17.62 22.98,22.08 35.31,18.45 50.92,10.25 8.92,-4.69 17.26,-10.49 25.6,-16.29 13.91,-8.74 27.82,-17.46 41.2,-24.49 12.28,-6.45 70.91,-33 84.29,-40.02 12.27,-6.45 21.55,-21.29 13.93,-35.79 -5.27,-10.03 -24.73,-25.42 -36.76,-34.76 -26.86,-18.61 -30.84,-20.79 -63.51,-47.76 -13.19,-11.56 -49.2,-36.76 -66.91,-48.8 -12.55,-7.64 -26.23,-14.69 -38.25,-24.03 -9.14,-6.57 -54.94,-42.28 -66.37,-50.51 -15.43,-10.39 -35.42,-24.08 -41.28,-35.23 -4.1,-7.81 -5.39,-15.66 -5.62,-26.94 -2.44,-37.14 -3.88,-80.5 -9.54,-110.25 -2.04,-17.44 -5.73,-32.58 -8.89,-49.41 -0.75,-9.57 -5.17,-61.33 -7.1,-73.13 -2.04,-17.42 -4.66,-35.96 -6.7,-53.4 -3.22,-19.64 -4.73,-38.78 -6.24,-57.91 -3.1,-14.02 -6.21,-28.05 -7.08,-43.25 -1.39,-13.49 0.02,-27.05 -1.37,-40.54 -0.29,-14.09 -1.8,-33.22 -9.42,-47.71 -12.89,-24.54 -37.48,-14.46 -43.05,-11.53 l -31.23,16.4 c -5.58,2.93 -37.34,21.04 -44.03,24.55 -11.15,5.86 -65.86,31.76 -78.12,38.21 -30.11,15.82 -22.79,43.28 -17.94,60.65 4.33,19.07 17.42,81.93 26.12,149.94 0.81,12.38 3.32,25.29 4.72,38.78 1.93,11.8 3.86,23.6 5.79,35.38 3.91,26.41 6.01,46.66 -0.68,50.18 -8.93,4.69 -16.02,-11.52 -24.81,-28.24 -5.33,-12.86 -38.08,-72.5 -45.7,-87 -11.13,-21.19 -22.27,-42.38 -31.16,-64.74 -15.36,-34.63 -16,-38.56 -20.69,-47.48 -9.37,-17.84 -15.11,-23.36 -17.99,-26.13 -15.43,-10.4 -28.8,-3.36 -46.65,6.01 -7.81,4.1 -45.14,25.14 -54.06,29.82 -6.7,3.52 -40.74,19.99 -48.54,24.09 -4.47,2.34 -27.94,11.83 -33.52,14.76 -15.61,8.21 -24.25,26.97 -16.04,42.59 6.44,12.27 41.95,69.03 48.98,82.41 6.45,12.27 32.93,68.09 39.96,81.48 6.45,12.26 40.31,71.31 47.93,85.82 11.72,22.3 22.33,45.19 34.63,68.61 l 35.74,68.04"
             inkscape:connector-curvature="0"
             id="path62"
             style="fill:#ffffff;fill-opacity:1;fill-rule:nonzero;stroke:none" /><path
             d="m 3929.78,1988.12 c 19.66,-26.64 21.56,-58.61 4.41,-71.28 -7.38,-5.4 -17.16,-6.49 -27.38,-3.85 6.51,-25.29 2.17,-48.71 -13.85,-60.47 -13.11,-9.63 -31.35,-9.55 -49.82,-1.66 -6.36,-4.81 -14.66,-8.67 -25.17,-11.18 -32.62,-7.51 -52.74,-37.97 -102.9,-87.52 -50.2,-49.68 -152.8,-152.12 -193.04,-190.01 -38.83,-36.52 -95.73,-103.99 -227.84,-205.64 -127.02,-97.83 -359.08,-233.16 -386.01,-248.79 10.14,-13.44 19.2,-26.11 26.54,-36.78 35.29,-52.56 70.27,-123.28 70.27,-123.28 6.36,-9.379 4.39,-21.769 -4.36,-27.691 -8.82,-5.887 -21.07,-3.11 -27.46,6.32 0,0 -35.94,71.801 -63.09,112.321 C 2812.95,964.34 1609.16,79.8594 1349.77,0 c 148.7,225.91 1304.59,1169.04 1405.14,1246.52 -27.81,42.81 -62.96,112.13 -62.96,112.13 -6.31,9.45 -4.3,21.85 4.46,27.75 8.78,5.92 21.05,3.04 27.37,-6.32 0,0 43.6,-83.46 69.37,-121.77 5.02,-7.46 12.04,-17.14 20.51,-28.14 22.13,22.31 211.85,212.82 338.72,309.17 134.96,102.26 215.83,137.12 260.96,165.38 45.05,28.22 180.06,110.36 231.3,140.34 51.33,30.04 94.66,53.69 108.28,75.39 6.46,10.33 14.07,17.45 22.17,22.13 -2.32,20.31 2.94,38.13 16.25,47.95 15.57,11.41 38.21,9.21 59.96,-3.45 0.16,11.1 4.02,20.56 11.72,26.26 17.2,12.69 47.19,1.41 66.76,-25.22"
             inkscape:connector-curvature="0"
             id="path64"
             style="fill:#ffffff;fill-opacity:1;fill-rule:nonzero;stroke:none" /><path
             d="m 1331.53,2013.34 c 7.69,-5.7 11.54,-15.16 11.72,-26.26 21.75,12.66 44.38,14.86 59.96,3.45 13.3,-9.82 18.56,-27.64 16.24,-47.95 8.1,-4.68 15.7,-11.8 22.17,-22.13 13.62,-21.7 56.95,-45.35 108.27,-75.39 51.25,-29.98 186.25,-112.12 231.31,-140.34 45.12,-28.26 125.99,-63.12 260.95,-165.38 126.88,-96.35 316.6,-286.86 338.72,-309.17 8.48,11 15.5,20.68 20.52,28.14 25.77,38.31 69.38,121.77 69.38,121.77 6.31,9.36 18.59,12.24 27.36,6.32 8.76,-5.9 10.77,-18.3 4.46,-27.75 0,0 -35.14,-69.32 -62.96,-112.13 C 2540.19,1169.04 3696.06,225.91 3844.78,0 c -259.4,79.8594 -1463.2,964.34 -1560.33,1038.61 -27.14,-40.52 -63.08,-112.321 -63.08,-112.321 -6.39,-9.43 -18.64,-12.207 -27.45,-6.32 -8.77,5.922 -10.72,18.312 -4.37,27.691 0,0 34.98,70.72 70.28,123.28 7.33,10.67 16.39,23.34 26.54,36.78 -26.94,15.63 -259.01,150.96 -386.01,248.79 -132.12,101.65 -189.02,169.12 -227.85,205.64 -40.24,37.89 -142.83,140.33 -193.05,190.01 -50.16,49.55 -70.28,80.01 -102.89,87.52 -10.52,2.51 -18.81,6.37 -25.17,11.18 -18.47,-7.89 -36.71,-7.97 -49.82,1.66 -16.02,11.76 -20.36,35.18 -13.85,60.47 -10.22,-2.64 -20,-1.55 -27.38,3.85 -17.15,12.67 -15.25,44.64 4.42,71.28 19.55,26.63 49.55,37.91 66.76,25.22"
             inkscape:connector-curvature="0"
             id="path66"
             style="fill:#ffffff;fill-opacity:1;fill-rule:nonzero;stroke:none" /></g></g></g></g></svg>