<svg viewBox="100 -3000 13500 1000" class="line-animated" width="500" height="170" preserveAspectRatio="xMidYMid meet" xmlns="http://www.w3.org/2000/svg">
    <g transform="scale(1,-1)">
        <path d="M1265 2486 c-80 -15 -146 -46 -223 -104 -86 -65 -501 -479 -508 -507 -18 -71 -13 -77 373 -474 201 -207 463 -473 582 -591 119 -118 253 -257 296 -308 44 -51 94 -102 111 -113 39 -24 91 -24 124 -1 36 24 450 439 481 482 185 250 150 619 -93 985 -111 168 -420 447 -605 547 -150 81 -372 116 -538 84z m218 -569 c59 -24 169 -108 289 -217 61 -57 123 -129 202 -239 63 -86 120
		-170 126 -185 37 -99 -30 -204 -114 -176 -22 7 -137 116 -361 342 -182 182 -335 341 -342 352 -30 51 -7 117 51 142 36 16 81 10 149 -19z" stroke="white" stroke-width="20" fill="none" stroke-dashoffset="8717.40234375" stroke-dasharray="8717.40234375 8717.40234375" class="diabolik-d"></path>
        <path d="M2278 3462 c-54 -37 -136 -91 -182 -121 -123 -78 -130 -115 -44 -228
		50 -65 165 -244 283 -438 44 -71 180 -280 303 -464 123 -183 253 -383 289
		-445 74 -124 134 -216 158 -240 21 -21 77 -20 118 0 17 10 70 45 117 79 47 34
		108 74 135 90 75 42 95 63 95 102 0 43 -9 59 -83 156 -32 44 -92 135 -133 203
		-40 68 -109 172 -152 231 -44 60 -129 187 -189 283 -61 96 -171 268 -247 383
		-75 114 -163 256 -196 315 -68 120 -107 162 -148 161 -16 0 -66 -27 -124 -67z" stroke="white" stroke-width="20" fill="none" stroke-dashoffset="5211.5146484375" stroke-dasharray="5211.5146484375 5211.5146484375" class="diabolik-i"></path>
        <path d="M3955 4214 c-28 -6 -98 -32 -158 -57 -59 -26 -163 -64 -230 -86 -160
		-51 -214 -77 -232 -112 -21 -40 -19 -165 5 -274 19 -89 60 -293 99 -495 30
		-156 86 -424 125 -600 19 -85 56 -263 81 -395 26 -132 52 -251 58 -265 7 -14
		25 -31 41 -38 26 -13 36 -11 115 18 47 18 139 51 204 75 64 23 126 50 137 60
		28 25 26 71 -10 195 -16 58 -30 115 -30 127 0 30 30 48 157 95 133 49 133 49
		209 -108 80 -163 90 -166 254 -94 47 21 124 50 171 66 107 34 119 42 130 93
		13 58 -9 114 -101 256 -124 192 -129 201 -230 395 -53 102 -156 279 -229 393
		-73 114 -167 272 -208 350 -83 154 -207 351 -242 384 -30 28 -57 32 -116 17z
		m-32 -702 c21 -23 103 -169 183 -325 54 -107 65 -136 62 -170 -2 -34 -9 -45
		-37 -64 -20 -14 -49 -23 -72 -23 -63 0 -74 25 -128 270 -22 101 -51 276 -51
		310 0 25 22 26 43 2z" stroke="white" stroke-width="20" fill="none" stroke-dashoffset="8382.1787109375" stroke-dasharray="8382.1787109375 8382.1787109375" class="diabolik-a"></path>
        <path d="M5841 4640 c-25 -5 -126 -17 -225 -25 -99 -9 -183 -18 -186 -20 -4
		-2 -61 -9 -128 -14 -227 -18 -246 -49 -202 -318 11 -67 24 -194 30 -282 6 -89
		19 -221 29 -293 11 -73 22 -178 26 -233 8 -124 39 -403 65 -592 11 -79 20
		-179 20 -223 0 -103 19 -152 68 -176 33 -16 43 -16 156 0 67 9 231 27 366 41
		304 32 374 45 461 91 86 45 196 145 231 210 39 71 81 245 81 329 -2 225 -103
		423 -267 519 l-66 38 55 61 c99 109 131 209 120 370 -8 109 -49 246 -101 335
		-32 54 -143 146 -203 168 -54 19 -263 28 -330 14z m45 -473 c78 -85 63 -227
		-29 -270 -40 -19 -118 -22 -149 -6 -30 16 -57 88 -64 171 -6 65 -4 76 16 100
		27 35 70 48 139 44 48 -3 58 -7 87 -39z m27 -798 c60 -16 105 -63 123 -127 44
		-149 -37 -271 -173 -260 -76 7 -99 32 -112 123 -18 123 -17 199 2 228 26 41
		92 55 160 36z" stroke="white" stroke-width="20" fill="none" stroke-dashoffset="8791.169921875" stroke-dasharray="8791.169921875 8791.169921875" class="diabolik-b"></path>
        <path d="M7581 4609 c-68 -12 -217 -89 -280 -145 -139 -125 -207 -319 -272
		-774 -16 -113 -36 -241 -44 -285 -52 -279 -26 -553 65 -694 76 -117 219 -208
		407 -258 79 -21 122 -26 223 -27 200 -1 293 32 413 144 82 77 114 133 178 312
		52 144 71 226 114 473 50 290 65 419 65 561 0 244 -39 353 -175 483 -137 132
		-201 163 -395 194 -130 21 -235 27 -299 16z m259 -548 c14 -10 33 -33 43 -52
		28 -52 18 -170 -48 -554 -12 -70 -40 -208 -75 -382 -6 -28 -21 -64 -32 -79
		-61 -77 -179 -60 -214 31 -22 59 -16 137 30 387 20 103 45 254 56 335 11 82
		25 166 31 188 34 131 124 185 209 126z" stroke="white" stroke-width="20" fill="none" stroke-dashoffset="8605.8642578125" stroke-dasharray="8605.8642578125 8605.8642578125" class="diabolik-o"></path>
        <path d="M9314 4210 c-33 -13 -59 -52 -94 -142 -19 -46 -62 -148 -98 -228 -76
		-170 -155 -357 -223 -528 -27 -67 -69 -159 -93 -205 -25 -45 -79 -168 -120
		-273 -41 -106 -86 -214 -99 -240 -14 -27 -43 -93 -66 -146 -39 -90 -41 -101
		-31 -138 12 -44 36 -61 158 -106 92 -35 578 -242 634 -270 57 -29 118 -31 141
		-6 17 19 83 157 129 272 58 145 41 189 -90 235 -113 40 -205 91 -225 124 -20
		34 -21 92 -3 141 41 107 119 295 151 365 20 44 50 114 65 155 15 41 44 111 65
		155 20 44 56 130 79 190 24 61 76 174 115 252 39 79 71 154 71 169 0 38 -46
		75 -136 108 -43 16 -119 48 -169 72 -104 49 -132 57 -161 44z" stroke="white" stroke-width="20" fill="none" stroke-dashoffset="6068.08447265625" stroke-dasharray="6068.08447265625 6068.08447265625" class="diabolik-l"></path>
        <path d="M10727 3510 c-14 -11 -43 -53 -65 -93 -22 -39 -90 -146 -152 -237
		-199 -295 -359 -540 -451 -691 -85 -140 -135 -215 -337 -515 -45 -66 -84 -133
		-87 -150 -10 -49 22 -83 146 -157 63 -37 139 -85 169 -107 108 -77 141 -64
		227 92 29 52 88 145 133 207 44 63 110 166 146 230 37 64 126 204 198 313 72
		108 187 283 256 389 69 107 156 236 194 287 104 141 115 197 45 236 -19 11
		-102 63 -185 118 -162 105 -190 115 -237 78z" stroke="white" stroke-width="20" fill="none" stroke-dashoffset="5211.36328125" stroke-dasharray="5211.36328125 5211.36328125" class="diabolik-i2"></path>
        <path d="M11640 2688 c-47 -50 -175 -184 -285 -298 -110 -113 -297 -309 -417
		-435 -119 -127 -309 -323 -422 -438 -253 -255 -247 -237 -118 -353 48 -43 112
		-105 142 -136 70 -72 118 -108 146 -108 30 0 72 37 146 129 80 99 338 361 356
		361 9 0 11 -7 7 -22 -12 -40 -98 -227 -196 -427 -106 -217 -113 -236 -96 -267
		7 -12 87 -94 179 -183 148 -142 172 -161 201 -161 54 0 77 32 131 182 34 95
		170 413 253 592 25 54 64 149 87 210 22 62 48 122 56 134 16 23 230 110 390
		158 115 35 361 128 437 165 99 49 96 87 -10 180 -40 34 -118 109 -173 167
		-119 123 -89 120 -309 28 -231 -97 -365 -148 -378 -143 -12 4 132 159 275 297
		114 109 117 100 -91 298 -137 131 -175 162 -198 162 -23 0 -44 -17 -113 -92z" stroke="white" stroke-width="20" fill="none" stroke-dashoffset="9083.619140625" stroke-dasharray="9083.619140625 9083.619140625" class="diabolik-k"></path>
    </g>
</svg>